<?xml version="1.0" encoding="UTF-8"?>
<svg id="Layer_2" data-name="Layer 2" xmlns="http://www.w3.org/2000/svg" xmlns:xlink="http://www.w3.org/1999/xlink" viewBox="0 0 229.01 340.29">
  <defs>
    <style>
      .cls-1 {
        fill: none;
      }

      .cls-2 {
        clip-path: url(#clippath-1);
      }

      .cls-3 {
        fill: #00b8b9;
      }

      .cls-4 {
        clip-path: url(#clippath);
      }
    </style>
    <clipPath id="clippath">
      <path class="cls-1" d="M17.66,18.78c5.27,4.87-.86,16.13-1.01,23.3-.11,5.35,18.62,10.11,26.71,17.43,29.92,27.06,41.85,5.2,45.06,10.55,2.48,4.14,1.88-1.61,2.03,4.28.18,7.49-4.46,22.15-2.02,36.69,2.2,13.08,11.05,30.86,24.81,40.84,13.76,9.98,32.42,12.16,40.2,6.29,18.96-14.29,31.08-8.76,33.73-5.59,7.09,8.5,19.26,9.8,26.03,16.57,8.93,8.93-7.59,15.18-25.27,25.51-7.65,4.47-17.19,11.24-21.13,15.1-8.84,8.63-7.88,15.3-9,37.9-.21,4.3,1.41,8.73,1.15,12.27-1.76,23.16,10.07,31.15,12.97,29.77,6.13-2.91,9.98,7.77,17.89,7.88,18.1.26,26.11-2.01,29.38,18.62l.58-297.76H17.28s.38.36.38.36Z"/>
    </clipPath>
    <clipPath id="clippath-1">
      <rect class="cls-1" x="0" width="229.01" height="340.29"/>
    </clipPath>
  </defs>
  <g id="_背景" data-name="背景">
    <g class="cls-4">
      <g class="cls-2">
        <g>
          <circle class="cls-3" cx="220.9" cy="338.08" r="2.22"/>
          <circle class="cls-3" cx="209.11" cy="338.08" r="2.22"/>
          <circle class="cls-3" cx="197.32" cy="338.08" r="2.22"/>
          <circle class="cls-3" cx="185.53" cy="338.08" r="2.22"/>
          <circle class="cls-3" cx="173.74" cy="338.08" r="2.22"/>
          <circle class="cls-3" cx="161.95" cy="338.08" r="2.22"/>
          <circle class="cls-3" cx="150.16" cy="338.08" r="2.22"/>
          <circle class="cls-3" cx="138.38" cy="338.08" r="2.22"/>
          <circle class="cls-3" cx="126.59" cy="338.08" r="2.22"/>
          <circle class="cls-3" cx="114.8" cy="338.08" r="2.22"/>
          <circle class="cls-3" cx="103.01" cy="338.08" r="2.22"/>
          <circle class="cls-3" cx="91.22" cy="338.08" r="2.22"/>
          <circle class="cls-3" cx="79.43" cy="338.08" r="2.22"/>
          <circle class="cls-3" cx="67.64" cy="338.08" r="2.22"/>
          <circle class="cls-3" cx="55.85" cy="338.08" r="2.22"/>
          <circle class="cls-3" cx="44.06" cy="338.08" r="2.22"/>
          <circle class="cls-3" cx="32.27" cy="338.08" r="2.22"/>
          <circle class="cls-3" cx="20.48" cy="338.08" r="2.22"/>
          <circle class="cls-3" cx="8.69" cy="338.08" r="2.22"/>
          <circle class="cls-3" cx="226.8" cy="326.67" r="2.22"/>
          <circle class="cls-3" cx="215.01" cy="326.67" r="2.22"/>
          <circle class="cls-3" cx="203.22" cy="326.67" r="2.22"/>
          <circle class="cls-3" cx="191.43" cy="326.67" r="2.22"/>
          <circle class="cls-3" cx="179.64" cy="326.67" r="2.22"/>
          <circle class="cls-3" cx="167.85" cy="326.67" r="2.22"/>
          <circle class="cls-3" cx="156.06" cy="326.67" r="2.22"/>
          <circle class="cls-3" cx="144.27" cy="326.67" r="2.22"/>
          <circle class="cls-3" cx="132.48" cy="326.67" r="2.22"/>
          <circle class="cls-3" cx="120.69" cy="326.67" r="2.22"/>
          <circle class="cls-3" cx="108.9" cy="326.67" r="2.22"/>
          <circle class="cls-3" cx="97.11" cy="326.67" r="2.22"/>
          <circle class="cls-3" cx="85.32" cy="326.67" r="2.22"/>
          <circle class="cls-3" cx="73.53" cy="326.67" r="2.22"/>
          <circle class="cls-3" cx="61.74" cy="326.67" r="2.22"/>
          <circle class="cls-3" cx="49.95" cy="326.67" r="2.22"/>
          <circle class="cls-3" cx="38.16" cy="326.67" r="2.22"/>
          <circle class="cls-3" cx="26.37" cy="326.67" r="2.22"/>
          <circle class="cls-3" cx="14.59" cy="326.67" r="2.22"/>
          <circle class="cls-3" cx="2.8" cy="326.67" r="2.22"/>
          <circle class="cls-3" cx="220.9" cy="315.26" r="2.22"/>
          <circle class="cls-3" cx="209.11" cy="315.26" r="2.22"/>
          <circle class="cls-3" cx="197.32" cy="315.26" r="2.22"/>
          <circle class="cls-3" cx="185.53" cy="315.26" r="2.22"/>
          <circle class="cls-3" cx="173.74" cy="315.26" r="2.22"/>
          <circle class="cls-3" cx="161.95" cy="315.26" r="2.22"/>
          <circle class="cls-3" cx="150.16" cy="315.26" r="2.22"/>
          <circle class="cls-3" cx="138.38" cy="315.26" r="2.22"/>
          <circle class="cls-3" cx="126.59" cy="315.26" r="2.22"/>
          <circle class="cls-3" cx="114.8" cy="315.26" r="2.22"/>
          <circle class="cls-3" cx="103.01" cy="315.26" r="2.22"/>
          <circle class="cls-3" cx="91.22" cy="315.26" r="2.22"/>
          <circle class="cls-3" cx="79.43" cy="315.26" r="2.22"/>
          <circle class="cls-3" cx="67.64" cy="315.26" r="2.22"/>
          <circle class="cls-3" cx="55.85" cy="315.26" r="2.22"/>
          <circle class="cls-3" cx="44.06" cy="315.26" r="2.22"/>
          <circle class="cls-3" cx="32.27" cy="315.26" r="2.22"/>
          <circle class="cls-3" cx="20.48" cy="315.26" r="2.22"/>
          <circle class="cls-3" cx="8.69" cy="315.26" r="2.22"/>
          <circle class="cls-3" cx="226.8" cy="303.85" r="2.22"/>
          <circle class="cls-3" cx="215.01" cy="303.85" r="2.22"/>
          <circle class="cls-3" cx="203.22" cy="303.85" r="2.22"/>
          <circle class="cls-3" cx="191.43" cy="303.85" r="2.22"/>
          <circle class="cls-3" cx="179.64" cy="303.85" r="2.22"/>
          <circle class="cls-3" cx="167.85" cy="303.85" r="2.22"/>
          <circle class="cls-3" cx="156.06" cy="303.85" r="2.22"/>
          <circle class="cls-3" cx="144.27" cy="303.85" r="2.22"/>
          <circle class="cls-3" cx="132.48" cy="303.85" r="2.22"/>
          <circle class="cls-3" cx="120.69" cy="303.85" r="2.22"/>
          <circle class="cls-3" cx="108.9" cy="303.85" r="2.22"/>
          <circle class="cls-3" cx="97.11" cy="303.85" r="2.22"/>
          <circle class="cls-3" cx="85.32" cy="303.85" r="2.22"/>
          <circle class="cls-3" cx="73.53" cy="303.85" r="2.22"/>
          <circle class="cls-3" cx="61.74" cy="303.85" r="2.22"/>
          <circle class="cls-3" cx="49.95" cy="303.85" r="2.22"/>
          <circle class="cls-3" cx="38.16" cy="303.85" r="2.22"/>
          <circle class="cls-3" cx="26.37" cy="303.85" r="2.22"/>
          <circle class="cls-3" cx="14.59" cy="303.85" r="2.22"/>
          <circle class="cls-3" cx="2.8" cy="303.85" r="2.22"/>
          <circle class="cls-3" cx="220.9" cy="292.45" r="2.22"/>
          <circle class="cls-3" cx="209.11" cy="292.45" r="2.22"/>
          <circle class="cls-3" cx="197.32" cy="292.45" r="2.22"/>
          <circle class="cls-3" cx="185.53" cy="292.45" r="2.22"/>
          <circle class="cls-3" cx="173.74" cy="292.45" r="2.22"/>
          <circle class="cls-3" cx="161.95" cy="292.45" r="2.22"/>
          <circle class="cls-3" cx="150.16" cy="292.45" r="2.22"/>
          <circle class="cls-3" cx="138.38" cy="292.45" r="2.22"/>
          <circle class="cls-3" cx="126.59" cy="292.45" r="2.22"/>
          <circle class="cls-3" cx="114.8" cy="292.45" r="2.22"/>
          <circle class="cls-3" cx="103.01" cy="292.45" r="2.22"/>
          <circle class="cls-3" cx="91.22" cy="292.45" r="2.22"/>
          <circle class="cls-3" cx="79.43" cy="292.45" r="2.22"/>
          <circle class="cls-3" cx="67.64" cy="292.45" r="2.22"/>
          <circle class="cls-3" cx="55.85" cy="292.45" r="2.22"/>
          <circle class="cls-3" cx="44.06" cy="292.45" r="2.22"/>
          <circle class="cls-3" cx="32.27" cy="292.45" r="2.22"/>
          <circle class="cls-3" cx="20.48" cy="292.45" r="2.22"/>
          <circle class="cls-3" cx="8.69" cy="292.45" r="2.22"/>
          <circle class="cls-3" cx="226.8" cy="281.04" r="2.22"/>
          <circle class="cls-3" cx="215.01" cy="281.04" r="2.22"/>
          <circle class="cls-3" cx="203.22" cy="281.04" r="2.22"/>
          <circle class="cls-3" cx="191.43" cy="281.04" r="2.22"/>
          <circle class="cls-3" cx="179.64" cy="281.04" r="2.22"/>
          <circle class="cls-3" cx="167.85" cy="281.04" r="2.22"/>
          <circle class="cls-3" cx="156.06" cy="281.04" r="2.22"/>
          <circle class="cls-3" cx="144.27" cy="281.04" r="2.22"/>
          <circle class="cls-3" cx="132.48" cy="281.04" r="2.22"/>
          <circle class="cls-3" cx="120.69" cy="281.04" r="2.22"/>
          <circle class="cls-3" cx="108.9" cy="281.04" r="2.22"/>
          <circle class="cls-3" cx="97.11" cy="281.04" r="2.22"/>
          <circle class="cls-3" cx="85.32" cy="281.04" r="2.22"/>
          <circle class="cls-3" cx="73.53" cy="281.04" r="2.22"/>
          <circle class="cls-3" cx="61.74" cy="281.04" r="2.22"/>
          <circle class="cls-3" cx="49.95" cy="281.04" r="2.22"/>
          <circle class="cls-3" cx="38.16" cy="281.04" r="2.22"/>
          <circle class="cls-3" cx="26.37" cy="281.04" r="2.22"/>
          <circle class="cls-3" cx="14.59" cy="281.04" r="2.22"/>
          <circle class="cls-3" cx="2.8" cy="281.04" r="2.22"/>
          <circle class="cls-3" cx="220.9" cy="269.63" r="2.22"/>
          <circle class="cls-3" cx="209.11" cy="269.63" r="2.22"/>
          <circle class="cls-3" cx="197.32" cy="269.63" r="2.22"/>
          <circle class="cls-3" cx="185.53" cy="269.63" r="2.22"/>
          <circle class="cls-3" cx="173.74" cy="269.63" r="2.22"/>
          <circle class="cls-3" cx="161.95" cy="269.63" r="2.22"/>
          <circle class="cls-3" cx="150.16" cy="269.63" r="2.22"/>
          <circle class="cls-3" cx="138.38" cy="269.63" r="2.22"/>
          <circle class="cls-3" cx="126.59" cy="269.63" r="2.22"/>
          <circle class="cls-3" cx="114.8" cy="269.63" r="2.22"/>
          <circle class="cls-3" cx="103.01" cy="269.63" r="2.22"/>
          <circle class="cls-3" cx="91.22" cy="269.63" r="2.22"/>
          <circle class="cls-3" cx="79.43" cy="269.63" r="2.22"/>
          <circle class="cls-3" cx="67.64" cy="269.63" r="2.22"/>
          <circle class="cls-3" cx="55.85" cy="269.63" r="2.22"/>
          <circle class="cls-3" cx="44.06" cy="269.63" r="2.22"/>
          <circle class="cls-3" cx="32.27" cy="269.63" r="2.22"/>
          <circle class="cls-3" cx="20.48" cy="269.63" r="2.22"/>
          <circle class="cls-3" cx="8.69" cy="269.63" r="2.22"/>
          <circle class="cls-3" cx="226.8" cy="258.23" r="2.22"/>
          <circle class="cls-3" cx="215.01" cy="258.23" r="2.22"/>
          <circle class="cls-3" cx="203.22" cy="258.23" r="2.22"/>
          <circle class="cls-3" cx="191.43" cy="258.23" r="2.22"/>
          <circle class="cls-3" cx="179.64" cy="258.23" r="2.22"/>
          <circle class="cls-3" cx="167.85" cy="258.23" r="2.22"/>
          <circle class="cls-3" cx="156.06" cy="258.23" r="2.22"/>
          <circle class="cls-3" cx="144.27" cy="258.23" r="2.22"/>
          <circle class="cls-3" cx="132.48" cy="258.23" r="2.22"/>
          <circle class="cls-3" cx="120.69" cy="258.23" r="2.22"/>
          <circle class="cls-3" cx="108.9" cy="258.23" r="2.22"/>
          <circle class="cls-3" cx="97.11" cy="258.23" r="2.22"/>
          <circle class="cls-3" cx="85.32" cy="258.23" r="2.22"/>
          <circle class="cls-3" cx="73.53" cy="258.23" r="2.22"/>
          <circle class="cls-3" cx="61.74" cy="258.23" r="2.22"/>
          <circle class="cls-3" cx="49.95" cy="258.23" r="2.22"/>
          <circle class="cls-3" cx="38.16" cy="258.23" r="2.22"/>
          <circle class="cls-3" cx="26.37" cy="258.23" r="2.22"/>
          <circle class="cls-3" cx="14.59" cy="258.23" r="2.22"/>
          <circle class="cls-3" cx="2.8" cy="258.23" r="2.22"/>
          <circle class="cls-3" cx="220.9" cy="246.82" r="2.22"/>
          <circle class="cls-3" cx="209.11" cy="246.82" r="2.22"/>
          <circle class="cls-3" cx="197.32" cy="246.82" r="2.22"/>
          <circle class="cls-3" cx="185.53" cy="246.82" r="2.22"/>
          <circle class="cls-3" cx="173.74" cy="246.82" r="2.22"/>
          <circle class="cls-3" cx="161.95" cy="246.82" r="2.22"/>
          <circle class="cls-3" cx="150.16" cy="246.82" r="2.22"/>
          <circle class="cls-3" cx="138.38" cy="246.82" r="2.22"/>
          <circle class="cls-3" cx="126.59" cy="246.82" r="2.22"/>
          <circle class="cls-3" cx="114.8" cy="246.82" r="2.22"/>
          <circle class="cls-3" cx="103.01" cy="246.82" r="2.22"/>
          <circle class="cls-3" cx="91.22" cy="246.82" r="2.22"/>
          <circle class="cls-3" cx="79.43" cy="246.82" r="2.22"/>
          <circle class="cls-3" cx="67.64" cy="246.82" r="2.22"/>
          <circle class="cls-3" cx="55.85" cy="246.82" r="2.22"/>
          <circle class="cls-3" cx="44.06" cy="246.82" r="2.22"/>
          <circle class="cls-3" cx="32.27" cy="246.82" r="2.22"/>
          <circle class="cls-3" cx="20.48" cy="246.82" r="2.22"/>
          <circle class="cls-3" cx="8.69" cy="246.82" r="2.22"/>
          <circle class="cls-3" cx="226.8" cy="235.41" r="2.22"/>
          <circle class="cls-3" cx="215.01" cy="235.41" r="2.22"/>
          <circle class="cls-3" cx="203.22" cy="235.41" r="2.22"/>
          <circle class="cls-3" cx="191.43" cy="235.41" r="2.22"/>
          <circle class="cls-3" cx="179.64" cy="235.41" r="2.22"/>
          <circle class="cls-3" cx="167.85" cy="235.41" r="2.22"/>
          <circle class="cls-3" cx="156.06" cy="235.41" r="2.22"/>
          <circle class="cls-3" cx="144.27" cy="235.41" r="2.22"/>
          <circle class="cls-3" cx="132.48" cy="235.41" r="2.22"/>
          <circle class="cls-3" cx="120.69" cy="235.41" r="2.22"/>
          <circle class="cls-3" cx="108.9" cy="235.41" r="2.22"/>
          <circle class="cls-3" cx="97.11" cy="235.41" r="2.22"/>
          <circle class="cls-3" cx="85.32" cy="235.41" r="2.22"/>
          <circle class="cls-3" cx="73.53" cy="235.41" r="2.22"/>
          <circle class="cls-3" cx="61.74" cy="235.41" r="2.22"/>
          <circle class="cls-3" cx="49.95" cy="235.41" r="2.22"/>
          <circle class="cls-3" cx="38.16" cy="235.41" r="2.22"/>
          <circle class="cls-3" cx="26.37" cy="235.41" r="2.22"/>
          <circle class="cls-3" cx="14.59" cy="235.41" r="2.22"/>
          <circle class="cls-3" cx="2.8" cy="235.41" r="2.22"/>
          <circle class="cls-3" cx="220.9" cy="224.01" r="2.22"/>
          <circle class="cls-3" cx="209.11" cy="224.01" r="2.22"/>
          <circle class="cls-3" cx="197.32" cy="224.01" r="2.22"/>
          <circle class="cls-3" cx="185.53" cy="224.01" r="2.22"/>
          <circle class="cls-3" cx="173.74" cy="224.01" r="2.22"/>
          <circle class="cls-3" cx="161.95" cy="224.01" r="2.22"/>
          <circle class="cls-3" cx="150.16" cy="224.01" r="2.22"/>
          <circle class="cls-3" cx="138.38" cy="224.01" r="2.22"/>
          <circle class="cls-3" cx="126.59" cy="224.01" r="2.22"/>
          <circle class="cls-3" cx="114.8" cy="224.01" r="2.22"/>
          <circle class="cls-3" cx="103.01" cy="224.01" r="2.22"/>
          <circle class="cls-3" cx="91.22" cy="224.01" r="2.22"/>
          <circle class="cls-3" cx="79.43" cy="224.01" r="2.22"/>
          <circle class="cls-3" cx="67.64" cy="224.01" r="2.22"/>
          <circle class="cls-3" cx="55.85" cy="224.01" r="2.22"/>
          <circle class="cls-3" cx="44.06" cy="224.01" r="2.22"/>
          <circle class="cls-3" cx="32.27" cy="224.01" r="2.22"/>
          <circle class="cls-3" cx="20.48" cy="224.01" r="2.22"/>
          <circle class="cls-3" cx="8.69" cy="224.01" r="2.22"/>
          <circle class="cls-3" cx="226.8" cy="212.6" r="2.22"/>
          <circle class="cls-3" cx="215.01" cy="212.6" r="2.22"/>
          <circle class="cls-3" cx="203.22" cy="212.6" r="2.22"/>
          <circle class="cls-3" cx="191.43" cy="212.6" r="2.22"/>
          <circle class="cls-3" cx="179.64" cy="212.6" r="2.22"/>
          <circle class="cls-3" cx="167.85" cy="212.6" r="2.22"/>
          <circle class="cls-3" cx="156.06" cy="212.6" r="2.22"/>
          <circle class="cls-3" cx="144.27" cy="212.6" r="2.22"/>
          <circle class="cls-3" cx="132.48" cy="212.6" r="2.22"/>
          <circle class="cls-3" cx="120.69" cy="212.6" r="2.22"/>
          <circle class="cls-3" cx="108.9" cy="212.6" r="2.22"/>
          <circle class="cls-3" cx="97.11" cy="212.6" r="2.22"/>
          <circle class="cls-3" cx="85.32" cy="212.6" r="2.22"/>
          <circle class="cls-3" cx="73.53" cy="212.6" r="2.22"/>
          <circle class="cls-3" cx="61.74" cy="212.6" r="2.22"/>
          <circle class="cls-3" cx="49.95" cy="212.6" r="2.22"/>
          <circle class="cls-3" cx="38.16" cy="212.6" r="2.22"/>
          <circle class="cls-3" cx="26.37" cy="212.6" r="2.22"/>
          <circle class="cls-3" cx="14.59" cy="212.6" r="2.22"/>
          <circle class="cls-3" cx="2.8" cy="212.6" r="2.22"/>
          <circle class="cls-3" cx="220.9" cy="201.19" r="2.22"/>
          <circle class="cls-3" cx="209.11" cy="201.19" r="2.22"/>
          <circle class="cls-3" cx="197.32" cy="201.19" r="2.22"/>
          <circle class="cls-3" cx="185.53" cy="201.19" r="2.22"/>
          <circle class="cls-3" cx="173.74" cy="201.19" r="2.22"/>
          <circle class="cls-3" cx="161.95" cy="201.19" r="2.22"/>
          <circle class="cls-3" cx="150.16" cy="201.19" r="2.22"/>
          <circle class="cls-3" cx="138.38" cy="201.19" r="2.22"/>
          <circle class="cls-3" cx="126.59" cy="201.19" r="2.22"/>
          <circle class="cls-3" cx="114.8" cy="201.19" r="2.22"/>
          <circle class="cls-3" cx="103.01" cy="201.19" r="2.22"/>
          <circle class="cls-3" cx="91.22" cy="201.19" r="2.22"/>
          <circle class="cls-3" cx="79.43" cy="201.19" r="2.22"/>
          <circle class="cls-3" cx="67.64" cy="201.19" r="2.22"/>
          <circle class="cls-3" cx="55.85" cy="201.19" r="2.22"/>
          <circle class="cls-3" cx="44.06" cy="201.19" r="2.22"/>
          <circle class="cls-3" cx="32.27" cy="201.19" r="2.22"/>
          <circle class="cls-3" cx="20.48" cy="201.19" r="2.22"/>
          <circle class="cls-3" cx="8.69" cy="201.19" r="2.22"/>
          <circle class="cls-3" cx="226.8" cy="189.79" r="2.22"/>
          <circle class="cls-3" cx="215.01" cy="189.79" r="2.22"/>
          <circle class="cls-3" cx="203.22" cy="189.79" r="2.22"/>
          <circle class="cls-3" cx="191.43" cy="189.79" r="2.22"/>
          <circle class="cls-3" cx="179.64" cy="189.79" r="2.22"/>
          <circle class="cls-3" cx="167.85" cy="189.79" r="2.22"/>
          <circle class="cls-3" cx="156.06" cy="189.79" r="2.22"/>
          <circle class="cls-3" cx="144.27" cy="189.79" r="2.22"/>
          <circle class="cls-3" cx="132.48" cy="189.79" r="2.22"/>
          <circle class="cls-3" cx="120.69" cy="189.79" r="2.22"/>
          <circle class="cls-3" cx="108.9" cy="189.79" r="2.22"/>
          <circle class="cls-3" cx="97.11" cy="189.79" r="2.22"/>
          <circle class="cls-3" cx="85.32" cy="189.79" r="2.22"/>
          <circle class="cls-3" cx="73.53" cy="189.79" r="2.22"/>
          <circle class="cls-3" cx="61.74" cy="189.79" r="2.22"/>
          <circle class="cls-3" cx="49.95" cy="189.79" r="2.22"/>
          <circle class="cls-3" cx="38.16" cy="189.79" r="2.22"/>
          <circle class="cls-3" cx="26.37" cy="189.79" r="2.22"/>
          <circle class="cls-3" cx="14.59" cy="189.79" r="2.22"/>
          <circle class="cls-3" cx="2.8" cy="189.79" r="2.22"/>
          <circle class="cls-3" cx="220.9" cy="178.38" r="2.22"/>
          <circle class="cls-3" cx="209.11" cy="178.38" r="2.22"/>
          <circle class="cls-3" cx="197.32" cy="178.38" r="2.22"/>
          <circle class="cls-3" cx="185.53" cy="178.38" r="2.22"/>
          <circle class="cls-3" cx="173.74" cy="178.38" r="2.22"/>
          <circle class="cls-3" cx="161.95" cy="178.38" r="2.22"/>
          <circle class="cls-3" cx="150.16" cy="178.38" r="2.22"/>
          <circle class="cls-3" cx="138.38" cy="178.38" r="2.22"/>
          <circle class="cls-3" cx="126.59" cy="178.38" r="2.22"/>
          <circle class="cls-3" cx="114.8" cy="178.38" r="2.22"/>
          <circle class="cls-3" cx="103.01" cy="178.38" r="2.22"/>
          <circle class="cls-3" cx="91.22" cy="178.38" r="2.22"/>
          <circle class="cls-3" cx="79.43" cy="178.38" r="2.22"/>
          <circle class="cls-3" cx="67.64" cy="178.38" r="2.22"/>
          <circle class="cls-3" cx="55.85" cy="178.38" r="2.22"/>
          <circle class="cls-3" cx="44.06" cy="178.38" r="2.22"/>
          <circle class="cls-3" cx="32.27" cy="178.38" r="2.22"/>
          <circle class="cls-3" cx="20.48" cy="178.38" r="2.22"/>
          <circle class="cls-3" cx="8.69" cy="178.38" r="2.22"/>
          <circle class="cls-3" cx="226.8" cy="166.97" r="2.22"/>
          <circle class="cls-3" cx="215.01" cy="166.97" r="2.22"/>
          <circle class="cls-3" cx="203.22" cy="166.97" r="2.22"/>
          <circle class="cls-3" cx="191.43" cy="166.97" r="2.22"/>
          <circle class="cls-3" cx="179.64" cy="166.97" r="2.22"/>
          <circle class="cls-3" cx="167.85" cy="166.97" r="2.22"/>
          <circle class="cls-3" cx="156.06" cy="166.97" r="2.22"/>
          <circle class="cls-3" cx="144.27" cy="166.97" r="2.22"/>
          <circle class="cls-3" cx="132.48" cy="166.97" r="2.22"/>
          <circle class="cls-3" cx="120.69" cy="166.97" r="2.22"/>
          <circle class="cls-3" cx="108.9" cy="166.97" r="2.22"/>
          <circle class="cls-3" cx="97.11" cy="166.97" r="2.22"/>
          <circle class="cls-3" cx="85.32" cy="166.97" r="2.22"/>
          <circle class="cls-3" cx="73.53" cy="166.97" r="2.22"/>
          <circle class="cls-3" cx="61.74" cy="166.97" r="2.22"/>
          <circle class="cls-3" cx="49.95" cy="166.97" r="2.22"/>
          <circle class="cls-3" cx="38.16" cy="166.97" r="2.22"/>
          <circle class="cls-3" cx="26.37" cy="166.97" r="2.22"/>
          <circle class="cls-3" cx="14.59" cy="166.97" r="2.22"/>
          <circle class="cls-3" cx="2.8" cy="166.97" r="2.22"/>
          <circle class="cls-3" cx="220.9" cy="155.56" r="2.22"/>
          <circle class="cls-3" cx="209.11" cy="155.56" r="2.22"/>
          <circle class="cls-3" cx="197.32" cy="155.56" r="2.22"/>
          <circle class="cls-3" cx="185.53" cy="155.56" r="2.22"/>
          <circle class="cls-3" cx="173.74" cy="155.56" r="2.22"/>
          <circle class="cls-3" cx="161.95" cy="155.56" r="2.22"/>
          <circle class="cls-3" cx="150.16" cy="155.56" r="2.22"/>
          <circle class="cls-3" cx="138.38" cy="155.56" r="2.22"/>
          <circle class="cls-3" cx="126.59" cy="155.56" r="2.22"/>
          <circle class="cls-3" cx="114.8" cy="155.56" r="2.22"/>
          <circle class="cls-3" cx="103.01" cy="155.56" r="2.22"/>
          <circle class="cls-3" cx="91.22" cy="155.56" r="2.22"/>
          <circle class="cls-3" cx="79.43" cy="155.56" r="2.22"/>
          <circle class="cls-3" cx="67.64" cy="155.56" r="2.22"/>
          <circle class="cls-3" cx="55.85" cy="155.56" r="2.22"/>
          <circle class="cls-3" cx="44.06" cy="155.56" r="2.22"/>
          <circle class="cls-3" cx="32.27" cy="155.56" r="2.22"/>
          <circle class="cls-3" cx="20.48" cy="155.56" r="2.22"/>
          <circle class="cls-3" cx="8.69" cy="155.56" r="2.22"/>
          <circle class="cls-3" cx="226.8" cy="144.16" r="2.22"/>
          <circle class="cls-3" cx="215.01" cy="144.16" r="2.22"/>
          <circle class="cls-3" cx="203.22" cy="144.16" r="2.22"/>
          <circle class="cls-3" cx="191.43" cy="144.16" r="2.22"/>
          <circle class="cls-3" cx="179.64" cy="144.16" r="2.22"/>
          <circle class="cls-3" cx="167.85" cy="144.16" r="2.22"/>
          <circle class="cls-3" cx="156.06" cy="144.16" r="2.22"/>
          <circle class="cls-3" cx="144.27" cy="144.16" r="2.22"/>
          <circle class="cls-3" cx="132.48" cy="144.16" r="2.22"/>
          <circle class="cls-3" cx="120.69" cy="144.16" r="2.22"/>
          <circle class="cls-3" cx="108.9" cy="144.16" r="2.22"/>
          <circle class="cls-3" cx="97.11" cy="144.16" r="2.22"/>
          <circle class="cls-3" cx="85.32" cy="144.16" r="2.22"/>
          <circle class="cls-3" cx="73.53" cy="144.16" r="2.22"/>
          <circle class="cls-3" cx="61.74" cy="144.16" r="2.22"/>
          <circle class="cls-3" cx="49.95" cy="144.16" r="2.22"/>
          <circle class="cls-3" cx="38.16" cy="144.16" r="2.22"/>
          <circle class="cls-3" cx="26.37" cy="144.16" r="2.22"/>
          <circle class="cls-3" cx="14.59" cy="144.16" r="2.22"/>
          <circle class="cls-3" cx="2.8" cy="144.16" r="2.22"/>
          <circle class="cls-3" cx="220.9" cy="132.75" r="2.22"/>
          <circle class="cls-3" cx="209.11" cy="132.75" r="2.22"/>
          <circle class="cls-3" cx="197.32" cy="132.75" r="2.22"/>
          <circle class="cls-3" cx="185.53" cy="132.75" r="2.22"/>
          <circle class="cls-3" cx="173.74" cy="132.75" r="2.22"/>
          <circle class="cls-3" cx="161.95" cy="132.75" r="2.22"/>
          <circle class="cls-3" cx="150.16" cy="132.75" r="2.22"/>
          <circle class="cls-3" cx="138.38" cy="132.75" r="2.22"/>
          <circle class="cls-3" cx="126.59" cy="132.75" r="2.22"/>
          <circle class="cls-3" cx="114.8" cy="132.75" r="2.22"/>
          <circle class="cls-3" cx="103.01" cy="132.75" r="2.22"/>
          <circle class="cls-3" cx="91.22" cy="132.75" r="2.22"/>
          <circle class="cls-3" cx="79.43" cy="132.75" r="2.22"/>
          <circle class="cls-3" cx="67.64" cy="132.75" r="2.22"/>
          <circle class="cls-3" cx="55.85" cy="132.75" r="2.22"/>
          <circle class="cls-3" cx="44.06" cy="132.75" r="2.22"/>
          <circle class="cls-3" cx="32.27" cy="132.75" r="2.22"/>
          <circle class="cls-3" cx="20.48" cy="132.75" r="2.22"/>
          <circle class="cls-3" cx="8.69" cy="132.75" r="2.22"/>
          <circle class="cls-3" cx="226.8" cy="121.34" r="2.22"/>
          <circle class="cls-3" cx="215.01" cy="121.34" r="2.22"/>
          <circle class="cls-3" cx="203.22" cy="121.34" r="2.22"/>
          <circle class="cls-3" cx="191.43" cy="121.34" r="2.22"/>
          <circle class="cls-3" cx="179.64" cy="121.34" r="2.22"/>
          <circle class="cls-3" cx="167.85" cy="121.34" r="2.22"/>
          <circle class="cls-3" cx="156.06" cy="121.34" r="2.22"/>
          <circle class="cls-3" cx="144.27" cy="121.34" r="2.22"/>
          <circle class="cls-3" cx="132.48" cy="121.34" r="2.22"/>
          <circle class="cls-3" cx="120.69" cy="121.34" r="2.22"/>
          <circle class="cls-3" cx="108.9" cy="121.34" r="2.22"/>
          <circle class="cls-3" cx="97.11" cy="121.34" r="2.22"/>
          <circle class="cls-3" cx="85.32" cy="121.34" r="2.22"/>
          <circle class="cls-3" cx="73.53" cy="121.34" r="2.22"/>
          <circle class="cls-3" cx="61.74" cy="121.34" r="2.22"/>
          <circle class="cls-3" cx="49.95" cy="121.34" r="2.22"/>
          <circle class="cls-3" cx="38.16" cy="121.34" r="2.22"/>
          <circle class="cls-3" cx="26.37" cy="121.34" r="2.22"/>
          <circle class="cls-3" cx="14.59" cy="121.34" r="2.22"/>
          <circle class="cls-3" cx="2.8" cy="121.34" r="2.22"/>
          <circle class="cls-3" cx="220.9" cy="109.94" r="2.22"/>
          <circle class="cls-3" cx="209.11" cy="109.94" r="2.22"/>
          <circle class="cls-3" cx="197.32" cy="109.94" r="2.22"/>
          <circle class="cls-3" cx="185.53" cy="109.94" r="2.22"/>
          <circle class="cls-3" cx="173.74" cy="109.94" r="2.22"/>
          <circle class="cls-3" cx="161.95" cy="109.94" r="2.22"/>
          <circle class="cls-3" cx="150.16" cy="109.94" r="2.22"/>
          <circle class="cls-3" cx="138.38" cy="109.94" r="2.22"/>
          <circle class="cls-3" cx="126.59" cy="109.94" r="2.22"/>
          <circle class="cls-3" cx="114.8" cy="109.94" r="2.22"/>
          <circle class="cls-3" cx="103.01" cy="109.94" r="2.22"/>
          <circle class="cls-3" cx="91.22" cy="109.94" r="2.22"/>
          <circle class="cls-3" cx="79.43" cy="109.94" r="2.22"/>
          <circle class="cls-3" cx="67.64" cy="109.94" r="2.22"/>
          <circle class="cls-3" cx="55.85" cy="109.94" r="2.22"/>
          <circle class="cls-3" cx="44.06" cy="109.94" r="2.22"/>
          <circle class="cls-3" cx="32.27" cy="109.94" r="2.22"/>
          <circle class="cls-3" cx="20.48" cy="109.94" r="2.22"/>
          <circle class="cls-3" cx="8.69" cy="109.94" r="2.22"/>
          <circle class="cls-3" cx="226.8" cy="98.53" r="2.22"/>
          <circle class="cls-3" cx="215.01" cy="98.53" r="2.22"/>
          <circle class="cls-3" cx="203.22" cy="98.53" r="2.22"/>
          <circle class="cls-3" cx="191.43" cy="98.53" r="2.22"/>
          <circle class="cls-3" cx="179.64" cy="98.53" r="2.22"/>
          <circle class="cls-3" cx="167.85" cy="98.53" r="2.22"/>
          <circle class="cls-3" cx="156.06" cy="98.53" r="2.22"/>
          <circle class="cls-3" cx="144.27" cy="98.53" r="2.22"/>
          <circle class="cls-3" cx="132.48" cy="98.53" r="2.22"/>
          <circle class="cls-3" cx="120.69" cy="98.53" r="2.22"/>
          <circle class="cls-3" cx="108.9" cy="98.53" r="2.22"/>
          <circle class="cls-3" cx="97.11" cy="98.53" r="2.22"/>
          <circle class="cls-3" cx="85.32" cy="98.53" r="2.22"/>
          <circle class="cls-3" cx="73.53" cy="98.53" r="2.22"/>
          <circle class="cls-3" cx="61.74" cy="98.53" r="2.22"/>
          <circle class="cls-3" cx="49.95" cy="98.53" r="2.22"/>
          <circle class="cls-3" cx="38.16" cy="98.53" r="2.22"/>
          <circle class="cls-3" cx="26.37" cy="98.53" r="2.22"/>
          <circle class="cls-3" cx="14.59" cy="98.53" r="2.22"/>
          <circle class="cls-3" cx="2.8" cy="98.53" r="2.22"/>
          <circle class="cls-3" cx="220.9" cy="87.12" r="2.22"/>
          <circle class="cls-3" cx="209.11" cy="87.12" r="2.22"/>
          <circle class="cls-3" cx="197.32" cy="87.12" r="2.22"/>
          <circle class="cls-3" cx="185.53" cy="87.12" r="2.22"/>
          <circle class="cls-3" cx="173.74" cy="87.12" r="2.22"/>
          <circle class="cls-3" cx="161.95" cy="87.12" r="2.22"/>
          <circle class="cls-3" cx="150.16" cy="87.12" r="2.22"/>
          <circle class="cls-3" cx="138.38" cy="87.12" r="2.22"/>
          <circle class="cls-3" cx="126.59" cy="87.12" r="2.22"/>
          <circle class="cls-3" cx="114.8" cy="87.12" r="2.22"/>
          <circle class="cls-3" cx="103.01" cy="87.12" r="2.22"/>
          <circle class="cls-3" cx="91.22" cy="87.12" r="2.22"/>
          <circle class="cls-3" cx="79.43" cy="87.12" r="2.22"/>
          <circle class="cls-3" cx="67.64" cy="87.12" r="2.22"/>
          <circle class="cls-3" cx="55.85" cy="87.12" r="2.22"/>
          <circle class="cls-3" cx="44.06" cy="87.12" r="2.22"/>
          <circle class="cls-3" cx="32.27" cy="87.12" r="2.22"/>
          <circle class="cls-3" cx="20.48" cy="87.12" r="2.22"/>
          <circle class="cls-3" cx="8.69" cy="87.12" r="2.22"/>
          <circle class="cls-3" cx="226.8" cy="75.72" r="2.22"/>
          <circle class="cls-3" cx="215.01" cy="75.72" r="2.22"/>
          <circle class="cls-3" cx="203.22" cy="75.72" r="2.22"/>
          <circle class="cls-3" cx="191.43" cy="75.72" r="2.22"/>
          <circle class="cls-3" cx="179.64" cy="75.72" r="2.22"/>
          <circle class="cls-3" cx="167.85" cy="75.72" r="2.22"/>
          <circle class="cls-3" cx="156.06" cy="75.72" r="2.22"/>
          <circle class="cls-3" cx="144.27" cy="75.72" r="2.22"/>
          <circle class="cls-3" cx="132.48" cy="75.72" r="2.22"/>
          <circle class="cls-3" cx="120.69" cy="75.72" r="2.22"/>
          <circle class="cls-3" cx="108.9" cy="75.72" r="2.22"/>
          <circle class="cls-3" cx="97.11" cy="75.72" r="2.22"/>
          <circle class="cls-3" cx="85.32" cy="75.72" r="2.22"/>
          <circle class="cls-3" cx="73.53" cy="75.72" r="2.22"/>
          <circle class="cls-3" cx="61.74" cy="75.72" r="2.22"/>
          <circle class="cls-3" cx="49.95" cy="75.72" r="2.22"/>
          <circle class="cls-3" cx="38.16" cy="75.72" r="2.22"/>
          <circle class="cls-3" cx="26.37" cy="75.72" r="2.22"/>
          <circle class="cls-3" cx="14.59" cy="75.72" r="2.22"/>
          <circle class="cls-3" cx="2.8" cy="75.72" r="2.22"/>
          <circle class="cls-3" cx="220.9" cy="64.31" r="2.22"/>
          <circle class="cls-3" cx="209.11" cy="64.31" r="2.22"/>
          <circle class="cls-3" cx="197.32" cy="64.31" r="2.22"/>
          <circle class="cls-3" cx="185.53" cy="64.31" r="2.22"/>
          <circle class="cls-3" cx="173.74" cy="64.31" r="2.22"/>
          <circle class="cls-3" cx="161.95" cy="64.31" r="2.22"/>
          <circle class="cls-3" cx="150.16" cy="64.31" r="2.22"/>
          <circle class="cls-3" cx="138.38" cy="64.31" r="2.22"/>
          <circle class="cls-3" cx="126.59" cy="64.31" r="2.22"/>
          <circle class="cls-3" cx="114.8" cy="64.31" r="2.22"/>
          <circle class="cls-3" cx="103.01" cy="64.31" r="2.22"/>
          <circle class="cls-3" cx="91.22" cy="64.31" r="2.22"/>
          <circle class="cls-3" cx="79.43" cy="64.31" r="2.22"/>
          <circle class="cls-3" cx="67.64" cy="64.31" r="2.22"/>
          <circle class="cls-3" cx="55.85" cy="64.31" r="2.22"/>
          <circle class="cls-3" cx="44.06" cy="64.31" r="2.22"/>
          <circle class="cls-3" cx="32.27" cy="64.31" r="2.22"/>
          <circle class="cls-3" cx="20.48" cy="64.31" r="2.22"/>
          <circle class="cls-3" cx="8.69" cy="64.31" r="2.22"/>
          <circle class="cls-3" cx="226.8" cy="52.9" r="2.22"/>
          <circle class="cls-3" cx="215.01" cy="52.9" r="2.22"/>
          <circle class="cls-3" cx="203.22" cy="52.9" r="2.22"/>
          <circle class="cls-3" cx="191.43" cy="52.9" r="2.22"/>
          <circle class="cls-3" cx="179.64" cy="52.9" r="2.22"/>
          <circle class="cls-3" cx="167.85" cy="52.9" r="2.22"/>
          <circle class="cls-3" cx="156.06" cy="52.9" r="2.22"/>
          <circle class="cls-3" cx="144.27" cy="52.9" r="2.22"/>
          <circle class="cls-3" cx="132.48" cy="52.9" r="2.22"/>
          <circle class="cls-3" cx="120.69" cy="52.9" r="2.22"/>
          <circle class="cls-3" cx="108.9" cy="52.9" r="2.22"/>
          <circle class="cls-3" cx="97.11" cy="52.9" r="2.22"/>
          <circle class="cls-3" cx="85.32" cy="52.9" r="2.22"/>
          <circle class="cls-3" cx="73.53" cy="52.9" r="2.22"/>
          <circle class="cls-3" cx="61.74" cy="52.9" r="2.22"/>
          <circle class="cls-3" cx="49.95" cy="52.9" r="2.22"/>
          <circle class="cls-3" cx="38.16" cy="52.9" r="2.22"/>
          <circle class="cls-3" cx="26.37" cy="52.9" r="2.22"/>
          <circle class="cls-3" cx="14.59" cy="52.9" r="2.22"/>
          <circle class="cls-3" cx="2.8" cy="52.9" r="2.22"/>
          <circle class="cls-3" cx="220.9" cy="41.5" r="2.22"/>
          <circle class="cls-3" cx="209.11" cy="41.5" r="2.22"/>
          <circle class="cls-3" cx="197.32" cy="41.5" r="2.22"/>
          <circle class="cls-3" cx="185.53" cy="41.5" r="2.22"/>
          <circle class="cls-3" cx="173.74" cy="41.5" r="2.22"/>
          <circle class="cls-3" cx="161.95" cy="41.5" r="2.22"/>
          <circle class="cls-3" cx="150.16" cy="41.5" r="2.22"/>
          <circle class="cls-3" cx="138.38" cy="41.5" r="2.22"/>
          <circle class="cls-3" cx="126.59" cy="41.5" r="2.22"/>
          <circle class="cls-3" cx="114.8" cy="41.5" r="2.22"/>
          <circle class="cls-3" cx="103.01" cy="41.5" r="2.22"/>
          <circle class="cls-3" cx="91.22" cy="41.5" r="2.22"/>
          <circle class="cls-3" cx="79.43" cy="41.5" r="2.22"/>
          <circle class="cls-3" cx="67.64" cy="41.5" r="2.22"/>
          <circle class="cls-3" cx="55.85" cy="41.5" r="2.22"/>
          <circle class="cls-3" cx="44.06" cy="41.5" r="2.22"/>
          <circle class="cls-3" cx="32.27" cy="41.5" r="2.22"/>
          <circle class="cls-3" cx="20.48" cy="41.5" r="2.22"/>
          <circle class="cls-3" cx="8.69" cy="41.5" r="2.22"/>
          <circle class="cls-3" cx="226.8" cy="30.09" r="2.22"/>
          <circle class="cls-3" cx="215.01" cy="30.09" r="2.22"/>
          <circle class="cls-3" cx="203.22" cy="30.09" r="2.22"/>
          <circle class="cls-3" cx="191.43" cy="30.09" r="2.22"/>
          <circle class="cls-3" cx="179.64" cy="30.09" r="2.22"/>
          <circle class="cls-3" cx="167.85" cy="30.09" r="2.22"/>
          <circle class="cls-3" cx="156.06" cy="30.09" r="2.22"/>
          <circle class="cls-3" cx="144.27" cy="30.09" r="2.22"/>
          <circle class="cls-3" cx="132.48" cy="30.09" r="2.22"/>
          <circle class="cls-3" cx="120.69" cy="30.09" r="2.22"/>
          <circle class="cls-3" cx="108.9" cy="30.09" r="2.22"/>
          <circle class="cls-3" cx="97.11" cy="30.09" r="2.22"/>
          <circle class="cls-3" cx="85.32" cy="30.09" r="2.22"/>
          <circle class="cls-3" cx="73.53" cy="30.09" r="2.22"/>
          <circle class="cls-3" cx="61.74" cy="30.09" r="2.22"/>
          <circle class="cls-3" cx="49.95" cy="30.09" r="2.22"/>
          <circle class="cls-3" cx="38.16" cy="30.09" r="2.22"/>
          <circle class="cls-3" cx="26.37" cy="30.09" r="2.22"/>
          <circle class="cls-3" cx="14.59" cy="30.09" r="2.22"/>
          <circle class="cls-3" cx="2.8" cy="30.09" r="2.22"/>
          <circle class="cls-3" cx="220.9" cy="18.68" r="2.22"/>
          <circle class="cls-3" cx="209.11" cy="18.68" r="2.22"/>
          <circle class="cls-3" cx="197.32" cy="18.68" r="2.22"/>
          <circle class="cls-3" cx="185.53" cy="18.68" r="2.22"/>
          <circle class="cls-3" cx="173.74" cy="18.68" r="2.22"/>
          <circle class="cls-3" cx="161.95" cy="18.68" r="2.22"/>
          <circle class="cls-3" cx="150.16" cy="18.68" r="2.22"/>
          <circle class="cls-3" cx="138.38" cy="18.68" r="2.22"/>
          <circle class="cls-3" cx="126.59" cy="18.68" r="2.22"/>
          <circle class="cls-3" cx="114.8" cy="18.68" r="2.22"/>
          <circle class="cls-3" cx="103.01" cy="18.68" r="2.22"/>
          <circle class="cls-3" cx="91.22" cy="18.68" r="2.22"/>
          <circle class="cls-3" cx="79.43" cy="18.68" r="2.22"/>
          <circle class="cls-3" cx="67.64" cy="18.68" r="2.22"/>
          <circle class="cls-3" cx="55.85" cy="18.68" r="2.22"/>
          <circle class="cls-3" cx="44.06" cy="18.68" r="2.22"/>
          <circle class="cls-3" cx="32.27" cy="18.68" r="2.22"/>
          <circle class="cls-3" cx="20.48" cy="18.68" r="2.22"/>
          <circle class="cls-3" cx="8.69" cy="18.68" r="2.22"/>
          <circle class="cls-3" cx="226.8" cy="7.28" r="2.22"/>
          <circle class="cls-3" cx="215.01" cy="7.28" r="2.22"/>
          <circle class="cls-3" cx="203.22" cy="7.28" r="2.22"/>
          <circle class="cls-3" cx="191.43" cy="7.28" r="2.22"/>
          <circle class="cls-3" cx="179.64" cy="7.28" r="2.22"/>
          <circle class="cls-3" cx="167.85" cy="7.28" r="2.22"/>
          <circle class="cls-3" cx="156.06" cy="7.28" r="2.22"/>
          <circle class="cls-3" cx="144.27" cy="7.28" r="2.22"/>
          <circle class="cls-3" cx="132.48" cy="7.28" r="2.22"/>
          <circle class="cls-3" cx="120.69" cy="7.28" r="2.22"/>
          <circle class="cls-3" cx="108.9" cy="7.28" r="2.22"/>
          <circle class="cls-3" cx="97.11" cy="7.28" r="2.22"/>
          <circle class="cls-3" cx="85.32" cy="7.28" r="2.22"/>
          <circle class="cls-3" cx="73.53" cy="7.28" r="2.22"/>
          <circle class="cls-3" cx="61.74" cy="7.28" r="2.22"/>
          <circle class="cls-3" cx="49.95" cy="7.28" r="2.22"/>
          <circle class="cls-3" cx="38.16" cy="7.28" r="2.22"/>
          <circle class="cls-3" cx="26.37" cy="7.28" r="2.22"/>
          <circle class="cls-3" cx="14.59" cy="7.28" r="2.22"/>
          <circle class="cls-3" cx="2.8" cy="7.28" r="2.22"/>
        </g>
      </g>
    </g>
  </g>
</svg>