<?xml version="1.0" encoding="UTF-8"?>
<svg id="Layer_2" data-name="Layer 2" xmlns="http://www.w3.org/2000/svg" viewBox="0 0 20.65 33.67">
  <defs>
    <style>
      .cls-1 {
        fill: #272c47;
      }
    </style>
  </defs>
  <g id="_制作レイヤー" data-name="制作レイヤー">
    <g>
      <path class="cls-1" d="M18.05,8.23c-.64.48-1.21.62-1.69,1.33s-.42,2.01-.13,2.81c.36.98,1.14,1.69,1.6,2.63.27.55.55,1.34.26,1.93-.06.12-.15.26-.3.2-.43-.5-.88-.99-1.42-1.37-.38-.27-.85-.52-1.28-.7-.3-.12-.79-.35-1.07-.11-.17.14-.17.46-.01.6.13.12.6.26.79.36,1.71.82,3.16,2.5,3.44,4.42.05.32.04.73.18,1.02.1.19.38.31.55.45,1.68,1.33,1.96,4.41,1.45,6.35-.33,1.23-1.29,2.83-2.48,3.39-.21.1-.5.19-.58-.11-.06-.25.15-.78.19-1.07.06-.39.07-.9.06-1.3,0-.33-.09-1.38-.28-1.62-.15-.18-.56-.26-.64.02s.02.41.04.66c.1,1.27.15,2.58-.59,3.69-.3.45-1.01.95-1.49,1.21-.39.22-1.25.42-1.71.5-1.37.25-2.85.28-4.1-.4-.17-.09-.43-.31-.61-.31-.09,0-.24.05-.34.05-1.28.1-2.57-.05-3.68-.73-1.22-.75-2.11-2.11-2.42-3.5-.13-.59-.05-1.04.11-1.61.38-1.29,1.1-2.36,2.17-3.16.2-.15.77-.46.87-.63.14-.24-.05-.47-.3-.49-.19-.01-.47.17-.63.27-1.22.74-2.17,1.88-2.59,3.26-.07.22-.08.46-.2.67-.24.41-.52.05-.66-.22-1.41-2.64-.03-6.09,2.5-7.46.66-.36,1.45-.64,2.21-.69.17-.01.36.02.52-.02.03,0,.17-.09.19-.11.1-.11.09-.51.11-.67.21-1.62,1.37-3.4,2.95-3.95.44-.15,1.06-.28,1.53-.32s.81.01,1.28-.19c.28-.12.08-.25-.01-.42-.66-1.2-.78-2.49-.19-3.75.33-.71,1.07-1.16,1.78-1.43.65-.25,1.34-.34,1.98-.6.69-.29,1.73-.95,2.01-1.66.49-1.23.32-2.58-.41-3.68-.09-.14-.42-.42-.2-.57s.68.15.88.29c1.2.82,2.12,2.21,2.06,3.71-.04,1.21-.73,2.35-1.69,3.07ZM14.43,21.07c.78-.84.2-2.51-1.05-1.98-.28.12-.48.35-.71.5-.21.14-.55.08-.8.14-.42.1-.68.5-.6.93.14.71.87.87,1.5.9s1.23-.02,1.66-.48ZM13.27,24.18c-.82.09-1.11,1.78.05,1.86s1.03-1.98-.05-1.86ZM7.74,25.31c-.54-.47-1.08-.06-1.36.45-.67,1.22-.57,2.67.94,3.09.47.13,1.36.25,1.7-.18.51-.64-.42-1.46-.71-2-.24-.44-.13-.97-.58-1.36Z"/>
      <path class="cls-1" d="M4.23,15.43c-.31-.32-.12-.86.02-1.22.44-1.17,1.83-2.23,3.08-2.35.58-.06.89.53.65,1.02-.14.29-.72.43-1.01.57-.59.3-1.1.73-1.47,1.28-.12.18-.34.7-.5.79-.21.12-.59.09-.76-.09Z"/>
      <path class="cls-1" d="M4.5,17.13c-.28.34-.86.17-.9-.27s.27-.72.69-.58c.33.11.41.59.21.85Z"/>
      <path class="cls-1" d="M15.97,0c.23-.01.47.24.4.47-.09.29-.38.37-.62.17-.26-.22-.11-.63.22-.64Z"/>
    </g>
  </g>
</svg>