<?xml version="1.0" encoding="UTF-8"?>
<svg id="Layer_2" data-name="Layer 2" xmlns="http://www.w3.org/2000/svg" viewBox="0 0 139.95 139.96">
  <defs>
    <style>
      .cls-1 {
        fill: #aad9bd;
      }
    </style>
  </defs>
  <g id="_背景" data-name="背景">
    <path class="cls-1" d="M139.88,67c-.68,3.74-1.85,7.47-3.55,11.07-10.38,21.97-36.41,31.46-58.14,21.19-21.73-10.27-30.93-36.4-20.54-58.37,10.38-21.97,36.41-31.46,58.14-21.19,2.33,1.1,4.5,2.39,6.53,3.83-6.09-6.86-13.63-12.64-22.44-16.81C64.93-9.79,23.23,5.15,6.72,40.09c-16.51,34.94-1.57,76.64,33.37,93.15,34.94,16.51,76.64,1.57,93.15-33.37,5.02-10.63,7.12-21.89,6.64-32.88Z"/>
  </g>
</svg>