<?xml version="1.0" encoding="UTF-8"?>
<svg id="Layer_2" data-name="Layer 2" xmlns="http://www.w3.org/2000/svg" viewBox="0 0 728.57 351.08">
  <defs>
    <style>
      .cls-1 {
        fill: #c83740;
      }

      .cls-2 {
        fill: #e34934;
      }

      .cls-3, .cls-4 {
        fill: #fff;
      }

      .cls-5 {
        fill: #5b8a8e;
      }

      .cls-4 {
        stroke: #8dd4d9;
        stroke-miterlimit: 10;
        stroke-width: 2px;
      }

      .cls-6 {
        fill: #53979c;
      }

      .cls-7 {
        fill: #f1b326;
      }

      .cls-8 {
        fill: #8dd4d9;
      }

      .cls-9 {
        fill: #1a829e;
      }

      .cls-10 {
        fill: #ef4443;
      }

      .cls-11 {
        fill: #285d69;
      }

      .cls-12 {
        fill: #88a0a5;
      }

      .cls-13 {
        fill: #2c6745;
      }
    </style>
  </defs>
  <g id="_地図" data-name="地図">
    <rect class="cls-5" x="291.32" y="48.29" width="104.56" height="72.23"/>
    <rect class="cls-8" x="295.81" y="52.46" width="96.62" height="63.25"/>
    <polygon class="cls-6" points="415.8 139.83 415.8 106.21 400.44 106.21 400.44 139.83 223.38 139.83 223.38 174.21 462.31 174.21 462.31 139.83 415.8 139.83"/>
    <polygon class="cls-6" points="196.06 181.45 111.46 181.45 111.46 175.47 27.54 175.47 27.54 197.29 0 197.29 0 214.12 27.54 214.12 27.54 222.07 111.46 222.07 111.46 207.55 196.06 207.55 196.06 181.45"/>
    <rect class="cls-6" x="248.28" y="203.5" width="414.89" height="18.73"/>
    <g>
      <path class="cls-3" d="M319.41,93.31h-4.3v-.95h8.81v.95h-3.52v.56c0,1.8-.64,3.29-1.93,4.47l-.86-.64c1.2-.95,1.8-2.22,1.8-3.82v-.56ZM316.66,90.69v-.95h5.71v.95h-5.71Z"/>
      <path class="cls-3" d="M326.18,95.46h8.89v.95h-8.89v-.95ZM327.26,90.77h6.32v.95h-6.32v-.95Z"/>
      <path class="cls-3" d="M346.19,96.96l-.86.73c-1.2-1.26-2.36-2.32-3.48-3.18-1.12,1.2-2.39,2.28-3.82,3.22l-.82-.73c3.04-1.98,4.98-3.95,5.84-5.93l-4.68.3-.13-1.03,4.98-.21.52-.13.69.69c.2.2.14.33-.17.39-.54.95-1.12,1.82-1.72,2.62,1.23.95,2.45,2.03,3.65,3.27Z"/>
      <path class="cls-3" d="M354.42,92.06h-5.97v-.95h6.96v6.14h-.99v-.47h-5.97v-.95h5.97v-3.78Z"/>
      <path class="cls-3" d="M358.18,94.08v-.95h9.58v.95h-9.58Z"/>
      <path class="cls-3" d="M375.96,94.08l-.52.99c-1.52-.77-2.76-1.29-3.74-1.55v4.47h-.99v-8.59h.86c.34.03.39.14.13.34v2.71c1.4.4,2.82.95,4.25,1.63Z"/>
      <path class="cls-3" d="M315.2,105.06c.46-.47.76-.99.93-1.56l.54.07s.03.1-.05.15c-.05.15-.11.29-.2.44h1.42v.46h-.83l.29.59-.56.12-.22-.71h-.29c-.18.34-.4.63-.66.88l-.37-.44ZM315.3,107.47v-.46h2.39v-.88h-1.76v-.46h4v.46h-1.76v.88h2.39v.46h-2.39v1.59h-.49v-1.59h-2.39ZM318.5,104.62c-.16.34-.35.63-.56.85l-.37-.44c.41-.47.65-.99.73-1.56l.56.07s.03.1-.05.15c-.05.21-.1.37-.15.46h1.83v.46h-1.15l.29.56-.51.15-.27-.71h-.37Z"/>
      <path class="cls-3" d="M322.35,104.89c.1.02.09.06-.02.12-.08.55-.19,1.15-.32,1.78l-.54-.24c.16-.62.27-1.2.32-1.76l.56.1ZM324.01,108.42c-.31-.39-.63-.73-.98-1.02-.11.62-.49,1.16-1.12,1.63l-.34-.46c.7-.46,1.05-1.09,1.05-1.9v-3.07h.46c.18.02.19.07.02.15v1.42l.76-.71.37.44c.02.08-.02.11-.12.07l-1,.71v1.2c.49.29.91.64,1.27,1.05l-.37.51ZM326.92,103.98v.54h-1.1v4.05c0,.26-.13.39-.39.39h-.49l-.1-.54h.39c.06,0,.1-.03.1-.1v-3.81h-1.22v-.54h2.81Z"/>
    </g>
    <g>
      <path class="cls-1" d="M239.72,147.51c.19.35.42.66.71.93.44-.24.95-.59,1.27-.85l.49.36s-.09.06-.16.04c-.31.22-.81.52-1.24.74.52.37,1.15.64,1.88.79-.12.1-.27.31-.33.44-1.48-.36-2.56-1.21-3.12-2.45h-1.04v1.61c.58-.08,1.23-.18,1.85-.27l.02.44c-1.08.19-2.24.39-2.96.5,0,.07-.05.11-.1.11l-.23-.58c.26-.03.57-.08.91-.13v-1.68h-1.12v-.48h1.54v-.91h-1.27v-.48h1.27v-.83h-1.57v.43c0,1.39-.11,3.37-.96,4.71-.1-.08-.35-.23-.48-.28.82-1.3.9-3.12.9-4.44v-2.4h6.11v1.97h-1.23s.14,0,.14,0c0,.06-.06.1-.16.11v.71h1.41v.48h-1.41v.91h1.75v.48h-2.86ZM236.51,143.32v1h5.02v-1h-5.02ZM238.75,144.82c0,.06-.05.1-.15.11v.71h1.73v-.83h-1.71s.13,0,.13,0ZM238.59,146.12v.91h1.73v-.91h-1.73Z"/>
      <path class="cls-1" d="M245.34,146.69c-.02.06-.08.08-.18.08-.38.92-.99,1.88-1.62,2.47-.11-.1-.32-.24-.45-.32.61-.55,1.22-1.5,1.57-2.45l.69.22ZM250.6,145.62h-3.34v3.62c0,.36-.09.53-.36.62-.28.08-.74.09-1.46.09-.03-.15-.11-.39-.2-.54.34,0,.66.02.91.02.53,0,.56,0,.56-.18v-3.62h-3.32v-.53h7.21v.53ZM249.88,143.04v.53h-5.76v-.53h5.76ZM250.19,149.21c-.23-.69-.86-1.75-1.47-2.54l.5-.22c.61.77,1.27,1.81,1.52,2.51l-.55.25Z"/>
    </g>
    <polygon class="cls-3" points="283.27 128.73 283.27 58.29 267.26 58.29 267.26 51.38 248.72 51.38 248.72 58.29 214.18 58.29 214.18 128.73 191.26 128.73 191.26 58.29 175.25 58.29 175.25 51.38 156.71 51.38 156.71 58.29 122.17 58.29 122.17 128.73 99.93 128.73 99.93 58.29 83.92 58.29 83.92 51.38 65.38 51.38 65.38 58.29 30.84 58.29 30.84 128.73 27.13 128.73 27.13 135.39 0 135.39 0 159.15 27.13 159.15 27.13 166.98 305.85 166.98 305.85 128.73 283.27 128.73"/>
    <rect class="cls-3" x="400.07" y="5.25" width="75.83" height="104.14"/>
    <rect class="cls-8" x="403" y="7.26" width="69.99" height="98.95"/>
    <rect class="cls-3" x="517.78" y="150.04" width="96.05" height="23.69"/>
    <rect class="cls-6" x="441.36" y="139.86" width="69.09" height="34.35"/>
    <rect class="cls-3" x="414.88" y="214.12" width="46.76" height="98.25"/>
    <rect class="cls-3" x="464.29" y="214.12" width="46.76" height="98.25"/>
    <rect class="cls-3" x="514.08" y="214.12" width="46.76" height="98.25"/>
    <rect class="cls-3" x="563.5" y="214.12" width="46.76" height="98.25"/>
    <rect class="cls-3" x="61.92" y="162.08" width="7.08" height="26.79"/>
    <polygon class="cls-3" points="217.96 173.93 196.06 173.93 196.06 190.89 201.45 190.89 201.45 203.5 216.61 203.5 216.61 190.89 217.96 190.89 217.96 173.93"/>
    <rect class="cls-8" x="88.6" y="220.27" width="35.32" height="35.32"/>
    <rect class="cls-8" x="123.9" y="207.66" width="36.34" height="30.38"/>
    <rect class="cls-5" x="490.96" y="5.25" width="225.97" height="123.23"/>
    <g>
      <path class="cls-3" d="M422.73,61.2c.23.09.23.19,0,.3v6.96h-.86v-5.37c-.2.43-.46.8-.77,1.12l-.6-.77c.97-1.32,1.65-2.95,2.02-4.9l.95.34c.14.11.1.19-.13.21-.14.75-.34,1.45-.6,2.11ZM426.09,61.54h-2.71v-.82h2.92v-2.15h.82c.23.03.24.11.04.26v1.89h3.09v.82h-2.84c.46,1.38,1.49,2.81,3.09,4.3l-.6.86c-1.23-1.23-2.15-2.48-2.75-3.74v2.49h1.25v.82h-1.25v2.11h-.86v-2.11h-1.12v-.82h1.12v-2.49c-.69,1.52-1.58,2.75-2.66,3.7l-.64-.82c1.4-1.29,2.43-2.72,3.09-4.3Z"/>
      <path class="cls-3" d="M438.01,59.61h4.25v.82h-5.16l-.86,1.16c1.09-.06,2.12-.1,3.09-.13-.32-.17-.62-.34-.9-.52l.64-.43c.69.26,1.62.83,2.79,1.72l-.64.6c-.34-.26-.67-.52-.99-.77-2.38.14-4.48.29-6.32.43-.14.14-.23.16-.26.04l-.26-.9c.63,0,1.26-.01,1.89-.04l.82-1.16h-3.27v-.82h4.17v-1.07h.95c.29.06.3.17.04.34v.73ZM435.26,68.37h-.86v-5.46h6.45v4.68c0,.4-.2.6-.6.6h-1.07l-.13-.82h.77c.11,0,.17-.06.17-.17v-.82h-4.73v1.98ZM435.26,63.6v.69h4.73v-.69h-4.73ZM439.99,65.71v-.73h-4.73v.73h4.73Z"/>
      <path class="cls-3" d="M445.6,62.18l-.47.52-.56-.73c1.06-.97,1.79-2.09,2.19-3.35l.86.13c.11.09.07.19-.13.3.63.52,1.16.99,1.59,1.42l-.47.82c-.63-.72-1.1-1.22-1.42-1.5-.4.89-.8,1.55-1.2,1.98h.86v-1.07h.82c.2.03.21.11.04.26v.82h1.12v3.44h-2.49v1.8l1.72-.39c-.12-.2-.29-.47-.52-.82l.73-.39c.46.6.89,1.3,1.29,2.11l-.86.47c-.14-.34-.27-.6-.39-.77l-2.88.9c-.03.14-.12.17-.26.09l-.34-.86.77-.17v-4.98ZM446.33,62.44v.64h1.76v-.64h-1.76ZM446.33,63.77v.73h1.76v-.73h-1.76ZM453.68,64.29h-.86v-.17h-1.93v.95h3.18v3.14h-.86v-.34h-2.32v.56h-.86v-6.62h-.86v-1.89h2.32v-1.16h.82c.29,0,.3.09.04.26v.9h2.36v1.89h-.86v-1.2h-3.82v1.03h3.65v2.66ZM450.89,62.31v1.12h1.93v-1.12h-1.93ZM450.89,67.17h2.32v-1.42h-2.32v1.42Z"/>
      <path class="cls-3" d="M425.28,77.63c.06.08.03.15-.1.2-.13.65-.33,1.24-.59,1.78l.59.39-.37.54-.54-.39c-.47.68-1.15,1.24-2.03,1.68l-.56-.42c.98-.41,1.67-.94,2.1-1.61-.41-.26-.8-.5-1.2-.71l.29-.44c.5.23.92.44,1.24.63.24-.5.39-.95.44-1.34h-1.78c-.31.55-.69,1.06-1.15,1.51l-.46-.32c.83-.86,1.37-1.77,1.63-2.73l.59.24c.13.07.1.13-.1.2-.07.2-.15.38-.24.56h1.63l.27-.1.32.32ZM425.11,76.5c.28.21.56.48.85.81l-.32.24c-.29-.31-.58-.58-.85-.81l.32-.24ZM425.67,76.14c.26.18.53.43.81.76l-.32.27c-.29-.33-.56-.59-.8-.78l.32-.24Z"/>
      <path class="cls-3" d="M431.75,78.55c-.86,1.79-2.31,2.73-4.34,2.83-.08.21-.16.23-.24.05l-.2-.63c2.11-.05,3.54-.92,4.27-2.61l.51.37ZM427.06,77.55l.42-.51c.34.21.77.56,1.29,1.05l-.46.46c-.44-.41-.85-.74-1.24-1Z"/>
      <path class="cls-3" d="M437.41,81.02l-.49.42c-.68-.72-1.34-1.32-1.98-1.81-.63.68-1.36,1.29-2.17,1.83l-.46-.42c1.72-1.12,2.83-2.24,3.32-3.37l-2.66.17-.07-.59,2.83-.12.29-.07.39.39c.11.11.08.19-.1.22-.31.54-.63,1.03-.98,1.49.7.54,1.39,1.16,2.07,1.85Z"/>
      <path class="cls-3" d="M444.75,80.9h-1.07v1.02h-.42v-1.02h-1.12v-.46h1.12v-.51h-.88v-2.1h.88v-.49h-.93v-.39h.93v-.63h.39c.13.02.14.06.02.15v.49h.93v.39h-.93v.49h.85v2.1h-.85v.51h1.07v.46ZM443.26,78.68v-.46h-.46v.46h.46ZM442.8,79.53h.46v-.46h-.46v.46ZM444.12,78.68v-.46h-.44v.46h.44ZM444.12,79.53v-.46h-.44v.46h.44ZM444.61,78.82c.5-.16.91-.37,1.22-.61-.29-.34-.5-.72-.63-1.12h-.37v-.39h2.1l.05-.1.44.29-.1.1c-.16.41-.42.81-.78,1.2.41.23.84.4,1.29.51l-.22.51c-.62-.21-1.09-.44-1.42-.68-.39.31-.83.57-1.32.78l-.27-.49ZM445.97,81.31v-1.05h-.95v-.46h.95v-.76h.46c.13.02.14.06.02.15v.61h.95v.46h-.95v1.05h1.27v.46h-3.05v-.46h1.29ZM445.68,77.09c.06.26.24.53.51.81.24-.23.42-.5.54-.81h-1.05Z"/>
      <path class="cls-3" d="M453.95,78.24v.46h-5.54v-.46h1.73l-.39-.9h-.78v-.46h1.98v-.59h.46c.13.02.14.06.02.15v.44h2v.46h-.78l-.41.9h1.71ZM452.93,81.8h-.49v-.2h-2.46v.32h-.49v-2.81h3.44v2.68ZM452.44,80.09v-.51h-2.46v.51h2.46ZM452.44,81.14v-.59h-2.46v.59h2.46ZM450.63,78.24h1.15l.32-.9h-1.81l.34.9Z"/>
    </g>
    <rect class="cls-6" x="236.98" y="245.33" width="142.04" height="7.5"/>
    <rect class="cls-3" x="418.93" y="278.55" width="138.04" height="14.71"/>
    <rect class="cls-6" x="243.95" y="271.8" width="142.04" height="7.5"/>
    <rect class="cls-3" x="252.44" y="214.12" width="46.76" height="98.25"/>
    <rect class="cls-3" x="301.85" y="214.12" width="46.76" height="98.25"/>
    <rect class="cls-3" x="365.64" y="214.12" width="46.76" height="98.25"/>
    <g>
      <path class="cls-9" d="M264.57,266.04h2.09v.59h-2.09v.47h2.31v.59h-2.31v.5h3.22v.59h-3.03c.46.62,1.47,1.1,3.03,1.44l-.22.72c-1.65-.4-2.72-1.02-3.22-1.88-.5,1.06-1.59,1.72-3.28,1.97l-.25-.66c1.56-.23,2.54-.76,2.94-1.59h-2.97v-.59h3.16v-.5h-2.22v-.59h2.22v-.47h-2.06v-.59h2.06v-.62h.59c.17.02.18.08.03.19v.44ZM260.97,264.57h2.97v-.72h.69c.21.04.22.12.03.25v.47h2.94v1.69h-.62v-1.09h-5.38v1.09h-.62v-1.69Z"/>
      <path class="cls-9" d="M269.2,267.22l-.19-.69c.88-.1,1.69-.29,2.44-.56v.53c-.67.27-1.37.48-2.09.62-.02.15-.07.18-.16.09ZM272.83,266.91l-.09-.47c.54-.04,1.25-.22,2.12-.53v.53c-.77.31-1.45.52-2.03.62l-.19.47h2.25v3.34h-.62v-.16h-3.56v.22h-.62v-3.41h1.97l.12-.56h-.47v-2.34h-2.5v-.59h3.12v2.84l.5.03ZM270.58,266.07c-.29-.27-.62-.51-.97-.72l.44-.47c.33.17.65.39.94.66l-.41.53ZM274.27,268.88v-.75h-3.56v.75h3.56ZM270.7,270.13h3.56v-.66h-3.56v.66ZM275.7,267.04h-.62v-2.41h-2.44v-.59h3.06v3ZM273.86,266c-.27-.25-.57-.47-.91-.66l.41-.5c.42.19.72.41.91.66l-.41.5Z"/>
      <path class="cls-9" d="M278.94,265.44h.72v.59h-.72v1c.4.27.72.54.97.81l-.34.62c-.23-.31-.44-.54-.62-.69v3.22h-.62v-3.12c-.23.67-.52,1.2-.88,1.59l-.34-.62c.67-.88,1.06-1.81,1.19-2.81h-1v-.59h1.03v-1.59h.59c.17.02.18.08.03.19v1.41ZM282.19,265.32v.47h1.5v2.69h-1.38c.69.62,1.4,1.06,2.12,1.31l-.25.69c-.85-.4-1.52-.88-2-1.47v1.94h-.62v-1.81c-.44.67-1.05,1.16-1.84,1.47l-.25-.66c.88-.33,1.52-.82,1.94-1.47h-1.34v-2.69h1.5v-.47h-1.84v-.59h1.84v-.94h.59c.17.02.18.08.03.19v.75h1.88v.59h-1.88ZM280.69,266.91h.88v-.62h-.88v.62ZM280.69,267.97h.88v-.56h-.88v.56ZM282.19,266.91h.88v-.62h-.88v.62ZM282.19,267.97h.88v-.56h-.88v.56Z"/>
      <path class="cls-9" d="M284.98,270.19l2.12-5.41h.62l2.12,5.41h-.75l-.66-1.62h-2.06l-.66,1.62h-.75ZM287.42,265.82l-.81,2.16h1.62l-.81-2.16Z"/>
    </g>
    <g>
      <path class="cls-9" d="M314.66,266.04h2.09v.59h-2.09v.47h2.31v.59h-2.31v.5h3.22v.59h-3.03c.46.62,1.47,1.1,3.03,1.44l-.22.72c-1.65-.4-2.72-1.02-3.22-1.88-.5,1.06-1.59,1.72-3.28,1.97l-.25-.66c1.56-.23,2.54-.76,2.94-1.59h-2.97v-.59h3.16v-.5h-2.22v-.59h2.22v-.47h-2.06v-.59h2.06v-.62h.59c.17.02.18.08.03.19v.44ZM311.07,264.57h2.97v-.72h.69c.21.04.22.12.03.25v.47h2.94v1.69h-.62v-1.09h-5.38v1.09h-.62v-1.69Z"/>
      <path class="cls-9" d="M319.3,267.22l-.19-.69c.88-.1,1.69-.29,2.44-.56v.53c-.67.27-1.37.48-2.09.62-.02.15-.07.18-.16.09ZM322.92,266.91l-.09-.47c.54-.04,1.25-.22,2.12-.53v.53c-.77.31-1.45.52-2.03.62l-.19.47h2.25v3.34h-.62v-.16h-3.56v.22h-.62v-3.41h1.97l.12-.56h-.47v-2.34h-2.5v-.59h3.12v2.84l.5.03ZM320.67,266.07c-.29-.27-.62-.51-.97-.72l.44-.47c.33.17.65.39.94.66l-.41.53ZM324.36,268.88v-.75h-3.56v.75h3.56ZM320.8,270.13h3.56v-.66h-3.56v.66ZM325.8,267.04h-.62v-2.41h-2.44v-.59h3.06v3ZM323.96,266c-.27-.25-.57-.47-.91-.66l.41-.5c.42.19.72.41.91.66l-.41.5Z"/>
      <path class="cls-9" d="M329.03,265.44h.72v.59h-.72v1c.4.27.72.54.97.81l-.34.62c-.23-.31-.44-.54-.62-.69v3.22h-.62v-3.12c-.23.67-.52,1.2-.88,1.59l-.34-.62c.67-.88,1.06-1.81,1.19-2.81h-1v-.59h1.03v-1.59h.59c.17.02.18.08.03.19v1.41ZM332.28,265.32v.47h1.5v2.69h-1.38c.69.62,1.4,1.06,2.12,1.31l-.25.69c-.85-.4-1.52-.88-2-1.47v1.94h-.62v-1.81c-.44.67-1.05,1.16-1.84,1.47l-.25-.66c.88-.33,1.52-.82,1.94-1.47h-1.34v-2.69h1.5v-.47h-1.84v-.59h1.84v-.94h.59c.17.02.18.08.03.19v.75h1.88v.59h-1.88ZM330.78,266.91h.88v-.62h-.88v.62ZM330.78,267.97h.88v-.56h-.88v.56ZM332.28,266.91h.88v-.62h-.88v.62ZM332.28,267.97h.88v-.56h-.88v.56Z"/>
      <path class="cls-9" d="M335.51,264.85h2.5c.42,0,.76.14,1.03.41.25.25.38.58.38,1,0,.33-.12.62-.34.84-.12.12-.28.22-.47.28.25.08.45.2.59.34.25.25.38.56.38.94,0,.46-.16.84-.47,1.16-.25.25-.62.38-1.12.38h-2.47v-5.34ZM336.23,265.44v1.66h1.69c.21,0,.38-.07.53-.22.17-.17.25-.38.25-.66,0-.23-.08-.43-.25-.59-.12-.12-.28-.19-.47-.19h-1.75ZM336.23,267.69v1.91h1.59c.31,0,.55-.08.72-.25.19-.19.28-.42.28-.69,0-.29-.08-.52-.25-.69-.19-.19-.44-.28-.75-.28h-1.59Z"/>
    </g>
    <g>
      <path class="cls-9" d="M378.35,266.04h2.09v.59h-2.09v.47h2.31v.59h-2.31v.5h3.22v.59h-3.03c.46.62,1.47,1.1,3.03,1.44l-.22.72c-1.65-.4-2.72-1.02-3.22-1.88-.5,1.06-1.59,1.72-3.28,1.97l-.25-.66c1.56-.23,2.54-.76,2.94-1.59h-2.97v-.59h3.16v-.5h-2.22v-.59h2.22v-.47h-2.06v-.59h2.06v-.62h.59c.17.02.18.08.03.19v.44ZM374.75,264.57h2.97v-.72h.69c.21.04.22.12.03.25v.47h2.94v1.69h-.62v-1.09h-5.38v1.09h-.62v-1.69Z"/>
      <path class="cls-9" d="M382.98,267.22l-.19-.69c.88-.1,1.69-.29,2.44-.56v.53c-.67.27-1.37.48-2.09.62-.02.15-.07.18-.16.09ZM386.61,266.91l-.09-.47c.54-.04,1.25-.22,2.12-.53v.53c-.77.31-1.45.52-2.03.62l-.19.47h2.25v3.34h-.62v-.16h-3.56v.22h-.62v-3.41h1.97l.12-.56h-.47v-2.34h-2.5v-.59h3.12v2.84l.5.03ZM384.36,266.07c-.29-.27-.62-.51-.97-.72l.44-.47c.33.17.65.39.94.66l-.41.53ZM388.05,268.88v-.75h-3.56v.75h3.56ZM384.48,270.13h3.56v-.66h-3.56v.66ZM389.48,267.04h-.62v-2.41h-2.44v-.59h3.06v3ZM387.64,266c-.27-.25-.57-.47-.91-.66l.41-.5c.42.19.72.41.91.66l-.41.5Z"/>
      <path class="cls-9" d="M392.72,265.44h.72v.59h-.72v1c.4.27.72.54.97.81l-.34.62c-.23-.31-.44-.54-.62-.69v3.22h-.62v-3.12c-.23.67-.52,1.2-.88,1.59l-.34-.62c.67-.88,1.06-1.81,1.19-2.81h-1v-.59h1.03v-1.59h.59c.17.02.18.08.03.19v1.41ZM395.97,265.32v.47h1.5v2.69h-1.38c.69.62,1.4,1.06,2.12,1.31l-.25.69c-.85-.4-1.52-.88-2-1.47v1.94h-.62v-1.81c-.44.67-1.05,1.16-1.84,1.47l-.25-.66c.88-.33,1.52-.82,1.94-1.47h-1.34v-2.69h1.5v-.47h-1.84v-.59h1.84v-.94h.59c.17.02.18.08.03.19v.75h1.88v.59h-1.88ZM394.47,266.91h.88v-.62h-.88v.62ZM394.47,267.97h.88v-.56h-.88v.56ZM395.97,266.91h.88v-.62h-.88v.62ZM395.97,267.97h.88v-.56h-.88v.56Z"/>
      <path class="cls-9" d="M399.88,265.38c.4-.4.91-.59,1.53-.59s1.11.18,1.47.53c.38.38.57.85.59,1.44h-.75c-.04-.44-.18-.77-.41-1-.25-.25-.55-.38-.91-.38-.38,0-.71.15-1,.44-.38.38-.56.95-.56,1.72s.19,1.34.56,1.72c.27.27.6.41,1,.41.42,0,.74-.11.97-.34.29-.29.44-.71.44-1.25h.75c-.02.71-.23,1.26-.62,1.66-.35.35-.87.53-1.53.53-.62,0-1.14-.2-1.53-.59-.52-.52-.78-1.23-.78-2.12s.26-1.63.78-2.16Z"/>
    </g>
    <g>
      <path class="cls-9" d="M469.71,265.44l2.28-.31.12.66-2.22.28.31,1.47,2.94-.34.12.66-2.91.31.59,2.53-.69.16-.59-2.59-3.19.38-.09-.66,3.12-.34-.31-1.47-2.12.25-.12-.66,2.06-.22-.31-1.44.66-.09c.19-.02.22.05.09.22l.25,1.22ZM472.18,265.13c-.33-.48-.6-.8-.81-.97l.34-.34c.29.25.58.58.88,1l-.41.31ZM473.59,264.57l-.41.34c-.31-.42-.62-.76-.91-1.03l.38-.34c.31.29.62.64.94,1.03Z"/>
      <path class="cls-9" d="M476.76,266.91l2.56-.62.16-.09.5.5c.08.08.05.15-.09.19-.38.6-.77,1.19-1.19,1.75l-.53-.34c.33-.44.65-.9.94-1.38l-2.16.53,1.06,3.16-.62.22-1.03-3.25-1.81.5-.22-.62,1.81-.41-.5-1.5.66-.12c.19,0,.22.07.09.22l.38,1.28Z"/>
      <path class="cls-9" d="M482.3,270.32c2.02-.52,3.16-1.61,3.41-3.28h-4.75v-.69h4.78l.28-.09.56.34c.12.1.1.2-.06.28-.33,2.08-1.55,3.44-3.66,4.06l-.56-.62ZM485.83,265.25h-4.31v-.69h4.31v.69Z"/>
      <path class="cls-9" d="M488.88,268.22h-.72v-3.53h.69c.21.02.22.1.03.25v3.28ZM492.1,267.54c0,1.56-.73,2.69-2.19,3.38l-.62-.53c1.38-.62,2.07-1.58,2.09-2.88v-3.12h.66c.21.04.23.12.06.25v2.91Z"/>
      <path class="cls-9" d="M493.8,267.72v-.69h6.97v.69h-6.97Z"/>
      <path class="cls-9" d="M503.56,265.44h.72v.59h-.72v1c.4.27.72.54.97.81l-.34.62c-.23-.31-.44-.54-.62-.69v3.22h-.62v-3.12c-.23.67-.52,1.2-.88,1.59l-.34-.62c.67-.88,1.06-1.81,1.19-2.81h-1v-.59h1.03v-1.59h.59c.17.02.18.08.03.19v1.41ZM506.81,265.32v.47h1.5v2.69h-1.38c.69.62,1.4,1.06,2.12,1.31l-.25.69c-.85-.4-1.52-.88-2-1.47v1.94h-.62v-1.81c-.44.67-1.05,1.16-1.84,1.47l-.25-.66c.88-.33,1.52-.82,1.94-1.47h-1.34v-2.69h1.5v-.47h-1.84v-.59h1.84v-.94h.59c.17.02.18.08.03.19v.75h1.88v.59h-1.88ZM505.31,266.91h.88v-.62h-.88v.62ZM505.31,267.97h.88v-.56h-.88v.56ZM506.81,266.91h.88v-.62h-.88v.62ZM506.81,267.97h.88v-.56h-.88v.56Z"/>
    </g>
    <g>
      <path class="cls-9" d="M520,269.25l-2.09.75c-.02.15-.07.18-.16.09l-.25-.72.97-.28v-2.53h-.91v-.59h.91v-1.75h.59c.17.02.18.08.03.19v1.56h.81v.59h-.81v2.38l.91-.31v.62ZM523.84,269.85l.19-.66.69.22-.16.59c-.12.5-.43.75-.91.75h-2.59c-.38,0-.56-.18-.56-.53v-2.97l-.81.31-.19-.62,1-.34v-1.78h.59c.17.02.18.08.03.19v1.38l.75-.28v-2.12h.59c.17.02.18.08.03.19v1.72l1.06-.41.06-.12.66.44-.12.09v2.38c0,.33-.17.5-.5.5h-.62l-.16-.59h.53c.08,0,.12-.04.12-.12v-1.88l-1.03.38v2.69h-.62v-2.47l-.75.28v2.88c0,.17.07.25.22.25h2.09c.21,0,.34-.1.41-.31Z"/>
      <path class="cls-9" d="M530.45,265.82h-2.5v.53h-.84v2.34c.21-.06.46-.15.75-.25l.06.56c-.71.29-1.38.53-2,.72-.08.15-.16.18-.22.09l-.16-.72c.31-.08.62-.17.94-.25v-2.5h-.75v-.59h.75v-1.66h.59c.17.02.18.08.03.19v1.47h.84v-.53h2.5v-1.28h.59c.17.02.18.08.03.19v1.09h.78c-.25-.42-.42-.66-.5-.72l.5-.38c.15.15.33.39.56.72l-.5.38h.75v.59h-1.59c0,.88.04,1.65.12,2.31.21-.38.43-.94.66-1.69l.56.25c.06.08.04.14-.06.16-.23.79-.52,1.48-.88,2.06.1.42.25.72.44.91.1.1.17.08.19-.06l.12-.69.59.28-.22.88c-.1.42-.31.57-.62.47-.42-.15-.75-.55-1-1.22-.52.56-1.3,1.06-2.34,1.5l-.25-.66c1.02-.42,1.8-.91,2.34-1.47-.19-.94-.28-1.95-.28-3.03ZM527.76,269.13c.83-.15,1.66-.38,2.47-.69l.03.59c-.75.29-1.48.53-2.19.72-.08.1-.14.12-.16.06l-.16-.69ZM528.67,268.22v.16h-.53v-1.94h1.94v1.78h-1.41ZM529.54,267.72v-.78h-.88v.78h.88Z"/>
      <path class="cls-9" d="M540.46,270.88c-1.21-.27-2.19-.73-2.94-1.38-.79.69-1.88,1.13-3.25,1.34l-.28-.72c1.38-.23,2.38-.59,3-1.09-.52-.58-.92-1.16-1.19-1.72l.66-.28c.31.62.65,1.12,1,1.47.33-.42.61-.94.84-1.56l.66.34c.12.08.09.15-.09.19-.27.6-.56,1.1-.88,1.5.56.48,1.48.85,2.75,1.12l-.28.78ZM537.81,264.16v.69h2.94v.59h-6.56v-.59h2.91v-.94h.69c.21.04.22.12.03.25ZM536.59,266.22c-.46.62-1.1,1.12-1.94,1.47l-.38-.66c.77-.33,1.4-.8,1.88-1.41l.59.47c.06.04,0,.08-.16.12ZM538.71,265.69c.5.54,1.12.99,1.88,1.34l-.5.66c-.73-.4-1.34-.9-1.84-1.5l.47-.5Z"/>
      <path class="cls-9" d="M542.07,270.38c.44-.71.82-1.49,1.16-2.34l.56.38c-.33.96-.68,1.73-1.03,2.31.04.12,0,.18-.09.16l-.59-.5ZM543.26,267.41c-.31-.25-.66-.51-1.03-.78l.41-.59c.44.27.79.52,1.06.75l-.44.62ZM543.32,265.6c-.29-.31-.62-.59-.97-.84l.47-.56c.38.23.7.5.97.81l-.47.59ZM545.22,268.97c0,.88-.47,1.55-1.41,2.03l-.44-.53c.81-.42,1.22-.96,1.22-1.62v-1.34h.59c.17.02.18.08.03.19v1.28ZM546.72,264.66h2.31v.59h-2.62l-.72,1.19,1.84-.09-.69-.53.5-.31c.69.4,1.27.87,1.75,1.41l-.53.44-.5-.5-3.72.28c-.02.15-.07.18-.16.09l-.22-.72,1.06-.03.56-1.22h-1.62v-.59h2.03v-.84h.69c.21.04.22.12.03.25v.59ZM546.63,270.5h-.62v-2.97h.59c.17.02.18.08.03.19v2.78ZM547.38,267.47h.59c.17.02.18.08.03.19v2.34c0,.17.07.25.22.25h.19c.1,0,.17-.07.19-.22l.06-.5.62.16c-.02.27-.06.53-.12.78s-.22.38-.47.38h-.81c-.33,0-.5-.18-.5-.53v-2.84Z"/>
      <path class="cls-9" d="M552.11,265.44h.72v.59h-.72v1c.4.27.72.54.97.81l-.34.62c-.23-.31-.44-.54-.62-.69v3.22h-.62v-3.12c-.23.67-.52,1.2-.88,1.59l-.34-.62c.67-.88,1.06-1.81,1.19-2.81h-1v-.59h1.03v-1.59h.59c.17.02.18.08.03.19v1.41ZM555.36,265.32v.47h1.5v2.69h-1.38c.69.62,1.4,1.06,2.12,1.31l-.25.69c-.85-.4-1.52-.88-2-1.47v1.94h-.62v-1.81c-.44.67-1.05,1.16-1.84,1.47l-.25-.66c.88-.33,1.52-.82,1.94-1.47h-1.34v-2.69h1.5v-.47h-1.84v-.59h1.84v-.94h.59c.17.02.18.08.03.19v.75h1.88v.59h-1.88ZM553.86,266.91h.88v-.62h-.88v.62ZM553.86,267.97h.88v-.56h-.88v.56ZM555.36,266.91h.88v-.62h-.88v.62ZM555.36,267.97h.88v-.56h-.88v.56Z"/>
    </g>
    <g>
      <path class="cls-9" d="M568.91,264.41c-.21.27-.52.55-.94.84h2.09v.5h-2.19v-.41c-.42.29-.79.52-1.12.69l-.34-.53c1.02-.46,1.82-1.07,2.41-1.84l.56.16c.08.08.05.14-.09.16l-.03.06c.52.15,1.2.53,2.03,1.16l-.44.5c-.65-.54-1.29-.97-1.94-1.28ZM566.91,270.72l-.44-.47c.54-.46.81-1.13.81-2.03v-2.12h3.47v2.34h-2.94c0,.88-.3,1.64-.91,2.28ZM567.81,267.04h2.41v-.44h-2.41v.44ZM567.81,267.94h2.41v-.41h-2.41v.41ZM570.75,270.94h-.53v-.22h-1.75v.31h-.53v-2.22h2.81v2.12ZM568.47,270.22h1.75v-.91h-1.75v.91ZM572.09,264.82v4.53h-.62v-4.72h.59c.17.02.18.08.03.19ZM572.88,270.97h-.72l-.12-.59h.62c.06,0,.09-.03.09-.09v-6.38h.59c.17.02.18.08.03.19v6.34c0,.35-.17.53-.5.53Z"/>
      <path class="cls-9" d="M574.73,267.38c.92-1.06,1.52-2.21,1.81-3.44l.69.22c.12.08.11.14-.03.16-.15.48-.35,1-.62,1.56l.19.06c.08.08.05.14-.09.16v4.81h-.62v-4.06c-.23.38-.5.73-.81,1.06l-.5-.53ZM581.73,265.19v.59h-2.25v1.16h1.97v.59h-1.97v1.03h2.09v.59h-2.09v1.75h-.62v-5.12h-.31c-.33.71-.69,1.25-1.06,1.62l-.59-.44c.83-.88,1.35-1.91,1.56-3.09l.66.19c.12.06.11.12-.03.16-.04.21-.15.53-.31.97h2.97Z"/>
      <path class="cls-9" d="M586.12,269.41v-3.88h-2.47v-.69h5.66v.69h-2.47v3.88h3.06v.69h-6.81v-.69h3.03Z"/>
      <path class="cls-9" d="M592.38,270.35c1.46-.33,2.15-1.08,2.06-2.25h-1.84c.02,1.12-.32,2.04-1.03,2.75l-.44-.53c.58-.54.88-1.38.88-2.53v-2.59h5.53v1.81h-.62v-.16h-1.59v.66h2.94v.59h-3.19l-.03.53h2.53l-.25,1.75c-.04.35-.24.53-.59.53h-1.06l-.03-.59h.75c.21,0,.32-.09.34-.28l.12-.81h-1.94c-.17.77-.92,1.38-2.25,1.81l-.28-.69ZM597.94,264.69h-6.53v-.59h6.53v.59ZM596.91,266.35v-.66h-4.28v.66h4.28ZM592.63,266.85v.66h2.06v-.66h-2.06Z"/>
      <path class="cls-9" d="M601.18,265.44h.72v.59h-.72v1c.4.27.72.54.97.81l-.34.62c-.23-.31-.44-.54-.62-.69v3.22h-.62v-3.12c-.23.67-.52,1.2-.88,1.59l-.34-.62c.67-.88,1.06-1.81,1.19-2.81h-1v-.59h1.03v-1.59h.59c.17.02.18.08.03.19v1.41ZM604.43,265.32v.47h1.5v2.69h-1.38c.69.62,1.4,1.06,2.12,1.31l-.25.69c-.85-.4-1.52-.88-2-1.47v1.94h-.62v-1.81c-.44.67-1.05,1.16-1.84,1.47l-.25-.66c.88-.33,1.52-.82,1.94-1.47h-1.34v-2.69h1.5v-.47h-1.84v-.59h1.84v-.94h.59c.17.02.18.08.03.19v.75h1.88v.59h-1.88ZM602.93,266.91h.88v-.62h-.88v.62ZM602.93,267.97h.88v-.56h-.88v.56ZM604.43,266.91h.88v-.62h-.88v.62ZM604.43,267.97h.88v-.56h-.88v.56Z"/>
    </g>
    <g>
      <path class="cls-3" d="M576.43,72.67l-.84-.89c3.06-1.25,4.91-3.41,5.53-6.47h-3.75c-.72,1.19-1.47,2.14-2.25,2.86l-.94-.61c1.62-1.47,2.67-3.19,3.14-5.16l1.08.38c.19.09.16.19-.09.28-.12.41-.3.81-.52,1.22h3.38l.42-.23.84.84c.22.22.17.38-.14.47-.59,3.41-2.55,5.84-5.86,7.31ZM581.12,62.59l.61-.52c.53.47,1.03,1.02,1.5,1.64l-.66.52c-.5-.72-.98-1.27-1.45-1.64ZM582.57,62.17l.56-.56c.47.44.92.94,1.36,1.5l-.56.56c-.5-.62-.95-1.12-1.36-1.5Z"/>
      <path class="cls-3" d="M589.85,71.83c3.03-.78,4.73-2.42,5.11-4.92h-7.12v-1.03h7.17l.42-.14.84.52c.19.16.16.3-.09.42-.5,3.12-2.33,5.16-5.48,6.09l-.84-.94ZM595.14,64.23h-6.47v-1.03h6.47v1.03Z"/>
      <path class="cls-3" d="M609.4,65.17c0,3.41-1.64,5.92-4.92,7.55l-.89-.89c3.03-1.38,4.56-3.44,4.59-6.19h-6.52l.09,2.77h-1.08l-.14-3.8h3.7v-2.34h.94c.38.03.42.16.14.38v1.97h3.52l.56.56Z"/>
      <path class="cls-3" d="M622.82,66.34c-1.66,3.44-4.44,5.25-8.34,5.44-.16.41-.31.44-.47.09l-.38-1.22c4.06-.09,6.8-1.77,8.2-5.02l.98.7ZM613.82,64.42l.8-.98c.66.41,1.48,1.08,2.48,2.02l-.89.89c-.84-.78-1.64-1.42-2.39-1.92Z"/>
      <path class="cls-3" d="M632.39,69.02c-1.66-.84-3.02-1.41-4.08-1.69v4.88h-1.08v-9.38h.94c.38.03.42.16.14.38v2.95c1.53.44,3.08,1.03,4.64,1.78l-.56,1.08ZM632.3,64.89c-.53-.66-1.06-1.19-1.59-1.59l.61-.47c.53.41,1.06.94,1.59,1.59l-.61.47ZM633.42,64c-.41-.53-.92-1.05-1.55-1.55l.61-.47c.53.38,1.05.89,1.55,1.55l-.61.47Z"/>
    </g>
    <g>
      <path class="cls-9" d="M458.56,284.74c.05,1.98-.79,3.52-2.54,4.61l-.66-.74c1.54-.83,2.3-2,2.3-3.52v-1.68h.82c.23.03.26.12.08.27v1.02c.94-.7,1.65-1.39,2.15-2.07l-6.37.23-.08-.9,7.11-.2.27-.08.59.7c.08.1.01.14-.2.12-.78,1.02-1.72,1.97-2.81,2.85l-.66-.62Z"/>
      <path class="cls-9" d="M469.05,285.52l-.47.9c-1.38-.7-2.51-1.17-3.4-1.41v4.06h-.9v-7.81h.78c.31.03.35.13.12.31v2.46c1.28.37,2.56.86,3.87,1.48Z"/>
      <path class="cls-9" d="M471.8,286.14h-.9v-4.41h.86c.26.03.27.13.04.31v4.1ZM475.82,285.28c0,1.95-.91,3.36-2.73,4.22l-.78-.66c1.72-.78,2.59-1.98,2.62-3.59v-3.91h.82c.26.05.29.16.08.31v3.63Z"/>
      <path class="cls-9" d="M485.8,287.08v.86h-7.77v-.86h3.4v-3.87h-2.73v-.86h6.33v.86h-2.7v3.87h3.48Z"/>
      <path class="cls-9" d="M490.34,288.1c.29.29.69.43,1.21.43.68,0,1.13-.12,1.37-.35s.35-.62.35-1.17c0-.39-.08-.86-.23-1.41l.82-.12c.18.73.27,1.22.27,1.48,0,.81-.2,1.41-.59,1.8-.42.42-1.09.62-2.03.62-.76,0-1.35-.22-1.8-.66-.42-.42-.6-.99-.55-1.72l.08-1.17h-1.99v-.74h2.11l.16-1.52h-1.84v-.74h1.95l.2-2.23.86.12c.29.08.31.18.08.31l-.31,1.8h1.52v.74h-1.64l-.16,1.52h1.88v.74h-1.99l-.08.98c-.05.57.06,1,.35,1.29Z"/>
      <path class="cls-9" d="M498.64,288.1c.29.29.69.43,1.21.43.68,0,1.13-.12,1.37-.35s.35-.62.35-1.17c0-.39-.08-.86-.23-1.41l.82-.12c.18.73.27,1.22.27,1.48,0,.81-.2,1.41-.59,1.8-.42.42-1.09.62-2.03.62-.76,0-1.35-.22-1.8-.66-.42-.42-.6-.99-.55-1.72l.08-1.17h-1.99v-.74h2.11l.16-1.52h-1.84v-.74h1.95l.2-2.23.86.12c.29.08.31.18.08.31l-.31,1.8h1.52v.74h-1.64l-.16,1.52h1.88v.74h-1.99l-.08.98c-.05.57.06,1,.35,1.29Z"/>
      <path class="cls-9" d="M504.05,283.64l-.23-.78c1.28,0,2.3-.03,3.09-.08-.26-.73-.44-1.41-.55-2.03h.86c.23.05.26.16.08.31.1.5.26,1.04.47,1.64.91-.08,1.69-.2,2.34-.35l.2.86c-.76.1-1.5.18-2.23.23.52.99,1.31,1.85,2.38,2.58l-.59.7c-.96-.44-1.91-.66-2.85-.66-.86,0-1.46.17-1.8.51-.16.16-.23.38-.23.66,0,.26.12.51.35.74.36.37,1.22.55,2.58.55h1.37l-.2.86h-1.48c-1.35,0-2.3-.27-2.85-.82-.39-.39-.59-.83-.59-1.33s.14-.88.43-1.17c.47-.47,1.2-.7,2.19-.7s1.56.05,1.72.16c-.62-.78-1.05-1.45-1.29-1.99-1.07.08-2.12.12-3.16.12Z"/>
      <path class="cls-9" d="M516.25,283.33c-.68.13-1.32.23-1.91.31-.39,2.32-.87,4.15-1.45,5.51l-.86-.27c.7-1.64,1.2-3.36,1.48-5.16-.65.05-1.21.08-1.68.08l-.16-.78c.73,0,1.38-.03,1.95-.08.1-.81.2-1.51.27-2.11l.78.16c.29.08.31.18.08.31-.08.31-.18.83-.31,1.56.6-.08,1.15-.18,1.64-.31l.16.78ZM519.73,288.21v.86h-1.72c-.99,0-1.93-.23-2.81-.7l.35-.7c.68.37,1.5.55,2.46.55h1.72ZM519.53,284.97c-1.51.05-2.7.26-3.55.62l-.23-.78c1.12-.44,2.33-.66,3.63-.66l.16.82ZM517.81,281.46c.47.29.98.62,1.52,1.02l-.35.55c-.57-.39-1.08-.73-1.52-1.02l.35-.55ZM518.59,280.68c.42.23.92.57,1.52,1.02l-.35.55c-.57-.42-1.08-.75-1.52-1.02l.35-.55Z"/>
    </g>
    <g>
      <path class="cls-9" d="M421.45,269.41v-3.88h-2.47v-.69h5.66v.69h-2.47v3.88h3.06v.69h-6.81v-.69h3.03Z"/>
      <path class="cls-9" d="M429.78,268.44l-.88,1.53,2.72-.19c-.25-.19-.56-.42-.94-.69l.5-.44c.79.44,1.53,1.05,2.22,1.84l-.62.53-.62-.69-4.94.44c-.08.15-.16.18-.22.09l-.19-.88,1.44-.03.69-1.53h-2.38v-.59h7v.59h-3.78ZM428.59,265.91v-.72h-1.94v-.59h1.94v-.69h.69c.21.04.22.12.03.25v.44h1.44v-.69h.69c.21.04.22.12.03.25v.44h1.97v.59h-1.97v.72h-.72v-.72h-1.44v.72h-.72ZM427.56,266.41h4.97v.59h-4.97v-.59Z"/>
      <path class="cls-9" d="M436.23,265.72c.17.06.17.14,0,.22v5.06h-.62v-3.91c-.15.31-.33.58-.56.81l-.44-.56c.71-.96,1.2-2.15,1.47-3.56l.69.25c.1.08.07.14-.09.16-.1.54-.25,1.05-.44,1.53ZM438.67,265.97h-1.97v-.59h2.12v-1.56h.59c.17.02.18.08.03.19v1.38h2.25v.59h-2.06c.33,1,1.08,2.04,2.25,3.12l-.44.62c-.9-.9-1.56-1.8-2-2.72v1.81h.91v.59h-.91v1.53h-.62v-1.53h-.81v-.59h.81v-1.81c-.5,1.1-1.15,2-1.94,2.69l-.47-.59c1.02-.94,1.77-1.98,2.25-3.12Z"/>
      <path class="cls-9" d="M442.74,270.25c.17-.6.25-1.1.25-1.5l.41.06c-.04.67-.12,1.2-.22,1.59l-.44-.16ZM444.27,270.35h.69c.12,0,.21-.06.25-.19.06-.17.09-.36.09-.59l.03-1.22h-2.19v-4.22h2.75v.5h-1v.69h.75v.5h-.75v.75h.81v.5h-.81v.78h1l-.06,1.78c-.02.48-.07.8-.16.97-.1.23-.28.34-.53.34h-.81l-.06-.59ZM443.52,268.82l.34-.03c.06.4.09.81.09,1.25l-.38.06c0-.44-.02-.86-.06-1.28ZM444.36,264.63h-.69v.69h.69v-.69ZM444.36,265.82h-.69v.75h.69v-.75ZM444.36,267.07h-.69v.78h.69v-.78ZM444.4,268.79c.15.4.22.76.22,1.09l-.38.09c-.04-.48-.1-.86-.19-1.16l.34-.03ZM444.8,269.79c-.08-.4-.17-.73-.25-1l.34-.06c.12.27.22.58.28.94l-.38.12ZM449.05,266.13h-.84v.59h1.44v2.06h-.53v-.25h-.84c.38.75.99,1.33,1.84,1.75l-.38.59c-.83-.48-1.4-1.05-1.69-1.72-.29.85-.92,1.46-1.88,1.81l-.28-.56c1.02-.38,1.6-1,1.75-1.88h-.84v.34h-.53v-2.16h1.41v-.59h-.84v-.44c-.21.25-.47.46-.78.62l-.34-.53c.73-.4,1.32-1.05,1.78-1.97l.66.09c.06.08.04.14-.06.16.5.65,1.18,1.16,2.03,1.53l-.31.56c-.23-.08-.48-.23-.75-.44v.41ZM447.68,267.22h-.88v.81h.88v-.81ZM448.9,265.63c-.42-.29-.79-.68-1.12-1.16-.25.46-.54.84-.88,1.16h2ZM448.21,267.22v.81h.91v-.81h-.91Z"/>
      <path class="cls-9" d="M452.91,265.44h.72v.59h-.72v1c.4.27.72.54.97.81l-.34.62c-.23-.31-.44-.54-.62-.69v3.22h-.62v-3.12c-.23.67-.52,1.2-.88,1.59l-.34-.62c.67-.88,1.06-1.81,1.19-2.81h-1v-.59h1.03v-1.59h.59c.17.02.18.08.03.19v1.41ZM456.16,265.32v.47h1.5v2.69h-1.38c.69.62,1.4,1.06,2.12,1.31l-.25.69c-.85-.4-1.52-.88-2-1.47v1.94h-.62v-1.81c-.44.67-1.05,1.16-1.84,1.47l-.25-.66c.88-.33,1.52-.82,1.94-1.47h-1.34v-2.69h1.5v-.47h-1.84v-.59h1.84v-.94h.59c.17.02.18.08.03.19v.75h1.88v.59h-1.88ZM454.66,266.91h.88v-.62h-.88v.62ZM454.66,267.97h.88v-.56h-.88v.56ZM456.16,266.91h.88v-.62h-.88v.62ZM456.16,267.97h.88v-.56h-.88v.56Z"/>
    </g>
    <path class="cls-8" d="M114.96,334.11l-1.36,8.18s65.78,11.07,99.83-46.05l-7.5-5.83s-21.59,49.54-90.97,43.7Z"/>
    <rect class="cls-8" x="46.08" y="112.49" width=".99" height="31.46" transform="translate(174.8 81.65) rotate(90)"/>
    <rect class="cls-8" x="44.37" y="116.65" width="1" height="36.47" transform="translate(179.75 90.02) rotate(90)"/>
    <rect class="cls-8" x="31.83" y="145.56" width="1" height="11.15" transform="translate(183.46 118.8) rotate(90)"/>
    <rect class="cls-8" x="48.02" y="144.86" width="1" height="12.55" transform="translate(199.65 102.61) rotate(90)"/>
    <rect class="cls-8" x="81.46" y="141.67" width="1" height="25.93" transform="translate(236.6 72.68) rotate(90)"/>
    <rect class="cls-8" x="87.06" y="115.86" width="1" height="24.73" transform="translate(215.79 40.66) rotate(90)"/>
    <rect class="cls-8" x="85.7" y="92.46" width="1" height="27.46" transform="translate(192.39 19.99) rotate(90)"/>
    <rect class="cls-8" x="85.7" y="67.08" width="1" height="27.46" transform="translate(167.01 -5.39) rotate(90)"/>
    <rect class="cls-8" x="177.06" y="78.67" width="1" height="27.46" transform="translate(269.95 -85.16) rotate(90)"/>
    <rect class="cls-8" x="224.48" y="80.63" width="1" height="22.54" transform="translate(316.88 -133.09) rotate(90)"/>
    <rect class="cls-8" x="274.6" y="69.48" width="1" height="16.4" transform="translate(352.79 -197.42) rotate(90)"/>
    <rect class="cls-8" x="239.66" y="60.23" width="1" height="16" transform="translate(308.39 -171.93) rotate(90)"/>
    <rect class="cls-8" x="227.96" y="70.05" width="1" height="7.41" transform="translate(302.21 -154.7) rotate(90)"/>
    <rect class="cls-8" x="216.53" y="70.05" width="1" height="7.41" transform="translate(290.79 -143.27) rotate(90)"/>
    <rect class="cls-8" x="273.03" y="83.09" width="1" height="8.96" transform="translate(361.1 -185.95) rotate(90)"/>
    <rect class="cls-8" x="260.83" y="83.87" width="1" height="7.41" transform="translate(348.9 -173.75) rotate(90)"/>
    <rect class="cls-8" x="258.97" y="75.83" width="1" height="3.71" transform="translate(337.16 -181.79) rotate(90)"/>
    <rect class="cls-8" x="222.44" y="56.55" width="1" height="18.45" transform="translate(288.71 -157.16) rotate(90)"/>
    <rect class="cls-8" x="230.39" y="88.13" width="1" height="34.35" transform="translate(336.19 -125.59) rotate(90)"/>
    <rect class="cls-8" x="223.94" y="116.96" width="1" height="22.54" transform="translate(352.67 -96.21) rotate(90)"/>
    <rect class="cls-8" x="274.21" y="119.63" width="1" height="17.2" transform="translate(402.93 -146.48) rotate(90)"/>
    <rect class="cls-8" x="239.88" y="114.82" width="1" height="16.37" transform="translate(363.39 -117.38) rotate(90)"/>
    <rect class="cls-8" x="230.64" y="98.78" width="1" height="34.85" transform="translate(347.35 -114.93) rotate(90)"/>
    <rect class="cls-8" x="230.37" y="117.13" width="1" height="35.39" transform="translate(365.7 -96.04) rotate(90)"/>
    <rect class="cls-8" x="269.99" y="121.72" width="1" height="25.64" transform="translate(405.03 -135.94) rotate(90)"/>
    <rect class="cls-8" x="244.6" y="124.76" width="1" height="6.93" transform="translate(373.33 -116.88) rotate(90)"/>
    <rect class="cls-8" x="225.12" y="119.54" width="1" height="6.93" transform="translate(348.63 -102.62) rotate(90)"/>
    <rect class="cls-8" x="213.84" y="119.54" width="1" height="6.93" transform="translate(337.34 -91.33) rotate(90)"/>
    <rect class="cls-8" x="245.54" y="89.37" width="1" height="5.05" transform="translate(337.93 -154.14) rotate(90)"/>
    <rect class="cls-8" x="245.54" y="94.03" width="1" height="5.05" transform="translate(342.6 -149.48) rotate(90)"/>
    <rect class="cls-8" x="46.57" y="64.58" width="1" height="32.46" transform="translate(127.88 33.74) rotate(90)"/>
    <rect class="cls-8" x="46.48" y="89.87" width="1" height="32.65" transform="translate(153.17 59.21) rotate(90)"/>
    <rect class="cls-8" x="138.03" y="64.58" width="1" height="32.46" transform="translate(219.34 -57.72) rotate(90)"/>
    <rect class="cls-8" x="137.94" y="89.87" width="1" height="32.65" transform="translate(244.63 -32.25) rotate(90)"/>
    <rect class="cls-8" x="87.06" y="122.52" width="1" height="24.73" transform="translate(222.45 47.32) rotate(90)"/>
    <rect class="cls-8" x="137.35" y="112.41" width=".99" height="31.63" transform="translate(266.07 -9.62) rotate(90)"/>
    <rect class="cls-8" x="178.42" y="115.86" width="1" height="24.73" transform="translate(307.15 -50.69) rotate(90)"/>
    <path class="cls-3" d="M243.95,286.01v-47.32h-16.4c-1.65-5.61-3.99-11.16-7.19-16.46l-19.43,9.2c16.13,28.16,4.77,54.31,1.48,60.44l8.56,5.48c-1.73,3.34-8.62,15.42-22.27,25.68l7.84,7.95s18.77-12.14,23.76-28.62h0c2.61-3.43,5.27-9.19,7.27-16.37h16.4Z"/>
    <g>
      <path class="cls-9" d="M218.94,271.36c1.92-.35,3.31-1.32,4.19-2.91l.53.53c-1,1.75-2.67,2.82-5,3.22l-.5-.38.06-.19v-5.19h.69c.19.02.2.09.03.22v4.69Z"/>
      <path class="cls-9" d="M231.14,271.61l-.62.53c-.88-.92-1.72-1.69-2.53-2.31-.81.88-1.74,1.66-2.78,2.34l-.59-.53c2.21-1.44,3.62-2.88,4.25-4.31l-3.41.22-.09-.75,3.62-.16.38-.09.5.5c.15.15.1.24-.12.28-.4.69-.81,1.32-1.25,1.91.9.69,1.78,1.48,2.66,2.38Z"/>
      <path class="cls-9" d="M236.53,269.52l-.38.72c-1.1-.56-2.01-.94-2.72-1.12v3.25h-.72v-6.25h.62c.25.02.28.1.09.25v1.97c1.02.29,2.05.69,3.09,1.19Z"/>
      <path class="cls-9" d="M218.46,276.71c-.38,1.31-.98,2.51-1.81,3.59l-.72-.47c.92-1.1,1.53-2.35,1.84-3.75l.75.34c.17.1.15.2-.06.28ZM220.24,276.21l.66-.5c1.04,1.31,1.78,2.7,2.22,4.16l-.84.28c-.52-1.65-1.2-2.96-2.03-3.94Z"/>
      <path class="cls-9" d="M230.41,276.18c0,2.27-1.09,3.95-3.28,5.03l-.59-.59c2.02-.92,3.04-2.29,3.06-4.12h-4.34l.06,1.84h-.72l-.09-2.53h2.47v-1.56h.62c.25.02.28.1.09.25v1.31h2.34l.38.38Z"/>
      <path class="cls-9" d="M238.3,280.11l-.62.53c-.88-.92-1.72-1.69-2.53-2.31-.81.88-1.74,1.66-2.78,2.34l-.59-.53c2.21-1.44,3.62-2.88,4.25-4.31l-3.41.22-.09-.75,3.62-.16.38-.09.5.5c.15.15.1.24-.12.28-.4.69-.81,1.32-1.25,1.91.9.69,1.78,1.48,2.66,2.38Z"/>
    </g>
    <path class="cls-3" d="M663.17,228.61v16.58h-3.49v-31.07h-46.76v98.25h46.76v-31.72h3.49v55.16h46.76v-107.2h-46.76ZM659.67,272.32v-18.8h3.49v18.8h-3.49Z"/>
    <g>
      <path class="cls-9" d="M617.85,271h-.62v-1.88c-.33.54-.7.97-1.09,1.28l-.47-.56c.58-.42,1.07-.94,1.47-1.56h-1.31v-.59h1.41v-.69h-1.59v-.59h2.19l.34-1.12h-2.31v-.59h1.38v-.88h.59c.17.02.18.08.03.19v.69h1.38v.59h-.41l-.44,1.12h1v.59h-1.53v.69h1.38v.59h-1.38v.28c.29.08.7.3,1.22.66l-.38.62c-.29-.29-.57-.52-.84-.69v1.84ZM616.26,265.5l.59-.19c.17.27.29.55.38.84l-.62.19c-.08-.29-.2-.57-.34-.84ZM618.44,270.41c.85-.46,1.28-1.24,1.28-2.34v-3.59l.66.12,1.69-.53.47.62c.04.12-.03.15-.22.06l-1.97.38v1.34h2.47v.59h-.94v3.91h-.62v-3.91h-.91v1.19c0,1.23-.52,2.15-1.56,2.75l-.34-.59Z"/>
      <path class="cls-9" d="M625.46,267.66h1.09l.38-.81h-1.75v.75c0,1.42-.29,2.49-.88,3.22l-.56-.41c.54-.62.81-1.6.81-2.94v-3.31h5.72v1.59h-5.09v.5h5.53v.59h-1.62c.6.42,1.09.82,1.47,1.22l-.53.38-.44-.44-1.38.09v.75h1.94v.59h-1.94v.75h2.72v.59h-5.97v-.59h2.62v-.75h-1.94v-.59h1.94v-.69l-1.69.06c-.04.17-.12.18-.22.03l-.22-.59ZM629.64,265.25v-.59h-4.47v.59h4.47ZM627.67,266.85l-.53.81,1.97-.06-.53-.41.38-.34h-1.28Z"/>
      <path class="cls-9" d="M638.16,270.82v-.31h-5.12v.38h-.62v-6.72h6.38v6.66h-.62ZM638.16,264.75h-5.12v5.16h5.12v-5.16ZM637.75,268.91l-.5.59c-.46-.4-.96-.73-1.5-1-.48.48-1.16.89-2.03,1.22l-.41-.56c.83-.33,1.45-.67,1.84-1-.48-.25-1.02-.5-1.62-.75l.41-.5c.5.19,1.06.43,1.69.72.48-.56.91-1.38,1.28-2.47l.69.28c.17.04.13.12-.09.22-.4,1-.82,1.76-1.28,2.28.54.27,1.05.59,1.53.97ZM634.25,265.38c.27.31.5.68.69,1.09l-.56.34c-.17-.42-.39-.79-.66-1.12l.53-.31ZM635.62,266.47c-.17-.42-.39-.79-.66-1.12l.53-.31c.33.38.56.74.69,1.09l-.56.34Z"/>
      <path class="cls-9" d="M643.48,264.82h-2.19v-.5h2.19v-.56h.59c.17.02.18.08.03.19v.38h2.16v.84h1.03v.5h-1.03v.88h-2.16v.38h2.28v.5h-2.28v.38h3.28v.5h-7.19v-.5h3.28v-.38h-2.28v-.5h2.28v-.38h-2.22v-.5h2.22v-.38h-3.16v-.5h3.16v-.34ZM641.35,268.66h4.84v2.28h-.62v-.16h-3.59v.16h-.62v-2.28ZM641.98,269.16v.31h3.59v-.31h-3.59ZM641.98,269.97v.31h3.59v-.31h-3.59ZM645.64,265.16v-.34h-1.53v.34h1.53ZM644.1,265.66v.38h1.53v-.38h-1.53Z"/>
      <path class="cls-9" d="M648.99,266.44l-.34.38-.41-.53c.77-.71,1.3-1.52,1.59-2.44l.62.09c.08.06.05.14-.09.22.46.38.84.72,1.16,1.03l-.34.59c-.46-.52-.8-.88-1.03-1.09-.29.65-.58,1.12-.88,1.44h.62v-.78h.59c.15.02.16.08.03.19v.59h.81v2.5h-1.81v1.31l1.25-.28c-.08-.15-.21-.34-.38-.59l.53-.28c.33.44.65.95.94,1.53l-.62.34c-.1-.25-.2-.44-.28-.56l-2.09.66c-.02.1-.08.12-.19.06l-.25-.62.56-.12v-3.62ZM649.52,266.63v.47h1.28v-.47h-1.28ZM649.52,267.6v.53h1.28v-.53h-1.28ZM654.87,267.97h-.62v-.12h-1.41v.69h2.31v2.28h-.62v-.25h-1.69v.41h-.62v-4.81h-.62v-1.38h1.69v-.84h.59c.21,0,.22.06.03.19v.66h1.72v1.38h-.62v-.88h-2.78v.75h2.66v1.94ZM652.84,266.54v.81h1.41v-.81h-1.41ZM652.84,270.07h1.69v-1.03h-1.69v1.03Z"/>
    </g>
    <g>
      <path class="cls-9" d="M668.86,288.66h-.62v-1.88c-.33.54-.7.97-1.09,1.28l-.47-.56c.58-.42,1.07-.94,1.47-1.56h-1.31v-.59h1.41v-.69h-1.59v-.59h2.19l.34-1.12h-2.31v-.59h1.38v-.88h.59c.17.02.18.08.03.19v.69h1.38v.59h-.41l-.44,1.12h1v.59h-1.53v.69h1.38v.59h-1.38v.28c.29.08.7.3,1.22.66l-.38.62c-.29-.29-.57-.52-.84-.69v1.84ZM667.27,283.16l.59-.19c.17.27.29.55.38.84l-.62.19c-.08-.29-.2-.57-.34-.84ZM669.45,288.06c.85-.46,1.28-1.24,1.28-2.34v-3.59l.66.12,1.69-.53.47.62c.04.12-.03.15-.22.06l-1.97.38v1.34h2.47v.59h-.94v3.91h-.62v-3.91h-.91v1.19c0,1.23-.52,2.15-1.56,2.75l-.34-.59Z"/>
      <path class="cls-9" d="M676.47,285.31h1.09l.38-.81h-1.75v.75c0,1.42-.29,2.49-.88,3.22l-.56-.41c.54-.62.81-1.6.81-2.94v-3.31h5.72v1.59h-5.09v.5h5.53v.59h-1.62c.6.42,1.09.82,1.47,1.22l-.53.38-.44-.44-1.38.09v.75h1.94v.59h-1.94v.75h2.72v.59h-5.97v-.59h2.62v-.75h-1.94v-.59h1.94v-.69l-1.69.06c-.04.17-.12.18-.22.03l-.22-.59ZM680.65,282.91v-.59h-4.47v.59h4.47ZM678.69,284.5l-.53.81,1.97-.06-.53-.41.38-.34h-1.28Z"/>
      <path class="cls-9" d="M689.17,288.47v-.31h-5.12v.38h-.62v-6.72h6.38v6.66h-.62ZM689.17,282.41h-5.12v5.16h5.12v-5.16ZM688.76,286.56l-.5.59c-.46-.4-.96-.73-1.5-1-.48.48-1.16.89-2.03,1.22l-.41-.56c.83-.33,1.45-.67,1.84-1-.48-.25-1.02-.5-1.62-.75l.41-.5c.5.19,1.06.43,1.69.72.48-.56.91-1.38,1.28-2.47l.69.28c.17.04.13.12-.09.22-.4,1-.82,1.76-1.28,2.28.54.27,1.05.59,1.53.97ZM685.26,283.03c.27.31.5.68.69,1.09l-.56.34c-.17-.42-.39-.79-.66-1.12l.53-.31ZM686.64,284.12c-.17-.42-.39-.79-.66-1.12l.53-.31c.33.38.56.74.69,1.09l-.56.34Z"/>
      <path class="cls-9" d="M694.49,282.47h-2.19v-.5h2.19v-.56h.59c.17.02.18.08.03.19v.38h2.16v.84h1.03v.5h-1.03v.88h-2.16v.38h2.28v.5h-2.28v.38h3.28v.5h-7.19v-.5h3.28v-.38h-2.28v-.5h2.28v-.38h-2.22v-.5h2.22v-.38h-3.16v-.5h3.16v-.34ZM692.37,286.31h4.84v2.28h-.62v-.16h-3.59v.16h-.62v-2.28ZM692.99,286.81v.31h3.59v-.31h-3.59ZM692.99,287.62v.31h3.59v-.31h-3.59ZM696.65,282.81v-.34h-1.53v.34h1.53ZM695.12,283.31v.38h1.53v-.38h-1.53Z"/>
      <path class="cls-9" d="M700,284.09l-.34.38-.41-.53c.77-.71,1.3-1.52,1.59-2.44l.62.09c.08.06.05.14-.09.22.46.38.84.72,1.16,1.03l-.34.59c-.46-.52-.8-.88-1.03-1.09-.29.65-.58,1.12-.88,1.44h.62v-.78h.59c.15.02.16.08.03.19v.59h.81v2.5h-1.81v1.31l1.25-.28c-.08-.15-.21-.34-.38-.59l.53-.28c.33.44.65.95.94,1.53l-.62.34c-.1-.25-.2-.44-.28-.56l-2.09.66c-.02.1-.08.12-.19.06l-.25-.62.56-.12v-3.62ZM700.54,284.28v.47h1.28v-.47h-1.28ZM700.54,285.25v.53h1.28v-.53h-1.28ZM705.88,285.62h-.62v-.12h-1.41v.69h2.31v2.28h-.62v-.25h-1.69v.41h-.62v-4.81h-.62v-1.38h1.69v-.84h.59c.21,0,.22.06.03.19v.66h1.72v1.38h-.62v-.88h-2.78v.75h2.66v1.94ZM703.85,284.19v.81h1.41v-.81h-1.41ZM703.85,287.72h1.69v-1.03h-1.69v1.03Z"/>
    </g>
    <rect class="cls-4" x="424.46" y="21.41" width="27.06" height="27.06" rx="13.53" ry="13.53"/>
    <path class="cls-8" d="M431.4,41.58l5.75-14.62h1.69l5.75,14.62h-2.03l-1.78-4.4h-5.58l-1.77,4.4h-2.03ZM437.99,29.75l-2.2,5.83h4.39l-2.2-5.83Z"/>
    <rect class="cls-4" x="312.63" y="56.74" width="28.42" height="28.42" rx="14.21" ry="14.21"/>
    <path class="cls-8" d="M321.69,64.1h7.16c1.19,0,2.18.39,2.95,1.16.72.72,1.07,1.67,1.07,2.86,0,.96-.33,1.76-.98,2.42-.36.36-.81.63-1.34.81.72.24,1.28.57,1.7.98.72.72,1.07,1.61,1.07,2.69,0,1.31-.45,2.42-1.34,3.31-.72.72-1.79,1.07-3.22,1.07h-7.07v-15.31ZM323.75,65.8v4.74h4.83c.6,0,1.1-.21,1.52-.63.48-.48.72-1.1.72-1.88,0-.66-.24-1.22-.72-1.7-.36-.36-.81-.54-1.34-.54h-5.01ZM323.75,72.25v5.46h4.57c.9,0,1.58-.24,2.06-.72.54-.54.8-1.19.8-1.97,0-.83-.24-1.49-.72-1.97-.54-.54-1.25-.81-2.15-.81h-4.57Z"/>
    <g>
      <rect class="cls-7" x="263.78" y="195.47" width="24.07" height="24.07"/>
      <path class="cls-3" d="M270.01,208.76c4.5-1.88,7.9-4.54,10.21-7.96l1.22,1.03c.34.26.19.45-.45.58-.81,1.07-1.86,2.16-3.15,3.28v8.73h-1.48v-7.51c-1.5,1.16-3.25,2.21-5.27,3.15l-1.09-1.28Z"/>
    </g>
    <g>
      <rect class="cls-7" x="313.19" y="195.44" width="24.07" height="24.07"/>
      <path class="cls-3" d="M330.2,212.33h-1.48v-.71h-7.13v1.03h-1.48v-10.02h10.08v9.7ZM321.6,204.04v6.17h7.13v-6.17h-7.13Z"/>
    </g>
    <g>
      <rect class="cls-7" x="376.71" y="195.44" width="24.07" height="24.07"/>
      <path class="cls-3" d="M386.56,205.45c-.77,2.7-2.01,5.16-3.72,7.39l-1.48-.96c1.88-2.27,3.15-4.84,3.79-7.71l1.54.71c.34.21.3.41-.13.58ZM390.22,204.43l1.35-1.03c2.14,2.7,3.66,5.55,4.56,8.54l-1.73.58c-1.07-3.38-2.46-6.08-4.17-8.09Z"/>
    </g>
    <g>
      <rect class="cls-7" x="370.07" y="136.69" width="24.07" height="24.07"/>
      <path class="cls-3" d="M379.92,146.7c-.77,2.7-2.01,5.16-3.72,7.39l-1.48-.96c1.88-2.27,3.15-4.84,3.79-7.71l1.54.71c.34.21.3.41-.13.58ZM383.58,145.68l1.35-1.03c2.14,2.7,3.66,5.55,4.56,8.54l-1.73.58c-1.07-3.38-2.46-6.08-4.17-8.09Z"/>
    </g>
    <g>
      <rect class="cls-10" x="620.89" y="154.88" width="91.58" height="24.07"/>
      <path class="cls-3" d="M671.49,164.89c.21.39.02.45-.58.19-2.4.64-4.92,1.13-7.58,1.48v4.17c0,.56.28.83.83.83h7.39l-.13,1.41h-7.51c-1.37,0-2.05-.56-2.05-1.67v-10.08h1.28c.47.09.54.26.19.51v3.28c2.91-.34,5.46-.88,7.64-1.61l.51,1.48Z"/>
    </g>
    <rect class="cls-8" x="338.11" y="174.38" width="158.62" height="15.5"/>
    <g>
      <path class="cls-3" d="M399.67,182.63l-2.91.31.59,2.53-.69.16-.59-2.59-3.19.38-.09-.66,3.12-.34-.31-1.47-2.12.25-.12-.66,2.06-.22-.31-1.44.66-.12c.19-.02.22.05.09.22l.25,1.25,2.28-.31.12.66-2.22.28.31,1.47,2.94-.34.12.66Z"/>
      <path class="cls-3" d="M402.82,181.38l.62-.31c.29.4.55.88.78,1.44l-.62.34c-.25-.58-.51-1.07-.78-1.47ZM406.73,184.2c-.6.6-1.4,1.08-2.38,1.44l-.41-.59c.96-.31,1.71-.74,2.25-1.28.58-.58.92-1.57,1-2.97l.66.22c.19.06.19.15,0,.25-.15,1.35-.52,2.33-1.12,2.94ZM404.44,180.98l.59-.31c.31.4.58.87.81,1.41l-.66.31c-.25-.56-.5-1.03-.75-1.41Z"/>
      <path class="cls-3" d="M415,181.57h2.56v.69h-2.56c0,1.46-.66,2.55-1.97,3.28l-.5-.5c1.19-.67,1.77-1.59,1.75-2.78h-3.12v-.69h3.12v-1.19c-.58.06-1.34.12-2.28.16l-.28-.66c2.02-.04,3.57-.23,4.66-.56l.34.66c.06.15-.03.17-.28.06-.44.1-.92.19-1.44.25v1.28Z"/>
      <path class="cls-3" d="M426.93,181.45c-1.1,2.29-2.96,3.5-5.56,3.62-.1.27-.21.29-.31.06l-.25-.81c2.71-.06,4.53-1.18,5.47-3.34l.66.47ZM420.93,180.16l.53-.66c.44.27.99.72,1.66,1.34l-.59.59c-.56-.52-1.09-.95-1.59-1.28Z"/>
      <path class="cls-3" d="M434.89,181.13l-1.78.06c-.12,1.77-.95,3.17-2.47,4.19l-.53-.53c1.44-.96,2.2-2.18,2.28-3.66l-2.22.06-.06-.62,2.31-.06v-1.75h.66c.23.04.25.12.06.25v1.5l2.47-.09v1.94c0,1.02-.09,1.74-.28,2.16-.19.42-.58.62-1.19.62h-.75l-.09-.78c.31.04.58.06.81.06.31,0,.51-.1.59-.31.12-.33.19-.92.19-1.75v-1.28Z"/>
      <path class="cls-3" d="M439.11,182.51v-.69h6.97v.69h-6.97Z"/>
    </g>
    <g>
      <rect class="cls-7" x="426.22" y="195.44" width="24.07" height="24.07"/>
      <path class="cls-3" d="M445.13,211.1v1.41h-13.87v-1.41h13.87ZM443.53,202.37v1.41h-10.53v-1.41h10.53Z"/>
    </g>
    <g>
      <rect class="cls-7" x="475.83" y="195.44" width="24.07" height="24.07"/>
      <path class="cls-3" d="M482.4,212.52l-1.41-.77c1.07-1.54,1.97-3.17,2.7-4.88l1.41.77c.26.21.17.36-.26.45-.64,1.41-1.46,2.89-2.44,4.43ZM487.02,200.51h1.35c.47.09.51.26.13.51v3.08h5.91v1.41h-5.91v8.93h-1.48v-8.93h-5.78v-1.41h5.78v-3.6ZM493.64,212.33c-.9-1.58-1.99-3.06-3.28-4.43l1.22-1.03c1.54,1.63,2.7,3.13,3.47,4.5l-1.41.96Z"/>
    </g>
    <g>
      <rect class="cls-7" x="525.24" y="195.47" width="24.07" height="24.07"/>
      <path class="cls-3" d="M536.63,206.19c-.26-.21-.51-.32-.77-.32s-.47.09-.64.26c-1.97,1.76-3.32,2.93-4.05,3.53l-1.28-1.29c1.16-.68,2.68-1.9,4.56-3.66.43-.39.86-.58,1.29-.58.56,0,1.07.19,1.54.58,3.25,2.7,5.74,4.47,7.45,5.33l-1.48,1.48c-2.4-1.75-4.6-3.53-6.62-5.33Z"/>
    </g>
    <g>
      <rect class="cls-7" x="574.85" y="195.44" width="24.07" height="24.07"/>
      <path class="cls-3" d="M591.45,208.15l-.77,1.48c-2.27-1.16-4.13-1.93-5.59-2.31v6.68h-1.48v-12.84h1.28c.51.04.58.21.19.51v4.05c2.1.6,4.22,1.41,6.36,2.44Z"/>
    </g>
    <g>
      <rect class="cls-7" x="624.83" y="195.51" width="24.07" height="24.07"/>
      <path class="cls-3" d="M638.12,206.29h5.27v1.41h-5.27c0,3-1.35,5.25-4.05,6.74l-1.03-1.03c2.44-1.37,3.64-3.28,3.6-5.72h-6.42v-1.41h6.42v-2.44c-1.2.13-2.76.24-4.69.32l-.58-1.35c4.15-.09,7.34-.47,9.57-1.16l.71,1.35c.13.3-.06.34-.58.13-.9.21-1.88.38-2.95.51v2.63Z"/>
    </g>
    <rect class="cls-4" x="93.37" y="225.44" width="25.79" height="25.79" rx="12.89" ry="12.89"/>
    <path class="cls-8" d="M102.58,233.47c.95-.95,2.19-1.43,3.69-1.43s2.69.43,3.54,1.28c.91.9,1.38,2.06,1.43,3.47h-1.81c-.1-1.05-.43-1.86-.98-2.41-.6-.6-1.33-.91-2.19-.91-.9,0-1.71.35-2.41,1.06-.91.91-1.36,2.29-1.36,4.15s.45,3.24,1.36,4.15c.65.65,1.46.98,2.41.98,1,0,1.78-.28,2.34-.83.7-.7,1.06-1.71,1.06-3.02h1.81c-.05,1.71-.55,3.04-1.51,4-.86.86-2.09,1.28-3.7,1.28-1.51,0-2.74-.48-3.69-1.43-1.26-1.26-1.88-2.97-1.88-5.13s.63-3.95,1.88-5.2Z"/>
    <rect class="cls-4" x="128.17" y="321.63" width="28.44" height="28.44" rx="14.22" ry="14.22"/>
    <path class="cls-8" d="M137.55,328.51h5.37c1.79,0,3.31.63,4.57,1.88,1.31,1.31,1.97,3.28,1.97,5.91s-.69,4.45-2.06,5.82c-1.13,1.13-2.63,1.7-4.48,1.7h-5.37v-15.31ZM139.61,330.21v11.91h3.22c1.13,0,2.06-.36,2.78-1.07,1.13-1.13,1.7-2.71,1.7-4.74,0-2.15-.54-3.76-1.61-4.83-.84-.83-1.79-1.25-2.87-1.25h-3.22Z"/>
    <rect class="cls-8" x="516.76" y="222.09" width="41.03" height="36.08"/>
    <rect class="cls-8" x="77.88" y="109.26" width="20" height="15.89"/>
    <g>
      <rect class="cls-6" x="246.24" y="120.78" height="1.21" transform="translate(97.84 352.36) rotate(-83.52)"/>
      <polygon class="cls-6" points="242.72 120.99 242.12 117.9 242.12 117.9 242.72 120.99 244.21 121.16 244.21 121.16 242.72 120.99"/>
      <rect class="cls-6" x="242.03" y="116.91" height="1"/>
      <rect class="cls-6" x="244.92" y="120.52" height="1.44"/>
      <polygon class="cls-6" points="246.84 118.95 246.84 121.46 246.84 121.46 246.84 118.95 245.22 118.48 244.44 116.92 244.44 116.92 245.22 118.48 246.84 118.95"/>
      <g>
        <path class="cls-6" d="M241.61,123.21c-1.48,0-2.68-1.2-2.68-2.68,0-1.32.96-2.42,2.22-2.64l-.15-.8-.12-.61c-1.92.35-3.38,2.02-3.38,4.04,0,2.27,1.84,4.11,4.11,4.11,1.65,0,3.08-.98,3.73-2.4l-1.54-.18c-.49.69-1.28,1.14-2.19,1.14Z"/>
        <polygon class="cls-6" points="245.22 118.48 244.44 116.92 243.57 116.92 241.93 116.92 242.12 117.9 242.72 120.99 244.21 121.16 245.64 121.32 246.84 121.46 246.84 118.95 245.22 118.48"/>
        <path class="cls-6" d="M242.02,115.96c.25.09.52.14.8.14s.55-.05.8-.14c.94-.33,1.62-1.23,1.62-2.29,0-1.34-1.09-2.43-2.43-2.43s-2.43,1.09-2.43,2.43c0,1.06.68,1.95,1.62,2.29Z"/>
      </g>
    </g>
    <g>
      <path class="cls-6" d="M232.85,250.94h-.13c-.37,0-.67.3-.67.67v2.27h-.53v-2.27c0-.37-.3-.67-.67-.67h-.13c-.37,0-.67.3-.67.67v2.27h-.53v-2.27c0-.37-.3-.67-.67-.67h-.13c-.37,0-.67.3-.67.67v3.9c0,1.12.89,2.03,2.01,2.07v4.99c0,.37.3.67.67.67h.13c.37,0,.67-.3.67-.67v-4.99c1.11-.04,2-.95,2-2.07v-3.9c0-.37-.3-.67-.67-.67Z"/>
      <path class="cls-6" d="M238.33,250.94h-.95c-1.32,0-2.39,1.07-2.39,2.39v3.7c0,1.32,1.07,2.39,2.39,2.39h.14v3.07c0,.41.33.74.74.74s.74-.33.74-.74v-10.89c0-.37-.3-.67-.67-.67Z"/>
    </g>
    <g>
      <path class="cls-3" d="M536.33,248.45h-1.95v.39h2.44v1.17h-.49v-.88h-1.95v1.39h-.49v-1.39h-1.88v.98h-.49v-1.27h2.37v-.39h-1.95v-.39h4.39v.39ZM537.01,252.63c-.02.6-.29.9-.81.9h-1.9c-.29,0-.44-.14-.44-.42v-.46h-1.27v.42h-.42v-2.39h3.98v1.98h-1.81v.22c0,.13.06.2.17.2h1.61c.21,0,.33-.18.34-.54l.54.1ZM532.3,249.75v-.29h1.34v.29h-1.34ZM533.64,250.33h-1.34v-.29h1.34v.29ZM532.6,251.45h1.27v-.39h-1.27v.39ZM532.6,252.26h1.27v-.41h-1.27v.41ZM534.35,251.45h1.39v-.39h-1.39v.39ZM534.35,252.26h1.39v-.41h-1.39v.41ZM534.64,249.75v-.29h1.42v.29h-1.42ZM534.64,250.33v-.29h1.42v.29h-1.42Z"/>
      <path class="cls-3" d="M543.14,249.84v.46h-5.54v-.46h1.73l-.39-.9h-.78v-.46h1.98v-.59h.46c.13.02.14.07.02.15v.44h2v.46h-.78l-.41.9h1.71ZM542.11,253.41h-.49v-.2h-2.46v.32h-.49v-2.81h3.44v2.68ZM541.62,251.7v-.51h-2.46v.51h2.46ZM541.62,252.75v-.59h-2.46v.59h2.46ZM539.82,249.84h1.15l.32-.9h-1.81l.34.9Z"/>
    </g>
    <g>
      <rect class="cls-2" x="17.66" y="0" width="86.47" height="34.02" rx="7.77" ry="7.77"/>
      <g>
        <path class="cls-3" d="M51.8,9.88v14.76h-1.96v-11.35h-4.27v-1.37c2.5.06,4.12-.63,4.86-2.05h1.37Z"/>
        <path class="cls-3" d="M61.7,15.17l1.71-5.72h-2.47v17.32h-1.71V8.09h4.52l.26-.43,1.54.94c.17.11.11.26-.17.43l-2.05,5.89c1.76,2.28,2.33,4.67,1.71,7.17-.17.68-.71,1.02-1.62,1.02h-1.62l-.17-1.62h1.28c.34,0,.54-.2.6-.6.34-2.05-.26-3.95-1.79-5.72ZM67.76,9.88h2.9v1.62h-2.9v2.82c.97-.23,1.96-.51,2.99-.85l.34,1.45-5.63,1.62c-.12.29-.23.34-.34.17l-.68-1.71,1.62-.34v-7.51h1.62c.46.06.48.23.08.51v2.22ZM70.32,15.69l1.71.43c.51.17.46.34-.17.51l-.51,1.11h5.21v8.88h-1.71v-.85h-6.57v1.02h-1.71v-9.05h3.24l.51-2.05ZM68.27,20.98h6.57v-1.88h-6.57v1.88ZM68.27,24.39h6.57v-2.05h-6.57v2.05ZM78.17,12.78c.06,2.05-.51,3.07-1.71,3.07h-3.24c-1.02,0-1.54-.48-1.54-1.45v-7.25h1.62c.46.06.48.23.08.51v2.73l3.41-1.71.94,1.37c.23.34.11.48-.34.43l-4.01,1.45v1.62c0,.46.2.68.6.68h1.88c.34,0,.51-.17.51-.51l.08-1.37,1.71.43Z"/>
      </g>
    </g>
    <path class="cls-3" d="M149.21,203.5v-29.58H30.91v29.58h31.01v31.56c-4.7,1.3-9.01,3.67-12.12,6.93l3.36,3.31c-4.74,4.75-7.68,11.31-7.68,18.56,0,.52.02,1.04.05,1.55h-3.38v39.99l15.3-9.09v-4.09h7.57v-2.97c2.15.57,4.4.87,6.73.87v2.09s26.45,2.27,31.29-32.12h-5.29c-1.55-10.85-9.74-19.56-20.32-21.9v-2.8h-.01v-.52s0-31.39,0-31.39h71.79Z"/>
    <g>
      <path class="cls-9" d="M61.84,268.03v-.31h-5.12v.38h-.62v-6.72h6.38v6.66h-.62ZM61.84,261.96h-5.12v5.16h5.12v-5.16ZM61.44,266.12l-.5.59c-.46-.4-.96-.73-1.5-1-.48.48-1.16.89-2.03,1.22l-.41-.56c.83-.33,1.45-.67,1.84-1-.48-.25-1.02-.5-1.62-.75l.41-.5c.5.19,1.06.43,1.69.72.48-.56.91-1.38,1.28-2.47l.69.28c.17.04.13.12-.09.22-.4,1-.82,1.76-1.28,2.28.54.27,1.05.59,1.53.97ZM57.94,262.59c.27.31.5.68.69,1.09l-.56.34c-.17-.42-.39-.79-.66-1.12l.53-.31ZM59.31,263.68c-.17-.42-.39-.79-.66-1.12l.53-.31c.33.38.56.74.69,1.09l-.56.34Z"/>
      <path class="cls-9" d="M67.17,262.03h-2.19v-.5h2.19v-.56h.59c.17.02.18.08.03.19v.38h2.16v.84h1.03v.5h-1.03v.88h-2.16v.38h2.28v.5h-2.28v.38h3.28v.5h-7.19v-.5h3.28v-.38h-2.28v-.5h2.28v-.38h-2.22v-.5h2.22v-.38h-3.16v-.5h3.16v-.34ZM65.04,265.87h4.84v2.28h-.62v-.16h-3.59v.16h-.62v-2.28ZM65.67,266.37v.31h3.59v-.31h-3.59ZM65.67,267.18v.31h3.59v-.31h-3.59ZM69.32,262.37v-.34h-1.53v.34h1.53ZM67.79,262.87v.38h1.53v-.38h-1.53Z"/>
      <path class="cls-9" d="M72.68,263.65l-.34.38-.41-.53c.77-.71,1.3-1.52,1.59-2.44l.62.09c.08.06.05.14-.09.22.46.38.84.72,1.16,1.03l-.34.59c-.46-.52-.8-.88-1.03-1.09-.29.65-.58,1.12-.88,1.44h.62v-.78h.59c.15.02.16.08.03.19v.59h.81v2.5h-1.81v1.31l1.25-.28c-.08-.15-.21-.34-.38-.59l.53-.28c.33.44.65.95.94,1.53l-.62.34c-.1-.25-.2-.44-.28-.56l-2.09.66c-.02.1-.08.12-.19.06l-.25-.62.56-.12v-3.62ZM73.21,263.84v.47h1.28v-.47h-1.28ZM73.21,264.81v.53h1.28v-.53h-1.28ZM78.56,265.18h-.62v-.12h-1.41v.69h2.31v2.28h-.62v-.25h-1.69v.41h-.62v-4.81h-.62v-1.38h1.69v-.84h.59c.21,0,.22.06.03.19v.66h1.72v1.38h-.62v-.88h-2.78v.75h2.66v1.94ZM76.52,263.75v.81h1.41v-.81h-1.41ZM76.52,267.28h1.69v-1.03h-1.69v1.03Z"/>
    </g>
    <g>
      <path class="cls-9" d="M104.46,186.19v.5h-1.5l.31.62-.69.12-.28-.75h-.5c-.12.21-.27.41-.44.59v.41h2.94v1.41h-.62v-.91h-5.16v.91h-.62v-1.41h.12l-.41-.5c.6-.48,1.03-1.05,1.28-1.72l.66.06c.1.06.08.12-.06.19-.1.21-.19.37-.25.47h1.75v.5h-.97l.28.62-.69.16-.22-.78h-.41c-.23.33-.53.67-.91,1h2.66v-.34l-.12-.16c.54-.52.88-1.09,1.03-1.72l.66.06c.08.06.06.12-.06.19-.08.21-.16.37-.22.47h2.44ZM103.11,188.66v1.62h-3.47v.41h3.78v1.91h-.62v-.19h-3.16v.25h-.62v-4h4.09ZM102.49,189.16h-2.84v.62h2.84v-.62ZM102.8,191.19h-3.16v.72h3.16v-.72Z"/>
      <path class="cls-9" d="M108.35,190.75c-.81.29-1.57.53-2.28.72-.06.17-.12.2-.19.09l-.22-.72,1.09-.22v-1.72h-.84v-.59h.84v-1.66h-.94v-.59h2.5v.59h-.94v1.66h.84v.59h-.84v1.56c.17-.02.47-.1.91-.25l.06.53ZM110.81,189.28v.91h1.75v.59h-1.75v.97h2.06v.59h-4.97v-.59h2.38v-.97h-1.69v-.59h1.69v-.91h-1.12v.41h-.53v-3.84h3.88v3.72h-.53v-.28h-1.16ZM110.28,187.35v-1h-1.12v1h1.12ZM110.28,187.85h-1.12v.94h1.12v-.94ZM111.97,186.35h-1.16v1h1.16v-1ZM111.97,187.85h-1.16v.94h1.16v-.94Z"/>
      <path class="cls-9" d="M115.7,187.13h.72v.59h-.72v1c.4.27.72.54.97.81l-.34.62c-.23-.31-.44-.54-.62-.69v3.22h-.62v-3.12c-.23.67-.52,1.2-.88,1.59l-.34-.62c.67-.88,1.06-1.81,1.19-2.81h-1v-.59h1.03v-1.59h.59c.17.02.18.08.03.19v1.41ZM118.95,187v.47h1.5v2.69h-1.38c.69.62,1.4,1.06,2.12,1.31l-.25.69c-.85-.4-1.52-.88-2-1.47v1.94h-.62v-1.81c-.44.67-1.05,1.16-1.84,1.47l-.25-.66c.88-.33,1.52-.82,1.94-1.47h-1.34v-2.69h1.5v-.47h-1.84v-.59h1.84v-.94h.59c.17.02.18.08.03.19v.75h1.88v.59h-1.88ZM117.45,188.6h.88v-.62h-.88v.62ZM117.45,189.66h.88v-.56h-.88v.56ZM118.95,188.6h.88v-.62h-.88v.62ZM118.95,189.66h.88v-.56h-.88v.56Z"/>
    </g>
    <g>
      <circle class="cls-6" cx="59.22" cy="235.86" r="2.48"/>
      <circle class="cls-6" cx="52.3" cy="235.86" r="2.48"/>
      <polygon class="cls-6" points="59.22 239.04 56.52 245.7 61.92 245.7 59.22 239.04"/>
      <polygon class="cls-6" points="52.3 245.95 55 239.28 49.6 239.28 52.3 245.95"/>
    </g>
    <g>
      <circle class="cls-6" cx="232.48" cy="235.47" r="2.48"/>
      <circle class="cls-6" cx="225.56" cy="235.47" r="2.48"/>
      <polygon class="cls-6" points="232.48 238.65 229.78 245.32 235.18 245.32 232.48 238.65"/>
      <polygon class="cls-6" points="225.56 245.56 228.26 238.9 222.86 238.9 225.56 245.56"/>
    </g>
    <g>
      <circle class="cls-8" cx="503.61" cy="298.1" r="2.48"/>
      <circle class="cls-8" cx="496.69" cy="298.1" r="2.48"/>
      <polygon class="cls-8" points="503.61 301.28 500.9 307.95 506.31 307.95 503.61 301.28"/>
      <polygon class="cls-8" points="496.69 308.19 499.39 301.53 493.99 301.53 496.69 308.19"/>
    </g>
    <g>
      <circle class="cls-6" cx="85.98" cy="126.63" r="2.48"/>
      <polygon class="cls-6" points="85.98 129.81 83.28 136.48 88.68 136.48 85.98 129.81"/>
    </g>
    <g>
      <circle class="cls-6" cx="219.82" cy="114.66" r="2.48"/>
      <polygon class="cls-6" points="219.82 124.75 222.52 118.09 217.12 118.09 219.82 124.75"/>
    </g>
    <rect class="cls-8" x="283.83" y="114.82" width="1" height="16.37" transform="translate(407.34 -161.33) rotate(90)"/>
    <rect class="cls-8" x="271.08" y="102.29" width="1" height="27.84" transform="translate(387.79 -155.38) rotate(90)"/>
    <rect class="cls-8" x="269.89" y="120.36" width="1" height="5.29" transform="translate(393.39 -147.38) rotate(90)"/>
    <rect class="cls-8" x="259.99" y="120.18" width="1" height="5.64" transform="translate(383.49 -137.48) rotate(90)"/>
    <rect class="cls-8" x="259.21" y="126.18" width="1" height="4.09" transform="translate(387.93 -131.48) rotate(90)"/>
    <rect class="cls-8" x="32.62" y="109.36" width="28.16" height="15.89"/>
    <g>
      <path class="cls-3" d="M80.16,120.21c.5-.73.75-1.46.75-2.19v-4.06h5.81v2h-.62v-.22h-.88v.69h1.41v.59h-1.41v.69h1.91v.59h-2.38c.1.27.26.51.47.72l.88-.66.5.53c.02.1-.03.14-.16.09l-.84.44c.52.35,1.1.59,1.75.72l-.22.69c-1.5-.33-2.51-1.18-3.03-2.53h-.78v1.69l1.41-.22.09.56-2.81.53c-.02.15-.07.18-.16.09l-.25-.84,1.09-.06v-1.75h-1.16c-.04.98-.33,1.81-.88,2.5l-.5-.59ZM81.53,115.15h4.56v-.59h-4.56v.59ZM82.97,116.43v-.69h-1.44v1.97h1.44v-.69h-1.12v-.59h1.12ZM83.6,116.43h1v-.69h-1v.69ZM83.6,117.71h1v-.69h-1v.69Z"/>
      <path class="cls-3" d="M91.86,120.62h-.88l-.12-.69h.69c.08,0,.12-.04.12-.12v-2.94h-3.06v-.69h6.72v.69h-2.94v3.19c0,.38-.18.56-.53.56ZM88.61,119.4c.58-.42,1.09-1.05,1.53-1.91l.62.34c.17.1.13.18-.09.22-.35.75-.88,1.4-1.56,1.94l-.5-.59ZM89.64,115.03v-.69h4.75v.69h-4.75ZM93.73,117.46c.42.69.99,1.29,1.72,1.81l-.53.59c-.69-.56-1.27-1.24-1.75-2.03l.56-.38Z"/>
    </g>
    <g>
      <path class="cls-3" d="M38.26,120.21c.5-.73.75-1.46.75-2.19v-4.06h5.81v2h-.62v-.22h-.88v.69h1.41v.59h-1.41v.69h1.91v.59h-2.38c.1.27.26.51.47.72l.88-.66.5.53c.02.1-.03.14-.16.09l-.84.44c.52.35,1.1.59,1.75.72l-.22.69c-1.5-.33-2.51-1.18-3.03-2.53h-.78v1.69l1.41-.22.09.56-2.81.53c-.02.15-.07.18-.16.09l-.25-.84,1.09-.06v-1.75h-1.16c-.04.98-.33,1.81-.88,2.5l-.5-.59ZM39.64,115.15h4.56v-.59h-4.56v.59ZM41.08,116.43v-.69h-1.44v1.97h1.44v-.69h-1.12v-.59h1.12ZM41.7,116.43h1v-.69h-1v.69ZM41.7,117.71h1v-.69h-1v.69Z"/>
      <path class="cls-3" d="M49.96,120.62h-.88l-.12-.69h.69c.08,0,.12-.04.12-.12v-2.94h-3.06v-.69h6.72v.69h-2.94v3.19c0,.38-.18.56-.53.56ZM46.71,119.4c.58-.42,1.09-1.05,1.53-1.91l.62.34c.17.1.13.18-.09.22-.35.75-.88,1.4-1.56,1.94l-.5-.59ZM47.74,115.03v-.69h4.75v.69h-4.75ZM51.84,117.46c.42.69.99,1.29,1.72,1.81l-.53.59c-.69-.56-1.27-1.24-1.75-2.03l.56-.38Z"/>
    </g>
    <g>
      <path class="cls-11" d="M162.64,346.26h.96l.33-.71h-1.53v.66c0,1.24-.26,2.18-.77,2.82l-.49-.36c.47-.55.71-1.4.71-2.57v-2.9h5v1.39h-4.46v.44h4.84v.52h-1.42c.53.36.96.72,1.29,1.07l-.46.33-.38-.38-1.2.08v.66h1.7v.52h-1.7v.66h2.38v.52h-5.22v-.52h2.3v-.66h-1.7v-.52h1.7v-.6l-1.48.05c-.04.15-.1.16-.19.03l-.19-.52ZM166.3,344.16v-.52h-3.91v.52h3.91ZM164.58,345.55l-.46.71,1.72-.05-.46-.36.33-.3h-1.12Z"/>
      <path class="cls-11" d="M168.69,348.45c.6-.38,1.13-.98,1.59-1.8-.37-.33-.67-.57-.9-.71-.13.31-.3.59-.52.85l-.49-.36c.6-.75.99-1.75,1.18-3.01l.57.16c.09.07.07.14-.05.19l-.11.52h1.04l.11-.11.38.33c.05.05.04.11-.05.16-.27,1.93-1.07,3.35-2.38,4.27l-.36-.49ZM170.85,344.81h-1.04l-.22.6c.24.15.54.37.9.68.16-.42.28-.85.36-1.29ZM174.18,347.3c-.53-.36-.92-.67-1.18-.9v2.65h-.55v-3.2c-.35-.44-.66-.89-.93-1.37l.44-.33c.16.29.33.55.49.77v-1.89h.52c.15.02.15.07.03.16v2.35c.13.25.66.66,1.59,1.2l-.41.55Z"/>
      <path class="cls-11" d="M181.17,348.15l-.55.46c-.77-.8-1.5-1.48-2.21-2.02-.71.77-1.52,1.45-2.43,2.05l-.52-.46c1.93-1.26,3.17-2.52,3.72-3.77l-2.98.19-.08-.66,3.17-.14.33-.08.44.44c.13.13.09.21-.11.25-.35.6-.71,1.16-1.09,1.67.78.6,1.56,1.29,2.32,2.08Z"/>
      <path class="cls-11" d="M184.6,345.83h-2.73v-.6h5.61v.6h-2.24v.36c0,1.15-.41,2.1-1.23,2.84l-.55-.41c.77-.6,1.15-1.41,1.15-2.43v-.36ZM182.85,344.16v-.6h3.64v.6h-3.64Z"/>
      <path class="cls-11" d="M188.38,346.32v-.6h6.1v.6h-6.1Z"/>
      <path class="cls-11" d="M196.65,346.26c-.55-.4-1-.69-1.37-.88l.41-.57c.46.24.92.53,1.39.88l-.44.57ZM200.86,345.53c-.93,1.5-2.37,2.55-4.32,3.17-.05.22-.15.23-.27.03l-.38-.6c1.99-.44,3.48-1.47,4.48-3.09l.49.49ZM197.47,344.65c-.49-.35-.95-.64-1.37-.88l.36-.57c.49.27.96.57,1.39.88l-.38.57ZM199.08,343.26c.31.25.62.55.93.88l-.36.33c-.31-.33-.63-.63-.96-.9l.38-.3ZM199.74,342.79c.31.24.62.52.93.85l-.36.36c-.33-.36-.64-.66-.93-.88l.36-.33Z"/>
    </g>
    <rect class="cls-8" x="99.93" y="128.73" width="1" height="6.66"/>
    <rect class="cls-8" x="75.2" y="127.73" width="1" height="2.93"/>
    <rect class="cls-8" x="72.47" y="85.37" width="1" height="16.26"/>
    <rect class="cls-8" x="62.31" y="61.37" width="1" height="16.26"/>
    <rect class="cls-8" x="72.47" y="61.37" width="1" height="16.26"/>
    <rect class="cls-8" x="72.11" y="154.64" width="1" height="12.38"/>
    <rect class="cls-8" x="75.23" y="154.64" width="1" height="12.38"/>
    <rect class="cls-8" x="78.35" y="154.84" width="1" height="12.38"/>
    <rect class="cls-8" x="81.46" y="154.71" width="1" height="12.38"/>
    <rect class="cls-8" x="87.7" y="154.71" width="1" height="12.38"/>
    <rect class="cls-8" x="90.81" y="154.84" width="1" height="12.38"/>
    <rect class="cls-8" x="84.58" y="154.84" width="1" height="12.38"/>
    <rect class="cls-8" x="93.93" y="154.84" width="1" height="12.38"/>
    <g>
      <g>
        <rect class="cls-8" x="75.66" y="51.17" width="1" height="6.62"/>
        <rect class="cls-8" x="77.59" y="51.27" width="1" height="6.62"/>
        <rect class="cls-8" x="73.73" y="51.27" width="1" height="6.62"/>
        <rect class="cls-8" x="71.8" y="54.58" width="1" height="3.21"/>
        <rect class="cls-8" x="69.87" y="54.58" width="1" height="3.49"/>
        <rect class="cls-8" x="81.46" y="51.17" width="1" height="3.21"/>
        <rect class="cls-8" x="79.52" y="51.17" width="1" height="3.49"/>
        <rect class="cls-8" x="76.39" y="50.76" width="1" height="14.05" transform="translate(134.68 -19.1) rotate(90)"/>
        <rect class="cls-8" x="75.66" y="48.29" width="1" height="12.59" transform="translate(130.74 -21.58) rotate(90)"/>
      </g>
      <g>
        <rect class="cls-8" x="166.99" y="51.17" width="1" height="6.62"/>
        <rect class="cls-8" x="168.92" y="51.27" width="1" height="6.62"/>
        <rect class="cls-8" x="165.06" y="51.27" width="1" height="6.62"/>
        <rect class="cls-8" x="163.13" y="54.58" width="1" height="3.21"/>
        <rect class="cls-8" x="161.2" y="54.58" width="1" height="3.49"/>
        <rect class="cls-8" x="172.79" y="51.17" width="1" height="3.21"/>
        <rect class="cls-8" x="170.86" y="51.17" width="1" height="3.49"/>
        <rect class="cls-8" x="167.73" y="50.77" width="1" height="14.05" transform="translate(226.02 -110.43) rotate(90)"/>
        <rect class="cls-8" x="166.99" y="48.29" width="1" height="12.59" transform="translate(222.07 -112.91) rotate(90)"/>
      </g>
      <g>
        <rect class="cls-8" x="259.01" y="51.17" width="1" height="6.62"/>
        <rect class="cls-8" x="260.94" y="51.27" width="1" height="6.62"/>
        <rect class="cls-8" x="257.08" y="51.27" width="1" height="6.62"/>
        <rect class="cls-8" x="255.15" y="54.58" width="1" height="3.21"/>
        <rect class="cls-8" x="253.21" y="54.58" width="1" height="3.49"/>
        <rect class="cls-8" x="264.8" y="51.17" width="1" height="3.21"/>
        <rect class="cls-8" x="262.87" y="51.17" width="1" height="3.49"/>
        <rect class="cls-8" x="259.74" y="50.77" width="1" height="14.05" transform="translate(318.03 -202.45) rotate(90)"/>
        <rect class="cls-8" x="259.01" y="48.29" width="1" height="12.59" transform="translate(314.09 -204.92) rotate(90)"/>
      </g>
    </g>
    <rect class="cls-8" x="62.31" y="85.37" width="1" height="16.26"/>
    <rect class="cls-8" x="62.31" y="109.85" width="1" height="14.73"/>
    <rect class="cls-8" x="41.75" y="150.63" width="1" height="16.35"/>
    <rect class="cls-8" x="60.92" y="150.63" width="1" height="16.35"/>
    <rect class="cls-8" x="69" y="154.14" width="1" height="12.84"/>
    <g>
      <rect class="cls-8" x="137.93" y="131.5" width="1" height="32.46" transform="translate(286.16 9.3) rotate(90)"/>
      <rect class="cls-8" x="137.93" y="118.65" width="1" height="32.46" transform="translate(273.31 -3.55) rotate(90)"/>
      <rect class="cls-8" x="125.34" y="134.88" width="1" height="12.38"/>
      <rect class="cls-8" x="128.49" y="134.88" width="1" height="12.38"/>
      <rect class="cls-8" x="131.64" y="135.09" width="1" height="12.38"/>
      <rect class="cls-8" x="134.78" y="134.95" width="1" height="12.38"/>
      <rect class="cls-8" x="141.08" y="134.95" width="1" height="12.38"/>
      <rect class="cls-8" x="144.22" y="135.09" width="1" height="12.38"/>
      <rect class="cls-8" x="137.93" y="135.09" width="1" height="12.38"/>
      <rect class="cls-8" x="147.37" y="135.09" width="1" height="12.38"/>
      <rect class="cls-8" x="150.52" y="134.95" width="1" height="12.38"/>
      <rect class="cls-8" x="153.66" y="134.95" width="1" height="12.38"/>
      <rect class="cls-8" x="122.2" y="134.38" width="1" height="12.84"/>
    </g>
    <g>
      <rect class="cls-8" x="178.89" y="134.84" width="1" height="25.67" transform="translate(327.06 -31.72) rotate(90)"/>
      <rect class="cls-8" x="178.92" y="122.02" width="1" height="25.73" transform="translate(314.3 -44.53) rotate(90)"/>
      <rect class="cls-8" x="169.64" y="134.83" width="1" height="12.38"/>
      <rect class="cls-8" x="172.72" y="134.83" width="1" height="12.38"/>
      <rect class="cls-8" x="175.81" y="135.03" width="1" height="12.38"/>
      <rect class="cls-8" x="178.89" y="134.9" width="1" height="12.38"/>
      <rect class="cls-8" x="185.06" y="134.9" width="1" height="12.38"/>
      <rect class="cls-8" x="188.14" y="135.03" width="1" height="12.38"/>
      <rect class="cls-8" x="181.97" y="135.03" width="1" height="12.38"/>
      <rect class="cls-8" x="191.23" y="135.03" width="1" height="12.38"/>
      <rect class="cls-8" x="166.55" y="134.33" width="1" height="12.84"/>
    </g>
    <rect class="cls-8" x="26.13" y="150.63" width="1" height="8.62"/>
    <rect class="cls-8" x="153.77" y="61.37" width="1" height="16.26"/>
    <rect class="cls-8" x="153.77" y="85.37" width="1" height="16.26"/>
    <rect class="cls-8" x="153.77" y="109.85" width="1" height="14.73"/>
    <rect class="cls-8" x="230.37" y="127.73" width="1" height="7.36"/>
    <rect class="cls-8" x="225.12" y="115.92" width="1" height="7.36"/>
    <rect class="cls-8" x="272.04" y="115.92" width="1" height="7.36"/>
    <rect class="cls-8" x="235.25" y="115.92" width="1" height="7.36"/>
    <rect class="cls-8" x="257.66" y="115.85" width="1" height="7.36"/>
    <rect class="cls-8" x="163.83" y="96.59" width="1" height="26.85"/>
    <rect class="cls-8" x="163.83" y="61.67" width="1" height="26.85"/>
    <rect class="cls-8" x="247.57" y="64.2" width="1" height="27.96"/>
    <rect class="cls-8" x="247.57" y="98.75" width="1" height="13.12"/>
    <rect class="cls-8" x="257.66" y="61.67" width="1" height="11.84"/>
    <rect class="cls-8" x="257.58" y="77.68" width="1" height="10.39"/>
    <rect class="cls-8" x="257.58" y="93.25" width="1" height="17.29"/>
    <rect class="cls-8" x="277.01" y="77.41" width="1" height="10.47"/>
    <rect class="cls-8" x="231.16" y="57.79" width="1" height="15.96"/>
    <rect class="cls-8" x="213.17" y="128.71" width="1" height="6.21"/>
    <rect class="cls-8" x="247.57" y="127.95" width="1" height="6.59"/>
    <rect class="cls-8" x="257.66" y="127.73" width="1" height="6.59"/>
    <rect class="cls-8" x="75.2" y="109.59" width="1" height="14.73"/>
    <rect class="cls-8" x="62.31" y="127.73" width="1" height="1.96"/>
    <rect class="cls-8" x="62.31" y="133.42" width="1" height="1.96"/>
    <rect class="cls-8" x="191.28" y="128.73" width="1" height="6.66"/>
    <rect class="cls-8" x="153.66" y="127.73" width="1" height="1.96"/>
    <rect class="cls-8" x="122.2" y="128.23" width="1" height="6.66"/>
    <rect class="cls-8" x="153.66" y="133.42" width="1" height="1.96"/>
    <rect class="cls-8" x="166.55" y="127.73" width="1" height="1.96"/>
    <rect class="cls-8" x="166.55" y="133.42" width="1" height="1.96"/>
    <g>
      <path class="cls-13" d="M128.38,244.64h.96l.33-.71h-1.53v.66c0,1.24-.26,2.18-.77,2.82l-.49-.36c.47-.55.71-1.4.71-2.57v-2.9h5v1.39h-4.46v.44h4.84v.52h-1.42c.53.36.96.72,1.29,1.07l-.46.33-.38-.38-1.2.08v.66h1.7v.52h-1.7v.66h2.38v.52h-5.22v-.52h2.3v-.66h-1.7v-.52h1.7v-.6l-1.48.05c-.04.15-.1.16-.19.03l-.19-.52ZM132.04,242.53v-.52h-3.91v.52h3.91ZM130.32,243.93l-.46.71,1.72-.05-.46-.36.33-.3h-1.12Z"/>
      <path class="cls-13" d="M134.78,246.83c.6-.38,1.13-.98,1.59-1.8-.37-.33-.67-.57-.9-.71-.13.31-.3.59-.52.85l-.49-.36c.6-.75.99-1.75,1.18-3.01l.57.16c.09.07.07.14-.05.19l-.11.52h1.04l.11-.11.38.33c.05.05.04.11-.05.16-.27,1.93-1.07,3.35-2.38,4.27l-.36-.49ZM136.94,243.19h-1.04l-.22.6c.24.15.54.37.9.68.16-.42.28-.85.36-1.29ZM140.28,245.68c-.53-.36-.92-.67-1.18-.9v2.65h-.55v-3.2c-.35-.44-.66-.89-.93-1.37l.44-.33c.16.29.33.55.49.77v-1.89h.52c.15.02.15.07.03.16v2.35c.13.25.66.66,1.59,1.2l-.41.55Z"/>
      <path class="cls-13" d="M132.56,254.93l-.55.46c-.77-.8-1.5-1.48-2.21-2.02-.71.77-1.52,1.45-2.43,2.05l-.52-.46c1.93-1.26,3.17-2.52,3.72-3.77l-2.98.19-.08-.66,3.17-.14.33-.08.44.44c.13.13.09.21-.11.25-.35.6-.71,1.16-1.09,1.67.78.6,1.56,1.29,2.32,2.08Z"/>
      <path class="cls-13" d="M136.34,252.6h-2.73v-.6h5.61v.6h-2.24v.36c0,1.15-.41,2.1-1.23,2.84l-.55-.41c.77-.6,1.15-1.41,1.15-2.43v-.36ZM134.59,250.93v-.6h3.64v.6h-3.64Z"/>
      <path class="cls-13" d="M140.48,253.09v-.6h6.1v.6h-6.1Z"/>
      <path class="cls-13" d="M149.1,253.04c-.55-.4-1-.69-1.37-.88l.41-.57c.46.24.92.53,1.39.88l-.44.57ZM153.31,252.3c-.93,1.5-2.37,2.55-4.32,3.17-.05.22-.15.23-.27.03l-.38-.6c1.99-.44,3.48-1.47,4.48-3.09l.49.49ZM149.92,251.43c-.49-.35-.95-.64-1.37-.88l.36-.57c.49.27.96.57,1.39.88l-.38.57ZM151.53,250.03c.31.26.62.55.93.88l-.36.33c-.31-.33-.63-.63-.96-.9l.38-.3ZM152.18,249.57c.31.24.62.52.93.85l-.36.36c-.33-.36-.64-.66-.93-.88l.36-.33Z"/>
    </g>
    <g>
      <path class="cls-3" d="M130.36,218.04h2.09v.59h-2.09v.47h2.31v.59h-2.31v.5h3.22v.59h-3.03c.46.62,1.47,1.1,3.03,1.44l-.22.72c-1.65-.4-2.72-1.02-3.22-1.88-.5,1.06-1.59,1.72-3.28,1.97l-.25-.66c1.56-.23,2.54-.76,2.94-1.59h-2.97v-.59h3.16v-.5h-2.22v-.59h2.22v-.47h-2.06v-.59h2.06v-.62h.59c.17.02.18.08.03.19v.44ZM126.76,216.58h2.97v-.72h.69c.21.04.22.12.03.25v.47h2.94v1.69h-.62v-1.09h-5.38v1.09h-.62v-1.69Z"/>
      <path class="cls-3" d="M136.45,222.95h-.62v-3.31c-.21.23-.52.48-.94.75l-.41-.62c.9-.54,1.66-1.3,2.28-2.28l.5.41c.1.12.08.18-.06.16-.25.33-.5.66-.75.97v3.94ZM135.11,218.2l-.38-.56c.58-.33,1.17-.89,1.75-1.66l.47.41c.1.12.08.18-.06.16-.65.79-1.24,1.34-1.78,1.66ZM137.29,218.98v-.59h4.34v.59h-1.31v3.19c0,.44-.18.66-.53.66h-.84l-.12-.59h.75c.08,0,.12-.04.12-.12v-3.12h-2.41ZM141.01,216.39v.59h-3.38v-.59h3.38Z"/>
      <path class="cls-3" d="M143.42,216.23c1.83,0,3.44-.11,4.81-.34l.28.56c.08.15,0,.17-.25.06-.73.08-1.37.14-1.91.16v.59h2.88v.59h-2.62c.71.5,1.67.89,2.88,1.16l-.22.62c-1.17-.27-2.14-.75-2.91-1.44v1.06h-.62v-1.03c-.75.73-1.74,1.21-2.97,1.44l-.22-.66c1.21-.17,2.18-.55,2.91-1.16h-2.56v-.59h2.84v-.53c-.73.02-1.46.03-2.19.03l-.12-.53ZM144.17,221.58c.21-.21.46-.5.75-.88h-2.06v-.59h2.41c.21-.31.35-.55.44-.72l.5.25c.12.06.09.11-.09.16-.06.1-.14.21-.22.31h3.38v.59h-1.34c-.33.48-.62.81-.84,1,.6.19,1.27.43,2,.72l-.38.62c-.73-.38-1.44-.68-2.12-.91-.73.52-1.85.81-3.38.88l-.16-.69c1.23.02,2.18-.12,2.84-.44-.27-.06-.59-.16-.97-.28-.1.12-.2.22-.28.28l-.47-.31ZM147.2,220.7h-1.62c-.1.17-.22.32-.34.47.38.1.78.22,1.22.34.25-.19.5-.46.75-.81Z"/>
      <path class="cls-3" d="M151.07,223.08l-.31-.59c.85-.17,1.6-.45,2.25-.84l.44.44c0,.08-.06.12-.19.12-.54.35-1.27.65-2.19.88ZM152.11,221.86h-.62v-3.88h5.09v3.78h-.62v-.19h-3.84v.28ZM156.07,215.95v1.66h-4.09v-1.66h4.09ZM155.95,219.04v-.56h-3.84v.56h3.84ZM155.95,219.54h-3.84v.53h3.84v-.53ZM155.95,221.08v-.5h-3.84v.5h3.84ZM155.54,217.11v-.66h-3.03v.66h3.03ZM155.14,221.64c.77.38,1.52.64,2.25.78l-.28.59c-.79-.17-1.62-.5-2.47-1l.5-.38Z"/>
      <path class="cls-3" d="M140.52,231.36c-1.27-.79-2.26-1.8-2.97-3.03v1.97h1.28v.59h-1.28v1.69h-.62v-1.69h-1.22v-.59h1.22v-1.97c-.6,1.33-1.58,2.4-2.94,3.19l-.34-.66c1.42-.77,2.43-1.9,3.03-3.38h-2.72v-.59h2.97v-1.41h.59c.17.02.18.08.03.19v1.22h3v.59h-2.78c.71,1.27,1.74,2.32,3.09,3.16l-.34.72Z"/>
      <path class="cls-3" d="M145.09,225.43h.69c.21.04.22.12.03.25v.69h1.47v.59h-.44l-.44,1.31h1.19v.59h-4.28v-.59h1.19l-.38-1.31h-.41v-.59h1.38v-.94ZM143.94,229.43h2.97v2.84h-.62v-.34h-1.72v.5h-.62v-3ZM144.56,230.02v1.31h1.72v-1.31h-1.72ZM146.12,226.96h-1.28l.31,1.31h.59l.38-1.31ZM148.97,231.58l-.12-.69h.5c.29,0,.41-.24.34-.72-.08-.58-.34-1.09-.78-1.53l.56-2.09h-1.03v6.06h-.62v-6.66h1.84l.06-.09.56.47-.12.09-.69,2.09c.62.69.93,1.3.91,1.84-.02.81-.3,1.22-.84,1.22h-.56Z"/>
    </g>
    <rect class="cls-8" x="207.28" y="139.34" width="93.87" height="24.58"/>
    <g>
      <path class="cls-3" d="M247.31,154.97c.5-.73.75-1.46.75-2.19v-4.06h5.81v2h-.62v-.22h-.88v.69h1.41v.59h-1.41v.69h1.91v.59h-2.38c.1.27.26.51.47.72l.88-.66.5.53c.02.1-.03.14-.16.09l-.84.44c.52.35,1.1.59,1.75.72l-.22.69c-1.5-.33-2.51-1.18-3.03-2.53h-.78v1.69l1.41-.22.09.56-2.81.53c-.02.15-.07.18-.16.09l-.25-.84,1.09-.06v-1.75h-1.16c-.04.98-.33,1.81-.88,2.5l-.5-.59ZM248.69,149.91h4.56v-.59h-4.56v.59ZM250.13,151.19v-.69h-1.44v1.97h1.44v-.69h-1.12v-.59h1.12ZM250.75,151.19h1v-.69h-1v.69ZM250.75,152.47h1v-.69h-1v.69Z"/>
      <path class="cls-3" d="M259.01,155.38h-.88l-.12-.69h.69c.08,0,.12-.04.12-.12v-2.94h-3.06v-.69h6.72v.69h-2.94v3.19c0,.38-.18.56-.53.56ZM255.76,154.16c.58-.42,1.09-1.05,1.53-1.91l.62.34c.17.1.13.18-.09.22-.35.75-.88,1.4-1.56,1.94l-.5-.59ZM256.8,149.79v-.69h4.75v.69h-4.75ZM260.89,152.22c.42.69.99,1.29,1.72,1.81l-.53.59c-.69-.56-1.27-1.24-1.75-2.03l.56-.38Z"/>
    </g>
    <rect class="cls-8" x="283.3" y="127.73" width="23.77" height="7.31"/>
    <rect class="cls-8" x="25.83" y="127.32" width="5.01" height="8.06"/>
    <rect class="cls-3" x="151.51" y="163.92" width="18.41" height="21.17"/>
    <g>
      <path class="cls-9" d="M141.84,157.75c.04,1.58-.64,2.81-2.03,3.69l-.53-.59c1.23-.67,1.84-1.6,1.84-2.81v-1.34h.66c.19.02.21.09.06.22v.81c.75-.56,1.32-1.11,1.72-1.66l-5.09.19-.06-.72,5.69-.16.22-.06.47.56c.06.08,0,.12-.16.09-.62.81-1.38,1.57-2.25,2.28l-.53-.5Z"/>
      <path class="cls-9" d="M150.23,158.38l-.38.72c-1.1-.56-2.01-.94-2.72-1.12v3.25h-.72v-6.25h.62c.25.02.28.1.09.25v1.97c1.02.29,2.05.69,3.09,1.19Z"/>
      <path class="cls-9" d="M152.43,158.88h-.72v-3.53h.69c.21.02.22.1.03.25v3.28ZM155.65,158.19c0,1.56-.73,2.69-2.19,3.38l-.62-.53c1.38-.62,2.07-1.58,2.09-2.88v-3.12h.66c.21.04.23.12.06.25v2.91Z"/>
      <path class="cls-9" d="M163.66,156.53c0,2.27-1.09,3.95-3.28,5.03l-.59-.59c2.02-.92,3.04-2.29,3.06-4.12h-4.34l.06,1.84h-.72l-.09-2.53h2.47v-1.56h.62c.25.02.28.1.09.25v1.31h2.34l.38.38Z"/>
      <path class="cls-9" d="M165.11,159.81l1.31-.03c.75-1.62,1.32-3.28,1.72-4.97l.72.25c.19.12.17.22-.06.28-.4,1.48-.93,2.94-1.59,4.38l3.25-.16c-.44-.58-.78-1.01-1.03-1.28l.62-.44c.71.77,1.38,1.68,2.03,2.72l-.69.47-.5-.81-5.25.41c-.12.21-.22.21-.28,0l-.25-.81Z"/>
      <path class="cls-9" d="M174.97,156.1h.72v.59h-.72v1c.4.27.72.54.97.81l-.34.62c-.23-.31-.44-.54-.62-.69v3.22h-.62v-3.12c-.23.67-.52,1.2-.88,1.59l-.34-.62c.67-.88,1.06-1.81,1.19-2.81h-1v-.59h1.03v-1.59h.59c.17.02.18.08.03.19v1.41ZM178.22,155.97v.47h1.5v2.69h-1.38c.69.62,1.4,1.06,2.12,1.31l-.25.69c-.85-.4-1.52-.88-2-1.47v1.94h-.62v-1.81c-.44.67-1.05,1.16-1.84,1.47l-.25-.66c.88-.33,1.52-.82,1.94-1.47h-1.34v-2.69h1.5v-.47h-1.84v-.59h1.84v-.94h.59c.17.02.18.08.03.19v.75h1.88v.59h-1.88ZM176.72,157.56h.88v-.62h-.88v.62ZM176.72,158.63h.88v-.56h-.88v.56ZM178.22,157.56h.88v-.62h-.88v.62ZM178.22,158.63h.88v-.56h-.88v.56Z"/>
    </g>
    <g>
      <circle class="cls-6" cx="264.64" cy="114.79" r="2.48"/>
      <polygon class="cls-6" points="264.64 117.96 261.94 124.63 267.34 124.63 264.64 117.96"/>
    </g>
    <g>
      <path class="cls-9" d="M43.02,157.71l.09.06c.08.08.05.14-.09.16v4.97h-.62v-3.97c-.17.27-.37.52-.59.75l-.41-.62c.75-.73,1.26-1.85,1.53-3.38l.69.25c.08.08.05.14-.09.16-.06.46-.23,1-.5,1.62ZM43.58,162.49l-.34-.75c.9-.4,1.66-1.02,2.28-1.88h-2.25v-.59h2.28v-.94h-.94v.28h-.62v-2.59h3.69v2.56h-.62v-.25h-.88v.94h2.28v.59h-2.22c.58.81,1.38,1.43,2.41,1.84l-.22.72c-.88-.33-1.62-.91-2.25-1.72v2.19h-.62v-2.16c-.44.6-1.09,1.19-1.97,1.75ZM44.61,156.62v1.12h2.44v-1.12h-2.44Z"/>
      <path class="cls-9" d="M51.03,162.83h-.62v-3.81c-.21.38-.43.69-.66.94l-.34-.62c.73-.92,1.18-2.11,1.34-3.59l.72.19c.08.08.05.14-.09.16-.15.71-.28,1.26-.41,1.66l.12.03c.06.06.04.12-.06.19v4.88ZM53.25,158.52v.78c0,.83-.14,1.56-.41,2.19.31.38.81.56,1.5.56h2.5l-.12.59h-2.41c-.85,0-1.45-.22-1.78-.66-.31.38-.66.69-1.03.94l-.34-.56c.42-.23.75-.52,1-.88-.33-.6-.54-1.2-.62-1.78l.5-.09c.06.44.21.88.44,1.31.17-.48.25-1.08.25-1.81h-.62l-.19.31-.56-.25,1.06-2.16h-.91v-.59h1.16l.12-.16.5.38c.06.04,0,.08-.16.12l-.81,1.75h.94ZM55.06,159.05v.5h1.19v.5h-1.19v.53h1.44v.5h-1.44v.75h-.53v-.75h-1.16v-.5h1.16v-.53h-1v-.5h1v-.5h-1.03v-.5h1.03v-.53h-1.34v-.5h1.34v-.47h-1.03v-.5h1.03v-.69h.5c.17.02.18.08.03.19v.5h1.19v.97h.44v.5h-.44v1.03h-1.19ZM55.06,157.05v.47h.66v-.47h-.66ZM55.06,158.02v.53h.66v-.53h-.66Z"/>
      <path class="cls-9" d="M64.04,160.02c-.17-.15-.33-.27-.5-.38l-1.84.09v.88h2.47v.59h-2.47v.91h3.25v.59h-7.16v-.59h3.28v-.91h-2.44v-.59h2.44v-.84l-2.06.06c-.08.17-.16.18-.22.03l-.16-.66h1.16l.69-1h-1.47v-.5h4.75v.5h-1.16c.69.46,1.32.91,1.91,1.34l-.47.47ZM61.73,155.96v.53h2.97v1.66h-.62v-1.06h-5.38v1.06h-.62v-1.66h2.94v-.78h.69c.21.04.22.12.03.25ZM62.11,158.58l.41-.38h-1.28l-.75,1,2.47-.06c-.25-.19-.53-.38-.84-.56Z"/>
    </g>
    <g>
      <path class="cls-3" d="M526.23,230.98c1.02-.19,1.8-.45,2.34-.78-.21-.23-.5-.48-.88-.75-.19.15-.56.33-1.12.56l-.31-.59c1.21-.48,2-1.16,2.38-2.03l.62.19c.06.08.03.14-.09.16l-.19.28h1.97l.06-.16.5.38c.17.1.17.18,0,.22-1.04,1.58-2.7,2.64-4.97,3.16l-.31-.62ZM526.79,232.26c1.54-.44,2.6-1.12,3.19-2.06l.69.16c.08.08.05.14-.09.16l-.28.38h1.62l.06-.12.5.38c.17.1.17.18,0,.22-1.17,1.88-3.14,2.95-5.91,3.22l-.19-.69c1.38-.12,2.38-.36,3.03-.72-.19-.29-.49-.57-.91-.84-.5.23-.97.42-1.41.56l-.31-.62ZM530.57,228.6h-1.97c-.15.17-.29.31-.44.44.38.25.72.51,1.03.78.5-.27.96-.68,1.38-1.22ZM530.11,232.79c.54-.33,1.02-.77,1.44-1.31h-1.78c-.23.21-.45.38-.66.5.4.25.73.52,1,.81Z"/>
      <path class="cls-3" d="M539.81,234.38h-.62v-.38h-3.53v.5h-.62v-6.72h4.78v6.59ZM539.18,229.6v-1.22h-3.53v1.22h3.53ZM539.18,231.44v-1.25h-3.53v1.25h3.53ZM539.18,233.41v-1.38h-3.53v1.38h3.53Z"/>
      <path class="cls-3" d="M543.26,228.82c.12-.4.24-.85.34-1.38l.75.28c.08.08.05.14-.09.16-.06.27-.18.58-.34.94h1.16v5.16h-.62v-.38h-1.38v.62h-.62v-5.41h.81ZM544.44,229.41h-1.38v1.38h1.38v-1.38ZM544.44,231.38h-1.38v1.62h1.38v-1.62ZM546.57,229.41c-.21.58-.54,1.14-1,1.66l-.47-.56c.71-.71,1.16-1.72,1.34-3.03l.66.22c.19.08.18.15-.03.19-.06.29-.15.6-.25.94h2.25l-.16,4.25c-.02.83-.35,1.25-1,1.25h-.88l-.09-.59h.81c.29,0,.45-.19.47-.56l.16-3.75h-1.81ZM546.94,232.32c-.29-.42-.62-.79-.97-1.12l.53-.56c.42.38.75.74,1,1.09l-.56.59Z"/>
      <path class="cls-3" d="M526.76,242.41l-.69-.38c.52-.75.96-1.54,1.31-2.38l.69.38c.12.1.08.18-.12.22-.31.69-.71,1.41-1.19,2.16ZM529.01,236.57h.66c.23.04.25.12.06.25v1.5h2.88v.69h-2.88v4.34h-.72v-4.34h-2.81v-.69h2.81v-1.75ZM532.23,242.32c-.44-.77-.97-1.49-1.59-2.16l.59-.5c.75.79,1.31,1.52,1.69,2.19l-.69.47Z"/>
      <path class="cls-3" d="M533.68,240.29v-.69h6.97v.69h-6.97Z"/>
      <path class="cls-3" d="M541.69,242.79c1.04-1,1.56-2.24,1.56-3.72v-1.41h.66c.19.04.21.12.06.25v1.12c0,1.75-.55,3.14-1.66,4.16l-.62-.41ZM545.88,241.94c.92-.35,1.76-1.06,2.53-2.12l.44.59c-.79,1.08-1.79,1.87-3,2.34l-.25.12-.5-.38.06-.16v-5.03h.66c.19.04.21.12.06.25v4.38Z"/>
    </g>
    <g>
      <circle class="cls-6" cx="45.39" cy="126.63" r="2.48"/>
      <polygon class="cls-6" points="45.39 136.72 48.09 130.06 42.69 130.06 45.39 136.72"/>
    </g>
    <g>
      <path class="cls-3" d="M151.06,288.76l-1.73-3.46-3.2-6.45.1.2h2.48s.57,1.21.57,1.21h-1.01l3.36,6.74h3.45c.65,1.05,1.81,1.77,3.15,1.77,2.05,0,3.71-1.66,3.71-3.71,0-1.63-1.06-3-2.53-3.5v-1.3h-3.1l-3.71-7.8h-7.03l2.35,4.95h-2.51s0,0,0,0h-6.26l-3.38-6.99-1.67-.23-1.25-2.49h-1.84l1.11,2.22-4.06-.57v5.11l3.32.96,1.6,3.2h0l1.65,3.48-1.61,3.22,1.73,3.46h-2.39v11.45h29.38v-11.45h-10.68ZM136.59,288.76l-1.73-3.46.66-1.33.63,1.33h0l1.73,3.46h-1.29ZM139.73,288.76l-1.73-3.46h9.48l1.73,3.46h-9.48Z"/>
      <path class="cls-3" d="M148.27,271.78c1.75,0,3.17-1.42,3.17-3.17s-1.42-3.17-3.17-3.17-3.17,1.42-3.17,3.17,1.42,3.17,3.17,3.17Z"/>
    </g>
    <polygon class="cls-12" points="174.47 226.85 169.55 226.85 169.55 225.43 166.69 225.43 166.69 226.85 161.93 226.85 161.93 229.49 163.68 229.49 164.52 238.1 171.72 238.1 172.55 229.49 174.47 229.49 174.47 226.85"/>
    <polygon class="cls-12" points="110.39 334.8 105.47 334.8 105.47 333.37 102.61 333.37 102.61 334.8 97.86 334.8 97.86 337.44 99.61 337.44 100.44 346.05 107.64 346.05 108.48 337.44 110.39 337.44 110.39 334.8"/>
    <polygon class="cls-12" points="445.13 187.06 440.21 187.06 440.21 185.63 437.35 185.63 437.35 187.06 432.6 187.06 432.6 189.7 434.35 189.7 435.18 198.31 442.38 198.31 443.22 189.7 445.13 189.7 445.13 187.06"/>
    <polygon class="cls-12" points="633.42 182.64 628.5 182.64 628.5 181.21 625.64 181.21 625.64 182.64 620.89 182.64 620.89 185.28 622.63 185.28 623.47 193.89 630.67 193.89 631.5 185.28 633.42 185.28 633.42 182.64"/>
    <polygon class="cls-12" points="728.57 182.64 723.65 182.64 723.65 181.21 720.79 181.21 720.79 182.64 716.04 182.64 716.04 185.28 717.79 185.28 718.62 193.89 725.82 193.89 726.66 185.28 728.57 185.28 728.57 182.64"/>
  </g>
</svg>