<?xml version="1.0" encoding="UTF-8"?>
<svg id="Layer_2" data-name="Layer 2" xmlns="http://www.w3.org/2000/svg" viewBox="0 0 728.57 351.08">
  <defs>
    <style>
      .cls-1 {
        fill: #e34934;
      }

      .cls-2, .cls-3 {
        fill: #fff;
      }

      .cls-4 {
        fill: #5b8a8e;
      }

      .cls-3 {
        stroke: #8dd4d9;
        stroke-miterlimit: 10;
        stroke-width: 2px;
      }

      .cls-5 {
        fill: #53979c;
      }

      .cls-6 {
        fill: #f1b326;
      }

      .cls-7 {
        fill: #8dd4d9;
      }

      .cls-8 {
        fill: #ef4443;
      }

      .cls-9 {
        fill: #88a0a5;
      }
    </style>
  </defs>
  <g id="_地図" data-name="地図">
    <rect class="cls-4" x="291.32" y="48.29" width="104.56" height="72.23"/>
    <rect class="cls-7" x="295.81" y="52.46" width="96.62" height="63.25"/>
    <polygon class="cls-5" points="415.8 139.83 415.8 106.21 400.44 106.21 400.44 139.83 223.38 139.83 223.38 174.21 462.31 174.21 462.31 139.83 415.8 139.83"/>
    <polygon class="cls-5" points="196.06 181.45 111.46 181.45 111.46 175.47 27.54 175.47 27.54 197.29 0 197.29 0 214.12 27.54 214.12 27.54 222.07 111.46 222.07 111.46 207.55 196.06 207.55 196.06 181.45"/>
    <rect class="cls-5" x="248.28" y="203.5" width="414.89" height="18.73"/>
    <polygon class="cls-2" points="283.27 128.73 283.27 58.29 267.26 58.29 267.26 51.38 248.72 51.38 248.72 58.29 214.18 58.29 214.18 128.73 191.26 128.73 191.26 58.29 175.25 58.29 175.25 51.38 156.71 51.38 156.71 58.29 122.17 58.29 122.17 128.73 99.93 128.73 99.93 58.29 83.92 58.29 83.92 51.38 65.38 51.38 65.38 58.29 30.84 58.29 30.84 128.73 27.13 128.73 27.13 135.39 0 135.39 0 159.15 27.13 159.15 27.13 166.98 305.85 166.98 305.85 128.73 283.27 128.73"/>
    <rect class="cls-2" x="400.07" y="5.25" width="75.83" height="104.14"/>
    <rect class="cls-7" x="403" y="7.26" width="69.99" height="98.95"/>
    <rect class="cls-2" x="517.78" y="150.04" width="96.05" height="23.69"/>
    <rect class="cls-5" x="441.36" y="139.86" width="69.09" height="34.35"/>
    <rect class="cls-2" x="414.88" y="214.12" width="46.76" height="98.25"/>
    <rect class="cls-2" x="464.29" y="214.12" width="46.76" height="98.25"/>
    <rect class="cls-2" x="514.08" y="214.12" width="46.76" height="98.25"/>
    <rect class="cls-2" x="563.5" y="214.12" width="46.76" height="98.25"/>
    <rect class="cls-2" x="61.92" y="162.08" width="7.08" height="26.79"/>
    <polygon class="cls-2" points="217.96 173.93 196.06 173.93 196.06 190.89 201.45 190.89 201.45 203.5 216.61 203.5 216.61 190.89 217.96 190.89 217.96 173.93"/>
    <rect class="cls-7" x="88.6" y="220.27" width="35.32" height="35.32"/>
    <rect class="cls-7" x="123.9" y="207.66" width="36.34" height="30.38"/>
    <rect class="cls-4" x="490.96" y="5.25" width="225.97" height="123.23"/>
    <rect class="cls-5" x="236.98" y="245.33" width="142.04" height="7.5"/>
    <rect class="cls-2" x="418.93" y="278.55" width="138.04" height="14.71"/>
    <rect class="cls-5" x="243.95" y="271.8" width="142.04" height="7.5"/>
    <rect class="cls-2" x="252.44" y="214.12" width="46.76" height="98.25"/>
    <rect class="cls-2" x="301.85" y="214.12" width="46.76" height="98.25"/>
    <rect class="cls-2" x="365.64" y="214.12" width="46.76" height="98.25"/>
    <path class="cls-7" d="M114.96,334.11l-1.36,8.18s65.78,11.07,99.83-46.05l-7.5-5.83s-21.59,49.54-90.97,43.7Z"/>
    <rect class="cls-7" x="46.08" y="112.49" width=".99" height="31.46" transform="translate(174.8 81.65) rotate(90)"/>
    <rect class="cls-7" x="44.37" y="116.65" width="1" height="36.47" transform="translate(179.75 90.02) rotate(90)"/>
    <rect class="cls-7" x="31.83" y="145.56" width="1" height="11.15" transform="translate(183.46 118.8) rotate(90)"/>
    <rect class="cls-7" x="48.02" y="144.86" width="1" height="12.55" transform="translate(199.65 102.61) rotate(90)"/>
    <rect class="cls-7" x="81.46" y="141.67" width="1" height="25.93" transform="translate(236.6 72.68) rotate(90)"/>
    <rect class="cls-7" x="87.06" y="115.86" width="1" height="24.73" transform="translate(215.79 40.66) rotate(90)"/>
    <rect class="cls-7" x="85.7" y="92.46" width="1" height="27.46" transform="translate(192.39 19.99) rotate(90)"/>
    <rect class="cls-7" x="85.7" y="67.08" width="1" height="27.46" transform="translate(167.01 -5.39) rotate(90)"/>
    <rect class="cls-7" x="177.06" y="78.67" width="1" height="27.46" transform="translate(269.95 -85.16) rotate(90)"/>
    <rect class="cls-7" x="224.48" y="80.63" width="1" height="22.54" transform="translate(316.88 -133.09) rotate(90)"/>
    <rect class="cls-7" x="274.6" y="69.48" width="1" height="16.4" transform="translate(352.79 -197.42) rotate(90)"/>
    <rect class="cls-7" x="239.66" y="60.23" width="1" height="16" transform="translate(308.39 -171.93) rotate(90)"/>
    <rect class="cls-7" x="227.96" y="70.05" width="1" height="7.41" transform="translate(302.21 -154.7) rotate(90)"/>
    <rect class="cls-7" x="216.53" y="70.05" width="1" height="7.41" transform="translate(290.79 -143.27) rotate(90)"/>
    <rect class="cls-7" x="273.03" y="83.09" width="1" height="8.96" transform="translate(361.1 -185.95) rotate(90)"/>
    <rect class="cls-7" x="260.83" y="83.87" width="1" height="7.41" transform="translate(348.9 -173.75) rotate(90)"/>
    <rect class="cls-7" x="258.97" y="75.83" width="1" height="3.71" transform="translate(337.16 -181.79) rotate(90)"/>
    <rect class="cls-7" x="222.44" y="56.55" width="1" height="18.45" transform="translate(288.71 -157.16) rotate(90)"/>
    <rect class="cls-7" x="230.39" y="88.13" width="1" height="34.35" transform="translate(336.19 -125.59) rotate(90)"/>
    <rect class="cls-7" x="223.94" y="116.96" width="1" height="22.54" transform="translate(352.67 -96.21) rotate(90)"/>
    <rect class="cls-7" x="274.21" y="119.63" width="1" height="17.2" transform="translate(402.93 -146.48) rotate(90)"/>
    <rect class="cls-7" x="239.88" y="114.82" width="1" height="16.37" transform="translate(363.39 -117.38) rotate(90)"/>
    <rect class="cls-7" x="230.64" y="98.78" width="1" height="34.85" transform="translate(347.35 -114.93) rotate(90)"/>
    <rect class="cls-7" x="230.37" y="117.13" width="1" height="35.39" transform="translate(365.7 -96.04) rotate(90)"/>
    <rect class="cls-7" x="269.99" y="121.72" width="1" height="25.64" transform="translate(405.03 -135.94) rotate(90)"/>
    <rect class="cls-7" x="244.6" y="124.76" width="1" height="6.93" transform="translate(373.33 -116.88) rotate(90)"/>
    <rect class="cls-7" x="225.12" y="119.54" width="1" height="6.93" transform="translate(348.63 -102.62) rotate(90)"/>
    <rect class="cls-7" x="213.84" y="119.54" width="1" height="6.93" transform="translate(337.34 -91.33) rotate(90)"/>
    <rect class="cls-7" x="245.54" y="89.37" width="1" height="5.05" transform="translate(337.93 -154.14) rotate(90)"/>
    <rect class="cls-7" x="245.54" y="94.03" width="1" height="5.05" transform="translate(342.6 -149.48) rotate(90)"/>
    <rect class="cls-7" x="46.57" y="64.58" width="1" height="32.46" transform="translate(127.88 33.74) rotate(90)"/>
    <rect class="cls-7" x="46.48" y="89.87" width="1" height="32.65" transform="translate(153.17 59.21) rotate(90)"/>
    <rect class="cls-7" x="138.03" y="64.58" width="1" height="32.46" transform="translate(219.34 -57.72) rotate(90)"/>
    <rect class="cls-7" x="137.94" y="89.87" width="1" height="32.65" transform="translate(244.63 -32.25) rotate(90)"/>
    <rect class="cls-7" x="87.06" y="122.52" width="1" height="24.73" transform="translate(222.45 47.32) rotate(90)"/>
    <rect class="cls-7" x="137.35" y="112.41" width=".99" height="31.63" transform="translate(266.07 -9.62) rotate(90)"/>
    <rect class="cls-7" x="178.42" y="115.86" width="1" height="24.73" transform="translate(307.15 -50.69) rotate(90)"/>
    <path class="cls-2" d="M243.95,286.01v-47.32h-16.4c-1.65-5.61-3.99-11.16-7.19-16.46l-19.43,9.2c16.13,28.16,4.77,54.31,1.48,60.44l8.56,5.48c-1.73,3.34-8.62,15.42-22.27,25.68l7.84,7.95s18.77-12.14,23.76-28.62h0c2.61-3.43,5.27-9.19,7.27-16.37h16.4Z"/>
    <path class="cls-2" d="M663.17,228.61v16.58h-3.49v-31.07h-46.76v98.25h46.76v-31.72h3.49v55.16h46.76v-107.2h-46.76ZM659.67,272.32v-18.8h3.49v18.8h-3.49Z"/>
    <rect class="cls-3" x="424.46" y="21.41" width="27.06" height="27.06" rx="13.53" ry="13.53"/>
    <rect class="cls-3" x="312.63" y="56.74" width="28.42" height="28.42" rx="14.21" ry="14.21"/>
    <rect class="cls-6" x="263.78" y="195.47" width="24.07" height="24.07"/>
    <rect class="cls-6" x="313.19" y="195.44" width="24.07" height="24.07"/>
    <rect class="cls-6" x="376.71" y="195.44" width="24.07" height="24.07"/>
    <rect class="cls-8" x="370.07" y="136.69" width="24.07" height="24.07"/>
    <rect class="cls-6" x="620.89" y="154.88" width="91.58" height="24.07"/>
    <rect class="cls-7" x="338.11" y="174.38" width="158.62" height="15.5"/>
    <rect class="cls-6" x="426.22" y="195.44" width="24.07" height="24.07"/>
    <rect class="cls-6" x="475.83" y="195.44" width="24.07" height="24.07"/>
    <rect class="cls-6" x="525.24" y="195.47" width="24.07" height="24.07"/>
    <rect class="cls-6" x="574.85" y="195.44" width="24.07" height="24.07"/>
    <rect class="cls-6" x="624.83" y="195.51" width="24.07" height="24.07"/>
    <rect class="cls-3" x="93.37" y="225.44" width="25.79" height="25.79" rx="12.89" ry="12.89"/>
    <rect class="cls-3" x="128.17" y="321.63" width="28.44" height="28.44" rx="14.22" ry="14.22"/>
    <rect class="cls-7" x="516.76" y="222.09" width="41.03" height="36.08"/>
    <rect class="cls-7" x="77.88" y="109.26" width="20" height="15.89"/>
    <g>
      <rect class="cls-5" x="246.24" y="120.78" height="1.21" transform="translate(97.84 352.36) rotate(-83.52)"/>
      <polygon class="cls-5" points="242.72 120.99 242.12 117.9 242.12 117.9 242.72 120.99 244.21 121.16 244.21 121.16 242.72 120.99"/>
      <rect class="cls-5" x="242.03" y="116.91" height="1"/>
      <rect class="cls-5" x="244.92" y="120.52" height="1.44"/>
      <polygon class="cls-5" points="246.84 118.95 246.84 121.46 246.84 121.46 246.84 118.95 245.22 118.48 244.44 116.92 244.44 116.92 245.22 118.48 246.84 118.95"/>
      <g>
        <path class="cls-5" d="M241.61,123.21c-1.48,0-2.68-1.2-2.68-2.68,0-1.32.96-2.42,2.22-2.64l-.15-.8-.12-.61c-1.92.35-3.38,2.02-3.38,4.04,0,2.27,1.84,4.11,4.11,4.11,1.65,0,3.08-.98,3.73-2.4l-1.54-.18c-.49.69-1.28,1.14-2.19,1.14Z"/>
        <polygon class="cls-5" points="245.22 118.48 244.44 116.92 243.57 116.92 241.93 116.92 242.12 117.9 242.72 120.99 244.21 121.16 245.64 121.32 246.84 121.46 246.84 118.95 245.22 118.48"/>
        <path class="cls-5" d="M242.02,115.96c.25.09.52.14.8.14s.55-.05.8-.14c.94-.33,1.62-1.23,1.62-2.29,0-1.34-1.09-2.43-2.43-2.43s-2.43,1.09-2.43,2.43c0,1.06.68,1.95,1.62,2.29Z"/>
      </g>
    </g>
    <g>
      <path class="cls-5" d="M232.85,250.94h-.13c-.37,0-.67.3-.67.67v2.27h-.53v-2.27c0-.37-.3-.67-.67-.67h-.13c-.37,0-.67.3-.67.67v2.27h-.53v-2.27c0-.37-.3-.67-.67-.67h-.13c-.37,0-.67.3-.67.67v3.9c0,1.12.89,2.03,2.01,2.07v4.99c0,.37.3.67.67.67h.13c.37,0,.67-.3.67-.67v-4.99c1.11-.04,2-.95,2-2.07v-3.9c0-.37-.3-.67-.67-.67Z"/>
      <path class="cls-5" d="M238.33,250.94h-.95c-1.32,0-2.39,1.07-2.39,2.39v3.7c0,1.32,1.07,2.39,2.39,2.39h.14v3.07c0,.41.33.74.74.74s.74-.33.74-.74v-10.89c0-.37-.3-.67-.67-.67Z"/>
    </g>
    <rect class="cls-1" x="17.66" y="0" width="86.47" height="34.02" rx="7.77" ry="7.77"/>
    <path class="cls-2" d="M149.21,203.5v-29.58H30.91v29.58h31.01v31.56c-4.7,1.3-9.01,3.67-12.12,6.93l3.36,3.31c-4.74,4.75-7.68,11.31-7.68,18.56,0,.52.02,1.04.05,1.55h-3.38v39.99l15.3-9.09v-4.09h7.57v-2.97c2.15.57,4.4.87,6.73.87v2.09s26.45,2.27,31.29-32.12h-5.29c-1.55-10.85-9.74-19.56-20.32-21.9v-2.8h-.01v-.52s0-31.39,0-31.39h71.79Z"/>
    <g>
      <circle class="cls-5" cx="59.22" cy="235.86" r="2.48"/>
      <circle class="cls-5" cx="52.3" cy="235.86" r="2.48"/>
      <polygon class="cls-5" points="59.22 239.04 56.52 245.7 61.92 245.7 59.22 239.04"/>
      <polygon class="cls-5" points="52.3 245.95 55 239.28 49.6 239.28 52.3 245.95"/>
    </g>
    <g>
      <circle class="cls-5" cx="232.48" cy="235.47" r="2.48"/>
      <circle class="cls-5" cx="225.56" cy="235.47" r="2.48"/>
      <polygon class="cls-5" points="232.48 238.65 229.78 245.32 235.18 245.32 232.48 238.65"/>
      <polygon class="cls-5" points="225.56 245.56 228.26 238.9 222.86 238.9 225.56 245.56"/>
    </g>
    <g>
      <circle class="cls-7" cx="503.61" cy="298.1" r="2.48"/>
      <circle class="cls-7" cx="496.69" cy="298.1" r="2.48"/>
      <polygon class="cls-7" points="503.61 301.28 500.9 307.95 506.31 307.95 503.61 301.28"/>
      <polygon class="cls-7" points="496.69 308.19 499.39 301.53 493.99 301.53 496.69 308.19"/>
    </g>
    <g>
      <circle class="cls-5" cx="85.98" cy="126.63" r="2.48"/>
      <polygon class="cls-5" points="85.98 129.81 83.28 136.48 88.68 136.48 85.98 129.81"/>
    </g>
    <g>
      <circle class="cls-5" cx="219.82" cy="114.66" r="2.48"/>
      <polygon class="cls-5" points="219.82 124.75 222.52 118.09 217.12 118.09 219.82 124.75"/>
    </g>
    <rect class="cls-7" x="283.83" y="114.82" width="1" height="16.37" transform="translate(407.34 -161.33) rotate(90)"/>
    <rect class="cls-7" x="271.08" y="102.29" width="1" height="27.84" transform="translate(387.79 -155.38) rotate(90)"/>
    <rect class="cls-7" x="269.89" y="120.36" width="1" height="5.29" transform="translate(393.39 -147.38) rotate(90)"/>
    <rect class="cls-7" x="259.99" y="120.18" width="1" height="5.64" transform="translate(383.49 -137.48) rotate(90)"/>
    <rect class="cls-7" x="259.21" y="126.18" width="1" height="4.09" transform="translate(387.93 -131.48) rotate(90)"/>
    <rect class="cls-7" x="32.62" y="109.36" width="28.16" height="15.89"/>
    <rect class="cls-7" x="99.93" y="128.73" width="1" height="6.66"/>
    <rect class="cls-7" x="75.2" y="127.73" width="1" height="2.93"/>
    <rect class="cls-7" x="72.47" y="85.37" width="1" height="16.26"/>
    <rect class="cls-7" x="62.31" y="61.37" width="1" height="16.26"/>
    <rect class="cls-7" x="72.47" y="61.37" width="1" height="16.26"/>
    <rect class="cls-7" x="72.11" y="154.64" width="1" height="12.38"/>
    <rect class="cls-7" x="75.23" y="154.64" width="1" height="12.38"/>
    <rect class="cls-7" x="78.35" y="154.84" width="1" height="12.38"/>
    <rect class="cls-7" x="81.46" y="154.71" width="1" height="12.38"/>
    <rect class="cls-7" x="87.7" y="154.71" width="1" height="12.38"/>
    <rect class="cls-7" x="90.81" y="154.84" width="1" height="12.38"/>
    <rect class="cls-7" x="84.58" y="154.84" width="1" height="12.38"/>
    <rect class="cls-7" x="93.93" y="154.84" width="1" height="12.38"/>
    <g>
      <g>
        <rect class="cls-7" x="75.66" y="51.17" width="1" height="6.62"/>
        <rect class="cls-7" x="77.59" y="51.27" width="1" height="6.62"/>
        <rect class="cls-7" x="73.73" y="51.27" width="1" height="6.62"/>
        <rect class="cls-7" x="71.8" y="54.58" width="1" height="3.21"/>
        <rect class="cls-7" x="69.87" y="54.58" width="1" height="3.49"/>
        <rect class="cls-7" x="81.46" y="51.17" width="1" height="3.21"/>
        <rect class="cls-7" x="79.52" y="51.17" width="1" height="3.49"/>
        <rect class="cls-7" x="76.39" y="50.76" width="1" height="14.05" transform="translate(134.68 -19.1) rotate(90)"/>
        <rect class="cls-7" x="75.66" y="48.29" width="1" height="12.59" transform="translate(130.74 -21.58) rotate(90)"/>
      </g>
      <g>
        <rect class="cls-7" x="166.99" y="51.17" width="1" height="6.62"/>
        <rect class="cls-7" x="168.92" y="51.27" width="1" height="6.62"/>
        <rect class="cls-7" x="165.06" y="51.27" width="1" height="6.62"/>
        <rect class="cls-7" x="163.13" y="54.58" width="1" height="3.21"/>
        <rect class="cls-7" x="161.2" y="54.58" width="1" height="3.49"/>
        <rect class="cls-7" x="172.79" y="51.17" width="1" height="3.21"/>
        <rect class="cls-7" x="170.86" y="51.17" width="1" height="3.49"/>
        <rect class="cls-7" x="167.73" y="50.77" width="1" height="14.05" transform="translate(226.02 -110.43) rotate(90)"/>
        <rect class="cls-7" x="166.99" y="48.29" width="1" height="12.59" transform="translate(222.07 -112.91) rotate(90)"/>
      </g>
      <g>
        <rect class="cls-7" x="259.01" y="51.17" width="1" height="6.62"/>
        <rect class="cls-7" x="260.94" y="51.27" width="1" height="6.62"/>
        <rect class="cls-7" x="257.08" y="51.27" width="1" height="6.62"/>
        <rect class="cls-7" x="255.15" y="54.58" width="1" height="3.21"/>
        <rect class="cls-7" x="253.21" y="54.58" width="1" height="3.49"/>
        <rect class="cls-7" x="264.8" y="51.17" width="1" height="3.21"/>
        <rect class="cls-7" x="262.87" y="51.17" width="1" height="3.49"/>
        <rect class="cls-7" x="259.74" y="50.77" width="1" height="14.05" transform="translate(318.03 -202.45) rotate(90)"/>
        <rect class="cls-7" x="259.01" y="48.29" width="1" height="12.59" transform="translate(314.09 -204.92) rotate(90)"/>
      </g>
    </g>
    <rect class="cls-7" x="62.31" y="85.37" width="1" height="16.26"/>
    <rect class="cls-7" x="62.31" y="109.85" width="1" height="14.73"/>
    <rect class="cls-7" x="41.75" y="150.63" width="1" height="16.35"/>
    <rect class="cls-7" x="60.92" y="150.63" width="1" height="16.35"/>
    <rect class="cls-7" x="69" y="154.14" width="1" height="12.84"/>
    <g>
      <rect class="cls-7" x="137.93" y="131.5" width="1" height="32.46" transform="translate(286.16 9.3) rotate(90)"/>
      <rect class="cls-7" x="137.93" y="118.65" width="1" height="32.46" transform="translate(273.31 -3.55) rotate(90)"/>
      <rect class="cls-7" x="125.34" y="134.88" width="1" height="12.38"/>
      <rect class="cls-7" x="128.49" y="134.88" width="1" height="12.38"/>
      <rect class="cls-7" x="131.64" y="135.09" width="1" height="12.38"/>
      <rect class="cls-7" x="134.78" y="134.95" width="1" height="12.38"/>
      <rect class="cls-7" x="141.08" y="134.95" width="1" height="12.38"/>
      <rect class="cls-7" x="144.22" y="135.09" width="1" height="12.38"/>
      <rect class="cls-7" x="137.93" y="135.09" width="1" height="12.38"/>
      <rect class="cls-7" x="147.37" y="135.09" width="1" height="12.38"/>
      <rect class="cls-7" x="150.52" y="134.95" width="1" height="12.38"/>
      <rect class="cls-7" x="153.66" y="134.95" width="1" height="12.38"/>
      <rect class="cls-7" x="122.2" y="134.38" width="1" height="12.84"/>
    </g>
    <g>
      <rect class="cls-7" x="178.89" y="134.84" width="1" height="25.67" transform="translate(327.06 -31.72) rotate(90)"/>
      <rect class="cls-7" x="178.92" y="122.02" width="1" height="25.73" transform="translate(314.3 -44.53) rotate(90)"/>
      <rect class="cls-7" x="169.64" y="134.83" width="1" height="12.38"/>
      <rect class="cls-7" x="172.72" y="134.83" width="1" height="12.38"/>
      <rect class="cls-7" x="175.81" y="135.03" width="1" height="12.38"/>
      <rect class="cls-7" x="178.89" y="134.9" width="1" height="12.38"/>
      <rect class="cls-7" x="185.06" y="134.9" width="1" height="12.38"/>
      <rect class="cls-7" x="188.14" y="135.03" width="1" height="12.38"/>
      <rect class="cls-7" x="181.97" y="135.03" width="1" height="12.38"/>
      <rect class="cls-7" x="191.23" y="135.03" width="1" height="12.38"/>
      <rect class="cls-7" x="166.55" y="134.33" width="1" height="12.84"/>
    </g>
    <rect class="cls-7" x="26.13" y="150.63" width="1" height="8.62"/>
    <rect class="cls-7" x="153.77" y="61.37" width="1" height="16.26"/>
    <rect class="cls-7" x="153.77" y="85.37" width="1" height="16.26"/>
    <rect class="cls-7" x="153.77" y="109.85" width="1" height="14.73"/>
    <rect class="cls-7" x="230.37" y="127.73" width="1" height="7.36"/>
    <rect class="cls-7" x="225.12" y="115.92" width="1" height="7.36"/>
    <rect class="cls-7" x="272.04" y="115.92" width="1" height="7.36"/>
    <rect class="cls-7" x="235.25" y="115.92" width="1" height="7.36"/>
    <rect class="cls-7" x="257.66" y="115.85" width="1" height="7.36"/>
    <rect class="cls-7" x="163.83" y="96.59" width="1" height="26.85"/>
    <rect class="cls-7" x="163.83" y="61.67" width="1" height="26.85"/>
    <rect class="cls-7" x="247.57" y="64.2" width="1" height="27.96"/>
    <rect class="cls-7" x="247.57" y="98.75" width="1" height="13.12"/>
    <rect class="cls-7" x="257.66" y="61.67" width="1" height="11.84"/>
    <rect class="cls-7" x="257.58" y="77.68" width="1" height="10.39"/>
    <rect class="cls-7" x="257.58" y="93.25" width="1" height="17.29"/>
    <rect class="cls-7" x="277.01" y="77.41" width="1" height="10.47"/>
    <rect class="cls-7" x="231.16" y="57.79" width="1" height="15.96"/>
    <rect class="cls-7" x="213.17" y="128.71" width="1" height="6.21"/>
    <rect class="cls-7" x="247.57" y="127.95" width="1" height="6.59"/>
    <rect class="cls-7" x="257.66" y="127.73" width="1" height="6.59"/>
    <rect class="cls-7" x="75.2" y="109.59" width="1" height="14.73"/>
    <rect class="cls-7" x="62.31" y="127.73" width="1" height="1.96"/>
    <rect class="cls-7" x="62.31" y="133.42" width="1" height="1.96"/>
    <rect class="cls-7" x="191.28" y="128.73" width="1" height="6.66"/>
    <rect class="cls-7" x="153.66" y="127.73" width="1" height="1.96"/>
    <rect class="cls-7" x="122.2" y="128.23" width="1" height="6.66"/>
    <rect class="cls-7" x="153.66" y="133.42" width="1" height="1.96"/>
    <rect class="cls-7" x="166.55" y="127.73" width="1" height="1.96"/>
    <rect class="cls-7" x="166.55" y="133.42" width="1" height="1.96"/>
    <rect class="cls-7" x="207.28" y="139.34" width="93.87" height="24.58"/>
    <rect class="cls-7" x="283.3" y="127.73" width="23.77" height="7.31"/>
    <rect class="cls-7" x="25.83" y="127.32" width="5.01" height="8.06"/>
    <rect class="cls-2" x="151.51" y="163.92" width="18.41" height="21.17"/>
    <g>
      <circle class="cls-5" cx="264.64" cy="114.79" r="2.48"/>
      <polygon class="cls-5" points="264.64 117.96 261.94 124.63 267.34 124.63 264.64 117.96"/>
    </g>
    <g>
      <circle class="cls-5" cx="45.39" cy="126.63" r="2.48"/>
      <polygon class="cls-5" points="45.39 136.72 48.09 130.06 42.69 130.06 45.39 136.72"/>
    </g>
    <g>
      <path class="cls-2" d="M151.06,288.76l-1.73-3.46-3.2-6.45.1.2h2.48s.57,1.21.57,1.21h-1.01l3.36,6.74h3.45c.65,1.05,1.81,1.77,3.15,1.77,2.05,0,3.71-1.66,3.71-3.71,0-1.63-1.06-3-2.53-3.5v-1.3h-3.1l-3.71-7.8h-7.03l2.35,4.95h-2.51s0,0,0,0h-6.26l-3.38-6.99-1.67-.23-1.25-2.49h-1.84l1.11,2.22-4.06-.57v5.11l3.32.96,1.6,3.2h0l1.65,3.48-1.61,3.22,1.73,3.46h-2.39v11.45h29.38v-11.45h-10.68ZM136.59,288.76l-1.73-3.46.66-1.33.63,1.33h0l1.73,3.46h-1.29ZM139.73,288.76l-1.73-3.46h9.48l1.73,3.46h-9.48Z"/>
      <path class="cls-2" d="M148.27,271.78c1.75,0,3.17-1.42,3.17-3.17s-1.42-3.17-3.17-3.17-3.17,1.42-3.17,3.17,1.42,3.17,3.17,3.17Z"/>
    </g>
    <polygon class="cls-9" points="174.47 226.85 169.55 226.85 169.55 225.43 166.69 225.43 166.69 226.85 161.93 226.85 161.93 229.49 163.68 229.49 164.52 238.1 171.72 238.1 172.55 229.49 174.47 229.49 174.47 226.85"/>
    <polygon class="cls-9" points="110.39 334.8 105.47 334.8 105.47 333.37 102.61 333.37 102.61 334.8 97.86 334.8 97.86 337.44 99.61 337.44 100.44 346.05 107.64 346.05 108.48 337.44 110.39 337.44 110.39 334.8"/>
    <polygon class="cls-9" points="445.13 187.06 440.21 187.06 440.21 185.63 437.35 185.63 437.35 187.06 432.6 187.06 432.6 189.7 434.35 189.7 435.18 198.31 442.38 198.31 443.22 189.7 445.13 189.7 445.13 187.06"/>
    <polygon class="cls-9" points="633.42 182.64 628.5 182.64 628.5 181.21 625.64 181.21 625.64 182.64 620.89 182.64 620.89 185.28 622.63 185.28 623.47 193.89 630.67 193.89 631.5 185.28 633.42 185.28 633.42 182.64"/>
    <polygon class="cls-9" points="728.57 182.64 723.65 182.64 723.65 181.21 720.79 181.21 720.79 182.64 716.04 182.64 716.04 185.28 717.79 185.28 718.62 193.89 725.82 193.89 726.66 185.28 728.57 185.28 728.57 182.64"/>
  </g>
</svg>