<?xml version="1.0" encoding="UTF-8"?>
<svg id="Layer_2" data-name="Layer 2" xmlns="http://www.w3.org/2000/svg" viewBox="0 0 794.69 507.68">
  <defs>
    <style>
      .cls-1 {
        fill: #c73740;
      }

      .cls-2 {
        fill: #008a5e;
      }

      .cls-3 {
        fill: #c73f3e;
      }

      .cls-4 {
        fill: #fff;
      }

      .cls-5 {
        fill: #c1842e;
      }

      .cls-6 {
        fill: #f0b225;
      }

      .cls-7 {
        fill: #cf6985;
      }

      .cls-8, .cls-9, .cls-10 {
        fill: none;
        stroke: #ef4443;
        stroke-linecap: round;
        stroke-miterlimit: 10;
        stroke-width: 3px;
      }

      .cls-11 {
        fill: #845fa7;
      }

      .cls-12 {
        fill: #8ec63e;
      }

      .cls-9 {
        stroke-dasharray: 7.48 7.48;
      }

      .cls-13 {
        fill: #5a898d;
      }

      .cls-14 {
        fill: #8cd3d8;
      }

      .cls-15 {
        fill: #879fa4;
      }

      .cls-16 {
        fill: #19819d;
      }

      .cls-17 {
        fill: #52969b;
      }

      .cls-10 {
        stroke-dasharray: 8.09 8.09;
      }

      .cls-18 {
        fill: #ef4443;
      }
    </style>
  </defs>
  <g id="Layer_1-2" data-name="Layer 1">
    <g>
      <polygon class="cls-17" points="334.99 219.64 334.99 170.23 312.41 170.23 312.41 219.64 52.18 219.64 52.18 270.16 403.35 270.16 403.35 219.64 334.99 219.64"/>
      <rect class="cls-17" x="88.77" y="313.22" width="609.79" height="27.53"/>
      <g>
        <path class="cls-1" d="M76.19,230.93c.27.51.62.97,1.05,1.37.64-.36,1.39-.87,1.87-1.25l.71.52c-.04.06-.13.08-.24.06-.46.32-1.19.76-1.82,1.09.76.55,1.69.94,2.76,1.15-.18.16-.39.45-.49.65-2.18-.52-3.76-1.77-4.59-3.6h-1.53v2.37c.86-.12,1.81-.26,2.72-.39l.02.64c-1.59.29-3.29.57-4.35.74,0,.1-.07.15-.14.17l-.34-.86c.38-.05.84-.12,1.34-.19v-2.47h-1.65v-.7h2.27v-1.34h-1.87v-.7h1.87v-1.22h-2.31v.63c0,2.04-.17,4.96-1.41,6.93-.15-.12-.51-.33-.7-.4,1.21-1.91,1.32-4.59,1.32-6.53v-3.53h8.99v2.9h-1.81s.2.01.2.01c-.01.08-.08.14-.24.17v1.05h2.07v.7h-2.07v1.34h2.57v.7h-4.2ZM71.47,224.77v1.47h7.38v-1.47h-7.38ZM74.75,226.97c-.01.08-.07.14-.23.17v1.05h2.54v-1.22h-2.51s.19.01.19.01ZM74.53,228.88v1.34h2.54v-1.34h-2.54Z"/>
        <path class="cls-1" d="M84.45,229.71c-.04.08-.12.12-.26.12-.56,1.35-1.46,2.76-2.39,3.64-.15-.14-.46-.36-.67-.47.9-.81,1.79-2.2,2.31-3.6l1.01.32ZM92.18,228.14h-4.91v5.33c0,.54-.13.77-.52.9-.4.12-1.09.13-2.15.13-.05-.23-.17-.57-.3-.8.5.01.97.02,1.33.02.77,0,.82,0,.82-.26v-5.33h-4.87v-.78h10.6v.78ZM91.12,224.35v.78h-8.46v-.78h8.46ZM91.58,233.42c-.33-1.01-1.26-2.58-2.16-3.73l.74-.32c.9,1.13,1.87,2.66,2.23,3.68l-.81.37Z"/>
      </g>
      <rect class="cls-4" x="484.87" y="227.43" width="141.17" height="34.82"/>
      <rect class="cls-17" x="372.55" y="219.67" width="101.55" height="50.49"/>
      <rect class="cls-4" x="333.63" y="328.82" width="68.73" height="144.41"/>
      <rect class="cls-4" x="406.25" y="328.82" width="68.73" height="144.41"/>
      <rect class="cls-4" x="479.44" y="328.82" width="68.73" height="144.41"/>
      <rect class="cls-4" x="552.08" y="328.82" width="68.73" height="144.41"/>
      <polygon class="cls-4" points="44.21 269.75 12.01 269.75 12.01 294.68 19.93 294.68 19.93 313.22 42.22 313.22 42.22 294.68 44.21 294.68 44.21 269.75"/>
      <rect class="cls-17" x="72.16" y="374.71" width="208.77" height="11.02"/>
      <rect class="cls-4" x="339.59" y="423.52" width="202.89" height="21.63"/>
      <rect class="cls-17" x="82.41" y="413.6" width="208.77" height="11.02"/>
      <rect class="cls-4" x="94.88" y="328.82" width="68.73" height="144.41"/>
      <rect class="cls-4" x="167.5" y="328.82" width="68.73" height="144.41"/>
      <rect class="cls-4" x="261.26" y="328.82" width="68.73" height="144.41"/>
      <g>
        <path class="cls-16" d="M112.71,405.13h3.08v.87h-3.08v.69h3.4v.87h-3.4v.74h4.73v.87h-4.46c.67.92,2.16,1.62,4.46,2.11l-.32,1.06c-2.42-.58-4-1.5-4.73-2.76-.73,1.56-2.34,2.53-4.82,2.89l-.37-.96c2.3-.34,3.74-1.12,4.32-2.34h-4.36v-.87h4.64v-.74h-3.26v-.87h3.26v-.69h-3.03v-.87h3.03v-.92h.87c.24.03.26.12.05.28v.64ZM107.42,402.97h4.36v-1.06h1.01c.31.06.32.18.05.37v.69h4.32v2.48h-.92v-1.61h-7.9v1.61h-.92v-2.48Z"/>
        <path class="cls-16" d="M119.52,406.88l-.28-1.01c1.29-.15,2.48-.43,3.58-.83v.78c-.98.4-2.01.71-3.08.92-.03.21-.11.26-.23.14ZM124.85,406.42l-.14-.69c.8-.06,1.84-.32,3.12-.78v.78c-1.13.46-2.13.77-2.99.92l-.28.69h3.31v4.92h-.92v-.23h-5.24v.32h-.92v-5.01h2.89l.18-.83h-.69v-3.44h-3.67v-.87h4.59v4.18l.73.05ZM121.54,405.18c-.43-.4-.9-.75-1.42-1.06l.64-.69c.49.25.95.57,1.38.96l-.6.78ZM126.96,409.31v-1.1h-5.24v1.1h5.24ZM121.73,411.15h5.24v-.96h-5.24v.96ZM129.08,406.6h-.92v-3.54h-3.58v-.87h4.5v4.41ZM126.37,405.08c-.4-.37-.84-.69-1.33-.96l.6-.74c.61.28,1.06.6,1.33.96l-.6.73Z"/>
        <path class="cls-16" d="M133.83,404.26h1.06v.87h-1.06v1.47c.58.4,1.06.8,1.42,1.19l-.51.92c-.34-.46-.64-.8-.92-1.01v4.73h-.92v-4.59c-.34.98-.77,1.76-1.29,2.34l-.51-.92c.98-1.29,1.56-2.66,1.75-4.13h-1.47v-.87h1.52v-2.34h.87c.24.03.26.12.05.28v2.07ZM138.6,404.07v.69h2.2v3.95h-2.02c1.01.92,2.05,1.56,3.12,1.93l-.37,1.01c-1.26-.58-2.24-1.3-2.94-2.16v2.85h-.92v-2.66c-.64.98-1.55,1.7-2.71,2.16l-.37-.96c1.29-.49,2.23-1.21,2.85-2.16h-1.98v-3.95h2.2v-.69h-2.71v-.87h2.71v-1.38h.87c.24.03.26.12.05.28v1.1h2.76v.87h-2.76ZM136.4,406.42h1.29v-.92h-1.29v.92ZM136.4,407.98h1.29v-.83h-1.29v.83ZM138.6,406.42h1.29v-.92h-1.29v.92ZM138.6,407.98h1.29v-.83h-1.29v.83Z"/>
        <path class="cls-16" d="M142.71,411.24l3.12-7.95h.92l3.12,7.95h-1.1l-.96-2.39h-3.03l-.96,2.39h-1.1ZM146.29,404.81l-1.19,3.17h2.39l-1.19-3.17Z"/>
      </g>
      <g>
        <path class="cls-16" d="M186.33,405.13h3.08v.87h-3.08v.69h3.4v.87h-3.4v.74h4.73v.87h-4.46c.67.92,2.16,1.62,4.46,2.11l-.32,1.06c-2.42-.58-4-1.5-4.73-2.76-.73,1.56-2.34,2.53-4.82,2.89l-.37-.96c2.3-.34,3.74-1.12,4.32-2.34h-4.36v-.87h4.64v-.74h-3.26v-.87h3.26v-.69h-3.03v-.87h3.03v-.92h.87c.25.03.26.12.05.28v.64ZM181.05,402.97h4.36v-1.06h1.01c.31.06.32.18.05.37v.69h4.32v2.48h-.92v-1.61h-7.9v1.61h-.92v-2.48Z"/>
        <path class="cls-16" d="M193.15,406.88l-.28-1.01c1.29-.15,2.48-.43,3.58-.83v.78c-.98.4-2.01.71-3.08.92-.03.21-.11.26-.23.14ZM198.48,406.42l-.14-.69c.8-.06,1.84-.32,3.12-.78v.78c-1.13.46-2.13.77-2.99.92l-.28.69h3.31v4.92h-.92v-.23h-5.24v.32h-.92v-5.01h2.89l.18-.83h-.69v-3.44h-3.67v-.87h4.59v4.18l.74.05ZM195.17,405.18c-.43-.4-.9-.75-1.42-1.06l.64-.69c.49.25.95.57,1.38.96l-.6.78ZM200.59,409.31v-1.1h-5.24v1.1h5.24ZM195.35,411.15h5.24v-.96h-5.24v.96ZM202.7,406.6h-.92v-3.54h-3.58v-.87h4.5v4.41ZM199.99,405.08c-.4-.37-.84-.69-1.33-.96l.6-.74c.61.28,1.06.6,1.33.96l-.6.73Z"/>
        <path class="cls-16" d="M207.45,404.26h1.06v.87h-1.06v1.47c.58.4,1.06.8,1.42,1.19l-.5.92c-.34-.46-.64-.8-.92-1.01v4.73h-.92v-4.59c-.34.98-.77,1.76-1.29,2.34l-.51-.92c.98-1.29,1.56-2.66,1.75-4.13h-1.47v-.87h1.52v-2.34h.87c.25.03.26.12.05.28v2.07ZM212.23,404.07v.69h2.2v3.95h-2.02c1.01.92,2.05,1.56,3.12,1.93l-.37,1.01c-1.26-.58-2.24-1.3-2.94-2.16v2.85h-.92v-2.66c-.64.98-1.55,1.7-2.71,2.16l-.37-.96c1.29-.49,2.23-1.21,2.85-2.16h-1.97v-3.95h2.2v-.69h-2.71v-.87h2.71v-1.38h.87c.24.03.26.12.05.28v1.1h2.76v.87h-2.76ZM210.02,406.42h1.29v-.92h-1.29v.92ZM210.02,407.98h1.29v-.83h-1.29v.83ZM212.23,406.42h1.29v-.92h-1.29v.92ZM212.23,407.98h1.29v-.83h-1.29v.83Z"/>
        <path class="cls-16" d="M216.98,403.38h3.67c.61,0,1.12.2,1.52.6.37.37.55.86.55,1.47,0,.49-.17.9-.51,1.24-.18.18-.41.32-.69.41.37.12.66.29.87.5.37.37.55.83.55,1.38,0,.67-.23,1.24-.69,1.7-.37.37-.92.55-1.65.55h-3.63v-7.85ZM218.03,404.26v2.43h2.48c.31,0,.57-.11.78-.32.24-.24.37-.57.37-.96,0-.34-.12-.63-.37-.87-.18-.18-.41-.28-.69-.28h-2.57ZM218.03,407.56v2.8h2.34c.46,0,.81-.12,1.06-.37.28-.28.41-.61.41-1.01,0-.43-.12-.76-.37-1.01-.28-.28-.64-.41-1.1-.41h-2.34Z"/>
      </g>
      <g>
        <path class="cls-16" d="M279.94,405.13h3.08v.87h-3.08v.69h3.4v.87h-3.4v.74h4.73v.87h-4.46c.67.92,2.16,1.62,4.46,2.11l-.32,1.06c-2.42-.58-4-1.5-4.73-2.76-.73,1.56-2.34,2.53-4.82,2.89l-.37-.96c2.3-.34,3.74-1.12,4.32-2.34h-4.36v-.87h4.64v-.74h-3.26v-.87h3.26v-.69h-3.03v-.87h3.03v-.92h.87c.25.03.26.12.05.28v.64ZM274.66,402.97h4.36v-1.06h1.01c.31.06.32.18.05.37v.69h4.32v2.48h-.92v-1.61h-7.9v1.61h-.92v-2.48Z"/>
        <path class="cls-16" d="M286.75,406.88l-.28-1.01c1.29-.15,2.48-.43,3.58-.83v.78c-.98.4-2.01.71-3.08.92-.03.21-.11.26-.23.14ZM292.08,406.42l-.14-.69c.8-.06,1.84-.32,3.12-.78v.78c-1.13.46-2.13.77-2.99.92l-.28.69h3.31v4.92h-.92v-.23h-5.24v.32h-.92v-5.01h2.89l.18-.83h-.69v-3.44h-3.67v-.87h4.59v4.18l.74.05ZM288.77,405.18c-.43-.4-.9-.75-1.42-1.06l.64-.69c.49.25.95.57,1.38.96l-.6.78ZM294.19,409.31v-1.1h-5.24v1.1h5.24ZM288.96,411.15h5.24v-.96h-5.24v.96ZM296.31,406.6h-.92v-3.54h-3.58v-.87h4.5v4.41ZM293.6,405.08c-.4-.37-.84-.69-1.33-.96l.6-.74c.61.28,1.06.6,1.33.96l-.6.73Z"/>
        <path class="cls-16" d="M301.06,404.26h1.06v.87h-1.06v1.47c.58.4,1.06.8,1.42,1.19l-.5.92c-.34-.46-.64-.8-.92-1.01v4.73h-.92v-4.59c-.34.98-.77,1.76-1.29,2.34l-.51-.92c.98-1.29,1.56-2.66,1.75-4.13h-1.47v-.87h1.52v-2.34h.87c.25.03.26.12.05.28v2.07ZM305.83,404.07v.69h2.2v3.95h-2.02c1.01.92,2.05,1.56,3.12,1.93l-.37,1.01c-1.26-.58-2.24-1.3-2.94-2.16v2.85h-.92v-2.66c-.64.98-1.55,1.7-2.71,2.16l-.37-.96c1.29-.49,2.23-1.21,2.85-2.16h-1.97v-3.95h2.2v-.69h-2.71v-.87h2.71v-1.38h.87c.24.03.26.12.05.28v1.1h2.76v.87h-2.76ZM303.63,406.42h1.29v-.92h-1.29v.92ZM303.63,407.98h1.29v-.83h-1.29v.83ZM305.83,406.42h1.29v-.92h-1.29v.92ZM305.83,407.98h1.29v-.83h-1.29v.83Z"/>
        <path class="cls-16" d="M311.59,404.17c.58-.58,1.33-.87,2.25-.87s1.64.26,2.16.78c.55.55.84,1.26.87,2.11h-1.1c-.06-.64-.26-1.13-.6-1.47-.37-.37-.81-.55-1.33-.55-.55,0-1.04.21-1.47.64-.55.55-.83,1.39-.83,2.53s.28,1.98.83,2.53c.4.4.89.6,1.47.6.61,0,1.09-.17,1.42-.5.43-.43.64-1.04.64-1.84h1.1c-.03,1.04-.34,1.85-.92,2.43-.52.52-1.27.78-2.25.78-.92,0-1.67-.29-2.25-.87-.77-.76-1.15-1.81-1.15-3.12s.38-2.4,1.15-3.17Z"/>
      </g>
      <g>
        <path class="cls-16" d="M414.23,404.26l3.35-.46.18.96-3.26.41.46,2.16,4.32-.5.18.96-4.27.46.87,3.72-1.01.23-.87-3.81-4.69.55-.14-.96,4.59-.51-.46-2.16-3.12.37-.18-.96,3.03-.32-.46-2.11.96-.14c.28-.03.32.08.14.32l.37,1.79ZM417.86,403.8c-.49-.7-.89-1.18-1.19-1.42l.5-.51c.43.37.86.86,1.29,1.47l-.6.46ZM419.92,402.97l-.6.5c-.46-.61-.9-1.12-1.33-1.52l.55-.5c.46.43.92.93,1.38,1.52Z"/>
        <path class="cls-16" d="M424.58,406.42l3.77-.92.23-.14.73.73c.12.12.08.21-.14.28-.55.89-1.13,1.75-1.75,2.57l-.78-.5c.49-.64.95-1.32,1.38-2.02l-3.17.78,1.56,4.64-.92.32-1.52-4.78-2.66.74-.32-.92,2.66-.6-.73-2.21.96-.18c.28,0,.32.11.14.32l.55,1.88Z"/>
        <path class="cls-16" d="M432.73,411.42c2.97-.76,4.64-2.37,5.01-4.82h-6.98v-1.01h7.03l.41-.14.83.5c.18.15.15.29-.09.41-.49,3.06-2.28,5.05-5.37,5.97l-.83-.92ZM437.92,403.98h-6.34v-1.01h6.34v1.01Z"/>
        <path class="cls-16" d="M442.39,408.35h-1.06v-5.19h1.01c.31.03.32.15.05.37v4.82ZM447.12,407.33c0,2.3-1.07,3.95-3.21,4.96l-.92-.78c2.02-.92,3.05-2.33,3.08-4.23v-4.59h.96c.31.06.34.18.09.37v4.27Z"/>
        <path class="cls-16" d="M449.62,407.61v-1.01h10.24v1.01h-10.24Z"/>
        <path class="cls-16" d="M463.97,404.26h1.06v.87h-1.06v1.47c.58.4,1.06.8,1.42,1.19l-.5.92c-.34-.46-.64-.8-.92-1.01v4.73h-.92v-4.59c-.34.98-.77,1.76-1.29,2.34l-.51-.92c.98-1.29,1.56-2.66,1.75-4.13h-1.47v-.87h1.52v-2.34h.87c.25.03.26.12.05.28v2.07ZM468.75,404.07v.69h2.2v3.95h-2.02c1.01.92,2.05,1.56,3.12,1.93l-.37,1.01c-1.26-.58-2.24-1.3-2.94-2.16v2.85h-.92v-2.66c-.64.98-1.55,1.7-2.71,2.16l-.37-.96c1.29-.49,2.23-1.21,2.85-2.16h-1.97v-3.95h2.2v-.69h-2.71v-.87h2.71v-1.38h.87c.24.03.26.12.05.28v1.1h2.76v.87h-2.76ZM466.54,406.42h1.29v-.92h-1.29v.92ZM466.54,407.98h1.29v-.83h-1.29v.83ZM468.75,406.42h1.29v-.92h-1.29v.92ZM468.75,407.98h1.29v-.83h-1.29v.83Z"/>
      </g>
      <g>
        <path class="cls-16" d="M488.14,409.86l-3.08,1.1c-.03.21-.11.26-.23.14l-.37-1.06,1.42-.41v-3.72h-1.33v-.87h1.33v-2.57h.87c.25.03.26.12.05.28v2.3h1.19v.87h-1.19v3.49l1.33-.46v.92ZM493.79,410.73l.28-.96,1.01.32-.23.87c-.18.73-.63,1.1-1.33,1.1h-3.81c-.55,0-.83-.26-.83-.78v-4.36l-1.19.46-.28-.92,1.47-.5v-2.62h.87c.25.03.26.12.05.28v2.02l1.1-.41v-3.12h.87c.24.03.26.12.05.28v2.53l1.56-.6.09-.18.96.64-.18.14v3.49c0,.49-.25.73-.73.73h-.92l-.23-.87h.78c.12,0,.18-.06.18-.18v-2.76l-1.52.55v3.95h-.92v-3.63l-1.1.41v4.23c0,.25.11.37.32.37h3.08c.31,0,.5-.15.6-.46Z"/>
        <path class="cls-16" d="M503.5,404.81h-3.67v.78h-1.24v3.44c.31-.09.67-.21,1.1-.37l.09.83c-1.04.43-2.02.78-2.94,1.06-.12.21-.23.26-.32.14l-.23-1.06c.46-.12.92-.25,1.38-.37v-3.67h-1.1v-.87h1.1v-2.43h.87c.25.03.26.12.05.28v2.16h1.24v-.78h3.67v-1.88h.87c.25.03.26.12.05.28v1.61h1.15c-.37-.61-.61-.96-.74-1.06l.74-.55c.21.21.49.57.83,1.06l-.74.55h1.1v.87h-2.34c0,1.29.06,2.42.18,3.4.31-.55.63-1.38.96-2.48l.83.37c.09.12.06.2-.09.23-.34,1.16-.77,2.17-1.29,3.03.15.61.37,1.06.64,1.33.15.15.25.12.28-.09l.18-1.01.87.41-.32,1.29c-.15.61-.46.84-.92.69-.61-.21-1.1-.81-1.47-1.79-.77.83-1.91,1.56-3.44,2.21l-.37-.96c1.5-.61,2.65-1.33,3.45-2.16-.28-1.38-.41-2.86-.41-4.46ZM499.55,409.68c1.22-.21,2.43-.55,3.63-1.01l.05.87c-1.1.43-2.17.78-3.21,1.06-.12.15-.2.18-.23.09l-.23-1.01ZM500.88,408.35v.23h-.78v-2.85h2.85v2.62h-2.07ZM502.16,407.61v-1.15h-1.29v1.15h1.29Z"/>
        <path class="cls-16" d="M518.21,412.25c-1.78-.4-3.21-1.07-4.32-2.02-1.16,1.01-2.76,1.67-4.78,1.98l-.41-1.06c2.02-.34,3.49-.87,4.41-1.61-.77-.86-1.35-1.7-1.75-2.53l.96-.41c.46.92.95,1.64,1.47,2.16.49-.61.9-1.38,1.24-2.3l.96.51c.18.12.14.21-.14.28-.4.89-.83,1.62-1.29,2.21.83.7,2.17,1.26,4.04,1.65l-.41,1.15ZM514.31,402.37v1.01h4.32v.87h-9.65v-.87h4.27v-1.38h1.01c.31.06.32.18.05.37ZM512.52,405.41c-.67.92-1.62,1.64-2.85,2.16l-.55-.96c1.13-.49,2.05-1.18,2.76-2.07l.87.69c.09.06.02.12-.23.18ZM515.64,404.62c.73.8,1.65,1.46,2.76,1.98l-.74.96c-1.07-.58-1.97-1.32-2.71-2.2l.69-.74Z"/>
        <path class="cls-16" d="M520.57,411.51c.64-1.04,1.21-2.19,1.7-3.44l.83.55c-.49,1.41-1,2.54-1.52,3.4.06.18.02.26-.14.23l-.87-.74ZM522.32,407.15c-.46-.37-.96-.75-1.52-1.15l.6-.87c.64.4,1.16.77,1.56,1.1l-.64.92ZM522.41,404.49c-.43-.46-.9-.87-1.42-1.24l.69-.83c.55.34,1.03.73,1.42,1.19l-.69.87ZM525.21,409.45c0,1.29-.69,2.28-2.07,2.99l-.64-.78c1.19-.61,1.79-1.41,1.79-2.39v-1.97h.87c.24.03.26.12.05.28v1.88ZM527.42,403.11h3.4v.87h-3.86l-1.06,1.75,2.71-.14-1.01-.78.74-.46c1.01.58,1.87,1.27,2.57,2.07l-.78.64-.73-.74-5.47.41c-.03.21-.11.26-.23.14l-.32-1.06,1.56-.05.83-1.79h-2.39v-.87h2.99v-1.24h1.01c.31.06.32.18.05.37v.87ZM527.28,411.7h-.92v-4.36h.87c.25.03.26.12.05.28v4.09ZM528.38,407.24h.87c.24.03.26.12.05.28v3.45c0,.25.11.37.32.37h.28c.15,0,.25-.11.28-.32l.09-.74.92.23c-.03.4-.09.78-.18,1.15s-.32.55-.69.55h-1.19c-.49,0-.74-.26-.74-.78v-4.18Z"/>
        <path class="cls-16" d="M535.34,404.26h1.06v.87h-1.06v1.47c.58.4,1.06.8,1.42,1.19l-.5.92c-.34-.46-.64-.8-.92-1.01v4.73h-.92v-4.59c-.34.98-.77,1.76-1.29,2.34l-.51-.92c.98-1.29,1.56-2.66,1.75-4.13h-1.47v-.87h1.52v-2.34h.87c.25.03.26.12.05.28v2.07ZM540.11,404.07v.69h2.2v3.95h-2.02c1.01.92,2.05,1.56,3.12,1.93l-.37,1.01c-1.26-.58-2.24-1.3-2.94-2.16v2.85h-.92v-2.66c-.64.98-1.55,1.7-2.71,2.16l-.37-.96c1.29-.49,2.23-1.21,2.85-2.16h-1.97v-3.95h2.2v-.69h-2.71v-.87h2.71v-1.38h.87c.24.03.26.12.05.28v1.1h2.76v.87h-2.76ZM537.91,406.42h1.29v-.92h-1.29v.92ZM537.91,407.98h1.29v-.83h-1.29v.83ZM540.11,406.42h1.29v-.92h-1.29v.92ZM540.11,407.98h1.29v-.83h-1.29v.83Z"/>
      </g>
      <g>
        <path class="cls-16" d="M560.02,402.74c-.31.4-.77.81-1.38,1.24h3.08v.73h-3.21v-.6c-.61.43-1.16.77-1.65,1.01l-.51-.78c1.5-.67,2.68-1.58,3.54-2.71l.83.23c.12.12.08.2-.14.23l-.05.09c.77.21,1.76.78,2.99,1.7l-.64.73c-.95-.8-1.9-1.42-2.85-1.88ZM557.08,412.02l-.64-.69c.8-.67,1.19-1.67,1.19-2.99v-3.12h5.1v3.44h-4.32c0,1.29-.44,2.4-1.33,3.35ZM558.41,406.6h3.54v-.64h-3.54v.64ZM558.41,407.93h3.54v-.6h-3.54v.6ZM562.73,412.34h-.78v-.32h-2.57v.46h-.78v-3.26h4.13v3.12ZM559.38,411.29h2.57v-1.33h-2.57v1.33ZM564.7,403.34v6.66h-.92v-6.94h.87c.25.03.26.12.05.28ZM565.85,412.39h-1.06l-.18-.87h.92c.09,0,.14-.05.14-.14v-9.37h.87c.24.03.26.12.05.28v9.32c0,.52-.25.78-.74.78Z"/>
        <path class="cls-16" d="M568.58,407.11c1.35-1.56,2.24-3.25,2.66-5.05l1.01.32c.18.12.17.2-.05.23-.21.7-.52,1.47-.92,2.3l.28.09c.12.12.08.2-.14.23v7.07h-.92v-5.97c-.34.55-.74,1.07-1.19,1.56l-.74-.78ZM578.87,403.89v.87h-3.31v1.7h2.89v.87h-2.89v1.52h3.08v.87h-3.08v2.57h-.92v-7.53h-.46c-.49,1.04-1.01,1.84-1.56,2.39l-.87-.64c1.22-1.29,1.99-2.8,2.3-4.55l.96.28c.18.09.17.17-.05.23-.06.31-.21.78-.46,1.42h4.36Z"/>
        <path class="cls-16" d="M585.32,410.09v-5.7h-3.63v-1.01h8.31v1.01h-3.63v5.7h4.5v1.01h-10.01v-1.01h4.46Z"/>
        <path class="cls-16" d="M594.52,411.47c2.14-.49,3.15-1.59,3.03-3.31h-2.71c.03,1.65-.48,3-1.52,4.04l-.64-.78c.86-.8,1.29-2.04,1.29-3.72v-3.81h8.13v2.66h-.92v-.23h-2.34v.96h4.32v.87h-4.68l-.05.78h3.72l-.37,2.57c-.06.52-.35.78-.87.78h-1.56l-.05-.87h1.1c.31,0,.47-.14.5-.41l.18-1.19h-2.85c-.25,1.13-1.35,2.02-3.31,2.66l-.41-1.01ZM602.7,403.16h-9.6v-.87h9.6v.87ZM601.18,405.59v-.96h-6.29v.96h6.29ZM594.89,406.32v.96h3.03v-.96h-3.03Z"/>
        <path class="cls-16" d="M607.45,404.26h1.06v.87h-1.06v1.47c.58.4,1.06.8,1.42,1.19l-.5.92c-.34-.46-.64-.8-.92-1.01v4.73h-.92v-4.59c-.34.98-.77,1.76-1.29,2.34l-.51-.92c.98-1.29,1.56-2.66,1.75-4.13h-1.47v-.87h1.52v-2.34h.87c.25.03.26.12.05.28v2.07ZM612.22,404.07v.69h2.2v3.95h-2.02c1.01.92,2.05,1.56,3.12,1.93l-.37,1.01c-1.26-.58-2.24-1.3-2.94-2.16v2.85h-.92v-2.66c-.64.98-1.55,1.7-2.71,2.16l-.37-.96c1.29-.49,2.23-1.21,2.85-2.16h-1.97v-3.95h2.2v-.69h-2.71v-.87h2.71v-1.38h.87c.24.03.26.12.05.28v1.1h2.76v.87h-2.76ZM610.02,406.42h1.29v-.92h-1.29v.92ZM610.02,407.98h1.29v-.83h-1.29v.83ZM612.22,406.42h1.29v-.92h-1.29v.92ZM612.22,407.98h1.29v-.83h-1.29v.83Z"/>
      </g>
      <g>
        <path class="cls-16" d="M397.84,432.62c.08,2.91-1.17,5.17-3.73,6.78l-.98-1.09c2.26-1.22,3.39-2.95,3.39-5.17v-2.47h1.21c.34.04.38.17.12.4v1.49c1.38-1.03,2.43-2.05,3.16-3.04l-9.36.34-.12-1.32,10.45-.29.4-.11.86,1.03c.12.15.02.21-.29.17-1.15,1.49-2.53,2.89-4.13,4.19l-.98-.92Z"/>
        <path class="cls-16" d="M413.25,433.77l-.69,1.32c-2.03-1.03-3.69-1.72-4.99-2.07v5.97h-1.32v-11.48h1.15c.46.04.52.19.17.46v3.62c1.87.54,3.77,1.26,5.68,2.18Z"/>
        <path class="cls-16" d="M417.29,434.69h-1.32v-6.49h1.26c.38.04.4.19.06.46v6.03ZM423.2,433.42c0,2.87-1.34,4.94-4.02,6.2l-1.15-.98c2.53-1.15,3.81-2.91,3.85-5.28v-5.74h1.21c.38.08.42.23.12.46v5.34Z"/>
        <path class="cls-16" d="M437.86,436.06v1.26h-11.43v-1.26h5v-5.68h-4.02v-1.26h9.3v1.26h-3.96v5.68h5.11Z"/>
        <path class="cls-16" d="M444.55,437.56c.42.42,1.01.63,1.78.63,1,0,1.67-.17,2.01-.52.34-.34.52-.92.52-1.72,0-.57-.12-1.26-.34-2.07l1.21-.17c.27,1.07.4,1.8.4,2.18,0,1.19-.29,2.07-.86,2.64-.61.61-1.61.92-2.99.92-1.11,0-1.99-.33-2.64-.98-.61-.61-.88-1.45-.8-2.53l.11-1.72h-2.93v-1.09h3.1l.23-2.24h-2.7v-1.09h2.87l.29-3.27,1.26.17c.42.11.46.27.11.46l-.46,2.64h2.24v1.09h-2.41l-.23,2.24h2.76v1.09h-2.93l-.12,1.44c-.08.84.1,1.47.52,1.89Z"/>
        <path class="cls-16" d="M456.74,437.56c.42.42,1.01.63,1.78.63,1,0,1.67-.17,2.01-.52.34-.34.52-.92.52-1.72,0-.57-.12-1.26-.34-2.07l1.21-.17c.27,1.07.4,1.8.4,2.18,0,1.19-.29,2.07-.86,2.64-.61.61-1.61.92-2.99.92-1.11,0-1.99-.33-2.64-.98-.61-.61-.88-1.45-.8-2.53l.11-1.72h-2.93v-1.09h3.1l.23-2.24h-2.7v-1.09h2.87l.29-3.27,1.26.17c.42.11.46.27.11.46l-.46,2.64h2.24v1.09h-2.41l-.23,2.24h2.76v1.09h-2.93l-.12,1.44c-.08.84.1,1.47.52,1.89Z"/>
        <path class="cls-16" d="M464.69,431.01l-.34-1.15c1.88,0,3.39-.04,4.54-.11-.38-1.07-.65-2.07-.8-2.99h1.26c.34.08.38.23.12.46.15.73.38,1.53.69,2.41,1.34-.11,2.49-.29,3.44-.52l.29,1.26c-1.11.15-2.2.27-3.27.34.77,1.46,1.93,2.72,3.5,3.79l-.86,1.03c-1.42-.65-2.81-.98-4.19-.98-1.26,0-2.14.25-2.64.75-.23.23-.34.56-.34.98,0,.38.17.75.52,1.09.54.54,1.8.8,3.79.8h2.01l-.29,1.26h-2.18c-1.99,0-3.39-.4-4.19-1.21-.57-.57-.86-1.22-.86-1.95s.21-1.3.63-1.72c.69-.69,1.76-1.03,3.21-1.03s2.3.08,2.53.23c-.92-1.15-1.55-2.12-1.89-2.93-1.57.11-3.12.17-4.65.17Z"/>
        <path class="cls-16" d="M482.62,430.55c-1,.19-1.93.34-2.81.46-.57,3.41-1.28,6.11-2.12,8.1l-1.26-.4c1.03-2.41,1.76-4.94,2.18-7.58-.96.08-1.78.11-2.47.11l-.23-1.15c1.07,0,2.03-.04,2.87-.11.15-1.19.29-2.22.4-3.1l1.15.23c.42.12.46.27.12.46-.12.46-.27,1.22-.46,2.3.88-.11,1.68-.27,2.41-.46l.23,1.15ZM487.73,437.73v1.26h-2.53c-1.46,0-2.83-.34-4.13-1.03l.52-1.03c.99.54,2.2.8,3.62.8h2.53ZM487.45,432.96c-2.22.08-3.96.38-5.22.92l-.34-1.15c1.64-.65,3.42-.98,5.34-.98l.23,1.21ZM484.92,427.8c.69.42,1.43.92,2.24,1.49l-.52.8c-.84-.57-1.59-1.07-2.24-1.49l.52-.8ZM486.07,426.65c.61.34,1.36.84,2.24,1.49l-.52.8c-.84-.61-1.59-1.11-2.24-1.49l.52-.8Z"/>
      </g>
      <g>
        <path class="cls-16" d="M343.29,410.09v-5.7h-3.63v-1.01h8.31v1.01h-3.63v5.7h4.5v1.01h-10.01v-1.01h4.46Z"/>
        <path class="cls-16" d="M355.53,408.67l-1.29,2.25,4-.28c-.37-.28-.83-.61-1.38-1.01l.73-.64c1.16.64,2.25,1.55,3.26,2.71l-.92.78-.92-1.01-7.26.64c-.12.21-.23.26-.32.14l-.28-1.29,2.11-.05,1.01-2.25h-3.49v-.87h10.29v.87h-5.56ZM353.78,404.95v-1.06h-2.85v-.87h2.85v-1.01h1.01c.31.06.32.18.05.37v.64h2.11v-1.01h1.01c.31.06.32.18.05.37v.64h2.89v.87h-2.89v1.06h-1.06v-1.06h-2.11v1.06h-1.06ZM352.27,405.68h7.3v.87h-7.3v-.87Z"/>
        <path class="cls-16" d="M365.01,404.67c.25.09.25.2,0,.32v7.44h-.92v-5.74c-.21.46-.49.86-.83,1.19l-.64-.83c1.04-1.41,1.76-3.15,2.16-5.24l1.01.37c.15.12.11.2-.14.23-.15.8-.37,1.55-.64,2.25ZM368.59,405.04h-2.89v-.87h3.12v-2.3h.87c.25.03.26.12.05.28v2.02h3.31v.87h-3.03c.49,1.47,1.59,3,3.31,4.59l-.64.92c-1.32-1.32-2.3-2.65-2.94-4v2.66h1.33v.87h-1.33v2.25h-.92v-2.25h-1.19v-.87h1.19v-2.66c-.74,1.62-1.68,2.94-2.85,3.95l-.69-.87c1.5-1.38,2.6-2.91,3.31-4.59Z"/>
        <path class="cls-16" d="M374.58,411.33c.25-.89.37-1.62.37-2.21l.6.09c-.06.98-.17,1.76-.32,2.34l-.64-.23ZM376.83,411.47h1.01c.18,0,.31-.09.37-.28.09-.25.14-.54.14-.87l.05-1.79h-3.21v-6.2h4.04v.74h-1.47v1.01h1.1v.73h-1.1v1.1h1.19v.74h-1.19v1.15h1.47l-.09,2.62c-.03.71-.11,1.18-.23,1.42-.15.34-.41.51-.78.51h-1.19l-.09-.87ZM375.73,409.22l.5-.05c.09.58.14,1.19.14,1.84l-.55.09c0-.64-.03-1.27-.09-1.88ZM376.97,403.06h-1.01v1.01h1.01v-1.01ZM376.97,404.81h-1.01v1.1h1.01v-1.1ZM376.97,406.65h-1.01v1.15h1.01v-1.15ZM377.02,409.17c.21.58.32,1.12.32,1.61l-.55.14c-.06-.7-.15-1.27-.28-1.7l.5-.05ZM377.61,410.64c-.12-.58-.25-1.07-.37-1.47l.51-.09c.18.4.32.86.41,1.38l-.55.18ZM383.86,405.27h-1.24v.87h2.11v3.03h-.78v-.37h-1.24c.55,1.1,1.45,1.96,2.71,2.57l-.55.87c-1.23-.71-2.05-1.55-2.48-2.53-.43,1.26-1.35,2.14-2.76,2.66l-.41-.83c1.5-.55,2.36-1.47,2.57-2.76h-1.24v.51h-.78v-3.17h2.07v-.87h-1.24v-.64c-.31.37-.69.67-1.15.92l-.51-.78c1.07-.58,1.94-1.55,2.62-2.89l.96.14c.09.12.06.2-.09.23.73.95,1.73,1.7,2.99,2.25l-.46.83c-.34-.12-.71-.34-1.1-.64v.6ZM381.84,406.88h-1.29v1.19h1.29v-1.19ZM383.63,404.53c-.61-.43-1.16-.99-1.65-1.7-.37.67-.8,1.24-1.29,1.7h2.94ZM382.62,406.88v1.19h1.33v-1.19h-1.33Z"/>
        <path class="cls-16" d="M389.53,404.26h1.06v.87h-1.06v1.47c.58.4,1.06.8,1.42,1.19l-.5.92c-.34-.46-.64-.8-.92-1.01v4.73h-.92v-4.59c-.34.98-.77,1.76-1.29,2.34l-.51-.92c.98-1.29,1.56-2.66,1.75-4.13h-1.47v-.87h1.52v-2.34h.87c.25.03.26.12.05.28v2.07ZM394.3,404.07v.69h2.2v3.95h-2.02c1.01.92,2.05,1.56,3.12,1.93l-.37,1.01c-1.26-.58-2.24-1.3-2.94-2.16v2.85h-.92v-2.66c-.64.98-1.55,1.7-2.71,2.16l-.37-.96c1.29-.49,2.23-1.21,2.85-2.16h-1.97v-3.95h2.2v-.69h-2.71v-.87h2.71v-1.38h.87c.24.03.26.12.05.28v1.1h2.76v.87h-2.76ZM392.1,406.42h1.29v-.92h-1.29v.92ZM392.1,407.98h1.29v-.83h-1.29v.83ZM394.3,406.42h1.29v-.92h-1.29v.92ZM394.3,407.98h1.29v-.83h-1.29v.83Z"/>
      </g>
      <path class="cls-4" d="M82.41,434.49v-69.55h-24.1c-2.43-8.24-5.86-16.4-10.57-24.19l-28.56,13.53c23.71,41.39,7.01,79.82,2.17,88.84l12.59,8.06c-2.55,4.91-12.67,22.66-32.74,37.75l11.52,11.69s27.58-17.85,34.92-42.07h-.01c3.84-5.04,7.75-13.51,10.68-24.06h24.1Z"/>
      <g>
        <path class="cls-16" d="M45.65,412.96c2.82-.52,4.87-1.94,6.15-4.27l.78.78c-1.47,2.57-3.92,4.15-7.35,4.73l-.73-.55.09-.28v-7.62h1.01c.28.03.29.14.05.32v6.89Z"/>
        <path class="cls-16" d="M63.58,413.33l-.92.78c-1.29-1.35-2.53-2.48-3.72-3.4-1.19,1.29-2.56,2.43-4.09,3.44l-.87-.78c3.25-2.11,5.33-4.23,6.25-6.34l-5.01.32-.14-1.1,5.33-.23.55-.14.73.74c.21.21.15.35-.18.41-.58,1.01-1.19,1.95-1.84,2.8,1.32,1.01,2.62,2.17,3.9,3.49Z"/>
        <path class="cls-16" d="M71.5,410.25l-.55,1.06c-1.62-.83-2.96-1.38-4-1.65v4.78h-1.06v-9.19h.92c.37.03.41.15.14.37v2.89c1.5.43,3.02,1.01,4.55,1.75Z"/>
        <path class="cls-16" d="M44.94,420.82c-.55,1.93-1.44,3.69-2.66,5.28l-1.06-.69c1.35-1.62,2.25-3.46,2.71-5.51l1.1.51c.25.15.21.29-.09.41ZM47.56,420.08l.96-.73c1.53,1.93,2.62,3.97,3.26,6.11l-1.24.41c-.77-2.42-1.76-4.35-2.99-5.79Z"/>
        <path class="cls-16" d="M62.5,420.03c0,3.34-1.61,5.8-4.82,7.4l-.87-.87c2.97-1.35,4.47-3.37,4.5-6.06h-6.38l.09,2.71h-1.06l-.14-3.72h3.63v-2.3h.92c.37.03.41.15.14.37v1.93h3.44l.55.55Z"/>
        <path class="cls-16" d="M74.09,425.82l-.92.78c-1.29-1.35-2.53-2.48-3.72-3.4-1.19,1.29-2.56,2.43-4.09,3.44l-.87-.78c3.25-2.11,5.33-4.23,6.25-6.34l-5.01.32-.14-1.1,5.33-.23.55-.14.73.74c.21.21.15.35-.18.41-.58,1.01-1.19,1.95-1.84,2.8,1.32,1.01,2.62,2.17,3.9,3.49Z"/>
      </g>
      <path class="cls-4" d="M698.56,350.12v24.36h-5.13v-45.66h-68.73v144.41h68.73v-46.62h5.13v81.07h68.73v-157.56h-68.73ZM693.43,414.36v-27.64h5.13v27.64h-5.13Z"/>
      <g>
        <path class="cls-16" d="M631.95,412.43h-.92v-2.76c-.49.8-1.03,1.42-1.61,1.88l-.69-.83c.86-.61,1.58-1.38,2.16-2.3h-1.93v-.87h2.07v-1.01h-2.34v-.87h3.22l.5-1.65h-3.4v-.87h2.02v-1.29h.87c.24.03.26.12.05.28v1.01h2.02v.87h-.6l-.64,1.65h1.47v.87h-2.25v1.01h2.02v.87h-2.02v.41c.43.12,1.03.44,1.79.96l-.55.92c-.43-.43-.84-.77-1.24-1.01v2.71ZM629.61,404.35l.87-.28c.24.4.43.81.55,1.24l-.92.28c-.12-.43-.29-.84-.5-1.24ZM632.83,411.56c1.26-.67,1.88-1.82,1.88-3.44v-5.28l.96.18,2.48-.78.69.92c.06.18-.05.21-.32.09l-2.89.55v1.97h3.63v.87h-1.38v5.74h-.92v-5.74h-1.33v1.75c0,1.81-.77,3.15-2.3,4.04l-.51-.87Z"/>
        <path class="cls-16" d="M643.13,407.52h1.61l.55-1.19h-2.57v1.1c0,2.08-.43,3.66-1.29,4.73l-.83-.6c.8-.92,1.19-2.36,1.19-4.32v-4.87h8.41v2.34h-7.49v.74h8.13v.87h-2.39c.89.61,1.61,1.21,2.16,1.79l-.78.55-.64-.64-2.02.14v1.1h2.85v.87h-2.85v1.1h4v.87h-8.77v-.87h3.86v-1.1h-2.85v-.87h2.85v-1.01l-2.48.09c-.06.25-.17.26-.32.05l-.32-.87ZM649.29,403.98v-.87h-6.57v.87h6.57ZM646.39,406.32l-.78,1.19,2.89-.09-.78-.6.55-.51h-1.88Z"/>
        <path class="cls-16" d="M661.8,412.16v-.46h-7.53v.55h-.92v-9.88h9.37v9.78h-.92ZM661.8,403.25h-7.53v7.58h7.53v-7.58ZM661.2,409.36l-.74.87c-.67-.58-1.41-1.07-2.21-1.47-.7.71-1.7,1.3-2.99,1.79l-.6-.83c1.22-.49,2.13-.98,2.71-1.47-.71-.37-1.5-.74-2.39-1.1l.6-.74c.74.28,1.56.63,2.48,1.06.7-.83,1.33-2.04,1.88-3.63l1.01.41c.25.06.2.17-.14.32-.58,1.47-1.21,2.59-1.88,3.35.8.4,1.55.87,2.25,1.42ZM656.06,404.17c.4.46.73,1,1.01,1.61l-.83.5c-.25-.61-.57-1.16-.96-1.65l.78-.46ZM658.08,405.77c-.25-.61-.57-1.16-.96-1.65l.78-.46c.49.55.83,1.09,1.01,1.61l-.83.5Z"/>
        <path class="cls-16" d="M669.63,403.34h-3.21v-.73h3.21v-.83h.87c.24.03.26.12.05.28v.55h3.17v1.24h1.52v.73h-1.52v1.29h-3.17v.55h3.35v.74h-3.35v.55h4.82v.74h-10.56v-.74h4.82v-.55h-3.35v-.74h3.35v-.55h-3.26v-.73h3.26v-.55h-4.64v-.73h4.64v-.51ZM666.5,408.99h7.12v3.35h-.92v-.23h-5.28v.23h-.92v-3.35ZM667.42,409.72v.46h5.28v-.46h-5.28ZM667.42,410.92v.46h5.28v-.46h-5.28ZM672.8,403.85v-.51h-2.25v.51h2.25ZM670.55,404.58v.55h2.25v-.55h-2.25Z"/>
        <path class="cls-16" d="M677.73,405.73l-.5.55-.6-.78c1.13-1.04,1.91-2.24,2.34-3.58l.92.14c.12.09.08.2-.14.32.67.55,1.24,1.06,1.7,1.52l-.51.87c-.67-.76-1.18-1.3-1.52-1.61-.43.95-.86,1.65-1.29,2.11h.92v-1.15h.87c.21.03.23.12.05.28v.87h1.19v3.67h-2.66v1.93l1.84-.41c-.12-.21-.31-.5-.55-.87l.78-.41c.49.64.95,1.39,1.38,2.25l-.92.5c-.15-.37-.29-.64-.41-.83l-3.08.96c-.03.15-.12.18-.28.09l-.37-.92.83-.18v-5.33ZM678.51,406v.69h1.88v-.69h-1.88ZM678.51,407.43v.78h1.88v-.78h-1.88ZM686.36,407.98h-.92v-.18h-2.07v1.01h3.4v3.35h-.92v-.37h-2.48v.6h-.92v-7.07h-.92v-2.02h2.48v-1.24h.87c.31,0,.32.09.05.28v.96h2.53v2.02h-.92v-1.29h-4.09v1.1h3.9v2.85ZM683.38,405.87v1.19h2.07v-1.19h-2.07ZM683.38,411.06h2.48v-1.52h-2.48v1.52Z"/>
      </g>
      <g>
        <path class="cls-16" d="M706.93,438.38h-.92v-2.76c-.49.8-1.03,1.42-1.61,1.88l-.69-.83c.86-.61,1.58-1.38,2.16-2.3h-1.93v-.87h2.07v-1.01h-2.34v-.87h3.22l.5-1.65h-3.4v-.87h2.02v-1.29h.87c.24.03.26.12.05.28v1.01h2.02v.87h-.6l-.64,1.65h1.47v.87h-2.25v1.01h2.02v.87h-2.02v.41c.43.12,1.03.44,1.79.96l-.55.92c-.43-.43-.84-.77-1.24-1.01v2.71ZM704.59,430.29l.87-.28c.24.4.43.81.55,1.24l-.92.28c-.12-.43-.29-.84-.5-1.24ZM707.8,437.5c1.26-.67,1.88-1.82,1.88-3.44v-5.28l.96.18,2.48-.78.69.92c.06.18-.05.21-.32.09l-2.89.55v1.97h3.63v.87h-1.38v5.74h-.92v-5.74h-1.33v1.75c0,1.81-.77,3.15-2.3,4.04l-.51-.87Z"/>
        <path class="cls-16" d="M718.11,433.46h1.61l.55-1.19h-2.57v1.1c0,2.08-.43,3.66-1.29,4.73l-.83-.6c.8-.92,1.19-2.36,1.19-4.32v-4.87h8.41v2.34h-7.49v.74h8.13v.87h-2.39c.89.61,1.61,1.21,2.16,1.79l-.78.55-.64-.64-2.02.14v1.1h2.85v.87h-2.85v1.1h4v.87h-8.77v-.87h3.86v-1.1h-2.85v-.87h2.85v-1.01l-2.48.09c-.06.25-.17.26-.32.05l-.32-.87ZM724.26,429.93v-.87h-6.57v.87h6.57ZM721.37,432.27l-.78,1.19,2.89-.09-.78-.6.55-.51h-1.88Z"/>
        <path class="cls-16" d="M736.78,438.1v-.46h-7.53v.55h-.92v-9.88h9.37v9.78h-.92ZM736.78,429.19h-7.53v7.58h7.53v-7.58ZM736.18,435.3l-.74.87c-.67-.58-1.41-1.07-2.21-1.47-.7.71-1.7,1.3-2.99,1.79l-.6-.83c1.22-.49,2.13-.98,2.71-1.47-.71-.37-1.5-.74-2.39-1.1l.6-.74c.74.28,1.56.63,2.48,1.06.7-.83,1.33-2.04,1.88-3.63l1.01.41c.25.06.2.17-.14.32-.58,1.47-1.21,2.59-1.88,3.35.8.4,1.55.87,2.25,1.42ZM731.04,430.11c.4.46.73,1,1.01,1.61l-.83.5c-.25-.61-.57-1.16-.96-1.65l.78-.46ZM733.06,431.72c-.25-.61-.57-1.16-.96-1.65l.78-.46c.49.55.83,1.09,1.01,1.61l-.83.5Z"/>
        <path class="cls-16" d="M744.6,429.28h-3.21v-.73h3.21v-.83h.87c.24.03.26.12.05.28v.55h3.17v1.24h1.52v.73h-1.52v1.29h-3.17v.55h3.35v.74h-3.35v.55h4.82v.74h-10.56v-.74h4.82v-.55h-3.35v-.74h3.35v-.55h-3.26v-.73h3.26v-.55h-4.64v-.73h4.64v-.51ZM741.48,434.93h7.12v3.35h-.92v-.23h-5.28v.23h-.92v-3.35ZM742.4,435.67v.46h5.28v-.46h-5.28ZM742.4,436.86v.46h5.28v-.46h-5.28ZM747.77,429.79v-.51h-2.25v.51h2.25ZM745.52,430.52v.55h2.25v-.55h-2.25Z"/>
        <path class="cls-16" d="M752.7,431.67l-.5.55-.6-.78c1.13-1.04,1.91-2.24,2.34-3.58l.92.14c.12.09.08.2-.14.32.67.55,1.24,1.06,1.7,1.52l-.51.87c-.67-.76-1.18-1.3-1.52-1.61-.43.95-.86,1.65-1.29,2.11h.92v-1.15h.87c.21.03.23.12.05.28v.87h1.19v3.67h-2.66v1.93l1.84-.41c-.12-.21-.31-.5-.55-.87l.78-.41c.49.64.95,1.39,1.38,2.25l-.92.5c-.15-.37-.29-.64-.41-.83l-3.08.96c-.03.15-.12.18-.28.09l-.37-.92.83-.18v-5.33ZM753.49,431.95v.69h1.88v-.69h-1.88ZM753.49,433.37v.78h1.88v-.78h-1.88ZM761.34,433.92h-.92v-.18h-2.07v1.01h3.4v3.35h-.92v-.37h-2.48v.6h-.92v-7.07h-.92v-2.02h2.48v-1.24h.87c.31,0,.32.09.05.28v.96h2.53v2.02h-.92v-1.29h-4.09v1.1h3.9v2.85ZM758.35,431.81v1.19h2.07v-1.19h-2.07ZM758.35,437h2.48v-1.52h-2.48v1.52Z"/>
      </g>
      <g>
        <rect class="cls-6" x="111.56" y="301.42" width="35.38" height="35.38"/>
        <path class="cls-4" d="M120.7,320.95c6.61-2.77,11.61-6.67,15.01-11.71l1.79,1.51c.5.38.28.66-.66.85-1.2,1.57-2.74,3.18-4.63,4.81v12.84h-2.17v-11.04c-2.2,1.7-4.78,3.24-7.74,4.63l-1.6-1.89Z"/>
      </g>
      <g>
        <rect class="cls-6" x="184.18" y="301.37" width="35.38" height="35.38"/>
        <path class="cls-4" d="M209.18,326.19h-2.17v-1.04h-10.48v1.51h-2.17v-14.73h14.82v14.25ZM196.53,314.01v9.06h10.48v-9.06h-10.48Z"/>
      </g>
      <g>
        <rect class="cls-6" x="277.53" y="301.37" width="35.38" height="35.38"/>
        <path class="cls-4" d="M292.01,316.09c-1.13,3.96-2.96,7.58-5.47,10.86l-2.17-1.42c2.77-3.33,4.62-7.11,5.57-11.33l2.27,1.04c.5.32.44.6-.19.85ZM297.39,314.58l1.98-1.51c3.15,3.96,5.38,8.15,6.7,12.55l-2.55.85c-1.57-4.97-3.62-8.94-6.14-11.89Z"/>
      </g>
      <g>
        <rect class="cls-18" x="267.77" y="215.02" width="55.95" height="35.38"/>
        <path class="cls-4" d="M281.02,235.21h-2.17v-10.67h2.08c.63.06.66.32.09.76v9.91ZM290.74,233.13c0,4.72-2.2,8.12-6.61,10.19l-1.89-1.6c4.15-1.89,6.26-4.78,6.32-8.68v-9.44h1.98c.63.13.69.38.19.75v8.78Z"/>
        <g>
          <path class="cls-4" d="M295.67,236.93h7.37v1.03h-7.37v-1.03Z"/>
          <path class="cls-4" d="M310.14,231.88h.78v11.19h-1.49v-8.6h-1.94v-.78h.58c.6,0,1.08-.17,1.42-.52.39-.39.6-.82.65-1.29Z"/>
        </g>
      </g>
      <g>
        <rect class="cls-6" x="484.62" y="260.76" width="141.27" height="35.38"/>
        <path class="cls-4" d="M555.4,279.78c-1.64-1.2-3.27-2.23-4.91-3.12l1.13-1.7c1.83,1.07,3.55,2.14,5.19,3.21,1.32-1.76,2.39-3.74,3.21-5.95l-11.61.38-.28-1.98,12.74-.38.57-.28,1.51,1.51c.31.38.16.63-.47.76-1.01,2.45-2.33,4.81-3.96,7.08,1.95,1.51,3.81,3.12,5.57,4.81l-1.7,1.7c-1.64-1.7-3.43-3.27-5.38-4.72-2.33,2.27-5.29,4.25-8.87,5.95l-1.7-1.79c3.78-1.45,6.76-3.27,8.97-5.47Z"/>
      </g>
      <g>
        <rect class="cls-6" x="60.02" y="267.06" width="233.14" height="22.77"/>
        <g>
          <path class="cls-4" d="M150.49,279.19l-4.27.46.87,3.72-1.01.23-.87-3.81-4.69.55-.14-.96,4.59-.51-.46-2.16-3.12.37-.18-.96,3.03-.32-.46-2.11.96-.18c.28-.03.32.08.14.32l.37,1.84,3.35-.46.18.96-3.26.41.46,2.16,4.32-.5.18.96Z"/>
          <path class="cls-4" d="M155.12,277.35l.92-.46c.43.58.81,1.29,1.15,2.11l-.92.51c-.37-.86-.75-1.58-1.15-2.16ZM160.86,281.48c-.89.89-2.05,1.59-3.49,2.11l-.6-.87c1.41-.46,2.51-1.09,3.31-1.88.86-.86,1.35-2.31,1.47-4.36l.96.32c.28.09.28.21,0,.37-.21,1.99-.77,3.43-1.65,4.32ZM157.51,276.75l.87-.46c.46.58.86,1.27,1.19,2.07l-.96.46c-.37-.83-.73-1.52-1.1-2.07Z"/>
          <path class="cls-4" d="M173.02,277.63h3.77v1.01h-3.77c0,2.14-.96,3.75-2.89,4.82l-.73-.73c1.75-.98,2.6-2.34,2.57-4.09h-4.59v-1.01h4.59v-1.75c-.86.09-1.98.17-3.35.23l-.41-.96c2.97-.06,5.25-.34,6.84-.83l.51.96c.09.21-.05.25-.41.09-.64.15-1.35.28-2.11.37v1.88Z"/>
          <path class="cls-4" d="M190.56,277.44c-1.62,3.37-4.35,5.14-8.18,5.33-.15.4-.31.43-.46.09l-.37-1.19c3.98-.09,6.66-1.73,8.04-4.91l.96.69ZM181.74,275.56l.78-.96c.64.4,1.45,1.06,2.43,1.98l-.87.87c-.83-.76-1.61-1.39-2.34-1.88Z"/>
          <path class="cls-4" d="M202.26,276.98l-2.62.09c-.18,2.6-1.39,4.65-3.63,6.15l-.78-.78c2.11-1.41,3.23-3.2,3.35-5.37l-3.26.09-.09-.92,3.4-.09v-2.57h.96c.34.06.37.18.09.37v2.2l3.63-.14v2.85c0,1.5-.14,2.56-.41,3.17-.28.61-.86.92-1.75.92h-1.1l-.14-1.15c.46.06.86.09,1.19.09.46,0,.75-.15.87-.46.18-.49.28-1.35.28-2.57v-1.88Z"/>
          <path class="cls-4" d="M208.45,279v-1.01h10.24v1.01h-10.24Z"/>
        </g>
      </g>
      <g>
        <rect class="cls-6" x="350.31" y="301.37" width="35.38" height="35.38"/>
        <path class="cls-4" d="M378.1,324.39v2.08h-20.39v-2.08h20.39ZM375.74,311.56v2.08h-15.48v-2.08h15.48Z"/>
      </g>
      <g>
        <rect class="cls-6" x="423.21" y="301.37" width="35.38" height="35.38"/>
        <path class="cls-4" d="M432.88,326.47l-2.08-1.13c1.57-2.27,2.89-4.66,3.96-7.17l2.08,1.13c.38.32.25.54-.38.66-.94,2.08-2.14,4.25-3.59,6.51ZM439.67,308.82h1.98c.69.13.76.38.19.75v4.53h8.68v2.08h-8.68v13.12h-2.17v-13.12h-8.5v-2.08h8.5v-5.29ZM449.39,326.19c-1.32-2.33-2.93-4.5-4.81-6.51l1.79-1.51c2.26,2.39,3.96,4.59,5.1,6.61l-2.08,1.42Z"/>
      </g>
      <g>
        <rect class="cls-6" x="495.84" y="301.42" width="35.38" height="35.38"/>
        <path class="cls-4" d="M512.59,317.17c-.38-.31-.75-.47-1.13-.47s-.69.13-.94.38c-2.9,2.58-4.88,4.31-5.95,5.19l-1.89-1.89c1.7-1.01,3.93-2.8,6.7-5.38.63-.57,1.26-.85,1.89-.85.82,0,1.57.28,2.27.85,4.78,3.96,8.43,6.58,10.95,7.83l-2.17,2.17c-3.52-2.58-6.77-5.19-9.72-7.83Z"/>
      </g>
      <g>
        <rect class="cls-6" x="568.76" y="301.37" width="35.38" height="35.38"/>
        <path class="cls-4" d="M593.15,320.05l-1.13,2.17c-3.34-1.7-6.07-2.83-8.21-3.4v9.82h-2.17v-18.88h1.89c.76.06.85.32.28.75v5.95c3.08.88,6.2,2.08,9.35,3.59Z"/>
      </g>
      <g>
        <rect class="cls-6" x="642.21" y="301.47" width="35.38" height="35.38"/>
        <path class="cls-4" d="M661.74,317.32h7.74v2.08h-7.74c0,4.41-1.98,7.71-5.95,9.91l-1.51-1.51c3.59-2.01,5.35-4.81,5.29-8.4h-9.44v-2.08h9.44v-3.59c-1.76.19-4.06.35-6.89.47l-.85-1.98c6.1-.12,10.79-.69,14.06-1.7l1.04,1.98c.19.44-.09.5-.85.19-1.32.32-2.77.57-4.34.76v3.87Z"/>
      </g>
      <rect class="cls-14" x="483.38" y="340.53" width="60.31" height="53.03"/>
      <g>
        <path class="cls-17" d="M66.09,382.95h-.2c-.54,0-.98.44-.98.98v3.34h-.79v-3.34c0-.54-.44-.98-.98-.98h-.2c-.54,0-.98.44-.98.98v3.34h-.79v-3.34c0-.54-.44-.98-.98-.98h-.2c-.54,0-.98.44-.98.98v5.73c0,1.65,1.31,2.99,2.95,3.04v7.34c0,.54.44.98.98.98h.2c.54,0,.98-.44.98-.98v-7.34c1.64-.05,2.95-1.39,2.95-3.04v-5.73c0-.54-.44-.98-.98-.98Z"/>
        <path class="cls-17" d="M74.14,382.95h-1.39c-1.94,0-3.52,1.58-3.52,3.52v5.44c0,1.94,1.58,3.52,3.52,3.52h.21v4.52c0,.6.48,1.08,1.08,1.08s1.08-.48,1.08-1.08v-16.01c0-.54-.44-.98-.98-.98Z"/>
      </g>
      <g>
        <path class="cls-4" d="M512.14,379.29h-2.87v.57h3.59v1.72h-.72v-1.29h-2.87v2.04h-.72v-2.04h-2.76v1.43h-.72v-1.87h3.48v-.57h-2.87v-.57h6.46v.57ZM513.14,385.42c-.02.88-.42,1.33-1.18,1.33h-2.8c-.43,0-.65-.2-.65-.61v-.68h-1.87v.61h-.61v-3.51h5.85v2.91h-2.65v.32c0,.19.08.29.25.29h2.37c.31,0,.48-.26.5-.79l.79.14ZM506.22,381.19v-.43h1.97v.43h-1.97ZM508.19,382.05h-1.97v-.43h1.97v.43ZM506.65,383.7h1.87v-.57h-1.87v.57ZM506.65,384.88h1.87v-.61h-1.87v.61ZM509.23,383.7h2.04v-.57h-2.04v.57ZM509.23,384.88h2.04v-.61h-2.04v.61ZM509.66,381.19v-.43h2.08v.43h-2.08ZM509.66,382.05v-.43h2.08v.43h-2.08Z"/>
        <path class="cls-4" d="M522.14,381.33v.68h-8.14v-.68h2.55l-.57-1.33h-1.15v-.68h2.91v-.86h.68c.19.02.2.1.04.21v.65h2.94v.68h-1.15l-.61,1.33h2.51ZM520.63,386.57h-.72v-.29h-3.62v.47h-.72v-4.12h5.06v3.94ZM519.92,384.06v-.75h-3.62v.75h3.62ZM519.92,385.6v-.86h-3.62v.86h3.62ZM517.26,381.33h1.69l.47-1.33h-2.65l.5,1.33Z"/>
      </g>
      <g>
        <circle class="cls-17" cx="65.54" cy="360.21" r="3.64"/>
        <circle class="cls-17" cx="55.38" cy="360.21" r="3.64"/>
        <polygon class="cls-17" points="65.54 364.88 61.57 374.68 69.51 374.68 65.54 364.88"/>
        <polygon class="cls-17" points="55.38 375.04 59.35 365.24 51.41 365.24 55.38 375.04"/>
      </g>
      <g>
        <circle class="cls-14" cx="464.04" cy="452.27" r="3.64"/>
        <circle class="cls-14" cx="453.88" cy="452.27" r="3.64"/>
        <polygon class="cls-14" points="464.04 456.94 460.07 466.73 468.01 466.73 464.04 456.94"/>
        <polygon class="cls-14" points="453.88 467.09 457.85 457.3 449.91 457.3 453.88 467.09"/>
      </g>
      <rect class="cls-14" x="28.5" y="218.91" width="137.97" height="36.13"/>
      <g>
        <path class="cls-4" d="M87.35,241.9c.73-1.07,1.1-2.14,1.1-3.21v-5.97h8.54v2.94h-.92v-.32h-1.29v1.01h2.07v.87h-2.07v1.01h2.8v.87h-3.49c.15.4.38.75.69,1.06l1.29-.96.73.78c.03.15-.05.2-.23.14l-1.24.64c.77.52,1.62.87,2.57,1.06l-.32,1.01c-2.21-.49-3.69-1.73-4.46-3.72h-1.15v2.48l2.07-.32.14.83-4.13.78c-.03.21-.11.26-.23.14l-.37-1.24,1.61-.09v-2.57h-1.7c-.06,1.44-.49,2.66-1.29,3.67l-.73-.87ZM89.37,234.46h6.71v-.87h-6.71v.87ZM91.48,236.34v-1.01h-2.11v2.89h2.11v-1.01h-1.65v-.87h1.65ZM92.4,236.34h1.47v-1.01h-1.47v1.01ZM92.4,238.22h1.47v-1.01h-1.47v1.01Z"/>
        <path class="cls-4" d="M104.54,242.49h-1.29l-.18-1.01h1.01c.12,0,.18-.06.18-.18v-4.32h-4.5v-1.01h9.88v1.01h-4.32v4.69c0,.55-.26.83-.78.83ZM99.77,240.7c.86-.61,1.61-1.55,2.25-2.8l.92.51c.24.15.2.26-.14.32-.52,1.1-1.29,2.05-2.3,2.85l-.73-.87ZM101.28,234.27v-1.01h6.98v1.01h-6.98ZM107.3,237.85c.61,1.01,1.45,1.9,2.53,2.66l-.78.87c-1.01-.83-1.87-1.82-2.57-2.99l.83-.55Z"/>
      </g>
      <g>
        <path class="cls-4" d="M497.3,353.6c1.5-.28,2.65-.66,3.45-1.15-.31-.34-.74-.7-1.29-1.1-.28.21-.83.49-1.65.83l-.46-.87c1.78-.7,2.94-1.7,3.49-2.99l.92.28c.09.12.05.2-.14.23l-.28.41h2.89l.09-.23.74.55c.24.15.24.26,0,.32-1.53,2.33-3.97,3.87-7.3,4.64l-.46-.92ZM498.12,355.48c2.27-.64,3.83-1.65,4.68-3.03l1.01.23c.12.12.08.2-.14.23l-.41.55h2.39l.09-.18.74.55c.24.15.24.26,0,.32-1.72,2.76-4.61,4.33-8.68,4.73l-.28-1.01c2.02-.18,3.51-.54,4.46-1.06-.28-.43-.72-.84-1.33-1.24-.73.34-1.42.61-2.07.83l-.46-.92ZM503.68,350.11h-2.89c-.21.25-.43.46-.64.64.55.37,1.06.75,1.52,1.15.74-.4,1.41-1,2.02-1.79ZM502.99,356.27c.8-.49,1.5-1.13,2.11-1.93h-2.62c-.34.31-.66.55-.96.74.58.37,1.07.77,1.47,1.19Z"/>
        <path class="cls-4" d="M517.25,358.61h-.92v-.55h-5.19v.74h-.92v-9.88h7.03v9.69ZM516.33,351.58v-1.79h-5.19v1.79h5.19ZM516.33,354.29v-1.84h-5.19v1.84h5.19ZM516.33,357.18v-2.02h-5.19v2.02h5.19Z"/>
        <path class="cls-4" d="M522.32,350.43c.18-.58.35-1.26.5-2.02l1.1.41c.12.12.08.2-.14.23-.09.4-.26.86-.51,1.38h1.7v7.58h-.92v-.55h-2.02v.92h-.92v-7.95h1.19ZM524.06,351.3h-2.02v2.02h2.02v-2.02ZM524.06,354.2h-2.02v2.39h2.02v-2.39ZM527.19,351.3c-.31.86-.8,1.67-1.47,2.43l-.69-.83c1.04-1.04,1.7-2.53,1.97-4.46l.96.32c.28.12.26.21-.05.28-.09.43-.21.89-.37,1.38h3.31l-.23,6.25c-.03,1.22-.52,1.84-1.47,1.84h-1.29l-.14-.87h1.19c.43,0,.66-.28.69-.83l.23-5.51h-2.66ZM527.74,355.58c-.43-.61-.9-1.16-1.42-1.65l.78-.83c.61.55,1.1,1.09,1.47,1.61l-.83.87Z"/>
        <path class="cls-4" d="M498.08,370.41l-1.01-.55c.77-1.1,1.41-2.27,1.93-3.49l1.01.55c.18.15.12.26-.18.32-.46,1.01-1.04,2.07-1.75,3.17ZM501.38,361.82h.96c.34.06.37.18.09.37v2.2h4.23v1.01h-4.23v6.38h-1.06v-6.38h-4.13v-1.01h4.13v-2.57ZM506.11,370.27c-.64-1.13-1.42-2.19-2.34-3.17l.87-.73c1.1,1.16,1.93,2.24,2.48,3.21l-1.01.69Z"/>
        <path class="cls-4" d="M508.25,367.29v-1.01h10.24v1.01h-10.24Z"/>
        <path class="cls-4" d="M520.02,370.96c1.53-1.47,2.3-3.29,2.3-5.47v-2.07h.96c.28.06.31.18.09.37v1.65c0,2.57-.81,4.61-2.43,6.11l-.92-.6ZM526.18,369.72c1.35-.52,2.59-1.56,3.72-3.12l.64.87c-1.16,1.59-2.63,2.74-4.41,3.45l-.37.18-.74-.55.09-.23v-7.39h.96c.28.06.31.18.09.37v6.43Z"/>
      </g>
      <polygon class="cls-15" points="378.1 289.06 370.87 289.06 370.87 286.96 366.67 286.96 366.67 289.06 359.68 289.06 359.68 292.93 362.25 292.93 363.47 305.59 374.06 305.59 375.28 292.93 378.1 292.93 378.1 289.06"/>
      <polygon class="cls-15" points="654.83 282.56 647.6 282.56 647.6 280.46 643.4 280.46 643.4 282.56 636.42 282.56 636.42 286.44 638.98 286.44 640.21 299.09 650.8 299.09 652.02 286.44 654.83 286.44 654.83 282.56"/>
      <polygon class="cls-15" points="794.69 282.56 787.46 282.56 787.46 280.46 783.26 280.46 783.26 282.56 776.27 282.56 776.27 286.44 778.84 286.44 780.07 299.09 790.65 299.09 791.88 286.44 794.69 286.44 794.69 282.56"/>
      <g>
        <path class="cls-16" d="M532.24,250.17c2.82-.98,4.3-2.86,4.46-5.65h-4.13v-1.01h4.23v-2.43h1.01c.31.06.32.18.05.37v2.07h4.41v1.01h-4.32c.64,2.54,2.2,4.35,4.68,5.42l-.6,1.1c-2.14-.98-3.66-2.63-4.55-4.96-.52,2.51-2.13,4.24-4.82,5.19l-.41-1.1Z"/>
        <path class="cls-16" d="M549.02,246.17l.78.05,1.33-.78h-4.87v-.73h5.65l.14-.14.78.73c.09.12.01.18-.23.18-.92.58-1.81,1.06-2.66,1.42v.46h4.78v.87h-4.78v2.34c0,.49-.25.74-.74.74h-1.24l-.18-1.01h1.06c.12,0,.18-.06.18-.18v-1.88h-4.78v-.87h4.78v-1.19ZM552.14,242.87h2.25v2.53h-.92v-1.65h-8.08v1.79h-.92v-2.66h6.66l.96-2.02.96.46c.12.15.08.25-.14.28l-.78,1.29ZM546.63,242.82c-.28-.55-.55-.98-.83-1.29l.87-.51c.34.37.64.8.92,1.29l-.96.51ZM549.34,240.89c.46.58.77,1.06.92,1.42l-.96.51c-.25-.55-.52-1.03-.83-1.42l.87-.51Z"/>
        <path class="cls-16" d="M558.55,242.18h-1.24v9.23h-.92v-9.97h2.34l.14-.28.92.69-.23.23-1.01,2.94c.92,1.47,1.27,2.65,1.06,3.54-.12.55-.44.83-.96.83h-.73l-.14-1.01h.5c.34,0,.49-.15.46-.46-.06-1.19-.4-2.17-1.01-2.94l.83-2.8ZM558.91,250.45c1.9-.28,2.77-1.42,2.62-3.44h-1.7v-.87h6.89v.87h-2.3v3.08c0,.15.09.23.28.23h.78c.09,0,.15-.06.18-.18l.18-1.06.92.23-.18,1.15c-.09.49-.35.74-.78.74h-1.47c-.55,0-.83-.26-.83-.78v-3.4h-1.06c.18,2.54-.87,4-3.17,4.36l-.37-.92ZM559.79,242.32h2.8v-1.42h.87c.24.03.26.12.05.28v1.15h3.03v2.39h-.92v-1.65h-4.91v1.65h-.92v-2.39ZM565.3,245.07h-4.18v-.87h4.18v.87Z"/>
        <path class="cls-16" d="M570.96,243.28h1.06v.87h-1.06v1.47c.58.4,1.06.8,1.42,1.19l-.5.92c-.34-.46-.64-.8-.92-1.01v4.73h-.92v-4.59c-.34.98-.77,1.76-1.29,2.34l-.51-.92c.98-1.29,1.56-2.66,1.75-4.13h-1.47v-.87h1.52v-2.34h.87c.25.03.26.12.05.28v2.07ZM575.74,243.1v.69h2.2v3.95h-2.02c1.01.92,2.05,1.56,3.12,1.93l-.37,1.01c-1.26-.58-2.24-1.3-2.94-2.16v2.85h-.92v-2.66c-.64.98-1.55,1.7-2.71,2.16l-.37-.96c1.29-.49,2.23-1.21,2.85-2.16h-1.97v-3.95h2.2v-.69h-2.71v-.87h2.71v-1.38h.87c.24.03.26.12.05.28v1.1h2.76v.87h-2.76ZM573.54,245.44h1.29v-.92h-1.29v.92ZM573.54,247h1.29v-.83h-1.29v.83ZM575.74,245.44h1.29v-.92h-1.29v.92ZM575.74,247h1.29v-.83h-1.29v.83Z"/>
      </g>
    </g>
    <g>
      <rect class="cls-13" x="111.43" y="46.82" width="40" height="27.63"/>
      <rect class="cls-5" x="113.15" y="48.41" width="36.96" height="24.19"/>
      <polygon class="cls-17" points="159.05 81.83 159.05 68.97 153.17 68.97 153.17 81.83 85.45 81.83 85.45 94.98 176.84 94.98 176.84 81.83 159.05 81.83"/>
      <polygon class="cls-17" points="74.99 97.75 42.64 97.75 42.64 95.47 10.54 95.47 10.54 103.81 0 103.81 0 110.25 10.54 110.25 10.54 113.29 42.64 113.29 42.64 107.74 74.99 107.74 74.99 97.75"/>
      <rect class="cls-17" x="94.97" y="106.19" width="158.7" height="7.16"/>
      <g>
        <path class="cls-1" d="M91.7,84.77c.07.13.16.25.27.36.17-.09.36-.23.49-.33l.19.14s-.03.02-.06.02c-.12.08-.31.2-.47.28.2.14.44.24.72.3-.05.04-.1.12-.13.17-.57-.14-.98-.46-1.2-.94h-.4v.62c.22-.03.47-.07.71-.1v.17c-.41.07-.85.15-1.13.19,0,.02-.02.04-.04.04l-.09-.22c.1-.01.22-.03.35-.05v-.64h-.43v-.18h.59v-.35h-.49v-.18h.49v-.32h-.6v.16c0,.53-.04,1.29-.37,1.81-.04-.03-.13-.09-.18-.1.32-.5.34-1.2.34-1.7v-.92h2.34v.76h-.47s.05,0,.05,0c0,.02-.02.04-.06.04v.27h.54v.18h-.54v.35h.67v.18h-1.09ZM90.47,83.17v.38h1.92v-.38h-1.92ZM91.33,83.74s-.02.04-.06.04v.27h.66v-.32h-.65s.05,0,.05,0ZM91.27,84.24v.35h.66v-.35h-.66Z"/>
        <path class="cls-1" d="M93.85,84.45s-.03.03-.07.03c-.15.35-.38.72-.62.95-.04-.04-.12-.09-.17-.12.24-.21.47-.57.6-.94l.26.08ZM95.86,84.05h-1.28v1.39c0,.14-.03.2-.14.24-.1.03-.28.03-.56.03-.01-.06-.04-.15-.08-.21.13,0,.25,0,.35,0,.2,0,.21,0,.21-.07v-1.39h-1.27v-.2h2.76v.2ZM95.59,83.06v.2h-2.21v-.2h2.21ZM95.71,85.42c-.09-.26-.33-.67-.56-.97l.19-.08c.24.29.49.69.58.96l-.21.1Z"/>
      </g>
      <polygon class="cls-4" points="108.35 77.59 108.35 50.64 102.23 50.64 102.23 48 95.14 48 95.14 50.64 81.93 50.64 81.93 77.59 73.16 77.59 73.16 50.64 67.04 50.64 67.04 48 59.95 48 59.95 50.64 46.73 50.64 46.73 77.59 38.22 77.59 38.22 50.64 32.1 50.64 32.1 48 25.01 48 25.01 50.64 11.8 50.64 11.8 77.59 10.38 77.59 10.38 80.13 0 80.13 0 89.22 10.38 89.22 10.38 92.22 116.99 92.22 116.99 77.59 108.35 77.59"/>
      <rect class="cls-4" x="153.03" y="30.35" width="29.01" height="39.83"/>
      <rect class="cls-7" x="154.15" y="31.12" width="26.77" height="37.85"/>
      <rect class="cls-4" x="202.8" y="79.89" width="36.74" height="9.06"/>
      <rect class="cls-17" x="168.83" y="81.84" width="26.43" height="13.14"/>
      <rect class="cls-4" x="158.7" y="110.25" width="17.89" height="37.58"/>
      <rect class="cls-4" x="177.6" y="110.25" width="17.89" height="37.58"/>
      <rect class="cls-4" x="196.64" y="110.25" width="17.89" height="37.58"/>
      <rect class="cls-4" x="215.55" y="110.25" width="17.89" height="37.58"/>
      <rect class="cls-4" x="23.69" y="90.34" width="2.71" height="10.25"/>
      <polygon class="cls-4" points="83.37 94.88 74.99 94.88 74.99 101.36 77.06 101.36 77.06 106.19 82.86 106.19 82.86 101.36 83.37 101.36 83.37 94.88"/>
      <rect class="cls-2" x="33.89" y="112.6" width="13.51" height="13.51"/>
      <rect class="cls-3" x="47.39" y="107.78" width="13.9" height="11.62"/>
      <rect class="cls-13" x="187.8" y="30.35" width="86.44" height="47.14"/>
      <rect class="cls-17" x="90.65" y="122.19" width="54.33" height="2.87"/>
      <rect class="cls-4" x="160.25" y="134.9" width="52.8" height="5.63"/>
      <rect class="cls-17" x="93.31" y="132.31" width="54.33" height="2.87"/>
      <rect class="cls-4" x="96.56" y="110.25" width="17.89" height="37.58"/>
      <rect class="cls-4" x="115.46" y="110.25" width="17.89" height="37.58"/>
      <rect class="cls-4" x="139.86" y="110.25" width="17.89" height="37.58"/>
      <path class="cls-16" d="M43.97,156.15l-.52,3.13s25.16,4.23,38.19-17.62l-2.87-2.23s-8.26,18.95-34.8,16.72Z"/>
      <rect class="cls-14" x="17.62" y="71.38" width=".38" height="12.04" transform="translate(95.21 59.58) rotate(90)"/>
      <rect class="cls-14" x="16.97" y="72.96" width=".38" height="13.95" transform="translate(97.1 62.78) rotate(90)"/>
      <rect class="cls-14" x="12.18" y="84.02" width=".38" height="4.26" transform="translate(98.52 73.79) rotate(90)"/>
      <rect class="cls-14" x="18.37" y="83.76" width=".38" height="4.8" transform="translate(104.72 67.6) rotate(90)"/>
      <rect class="cls-14" x="31.16" y="82.54" width=".38" height="9.92" transform="translate(118.85 56.15) rotate(90)"/>
      <rect class="cls-14" x="33.3" y="72.66" width=".38" height="9.46" transform="translate(110.89 43.9) rotate(90)"/>
      <rect class="cls-14" x="32.78" y="63.71" width=".38" height="10.5" transform="translate(101.94 35.99) rotate(90)"/>
      <rect class="cls-14" x="32.78" y="54.01" width=".38" height="10.5" transform="translate(92.23 26.29) rotate(90)"/>
      <rect class="cls-14" x="67.73" y="58.44" width=".38" height="10.5" transform="translate(131.61 -4.23) rotate(90)"/>
      <rect class="cls-14" x="85.87" y="59.19" width=".38" height="8.62" transform="translate(149.56 -22.56) rotate(90)"/>
      <rect class="cls-14" x="105.04" y="54.92" width=".38" height="6.27" transform="translate(163.29 -47.17) rotate(90)"/>
      <rect class="cls-14" x="91.67" y="51.38" width=".38" height="6.12" transform="translate(146.31 -37.42) rotate(90)"/>
      <rect class="cls-14" x="87.2" y="55.14" width=".38" height="2.84" transform="translate(143.95 -30.83) rotate(90)"/>
      <rect class="cls-14" x="82.83" y="55.14" width=".38" height="2.84" transform="translate(139.58 -26.46) rotate(90)"/>
      <rect class="cls-14" x="104.44" y="60.13" width=".38" height="3.43" transform="translate(166.47 -42.78) rotate(90)"/>
      <rect class="cls-14" x="99.77" y="60.43" width=".38" height="2.84" transform="translate(161.81 -38.12) rotate(90)"/>
      <rect class="cls-14" x="99.06" y="57.35" width=".38" height="1.42" transform="translate(157.31 -41.19) rotate(90)"/>
      <rect class="cls-14" x="85.09" y="49.98" width=".38" height="7.06" transform="translate(138.78 -31.77) rotate(90)"/>
      <rect class="cls-14" x="88.13" y="62.06" width=".38" height="13.14" transform="translate(156.95 -19.69) rotate(90)"/>
      <rect class="cls-14" x="85.66" y="73.08" width=".38" height="8.62" transform="translate(163.25 -8.46) rotate(90)"/>
      <rect class="cls-14" x="104.89" y="74.11" width=".38" height="6.58" transform="translate(182.47 -27.68) rotate(90)"/>
      <rect class="cls-14" x="91.76" y="72.27" width=".38" height="6.26" transform="translate(167.35 -16.55) rotate(90)"/>
      <rect class="cls-14" x="88.22" y="66.13" width=".38" height="13.33" transform="translate(161.21 -15.62) rotate(90)"/>
      <rect class="cls-14" x="88.12" y="73.15" width=".38" height="13.54" transform="translate(168.23 -8.39) rotate(90)"/>
      <rect class="cls-14" x="103.27" y="74.91" width=".38" height="9.81" transform="translate(183.28 -23.65) rotate(90)"/>
      <rect class="cls-14" x="93.56" y="76.07" width=".38" height="2.65" transform="translate(171.15 -16.36) rotate(90)"/>
      <rect class="cls-14" x="86.11" y="74.07" width=".38" height="2.65" transform="translate(161.7 -10.91) rotate(90)"/>
      <rect class="cls-14" x="81.8" y="74.07" width=".38" height="2.65" transform="translate(157.38 -6.59) rotate(90)"/>
      <rect class="cls-14" x="93.92" y="62.53" width=".38" height="1.93" transform="translate(157.61 -30.62) rotate(90)"/>
      <rect class="cls-14" x="93.92" y="64.31" width=".38" height="1.93" transform="translate(159.39 -28.83) rotate(90)"/>
      <rect class="cls-14" x="17.82" y="53.05" width=".38" height="12.42" transform="translate(77.26 41.25) rotate(90)"/>
      <rect class="cls-14" x="17.78" y="62.72" width=".38" height="12.49" transform="translate(86.94 51) rotate(90)"/>
      <rect class="cls-14" x="52.8" y="53.05" width=".38" height="12.42" transform="translate(112.25 6.27) rotate(90)"/>
      <rect class="cls-14" x="52.76" y="62.72" width=".38" height="12.49" transform="translate(121.92 16.01) rotate(90)"/>
      <rect class="cls-14" x="33.3" y="75.21" width=".38" height="9.46" transform="translate(113.44 46.45) rotate(90)"/>
      <rect class="cls-14" x="52.54" y="71.34" width=".38" height="12.1" transform="translate(130.12 24.67) rotate(90)"/>
      <rect class="cls-14" x="68.25" y="72.66" width=".38" height="9.46" transform="translate(145.83 8.96) rotate(90)"/>
      <path class="cls-4" d="M93.31,137.75v-18.1h-6.27c-.63-2.15-1.53-4.27-2.75-6.3l-7.43,3.52c6.17,10.77,1.83,20.77.56,23.12l3.28,2.1c-.66,1.28-3.3,5.9-8.52,9.82l3,3.04s7.18-4.64,9.09-10.95h0c1-1.31,2.02-3.52,2.78-6.26h6.27Z"/>
      <path class="cls-4" d="M253.67,115.79v6.34h-1.34v-11.88h-17.89v37.58h17.89v-12.13h1.34v21.1h17.89v-41.01h-17.89ZM252.34,132.51v-7.19h1.34v7.19h-1.34Z"/>
      <rect class="cls-6" x="100.9" y="103.12" width="9.21" height="9.21"/>
      <rect class="cls-6" x="119.8" y="103.11" width="9.21" height="9.21"/>
      <rect class="cls-6" x="144.1" y="103.11" width="9.21" height="9.21"/>
      <rect class="cls-6" x="141.56" y="80.63" width="9.21" height="9.21"/>
      <rect class="cls-6" x="202.69" y="89.02" width="35.03" height="9.21"/>
      <rect class="cls-6" x="129.33" y="95.05" width="60.67" height="5.93"/>
      <rect class="cls-6" x="163.04" y="103.11" width="9.21" height="9.21"/>
      <rect class="cls-6" x="182.01" y="103.11" width="9.21" height="9.21"/>
      <rect class="cls-6" x="200.91" y="103.12" width="9.21" height="9.21"/>
      <rect class="cls-6" x="219.89" y="103.11" width="9.21" height="9.21"/>
      <rect class="cls-6" x="239.01" y="103.13" width="9.21" height="9.21"/>
      <path class="cls-2" d="M39.24,117.65c.36-.37.84-.55,1.41-.55s1.03.16,1.36.49c.35.35.53.79.55,1.33h-.69c-.04-.4-.16-.71-.38-.92-.23-.23-.51-.35-.84-.35-.35,0-.65.13-.92.4-.35.35-.52.88-.52,1.59s.17,1.24.52,1.59c.25.25.56.38.92.38.38,0,.68-.11.89-.32.27-.27.4-.65.4-1.15h.69c-.02.65-.21,1.16-.58,1.53-.33.33-.8.49-1.41.49-.58,0-1.05-.18-1.41-.55-.48-.48-.72-1.13-.72-1.96s.24-1.51.72-1.99Z"/>
      <rect class="cls-11" x="197.67" y="113.3" width="15.7" height="13.8"/>
      <rect class="cls-12" x="29.79" y="70.14" width="7.65" height="6.08"/>
      <path class="cls-4" d="M57.07,106.19v-11.31H11.83v11.31h11.86v12.07c-1.8.5-3.45,1.4-4.64,2.65l1.28,1.27c-1.81,1.82-2.94,4.33-2.94,7.1,0,.2,0,.4.02.59h-1.29v15.3l5.85-3.48v-1.56h2.9v-1.14c.82.22,1.68.33,2.57.33v.8s10.12.87,11.97-12.28h-2.03c-.59-4.15-3.72-7.48-7.77-8.38v-1.07h0v-.2s0-12.01,0-12.01h27.46Z"/>
      <rect class="cls-14" x="108.57" y="72.27" width=".38" height="6.26" transform="translate(184.16 -33.36) rotate(90)"/>
      <rect class="cls-14" x="103.69" y="67.47" width=".38" height="10.65" transform="translate(176.68 -31.09) rotate(90)"/>
      <rect class="cls-14" x="103.24" y="74.39" width=".38" height="2.02" transform="translate(178.82 -28.03) rotate(90)"/>
      <rect class="cls-14" x="99.45" y="74.32" width=".38" height="2.16" transform="translate(175.04 -24.24) rotate(90)"/>
      <rect class="cls-14" x="99.15" y="76.61" width=".38" height="1.56" transform="translate(176.74 -21.95) rotate(90)"/>
      <rect class="cls-12" x="12.48" y="70.18" width="10.77" height="6.08"/>
      <rect class="cls-14" x="38.22" y="77.59" width=".38" height="2.55"/>
      <rect class="cls-14" x="28.76" y="77.2" width=".38" height="1.12"/>
      <rect class="cls-14" x="27.72" y="61" width=".38" height="6.22"/>
      <rect class="cls-14" x="23.83" y="51.82" width=".38" height="6.22"/>
      <rect class="cls-14" x="27.72" y="51.82" width=".38" height="6.22"/>
      <rect class="cls-14" x="27.58" y="87.5" width=".38" height="4.73"/>
      <rect class="cls-14" x="28.78" y="87.5" width=".38" height="4.73"/>
      <rect class="cls-14" x="29.97" y="87.58" width=".38" height="4.73"/>
      <rect class="cls-14" x="31.16" y="87.52" width=".38" height="4.73"/>
      <rect class="cls-14" x="33.55" y="87.52" width=".38" height="4.73"/>
      <rect class="cls-14" x="34.74" y="87.58" width=".38" height="4.73"/>
      <rect class="cls-14" x="32.35" y="87.58" width=".38" height="4.73"/>
      <rect class="cls-14" x="35.93" y="87.58" width=".38" height="4.73"/>
      <g>
        <g>
          <rect class="cls-14" x="28.94" y="47.92" width=".38" height="2.53"/>
          <rect class="cls-14" x="29.68" y="47.96" width=".38" height="2.53"/>
          <rect class="cls-14" x="28.2" y="47.96" width=".38" height="2.53"/>
          <rect class="cls-14" x="27.46" y="49.22" width=".38" height="1.23"/>
          <rect class="cls-14" x="26.73" y="49.22" width=".38" height="1.34"/>
          <rect class="cls-14" x="31.16" y="47.92" width=".38" height="1.23"/>
          <rect class="cls-14" x="30.42" y="47.92" width=".38" height="1.34"/>
          <rect class="cls-14" x="29.22" y="47.76" width=".38" height="5.38" transform="translate(79.86 21.04) rotate(90)"/>
          <rect class="cls-14" x="28.94" y="46.82" width=".38" height="4.81" transform="translate(78.36 20.09) rotate(90)"/>
        </g>
        <g>
          <rect class="cls-14" x="63.88" y="47.92" width=".38" height="2.53"/>
          <rect class="cls-14" x="64.62" y="47.96" width=".38" height="2.53"/>
          <rect class="cls-14" x="63.14" y="47.96" width=".38" height="2.53"/>
          <rect class="cls-14" x="62.4" y="49.22" width=".38" height="1.23"/>
          <rect class="cls-14" x="61.66" y="49.22" width=".38" height="1.34"/>
          <rect class="cls-14" x="66.09" y="47.92" width=".38" height="1.23"/>
          <rect class="cls-14" x="65.35" y="47.92" width=".38" height="1.34"/>
          <rect class="cls-14" x="64.16" y="47.76" width=".38" height="5.38" transform="translate(114.8 -13.9) rotate(90)"/>
          <rect class="cls-14" x="63.88" y="46.82" width=".38" height="4.81" transform="translate(113.29 -14.84) rotate(90)"/>
        </g>
        <g>
          <rect class="cls-14" x="99.07" y="47.92" width=".38" height="2.53"/>
          <rect class="cls-14" x="99.81" y="47.96" width=".38" height="2.53"/>
          <rect class="cls-14" x="98.34" y="47.96" width=".38" height="2.53"/>
          <rect class="cls-14" x="97.6" y="49.23" width=".38" height="1.23"/>
          <rect class="cls-14" x="96.86" y="49.23" width=".38" height="1.34"/>
          <rect class="cls-14" x="101.29" y="47.92" width=".38" height="1.23"/>
          <rect class="cls-14" x="100.55" y="47.92" width=".38" height="1.34"/>
          <rect class="cls-14" x="99.36" y="47.77" width=".38" height="5.38" transform="translate(150 -49.09) rotate(90)"/>
          <rect class="cls-14" x="99.07" y="46.82" width=".38" height="4.81" transform="translate(148.49 -50.04) rotate(90)"/>
        </g>
      </g>
      <g>
        <g>
          <rect class="cls-14" x="28.94" width=".38" height="2.53"/>
          <rect class="cls-14" x="29.68" y=".04" width=".38" height="2.53"/>
          <rect class="cls-14" x="28.2" y=".04" width=".38" height="2.53"/>
          <rect class="cls-14" x="27.46" y="1.31" width=".38" height="1.23"/>
          <rect class="cls-14" x="26.73" y="1.31" width=".38" height="1.34"/>
          <rect class="cls-14" x="31.16" width=".38" height="1.23"/>
          <rect class="cls-14" x="30.42" width=".38" height="1.34"/>
          <rect class="cls-14" x="29.22" y="-.15" width=".38" height="5.38" transform="translate(31.95 -26.88) rotate(90)"/>
          <rect class="cls-14" x="28.94" y="-1.1" width=".38" height="4.81" transform="translate(30.44 -27.83) rotate(90)"/>
        </g>
        <g>
          <rect class="cls-14" x="63.88" y="0" width=".38" height="2.53"/>
          <rect class="cls-14" x="64.62" y=".04" width=".38" height="2.53"/>
          <rect class="cls-14" x="63.14" y=".04" width=".38" height="2.53"/>
          <rect class="cls-14" x="62.4" y="1.31" width=".38" height="1.23"/>
          <rect class="cls-14" x="61.66" y="1.31" width=".38" height="1.34"/>
          <rect class="cls-14" x="66.09" y="0" width=".38" height="1.23"/>
          <rect class="cls-14" x="65.35" y="0" width=".38" height="1.34"/>
          <rect class="cls-14" x="64.16" y="-.15" width=".38" height="5.38" transform="translate(66.88 -61.81) rotate(90)"/>
          <rect class="cls-14" x="63.88" y="-1.1" width=".38" height="4.81" transform="translate(65.37 -62.76) rotate(90)"/>
        </g>
        <g>
          <rect class="cls-14" x="99.07" y="0" width=".38" height="2.53"/>
          <rect class="cls-14" x="99.81" y=".04" width=".38" height="2.53"/>
          <rect class="cls-14" x="98.34" y=".04" width=".38" height="2.53"/>
          <rect class="cls-14" x="97.6" y="1.31" width=".38" height="1.23"/>
          <rect class="cls-14" x="96.86" y="1.31" width=".38" height="1.34"/>
          <rect class="cls-14" x="101.29" y="0" width=".38" height="1.23"/>
          <rect class="cls-14" x="100.55" y="0" width=".38" height="1.34"/>
          <rect class="cls-14" x="99.36" y="-.15" width=".38" height="5.38" transform="translate(102.08 -97.01) rotate(90)"/>
          <rect class="cls-14" x="99.07" y="-1.1" width=".38" height="4.81" transform="translate(100.57 -97.96) rotate(90)"/>
        </g>
      </g>
      <rect class="cls-14" x="23.83" y="61" width=".38" height="6.22"/>
      <rect class="cls-14" x="23.83" y="70.36" width=".38" height="5.63"/>
      <rect class="cls-14" x="15.97" y="85.97" width=".38" height="6.25"/>
      <rect class="cls-14" x="23.3" y="85.97" width=".38" height="6.25"/>
      <rect class="cls-14" x="26.39" y="87.31" width=".38" height="4.91"/>
      <g>
        <rect class="cls-14" x="52.76" y="78.65" width=".38" height="12.42" transform="translate(137.8 31.9) rotate(90)"/>
        <rect class="cls-14" x="52.76" y="73.73" width=".38" height="12.42" transform="translate(132.89 26.99) rotate(90)"/>
        <rect class="cls-14" x="47.95" y="79.94" width=".38" height="4.73"/>
        <rect class="cls-14" x="49.15" y="79.94" width=".38" height="4.73"/>
        <rect class="cls-14" x="50.35" y="80.02" width=".38" height="4.73"/>
        <rect class="cls-14" x="51.56" y="79.97" width=".38" height="4.73"/>
        <rect class="cls-14" x="53.96" y="79.97" width=".38" height="4.73"/>
        <rect class="cls-14" x="55.17" y="80.02" width=".38" height="4.73"/>
        <rect class="cls-14" x="52.76" y="80.02" width=".38" height="4.73"/>
        <rect class="cls-14" x="56.37" y="80.02" width=".38" height="4.73"/>
        <rect class="cls-14" x="57.57" y="79.97" width=".38" height="4.73"/>
        <rect class="cls-14" x="58.78" y="79.97" width=".38" height="4.73"/>
        <rect class="cls-14" x="46.74" y="79.75" width=".38" height="4.91"/>
      </g>
      <g>
        <rect class="cls-14" x="68.43" y="79.92" width=".38" height="9.82" transform="translate(153.45 16.21) rotate(90)"/>
        <rect class="cls-14" x="68.44" y="75.02" width=".38" height="9.84" transform="translate(148.57 11.31) rotate(90)"/>
        <rect class="cls-14" x="64.89" y="79.92" width=".38" height="4.73"/>
        <rect class="cls-14" x="66.07" y="79.92" width=".38" height="4.73"/>
        <rect class="cls-14" x="67.25" y="80" width=".38" height="4.73"/>
        <rect class="cls-14" x="68.43" y="79.95" width=".38" height="4.73"/>
        <rect class="cls-14" x="70.79" y="79.95" width=".38" height="4.73"/>
        <rect class="cls-14" x="71.97" y="80" width=".38" height="4.73"/>
        <rect class="cls-14" x="69.61" y="80" width=".38" height="4.73"/>
        <rect class="cls-14" x="73.15" y="80" width=".38" height="4.73"/>
        <rect class="cls-14" x="63.71" y="79.73" width=".38" height="4.91"/>
      </g>
      <rect class="cls-14" x="9.99" y="85.97" width=".38" height="3.3"/>
      <rect class="cls-14" x="58.82" y="51.82" width=".38" height="6.22"/>
      <rect class="cls-14" x="58.82" y="61" width=".38" height="6.22"/>
      <rect class="cls-14" x="58.82" y="70.36" width=".38" height="5.63"/>
      <rect class="cls-14" x="88.12" y="77.2" width=".38" height="2.82"/>
      <rect class="cls-14" x="86.11" y="72.69" width=".38" height="2.82"/>
      <rect class="cls-14" x="104.06" y="72.69" width=".38" height="2.82"/>
      <rect class="cls-14" x="89.99" y="72.69" width=".38" height="2.82"/>
      <rect class="cls-14" x="98.56" y="72.66" width=".38" height="2.82"/>
      <rect class="cls-14" x="62.67" y="65.29" width=".38" height="10.27"/>
      <rect class="cls-14" x="62.67" y="51.94" width=".38" height="10.27"/>
      <rect class="cls-14" x="94.7" y="52.9" width=".38" height="10.69"/>
      <rect class="cls-14" x="94.7" y="66.12" width=".38" height="5.02"/>
      <rect class="cls-14" x="98.56" y="51.94" width=".38" height="4.53"/>
      <rect class="cls-14" x="98.53" y="58.06" width=".38" height="3.97"/>
      <rect class="cls-14" x="98.53" y="64.01" width=".38" height="6.61"/>
      <rect class="cls-14" x="105.96" y="57.96" width=".38" height="4"/>
      <rect class="cls-14" x="88.42" y="50.45" width=".38" height="6.11"/>
      <rect class="cls-14" x="81.54" y="77.58" width=".38" height="2.38"/>
      <rect class="cls-14" x="94.7" y="77.29" width=".38" height="2.52"/>
      <rect class="cls-14" x="98.56" y="77.2" width=".38" height="2.52"/>
      <rect class="cls-14" x="28.76" y="70.27" width=".38" height="5.63"/>
      <rect class="cls-14" x="23.83" y="77.2" width=".38" height=".75"/>
      <rect class="cls-14" x="23.83" y="79.38" width=".38" height=".75"/>
      <rect class="cls-14" x="73.17" y="77.59" width=".38" height="2.55"/>
      <rect class="cls-14" x="58.78" y="77.2" width=".38" height=".75"/>
      <rect class="cls-14" x="46.74" y="77.39" width=".38" height="2.55"/>
      <rect class="cls-14" x="58.78" y="79.38" width=".38" height=".75"/>
      <rect class="cls-14" x="63.71" y="77.2" width=".38" height=".75"/>
      <rect class="cls-14" x="63.71" y="79.38" width=".38" height=".75"/>
      <rect class="cls-12" x="79.29" y="81.65" width="35.91" height="9.4"/>
      <rect class="cls-14" x="108.37" y="77.2" width="9.09" height="2.8"/>
      <rect class="cls-14" x="9.88" y="77.05" width="1.92" height="3.08"/>
      <rect class="cls-14" x="17.81" y="23.26" width=".38" height="12.42" transform="translate(47.47 11.47) rotate(90)"/>
      <rect class="cls-14" x="31.16" y="34.61" width=".38" height="9.92" transform="translate(70.92 8.23) rotate(90)"/>
      <rect class="cls-14" x="33.3" y="24.74" width=".38" height="9.46" transform="translate(62.96 -4.02) rotate(90)"/>
      <rect class="cls-14" x="33.3" y="17.65" width=".38" height="9.46" transform="translate(55.87 -11.11) rotate(90)"/>
      <rect class="cls-14" x="32.78" y="6.08" width=".38" height="10.5" transform="translate(44.3 -21.63) rotate(90)"/>
      <rect class="cls-14" x="67.72" y="10.51" width=".38" height="10.5" transform="translate(83.68 -52.15) rotate(90)"/>
      <rect class="cls-14" x="88.22" y="17.57" width=".38" height="13.33" transform="translate(112.64 -64.18) rotate(90)"/>
      <rect class="cls-14" x="103.25" y="10.96" width=".38" height="9.84" transform="translate(119.32 -87.56) rotate(90)"/>
      <rect class="cls-14" x="88.12" y="12.6" width=".38" height="13.14" transform="translate(107.49 -69.14) rotate(90)"/>
      <rect class="cls-14" x="88.22" y="7.61" width=".38" height="13.34" transform="translate(102.69 -74.12) rotate(90)"/>
      <rect class="cls-14" x="88.12" y="22.7" width=".38" height="13.54" transform="translate(117.78 -58.84) rotate(90)"/>
      <rect class="cls-14" x="103.25" y="24.55" width=".38" height="9.84" transform="translate(132.91 -73.97) rotate(90)"/>
      <rect class="cls-14" x="17.81" y="5.12" width=".38" height="12.42" transform="translate(29.33 -6.67) rotate(90)"/>
      <rect class="cls-14" x="52.8" y="5.12" width=".38" height="12.42" transform="translate(64.32 -41.65) rotate(90)"/>
      <rect class="cls-14" x="52.76" y="14.8" width=".38" height="12.49" transform="translate(73.99 -31.91) rotate(90)"/>
      <rect class="cls-14" x="32.16" y="26.09" width=".38" height="11.85" transform="translate(64.37 -.33) rotate(90)"/>
      <rect class="cls-14" x="18.9" y="27.72" width=".38" height="8.59" transform="translate(51.11 12.93) rotate(90)"/>
      <rect class="cls-14" x="17.15" y="35.69" width=".38" height="5.09" transform="translate(55.57 20.89) rotate(90)"/>
      <rect class="cls-14" x="52.53" y="23.42" width=".38" height="12.1" transform="translate(82.19 -23.25) rotate(90)"/>
      <rect class="cls-14" x="69.18" y="27.53" width=".38" height="3.87" transform="translate(98.84 -39.9) rotate(90)"/>
      <rect class="cls-14" x="64" y="28.07" width=".38" height="2.8" transform="translate(93.66 -34.72) rotate(90)"/>
      <rect class="cls-14" x="67.71" y="19.28" width=".38" height="10.48" transform="translate(92.43 -43.38) rotate(90)"/>
      <rect class="cls-14" x="28.76" y="13.08" width=".38" height="7.34"/>
      <rect class="cls-14" x="23.83" y="3.9" width=".38" height="6.22"/>
      <rect class="cls-14" x="27.72" y="3.9" width=".38" height="6.22"/>
      <rect class="cls-14" x="27.58" y="39.57" width=".38" height="4.73"/>
      <rect class="cls-14" x="28.77" y="39.57" width=".38" height="4.73"/>
      <rect class="cls-14" x="29.96" y="39.65" width=".38" height="4.73"/>
      <rect class="cls-14" x="31.16" y="39.6" width=".38" height="4.73"/>
      <rect class="cls-14" x="33.54" y="39.6" width=".38" height="4.73"/>
      <rect class="cls-14" x="34.73" y="39.65" width=".38" height="4.73"/>
      <rect class="cls-14" x="32.35" y="39.65" width=".38" height="4.73"/>
      <rect class="cls-14" x="14.8" y="31.9" width=".38" height="12.65"/>
      <rect class="cls-14" x="15.99" y="31.9" width=".38" height="12.65"/>
      <rect class="cls-14" x="17.18" y="32.11" width=".38" height="12.65"/>
      <rect class="cls-14" x="18.37" y="31.97" width=".38" height="12.65"/>
      <rect class="cls-14" x="19.56" y="32.11" width=".38" height="12.65"/>
      <rect class="cls-14" x="35.93" y="39.65" width=".38" height="4.73"/>
      <rect class="cls-14" x="23.83" y="13.08" width=".38" height="14.18"/>
      <rect class="cls-14" x="26.39" y="31.83" width=".38" height="12.47"/>
      <g>
        <rect class="cls-14" x="52.76" y="30.72" width=".38" height="12.42" transform="translate(89.88 -16.02) rotate(90)"/>
        <rect class="cls-14" x="59.94" y="18.62" width=".38" height="26.79" transform="translate(92.15 -28.11) rotate(90)"/>
        <rect class="cls-14" x="47.94" y="32.02" width=".38" height="4.73"/>
        <rect class="cls-14" x="49.15" y="32.02" width=".38" height="4.73"/>
        <rect class="cls-14" x="50.35" y="32.1" width=".38" height="4.73"/>
        <rect class="cls-14" x="51.55" y="32.04" width=".38" height="4.73"/>
        <rect class="cls-14" x="53.96" y="32.04" width=".38" height="4.73"/>
        <rect class="cls-14" x="55.16" y="32.1" width=".38" height="4.73"/>
        <rect class="cls-14" x="52.76" y="32.1" width=".38" height="4.73"/>
        <rect class="cls-14" x="56.37" y="32.1" width=".38" height="4.73"/>
        <rect class="cls-14" x="57.57" y="32.04" width=".38" height="4.73"/>
        <rect class="cls-14" x="58.77" y="32.04" width=".38" height="4.73"/>
        <rect class="cls-14" x="46.74" y="31.83" width=".38" height="4.91"/>
      </g>
      <g>
        <rect class="cls-14" x="68.42" y="32" width=".38" height="9.82" transform="translate(105.52 -31.71) rotate(90)"/>
        <rect class="cls-14" x="93.46" y="20.36" width=".38" height="23.32" transform="translate(125.67 -61.64) rotate(90)"/>
        <rect class="cls-14" x="64.88" y="32" width=".38" height="4.73"/>
        <rect class="cls-14" x="66.06" y="32" width=".38" height="4.73"/>
        <rect class="cls-14" x="67.24" y="32.08" width=".38" height="4.73"/>
        <rect class="cls-14" x="68.42" y="32.02" width=".38" height="4.73"/>
        <rect class="cls-14" x="70.78" y="32.02" width=".38" height="4.73"/>
        <rect class="cls-14" x="71.96" y="32.08" width=".38" height="4.73"/>
        <rect class="cls-14" x="69.6" y="32.08" width=".38" height="4.73"/>
        <rect class="cls-14" x="73.14" y="32.08" width=".38" height="4.73"/>
        <rect class="cls-14" x="63.7" y="31.92" width=".38" height="4.79"/>
      </g>
      <rect class="cls-14" x="58.81" y="3.9" width=".38" height="6.22"/>
      <rect class="cls-14" x="58.81" y="13.08" width=".38" height="6.22"/>
      <rect class="cls-14" x="58.81" y="22.44" width=".38" height="5.63"/>
      <rect class="cls-14" x="69.18" y="24.52" width=".38" height="4.95"/>
      <rect class="cls-14" x="65.21" y="24.35" width=".38" height="3.23"/>
      <rect class="cls-14" x="62.66" y="17.14" width=".38" height="6.02"/>
      <rect class="cls-14" x="62.66" y="24.52" width=".38" height="5.14"/>
      <rect class="cls-14" x="62.66" y="4.01" width=".38" height="10.27"/>
      <rect class="cls-14" x="94.69" y="4.22" width=".38" height="8.54"/>
      <rect class="cls-14" x="94.69" y="16.66" width=".38" height="5.02"/>
      <rect class="cls-14" x="94.69" y="26.18" width=".38" height="3.48"/>
      <rect class="cls-14" x="98.56" y="4.01" width=".38" height="9.59"/>
      <rect class="cls-14" x="98.52" y="17.48" width=".38" height="10.35"/>
      <rect class="cls-14" x="28.76" y="22.34" width=".38" height="5.63"/>
      <rect class="cls-14" x="9.88" y="33.92" width=".38" height="5.63"/>
      <rect class="cls-14" x="9.88" y="29.47" width="1.92" height="2.74"/>
      <rect class="cls-14" x="9.88" y="29.43" width="3.42" height="1.41"/>
      <rect class="cls-4" x="57.96" y="91.05" width="7.04" height="8.1"/>
      <rect class="cls-14" x="105.31" y="29.47" width="13.39" height="15.72"/>
      <rect class="cls-14" x="100.93" y="31.92" width="4.38" height="13.78"/>
      <g>
        <path class="cls-4" d="M57.78,138.8l-.66-1.32-1.22-2.47.04.08h.95s.22.46.22.46h-.39l1.29,2.58h1.32c.25.4.69.68,1.21.68.78,0,1.42-.64,1.42-1.42,0-.62-.41-1.15-.97-1.34v-.5h-1.19l-1.42-2.99h-2.69l.9,1.89h-.96s0,0,0,0h-2.39l-1.29-2.67-.64-.09-.48-.95h-.71l.42.85-1.55-.22v1.96l1.27.37.61,1.22h0l.63,1.33-.62,1.23.66,1.32h-.91v4.38h11.24v-4.38h-4.09ZM52.25,138.8l-.66-1.32.25-.51.24.51h0l.66,1.32h-.5ZM53.45,138.8l-.66-1.32h3.63l.66,1.32h-3.63Z"/>
        <path class="cls-4" d="M56.71,132.3c.67,0,1.21-.54,1.21-1.21s-.54-1.21-1.21-1.21-1.21.54-1.21,1.21.54,1.21,1.21,1.21Z"/>
      </g>
      <polygon class="cls-15" points="66.74 115.12 64.85 115.12 64.85 114.57 63.76 114.57 63.76 115.12 61.94 115.12 61.94 116.13 62.61 116.13 62.93 119.42 65.68 119.42 66 116.13 66.74 116.13 66.74 115.12"/>
      <polygon class="cls-15" points="42.23 156.41 40.34 156.41 40.34 155.86 39.25 155.86 39.25 156.41 37.43 156.41 37.43 157.42 38.1 157.42 38.42 160.71 41.17 160.71 41.49 157.42 42.23 157.42 42.23 156.41"/>
      <g>
        <polyline class="cls-8" points="276.1 191.14 276.1 195.14 272.1 195.14"/>
        <line class="cls-10" x1="264.02" y1="195.14" x2="73.99" y2="195.14"/>
        <polyline class="cls-8" points="69.95 195.14 65.95 195.14 65.95 191.14"/>
        <line class="cls-9" x1="65.95" y1="183.66" x2="65.95" y2="82.72"/>
        <polyline class="cls-8" points="65.95 78.98 65.95 74.98 69.95 74.98"/>
        <line class="cls-10" x1="78.03" y1="74.98" x2="268.06" y2="74.98"/>
        <polyline class="cls-8" points="272.1 74.98 276.1 74.98 276.1 78.98"/>
        <line class="cls-9" x1="276.1" y1="86.46" x2="276.1" y2="187.4"/>
      </g>
    </g>
  </g>
</svg>