<?xml version="1.0" encoding="UTF-8"?>
<svg id="Layer_2" data-name="Layer 2" xmlns="http://www.w3.org/2000/svg" viewBox="0 0 120.58 119.35">
  <defs>
    <style>
      .cls-1 {
        fill: #f8992c;
      }
    </style>
  </defs>
  <g id="_背景" data-name="背景">
    <path class="cls-1" d="M60.29,119.35h0c-6.37-11.83-21.17-16.17-32.93-9.67h0s0,0,0,0c1.03-13.39-9.07-25.05-22.47-25.94h0s0,0,0,0C13,73.03,10.8,57.76,0,49.77h0s0,0,0,0c12.61-4.62,19.02-18.66,14.26-31.22h0s0,0,0,0C27.37,21.49,40.35,13.14,43.13,0h0s0,0,0,0c9.45,9.55,24.87,9.55,34.32,0h0s0,0,0,0c2.78,13.14,15.76,21.49,28.87,18.55h0s0,0,0,0c-4.77,12.56,1.64,26.6,14.26,31.22h0s0,0,0,0c-10.8,7.99-13,23.26-4.88,33.97h0s0,0,0,0c-13.41.88-23.51,12.54-22.47,25.94h0s0,0,0,0c-11.75-6.51-26.56-2.16-32.93,9.67h0Z"/>
  </g>
</svg>