<?xml version="1.0" encoding="UTF-8"?>
<svg id="Layer_2" data-name="Layer 2" xmlns="http://www.w3.org/2000/svg" viewBox="0 0 356.69 395.65">
  <defs>
    <style>
      .cls-1 {
        fill: none;
        stroke: #f2e0a3;
        stroke-miterlimit: 10;
      }
    </style>
  </defs>
  <g id="_背景" data-name="背景">
    <g>
      <path class="cls-1" d="M354.86,394.68c-6.93-6.4,1.14-21.21,1.32-30.64.14-7.03-24.49-13.29-35.13-22.92-39.36-35.59-54.87-6.94-59.26-13.87-1.32-2.09-3.21-3.51-2.66-5.63,2.45-9.55,6.21-29.19,2.65-48.25-6.05-32.42-49.05-68.3-73.7-61.19-22.57,6.51-51.04,7.73-56.17,6.55-10.67-2.47-25.34-12.89-34.24-21.79-11.75-11.75,9.98-19.96,33.24-33.55,10.06-5.88,22.61-14.79,27.8-19.85,11.62-11.36,8.97-20.64,10.44-50.36,2.24-45.19-12.8-56.85-17.17-54.78-8.06,3.82-13.12-10.21-23.53-10.36-23.8-.34-68.02-.8-72.32-27.94l1.46,393.08,297.78,1.98-.49-.46Z"/>
      <path class="cls-1" d="M327.53,394.68c-6.93-6.4,1.14-21.21,1.32-30.64.14-7.03-24.49-13.29-35.13-22.92-39.36-35.59-54.87-6.94-59.26-13.87-1.32-2.09-3.21-3.51-2.66-5.63,2.45-9.55,6.21-29.19,2.65-48.25-6.05-32.42-49.05-68.3-73.7-61.19-22.57,6.51-51.04,7.73-56.17,6.55-10.67-2.47-25.34-12.89-34.24-21.79-11.75-11.75,9.98-19.96,33.24-33.55,10.06-5.88,22.61-14.79,27.8-19.85,11.62-11.36,8.97-20.64,10.44-50.36,2.24-45.19-12.8-56.85-17.17-54.78-8.06,3.82-13.12-10.21-23.53-10.36-23.8-.34-68.02-.8-72.32-27.94l1.46,393.08,297.78,1.98-.49-.46Z"/>
      <path class="cls-1" d="M299.24,394.68c-6.93-6.4,1.14-21.21,1.32-30.64.14-7.03-24.49-13.29-35.13-22.92-39.36-35.59-54.87-6.94-59.26-13.87-1.32-2.09-3.21-3.51-2.66-5.63,2.45-9.55,6.21-29.19,2.65-48.25-6.05-32.42-49.05-68.3-73.7-61.19-22.57,6.51-51.04,7.73-56.17,6.55-10.67-2.47-25.34-12.89-34.24-21.79-11.75-11.75,9.98-19.96,33.24-33.55,10.06-5.88,22.61-14.79,27.8-19.85,11.62-11.36,8.97-20.64,10.44-50.36,2.24-45.19-12.8-56.85-17.17-54.78-8.06,3.82-13.12-10.21-23.53-10.36C49.01,27.67,4.79,27.22.5.08l1.46,393.08,297.78,1.98-.49-.46Z"/>
    </g>
  </g>
</svg>