<?xml version="1.0" encoding="UTF-8"?>
<svg id="Layer_1" xmlns="http://www.w3.org/2000/svg" version="1.1" viewBox="0 0 549.8 299.9">
  <!-- Generator: Adobe Illustrator 29.8.1, SVG Export Plug-In . SVG Version: 2.1.1 Build 2)  -->
  <defs>
    <style>
      .st0 {
      fill: oklch(0.31 0.03 258.97);
      }

      .st1 {
      isolation: isolate;
      }
    </style>
  </defs>
  <g class="st1">
    <g id="Layer_2">
      <g id="_レイヤー_9">
        <g>
          <g>
            <path class="st0"
              d="M0,116.8l2.2-1.3c-1.6-3.1-2-6-1.1-8.9-.4-3.8.7-7.1,3.2-10l-.3-.3c1.3-.4,2.2-1.1,2.7-2.2,2-.5,3.6-1.7,4.9-3.5l.3.3c3.2-3.1,7-5.3,11.3-6.8,10.4-5.6,21.4-10.1,32.9-13.5l-1.1-2.4c4.3,2.3,8.7,2.3,13.2,0,4.9,0,9.7-.3,14.6-.8,1.8.7,3.7,1.1,5.7,1.1,9.9.7,17.3,5.4,22.1,14,1.4.9,2.9,1.9,4.3,3-1.3,1.8-1.3,3.6,0,5.4,3.2,5.8,4,11.7,2.2,17.8-6.8,10.8-16.5,17-28.9,18.6-3.6,1.8-7.3,3.1-11.1,3.8-5.9,2.5-9.2,6.7-9.7,12.6-.5,5.9-1.8,11.2-3.8,16.1,0,2.2-.3,4.3-.8,6.5-1.6,1.3-2.3,2.7-2.2,4.3.7.4,5.2.3,13.5-.3,8.3-.5,20.6,1.4,37,5.7-1.4-2-1-3.9,1.3-5.7,2-1.6,3.7-3.5,5.1-5.7,7.6-2,14.3-.4,20.2,4.6,4.5,5,7.5,10.9,8.9,17.5l-2.2,8.1c9.9,10.1,16.9,21.9,21.1,35.4l-.5,2.4c-4.9-.2-8.4-2.2-10.5-6.2-2.2-7-5.6-13.3-10.3-18.9-.7,1.8-1.1,3.6-1.1,5.4l-5.1,13.5c-2.3,3.2-4.6,6.3-6.8,9.2-8.6,15.3-21,26.2-37,32.7-2.9,2.2-5.9,3.4-9.2,3.8-5.8.7-11.4,1.3-17,1.6v-.8c-1.3.2-2.4.5-3.5.8-.4-.7-.8-1.4-1.3-2.2-7.9,1.3-15.8.6-23.8-1.9-8.5-6.5-16-13.9-22.7-22.1-1.8-4.7-4.3-9.1-7.6-13.2-1.1-2.2-1.6-4.5-1.6-7h-.5c-1.1-4.5-1.3-9.1-.8-13.8,1.3-1.6,1.5-3.6.8-5.9h.5c.2-1.6.6-3.3,1.4-5.1.2.2.4.6.5,1.4.9-2.5,2.2-5,3.8-7.6,3.4-5.4,8.2-9.7,14.3-13,4.3-2,8.8-3.7,13.5-5.1l-2.2-28.6c-2.9-.9-5.7-1.6-8.4-2.2-5.4-.9-10.6-2.4-15.6-4.6-1.4-2.3-2.7-4.7-3.8-7-4.1-2.7-6.5-6.6-7-11.6l-.5.5c.4-2-.2-3.4-1.6-4.3L0,116.8h0ZM48.8,201l-.8-.8c-3.8,3.6-7.7,6.9-11.6,10-3.8,7.2-6,14.7-6.8,22.4-.5,3.8,1,6.8,4.6,9.2l.8-1.1,1.9,2.4c2.2.5,4.4.9,6.8,1.1,2.3-1.4,5-2.4,8.1-3,4.7-.9,9.3-2.1,14-3.5.9-1.1,2.1-1.8,3.5-2.2,2.2-.2,3.8-1.3,4.9-3.2.9.5.2.4-2.2-.3-3.4-2.3-6.2-4.6-8.5-6.9s-3.9-4.2-5-5.8c.4.4.2.3-.4-.1-.6-.4-2.1-2.2-4.3-5.3s-3.8-7.4-4.7-13c.2,1.1,0,1.7-.5,1.9s-.5-.4.3-1.9h0ZM42.4,173.5h-.3v2.4h.3v-2.4ZM61.8,194.3l-.5-.3v1.4c.7,2.5,1.4,4.9,2.2,7.3l5.4,5.9c-.9.4-1.5.2-1.9-.5,1.6.9,3.4,2.2,5.4,3.9,2,1.7,4.9,5.8,8.6,12.3,13.5-8.8,24.1-20.6,31.8-35.4-7.6-2-15.3-3.1-23.2-3.2l-.3,1.6c-8.6-.2-16.9,1.1-24.8,3.8-1.8.9-2.7,1.9-2.6,3,0,1.1,0,1.2-.1.3h0ZM76.4,223.7c-.4-.2-.3-.2.3,0v1.1l-.3-1.1ZM77.7,219.9l4.1,3.8c-1.8-.9-3.2-2.2-4.1-3.8Z" />
            <path class="st0"
              d="M150.9,261.3l2.7-5.8c1,0,1.9-.5,2.7-1.6l-.2-.8c3.2,1,6.5,1.9,9.9,2.5.4-.5,1-1,1.8-1.4,13.2-.1,23.7,5.3,31.5,16.1.5,2.1.4,4.1-.4,6,.1,7.5-3.2,13.1-9.9,16.7-4.3-1.8-8.6-3.4-13-4.9-1.7-2.3-4-3.8-7-4.5-4.5-2.3-8-5.2-10.5-8.5-2.5-3.4-5-8-7.6-14h0ZM166.1,133.8l-.8-2.7c7,1.6,12.7,5.2,17.1,11.1,5.7-2.5,11.7-4.4,18.1-5.8,1.6.5,3.1.4,4.7-.4,4.5.3,8.9,1.3,13,3.1,4.7,2.5,7.8,6.1,9.3,11.1-1,2.6-1,5.3.2,8.1,1.2,2.8.5,5.1-1.9,7.1-4.8,3.9-8.7,8.3-11.9,13.2-3.2,2.1-6.5,3.9-9.7,5.6-1.6.4-2.9,1-4.1,1.8.6,3.8,1.4,7.4,2.1,10.9,7.4-4.8,15.2-6,23.5-3.5,2.1.9,3.7,2.3,4.9,4.3-.3.8-.3,1.5-.2,2.1,3.5,1.7,4.9,4.7,4.1,8.9.5,4.5-.4,8.8-2.7,12.6-4.3,3.1-8.1,6.6-11.5,10.5-1.8.9-2.5,2.2-1.9,3.9l4.5,11.5-.6.8c.5,2.7,1.9,5.4,4.1,8.1,2.2,2.7,1.8,5-1.2,7.1-2.3,1.2-4.7,1.4-7.2.8-.9-.6-1.9-1.1-2.9-1.4.1-.1.2-.3.2-.6-.4-.4-.7-.3-1,.2-.8-.9-1.6-1.8-2.3-2.7-2.2-.1-3-1.2-2.3-3.1-1.8-4.4-4-8.8-6.6-13-3.5,0-6.8-1-9.9-2.9-7-3.5-12.3-8.7-15.9-15.6l-.8-.8,1.2-1.4c-1-1-1-2.3,0-3.7l.8-.8-.8-.8c2.5-4.4,5.8-8.1,10.1-11.1-.5-2.7-1.5-5.4-2.9-8,.1-3.1-1.2-4.9-3.9-5.2s-5.1-1.3-7-2.7c-5.6-3-10.8-6.5-15.6-10.7-1.3-2.9-3-5.4-5.1-7.8.6-1.7,1.4-3.4,2.3-5.1l.2-2.3c1.4-.9,2.1-2.2,2.1-3.9.9-.3,1.4-1,1.6-2.1,3.2-3.4,6.8-6.5,10.7-9.3-.6-1.2-.9-2.5-.8-4.1-.8-3.9-1.9-7.6-3.3-11.3h0Z" />
            <path class="st0"
              d="M257.3,185l1.1-8c.7-.7.7-1.6-.2-2.7,1.3-1.9,2.1-4,2.4-6.2.5-1.6,1.1-3.1,1.8-4.7-9.4-2.3-16.5-7.6-21.2-16-.9-7.4,1.1-13.9,6-19.6l-.4-.4c3.8-3.4,7.7-6.7,11.8-10,7.3-5.8,15.5-9.4,24.7-10.9,7.7-.6,14.5,1.6,20.1,6.5,5.8,6.2,8.7,13.4,8.7,21.8,4.4,4,5.9,8.6,4.7,14,.6,5.7-1.5,10-6.4,12.9-15.5,11.6-24.9,27-28.3,46.2,0,.6-.2,1.2-.7,1.8,0,5.4,1.1,10.6,3.5,15.6.2,2.4,1,4.7,2.4,6.7h1.1l-.4.4c7.5,4.7,15.1,4.7,22.9,0,4.1-2.8,8.3-5.6,12.5-8.3l.9-1.4c.1.2.3.5.5.7,1.7-1,2.7-2.4,3.1-4.4l1.5-.4c0-.1.1-.2.4-.4-.1.5,0,.9.4,1.1.6-.4.8-1,.5-1.8,0,.4.2.6.5.7,3.6-3.8,6.4-8,8.2-12.9-.1.5,0,.9.4,1.1,1.8-1.1,3-2.7,3.6-4.9-.1.6,0,1,.4,1.1.6-1.9,1-3.9,1.1-6,.5-.2.8-.8.9-1.8l.2.4c1.2-1.9,1.9-4.2,2.2-6.9.1-1.7.1-3.4,0-5.3.5-3.1.4-6.4-.2-9.6-.6-.4-.9-.9-.9-1.6,2,1.2,4.2,2.2,6.5,2.9,5.2-4.2,11.1-5.7,17.6-4.5,10.3,4.5,17.4,12.1,21.4,22.9,1,3,1,5.9,0,8.7-1.1,2.9-3,4.7-5.8,5.3-3.4-.4-6.5,0-9.4.9-3.1.2-6-.5-8.5-2.4l-2.4,4c-.6-.6-.6-1.4,0-2.5-1.6,1.4-2.6,3.1-3.1,5.1-10.5,17.9-24.5,32.2-41.9,43l.5.4c2.3-.6,4.5-1.6,6.5-2.9,2.8-.7,5.1-2.2,7.1-4.4.5-.6,1.1-.8,1.8-.7,1.5-1.3,3.1-2.5,4.9-3.6l-.2,1.1c-8.2,6.5-17,11.9-26.3,16.1-2.4-.6-4.8-.8-7.1-.5-3,.7-5.5.1-7.4-1.8-1.3-1.8-3.3-2.4-5.8-1.8-.7.2-1.3.6-1.8,1.1.6,1.5,1.8,2.3,3.5,2.5-5.6-1-10.9-2.5-16-4.7l-.4.9c-.1-.7-.4-1.1-.9-1.3,0,1.1-.4,1.6-1.3,1.4-3-1.6-5.5-3.7-7.4-6.4l.2-.2-8.5-8.3c.4-1.6-.1-2.8-1.5-3.8l.4-.7c-9.7-10.2-14.1-19.1-13.2-26.9.8-7.8,3.8-16.4,8.9-25.7h0ZM260.4,168.9v.4c-.2-.4-.3-.6,0-.6s.2,0,0,.3ZM312.7,258.1l.7-3.4c-2.7.6-4.3,1.1-4.8,1.6-.5.5.8,1.1,4.1,1.8h0ZM337,242.3l-1.3-.2c-4,4.1-8.6,7.3-13.8,9.6,2.2-.5,4.2-1.4,6-2.7,3.6-1.3,6.6-3.6,9.1-6.7h0ZM339.7,238.7v-.4c-.6.7-.8,1.5-.5,2.4.8-.6,1-1.3.5-2ZM345,234.4l-.9,1.1c-.5-1.7-1-1.3-1.5,1.1h.9c.7-.5,1.2-1.2,1.5-2.2ZM348,231.3l.4-.4c-1.1-1.7-1.6-1.3-1.5,1.3.4-.2.7-.5,1.1-.9h0ZM354,222.6h-.7l-.4,1.6c.7,0,1.1-.5,1.1-1.6h0ZM354.6,221.1c1,.4,1,.7.2.9v-1.4l-.2.5ZM362.7,211.1l-2.2-.4c-1.6,1.8-2.1,3.7-1.5,5.6.1-1,.5-1.8,1.1-2.4s1.5-1.6,2.5-2.9ZM378.1,121.9l5.1,2c3.3,1,5.5,3,6.7,6.2.4,4.8-1.5,8.5-5.6,11.1-2.9,1.1-5.8,1.3-8.7.7-2.7-2.8-5-5.9-6.9-9.4-.1-.7-.5-1.4-1.1-2.2l-.4.9-.4-3.6c3.4-2.4,7.1-4.3,11.2-5.6h0ZM389.6,109.9l5.3-1.1c5.9.5,11.4,2.6,16.3,6.3,2.9,3.4,3.6,7,2.2,10.9-.7,3.8-2.7,6.4-5.8,8l.2-.2c-7.9,1.2-14.3-1.4-19.4-7.8-1.8-1.7-3.2-3.7-4.2-6,.4.5.8-.3,1.5-2.3.6-2,1.9-4.6,4-7.9h0Z" />
            <path class="st0"
              d="M527.7,223.7l1.7,1.8h-1.5c0-.1,1.5,2.2,1.5,2.2-1.5.3-2.8.9-3.9,1.8-1.5,1.4-1.6,2.7-.5,3.9-2.1-.9-3.9-.9-5.6,0-7.5-1.4-14.8-3.7-21.8-6.7-2.9-1.8-5.6-3.8-8.2-5.9-3.6-3.3-7.2-3.9-10.7-1.9.7.4,1.5.2,2.5-.6-1.3,1.8-2.9,3.1-4.8,4.1-1.4-.9-2.7-.8-3.8,0l-.6.7-.5-.4-.5,1.1c-.2-.1-.4-.2-.5-.2-.7.4-.7,1-.1,1.7.9,1.1,1.8,2.2,2.7,3.4-.4.5-.5.9-.3,1.3h.4c-.4.9,0,1.2,1,1.1-.4.7-.7,1.4-.7,2,.6.5.8,1.3.6,2.3-.6.8-.6,1.6-.2,2.4-.6,1.4-.7,2.9-.3,4.5-2.4.8-4.7,1.6-6.9,2.3-4,1.3-8,1.9-12.1,1.9-.3.6-.9.8-1.7.6-1.1,0-2,.3-2.5,1.1-4.6-.4-9.1-.6-13.4-.7-2.3-.6-4.3-1.6-6-3.1-3.5-2.5-6.4-5.6-8.6-9.3.2-2.5-.5-4.6-1.9-6.5-.7,1.1-1.6,1.7-2.6,1.9.6-.8,1.2-1.7,1.9-2.7-.3-.4-.7-.6-1.1-.5.2-.7.1-1.5-.2-2.3-1.6.2-2.8,1-3.5,2.4-3.3,4-7,7.5-11.1,10.6l-3.3,3.5-.2-.2c-1.6.9-2.8,1.8-3.8,2.9-2.5,1.3-4.5,1.5-6,.5.3-.1.5-.3.8-.7-.7-.7-1.3-.6-1.9.2l-.3-1.1-2,1c-.2-.6-.2-1.3,0-2.1h-.8c-.2-1.2-.7-2.1-1.7-2.8l-1.5.3.4,1.5c-.4.1-.6.3-.8.5l.9.8c-.3.4-.2.7.3,1-.9,0-1.6.2-2.1.6,1-1.1,1.2-2.3.9-3.9l-.3-.4c-.7,1.2-1.6,2.1-2.6,2.8,0-.5-.2-1-.4-1.5l-.8.7c.2-.7,0-1.3-.6-1.7l-.8.7-.3-.6c.5.2.8,0,.8-.7,0-.4,0-.7-.3-1l-1.2.9c-2.1-2-4.3-3.9-6.7-5.8.8-.6,1.4-.5,1.7.3.3-.6.8-.9,1.4-.8-.9-1.1-1.8-2.1-2.8-3,1,.4,2,.6,3.1.6.3-1.2,1.2-2.1,2.5-2.6.5.2.9,0,1.2-.7v-.8c1-.5,2.4-.7,3.8-.4,1.2-.4,2.1,0,2.7,1.1,2.1,0,4.2-.7,6.1-1.8h-1.5c2.8-.7,5.4-2.1,7.8-4.2.7-.6,1-1.4,1.1-2.4,1.6-1.4,3.1-2.9,4.6-4.5-.2-.4-.5-.4-.7,0l-.8.7c-.7-.7-.6-1.4.2-2.2.2.1.5.1.8-.1v-.7c-3-3.6-5.9-7.4-8.6-11.5.6.3,1.1.1,1.5-.4-.2-.4-.5-.7-.7-1,1.3-.4,2.6-1,3.9-1.8,4.5,1.1,8.6,3,12.3,5.8,1.8-1.1,3.3-2.6,4.5-4.5l3.3-4.2c-2.6-1.8-4.9-3.9-7-6.3-1.8,0-3-.2-3.9-.5-.5.5-1,.5-1.3,0,.7-.7.5-1.5-.6-2.3l-.6,1.1c-.7-1.2-1.4-1.5-2.2-.9l-.6.3c-1.3-.7-2.3-1.7-3-3,1.2.6,2,.3,2.3-.8l1-.7c-1.6.4-3.2.3-4.7-.2,1.1-.9,1.2-1.9.4-3-.6,0-.9.4-.8,1.1,0,.5-.3.7-.8.7-.2-1.9-.9-2.7-2.1-2.4-.3-1,0-2,.8-2.9-.5-.3-1-.4-1.5-.5-1.7-.5-2.8-1.5-3.1-3.1-1-1.1-1.5-2.5-1.4-4.2,0-1.2.6-2.1,1.5-2.7l.9.6c2.3-5.3,6.3-9.4,12-12.4l9.6-8.6c1.1.2,2,.8,2.7,1.9,2.2-.8,4.4-.7,6.5.3,9.5-4.5,19.4-5.1,29.9-1.6.9.9,2.1,1.1,3.5.5,3.6,3,7,6.5,10.1,10.3-.5,1.7-.2,3.2.8,4.4l-.4.3c-.3,2.5-.4,4.9-.4,7.3h-.6c-.3,1.7-.2,3.4.2,5-1.2,6.1-3.6,11.6-7.3,16.5-1.3,1.9-2.7,3.7-4.1,5.3-3.9,3.1-7.4,6.4-10.7,9.9-3.8,3.6-7.6,7-11.5,10.2-1.2.4-2.1,1-2.8,1.9,1.5,1.5,2.6,3.3,3.3,5.3-.8.6-1.4,1.3-1.9,2.1,3.6-.3,7.3-.8,11-1.4,6.8-1.2,13.8-1.7,20.9-1.4,2-1.8,3.9-3.8,5.7-5.9,1.2-.5,1.9-1.5,2.3-3-4.7-3.5-9.8-6.2-15.3-8.3-.9-.2-1.4-.7-1.8-1.6l.8-.7-1.4-1.2c.9,0,1.5-.3,1.8-1.2l-.5-.6c.5.2.9,0,1.4-.5l-.5-.4c1.5-.1,3-.8,4.5-1.9,8.6-1.5,17-.7,25.3,2.3l7.5-7.1c-3.6-.6-7.1-.6-10.5.1l-1.2-1c-.3.2-.5.3-.8.1.2-.9-.3-1.3-1.4-1.4-5.3-4.4-9.3-9.8-12.1-16.1.8-2.8,1.4-5.7,1.6-8.7,1.5-1.4,3-3,4.5-4.7.8-.4,1.3-1.1,1.5-1.9,2-.2,4,.3,6.1,1.6l4.5,4.5c9.1-5.8,18.9-8.2,29.6-7.3,3.3,1.2,6.1,3,8.4,5.3,1.7,2.9,3.3,5.8,5,8.6-.2,1,0,1.8.6,2.5,0,6-1.1,11.7-3,17.2-1,2.9-2.4,5.5-4.3,7.7-3,5.1-7.2,8.8-12.5,11,7.2,2.3,13.4,6.2,18.8,11.7.8,1.4,1.7,2.8,2.7,3.9l-.6.5h0ZM383.4,237.5v1.1c0,0,.7-.7.7-.7-.1-.3-.3-.4-.7-.4h0ZM386.2,237.4h.4s.1-1.5.1-1.5h-.4s-.1,1.5-.1,1.5ZM488.7,267.7l-1.3,2.1c11-2,20.3.9,27.8,8.7.7,2,1.5,4.1,2.3,6.2,0,2.7-1.1,4.7-3.1,5.8-.4,1.5-1,2.7-2,3.6l-.2-.4c-.6,1.6-1.7,2.7-3.2,3.3-1.1,0-1.8.2-2.1,1l.4,1.7c-1.8-.8-3.4-.7-4.7.2-1.8-.6-3.3-1.6-4.5-3-1.4.1-2.6-.3-3.6-1.2-5-2-9.4-4.8-13.4-8.3-2.5,0-4.1-1.4-4.9-3.9-1.5-2.1-2.7-4.4-3.6-6.8,2-1.7,4.3-3.1,6.9-4.2.6-.3,1.1-.9,1.3-1.8-5.4-.2-10.7,0-15.9.3.1,1.4.7,2.5,1.6,3.5.9,5.8.1,11.2-2.4,16.3-1.8,1.2-3.2,2.9-4,5.1-.4,1.6-1.2,2.3-2.4,2.2-1.9.6-3.7.5-5.4-.2-.9.4-1.9.5-2.8.3-3.8.5-7.4-.4-10.9-2.5l.3-1.3c-1.8,0-3.2-.6-4.4-1.6.2-.6-.3-1-1.4-1-.8-.9-1.5-1.9-2-3l.9-2c5.8-3.6,9.1-8.5,9.9-14.8-6.1,1.7-12,1.5-17.8-.6-2.9,0-5.5-.9-7.9-2.7-.5-.4-1-.8-1.6-1.1,0,1.1,0,2.1.1,3,.6,3.2.6,6.3-.2,9.4.3,2.1-.5,3.6-2.4,4.5-.5,0-.8.3-.8.7.4,1.8-.2,3-1.8,3.8-4.1,1.2-8.1,1.2-12,0-6.7-3.5-10.5-9-11.5-16.4l1.1-4.8c1.3-1,2.4-2.4,3.3-4,4.8-.6,9.6-.8,14.5-.6l7.1,2.8c-4-3.4-7.4-7.3-10.3-11.7.2-1.1,0-2.1-.7-3.1l2.5-1.1c-.3-.5-.5-1.1-.6-1.7,2.1.3,4.2.7,6.3,1.2,4.9-.9,10-1.2,15.3-1.1,7.7,0,15.6.3,23.5.9,13.1,0,25.3-3.2,36.5-9.6,5.2,1,9.7,3.3,13.7,6.9,1.1.3,2.1,1.1,3,2.3,1.8,2.1,2.3,4.4,1.5,6.9-1.5,6.1-3.4,9.9-5.6,11.2-2.3,1.3-5.1,1.5-8.6.6h0ZM386.7,234.8h.8c0-.6-.1-1.1-.4-1.7-.8.6-.9,1.1-.3,1.7h0ZM391.1,240.9l-.9,1.4c2.5.2,4-.8,4.7-2.8-1.1-.7-2-.6-2.6.2.4,0,.7.2,1.1.5-.8.8-1.6,1.2-2.3,1.1.3-.1.5-.3.6-.7h-1.5c.9-.9,1.8-1.9,2.5-3.1,0-.5-.2-.8-.9-.8-1.1.8-2.1,1.5-3.1,2,.3.6,0,1.3-.7,1.8,1,.3,2,.5,3.1.4h0ZM389.2,226.8l1.4-1.2c-.8,0-1.3.4-1.6,1l.2.2h0ZM389.4,232.4l1-.5h-.4s-.6.5-.6.5ZM394.5,236.5v.8c.5.2,1.2,0,1.9-.4l-1.9-.3ZM397.4,222.5h.8c0,0,1.8-1.7,1.8-1.7l-2.6,1.7h0ZM401.2,219.4l-.5,1.3,1.2-.9-.7-.4ZM403.7,292.3v-.7c.2-.1.4,0,.6.2,0,.2-.1.4-.2.5h-.4ZM406,239.8h-.6c.6-2.6,2.1-4.5,4.5-5.7v.6s1.3-.6,1.3-.6c-1.8,2.1-3.6,4-5.3,5.8h0ZM421.1,185.5l2.4.6c5.6-5.8,10.4-12.3,14.6-19.5l-3.5,1.4c-4.5,3.5-8.9,7.1-13,10.6-1.6.8-3.1,1.4-4.6,1.9-1.2.4-2.1,1-2.8,1.7,1.4.1,2.8,0,4.4-.2,1.6-.2,2.4.9,2.4,3.6h0ZM452.1,201c0,.1,0,.2.2.2-.1,0-.2,0-.2-.2ZM469.3,223.5h.6s.6-1,.6-1l-1.2,1h0ZM475.8,221.4h.4c.5-.2.8-.6.9-1.2l-1.2,1.2Z" />
          </g>
          <g>
            <path class="st0"
              d="M215.2,84.6h-.1c-.3-.1-.3-.4-.1-.7-.6-.4-1.2-.4-2,0-1.3-.2-2.6-.3-3.8-.4-1-1-1.8-2.2-2.4-3.4-1.9-4.3-2.1-8.7-.6-13.2-.1.2-.1.2.1.2,1.3,0,1.9-.6,1.9-1.8l.8.4,1.2-1.4.4.3v-.8c1,.6,1.6.3,2.1-.8v.3l1.1-1c.4,1,1.4,1.3,3,1v.4c.2-.2.4-.2.7.1-.2.4-.3.7-.2,1.1-.4-.2-.7-.2-.9.2,0,.8.6,1.3,1.5,1.5,2.5.2,4.9.9,7.3,2.2,1,.3,2.1.5,3.3.6v-.4c3.8,1,7.6,1.3,11.5.9h0c2,.3,4,.2,6-.4h0c0-.1.9-.2.9-.2-.2-.4-.6-.7-1.2-.7.2,0,.4-.2.7-.4h1.4c0-.1-.1-.3-.1-.3,0,.2.2.3.6.2,0-.2.2-.3.3-.6.2.5.6.7,1.2.6h.1c0,.1-.1.1-.1.1-.3.3-.3.6.1.8.5-.3,1.1-.6,1.7-.8h-.7c0-.3,0-.6-.2-.8,2.9.4,5.8.4,8.8-.1-.4,0-.7-.2-1-.3.7.2,1.5.1,2.2-.1.4.2.9,0,1.4-.3v-.4h1.1c0,.2,0,.4.2.4.2-.2.5-.3.8-.4,2.6,0,5.3-.5,8-1.3,1,1,1.8,2,2.6,3.1.4-.2.7,0,.9.7.2.6.5,1,1,1.3.2.7.7,1.3,1.3,1.8,1.5,3.6,2.9,7.2,4.3,10.8.4,2.4-.3,4.2-2.2,5.4-1.8.7-3.6,1-5.4.7-5.5.3-10.8.6-16.1.8-3.3-.4-6.6-.6-9.8-.8-2,.9-4.1,1.2-6.2,1-.6,0-1.1,0-1.7.2-1,0-2.1,0-3.1,0-1.9-.2-3.8-.4-5.7-.4-.8-.3-1.4-.8-1.8-1.5-1.5-.3-2.9-.2-4.2.3-1-.2-1.9-.3-2.9-.2-1.3,0-2.4-.4-3.3-1.1-.7,0-1.3,0-2-.4-.1-.2-.3-.5-.4-.8-1.1.5-1.9.2-2.3-1h0ZM214.6,26.7l-1.1-1.1c.1-2.3,1.3-3.9,3.4-4.9,0-.7.4-1.2,1.1-1.5.8,0,1.4-.3,1.9-1,1-.1,2-.5,3-1.2,0,.6.2.9.9.9h2c.3,1.3,1.3,2.1,3,2.4-.7,0-1.4-.2-2.1-.3.9.9,1.9,1.4,3.2,1.7,0-.4,0-.8-.3-1.2.4.4.9,1,1.3,1.5-.4,0-.9,0-1.2-.2l-.4.3c.6.5,1.2.9,2,1.2,1.2,0,2.5.3,3.6.9l.4-.3.3.4c.5-.4,1.1-.4,1.9.1,0,.3.1.4.4.3.2,0,.4,0,.7-.1v-.3c.3.2.6.3.9.1l.2-.7,1.8.7v-.4c1,0,1.9,0,2.9-.4,0,.1,0,.3-.1.3.7.1,1.5.1,2.3-.1-.3-.1-.6-.3-.9-.5h.3c-.1,0-.1.1.1.2.4,0,.6,0,.8-.4,1.6-.1,3.2-.5,4.8-1,1,.1,2,.1,3.1,0v-.7l.4.3.2-.5v.2h1.4l-.2-.4h.3l-.3-.4c1.8-.4,3.6-.7,5.5-1l.2.4c.4-.5,1.1-.7,1.9-.4.4,0,.6.1.7.5.4-.2.8-.6,1.2-1.2v.4c.1,0-.1,0-.1,0-.1.5,0,.8.7.8-.3,0-.5.2-.5.4,1.2.2,2,.9,2.1,2,.4.2.7.5,1,.9-.2,0-.4,0-.4-.2-.1.1-.2.3-.1.4.8,0,1.3.4,1.4,1.1.1.6.5,1.1,1.2,1.5.9,1.8,1.8,3.7,2.8,5.5.7,1.3.8,2.6.3,3.9-.7.2-.8.6-.4,1.2l.3.4c-.4.2-.9.4-1.2.5,0-.4-.2-.6-.5-.5l-.2,1.3c-.7-.2-1.2,0-1.5.4-2.6.7-5.3,1.3-7.8,1.8-.4.2-.9,0-1.2-.3-.7.4-1.4.7-2.1.9-2.6.3-5.1.7-7.5,1.2l-.4-.4c-1.2.5-2.4.8-3.6,1-1.6.3-3.2.2-4.6-.2,1.7.2,3.4,0,5-.8,0-.4.3-.7.9-.9.4.2.8,0,1.2-.3-.8-.3-1.7-.4-2.5-.3-.4.4-.8.7-1.2.8-.7-.6-1.5-.6-2.4-.1,0-.4.2-.7.7-1.1.5.3,1.1.3,1.7.1h.1c1.5-.2,2-.8,1.7-1.9-.2.3-.2.5,0,.8-.7-.2-1.4-.3-2.1-.3-.6-.4-1.2-.5-2-.5-.8.4-1.6.5-2.3.1.1,0,.2-.3.2-.5-.3-.2-.6-.2-.9-.1-2.7.9-5.5,1.4-8.3,1.5-1.2.2-2.3.4-3.4.4-.1.5-.4.9-.7,1.1l-1.1-.2c0-.2,0-.3-.2-.4l-.6,1c-1.8-.6-3.6-1.1-5.4-1.7-3.1-2.3-5-4.5-5.7-6.3s-1.1-4-1.3-6.4h0ZM216.3,65.2v-.9l-.6.3s.6.6.6.5ZM218.6,65.2h-.6l-.3-1.2c.5.4.9.7,1.3.9.3.2.2.3-.4.3ZM219.9,66.4v-1.2c-.1,0,.8.4.8.4h-.2c.5.3.9.7,1.2,1.2-.4-.6-1-.7-1.8-.4h0ZM223.1,74.1v-.2h-.2l.2.2ZM224.3,67.9h.6l-.6.3v-.3ZM225.7,17.5h0c0-.1,0,.2,0,.2v-.2ZM225.7,67.8l.4.4h-.4c0,.1,0-.4,0-.4ZM227,74.8h-.6c-.4.2-.5.4-.4.8.4.3.9.3,1.3-.1l-.3-.3c.3,0,.5,0,.5,0s-.1-.1-.5-.3h0ZM226.5,20v-.4h-.3l.3.4ZM230.7,25.3v-.4c-.6-.4-1.2-.5-2-.1.4.6,1.1.8,2,.6ZM230,74.7v-.3c-.5-.2-.7,0-.9.3,0,.2.2.2.3.3.1,0,.3,0,.6-.3ZM231.4,22.2h.2c-.4,0-.6,0-.6,0s0,0,.4,0h0ZM232.1,87.8v-.6c-.4,0-.7.2-.7.2s.2.2.7.3ZM232.1,24.8h0c-.1,0-.2,0-.2-.2l-.2-.2c0,.1,0,.2.2.2,0,0,.2.2.2.2ZM233.6,31.9h-.2c-.6.4-1.1.5-1.7.3v.9c.5-.4,1-.6,1.4-.6.4,0,.6-.2.4-.6h0ZM233.9,32.9l-1.9,1.1c-.5,1.4.3,2,2.3,1.9,1.8.4,3.7.5,5.5.1.5.2,1,.5,1.5.8l.7-.8c.3,0,.6.2.9.3l-.4.9c1-.4,2.1-.8,3.1-1.3-.4.4-.7.7-.9,1,.2,0,.5,0,.8-.1,1-.7,2-1.4,3.2-2.1l-1,.3c-.7,0-1.2-.4-1.3-1l.7.2c.6,0,1.1-.2,1.7-.9v.2c.6,0,.8-.3.6-1,.7,0,1.5,0,2.3.1v-.2l1.5-.2c.4.4.9.4,1.4-.1h.3c-.1,0-.3,0-.3,0h-1.1v-.4c-1.1.3-2.2.2-3.2-.3.1-.2.4-.3.7-.2,1,.4,1.7.2,2.2-.8-.9-.2-1.6,0-2.2.4-.4-.5-.2-1,.7-1.4-.4,0-.8.2-1.1.5-.7.1-1.4.1-1.9,0,.6-.9,1.5-1.2,2.6-1,1.1,0,1.9-.4,2.5-1.2h.4c0,0,0-.2.1-.3.1.4.4.6.8.7,0-.1-.2-.3-.3-.4,1.1-.6,2.3-.8,3.5-.8-.8.4-1.6.9-2.3,1.2h.3c0,.3.1.6.1.9h-.7c.2,0,.4.1.5.2-.2.4-.5.7-.8.9-.1,0-.2,0-.1,0,0,0,.1,0,.2-.2.4-.3.9-.7,1.5-1.2v-.2h-.4c.3-.9,1-1.2,2.2-1.1.1-.5,0-1-.3-1.3h1.3v-.3c-.4.1-.9.1-1.2-.1-.6.6-1.2.9-2,.9l-.7-.4c-.9-.2-1.7-.3-2.5-.1.3.3.7.4,1.2.4-.2,0-.3.1-.1.2-1.2.5-2.3.7-3.4.7.4-.6,1.1-1,1.9-1.2-1,.1-1.8.1-2.6,0-1,.1-2,.3-3,.3-1.8.1-3.6.4-5.3.7h-.1c0-.1-.3.2-.3.2l-.3-.3c-1.2.1-2.1.7-2.9,1.7l.2.4c.8.2,1.7.3,2.5.1.7.5,1.6.8,2.5.9-.9.5-1.8.7-2.9.7-.7.6-1.2.5-1.4-.3-.6,0-1.1.3-1.4.5-.6,0-.7-.2-.4-.5h-.4l.2.4c-.4.4-.8.3-1-.1l-.6.5c.4.4,1,.5,1.5.4,1,.1,1.9.4,2.9.9h-1.3c-.4-.3-.9-.3-1.2.3.3,0,.6,0,.8.2-.2.3-.7.4-1.4.3-.7-.1-1.8-.3-3.2-.5h0ZM232.2,22.2l2.1.8c-.9,0-1.6-.2-2.1-.8ZM232.8,25h-.2v.2h.2v-.2ZM235.5,87.1h-.2c-.8-.6-1.7-.7-2.8-.6.2.2.3.4.1.6l1.1.7c.6-.4,1.1-.6,1.6-.5s.5,0,.2-.2h0ZM232.9,26.3v-.2.4c.6,0,.8-.2.6-.3s-.4-.1-.6.1ZM234,27.4h.2c-.1-.5-.4-.6-.7-.6,0,0,.4.5.4.6ZM234.1,22.2l-.2-.4c.1.1.3.2.3.2s0,0-.1.2ZM235.1,23.3l-.8-.3c.2,0,.5.2.8.3ZM234.5,21.9h-.1c0,0,.1,0,.2.1s0,0,0-.1ZM234.6,39.4h.2c-.1.3-.3.4-.4.3s0-.2.2-.3ZM237.9,85.6l-1-.4c-.4.6-1,.9-1.5.9.7.2,1.3.3,2,.6-.7-.4-.6-.8.6-1h0ZM237.5,23.5l.6.3v.3c-.7-.2-1.2-.4-1.5-.7s0-.2.9,0ZM237,87.3h-.2c.4.5.6.5.7.2.1-.3,0-.4-.5-.2ZM236.9,35.4l1.8-1.1-.8.8-1,.3h0ZM237.6,68.5h.6l-.3.2-.2-.2ZM239.2,24h-.6v-.2c.2,0,.4,0,.6.2ZM239.2,26.1l-.4-.4v.8c1.2-.4,1.4-.5.4-.3ZM240.9,33.9l-1.1,1.5c-.3-.2-.6-.2-.9-.2.9-.3,1.5-.9,2-1.8l.8.3c.1-.7.7-1,1.7-.8l-.4.4c0,.2.2.2.4.1v.4c.5,0,.8-.3.9-.9.4.2.7.4,1,.7.4-.5,1-.7,1.5-.7v.3c-.4-.2-.8,0-1.1.4.1.2.3.3.3.4-.7-.2-1.3-.1-1.8.3l.3.3h-.2c-.5,0-1.2.2-1.9.5-.8.4-1.3-.2-1.5-1.7h0ZM241.7,68l.4-.2c.3.6.8,1,1.5,1.3h-1.7c0,0-.1-.2-.2-.3l-.7.4c-.3-.2-.6-.3-.9-.2.1-.3.3-.6.4-.9s.5-.3,1.1-.1h0ZM242.8,72.1h-1.2c-.6,0-.9.2-.9.6,3,1,6.2,1.4,9.5,1.2.4-.4.8-.4,1.3.1.1-.6.6-.8,1.4-.8v.8h1c0-.1-.9-.6-.9-.6.8-.2,1.6,0,2.4.4.2-.3.5-.3.8,0l.2-.3c1,0,1.9-.3,2.9-.6,0,0,.1,0,.2-.2-.1,0-.2.2-.2.2-.2,0-.4-.2-.4-.3-.1.2-.3.2-.4.1-1.3,0-2.6-.2-3.8-.4l-.4.4c-.4-.2-.5-.7-.3-1.3-.2.7-.6,1.1-1,1.3,0-.2,0-.4.1-.7-.6.4-1.2.5-1.9.1,0,0,0-.2.1-.3-1.2-.2-2.4-.2-3.5,0,0,.2.3.3.6.3,0,.3,0,.6-.2.8-.4-.4-.8-.4-1.2-.2-.1-.3,0-.5.4-.7-.7,0-1.2,0-1.8-.3l-.3,1c-.7.2-1.4.2-2,.2,0-.4-.2-.7-.4-.9h0ZM241.8,34.3v.7h-.2.1c0,.1.3-.2.3-.2,0-.2,0-.3-.2-.4ZM242.8,33.5h0c0-.1-.3.3-.3.3.1,0,.3-.1.3-.3ZM243,87.4l.8-.3v-.6c-.3,0-.6.1-.8.1h-.4c0,0,.2.2.4.2s.2.3,0,.6ZM245.1,23.2v.2c-.1,0-.3,0-.3-.1,0,0,.3-.1.3-.1ZM245.8,29.8h.8c-.7.6-1.2.7-1.5.4-.4-.3-.1-.5.8-.4h0ZM245.6,31.2l-.6.8v-.7c1.3.6,1.5.5.6-.1ZM245.6,23.2h-.4c.1-.1.3,0,.4,0ZM246.4,40.2h0c0-.1.1-.1.1-.1h-.1ZM247.7,29.6h.6v.4c-1.1-.1-1.3-.3-.6-.4ZM248.6,32l-.4-.4c.4.1.7,0,1.1-.3,0,.4-.2.6-.7.8ZM248.2,86.1h.4c0-.3,0-.6-.1-.9l-.3.9ZM248.4,67.5h.1c0,0-.1,0-.1,0ZM249.2,72.6h-.7c.1-.4.4-.4.7,0ZM250.5,23h-.1c-.7-.2-1.3-.1-1.8.3.5-.1,1.1-.3,1.8-.3h.2s0,0,0,0h0ZM250,33v.4c-.1,0,1.2.1,1.2.1l-1.2-.5ZM250.6,38.7l-.3.8,2.2-.3c-.8.4-1.4.2-1.9-.4ZM251.2,69.7l.3-.3c-.7-.2-.9-.1-.3.3ZM252,40.2v.2c.1,0,.7-.5.7-.5-.4,0-.7,0-.9.3-.1.2,0,.2.2,0h0ZM254,21.5h-1c.2,0,.6,0,1,0ZM253.9,28.8c.4,0,.9,0,1.4-.1-.1,0-.2,0-.1-.2-.4.1-.9.3-1.3.3-.3,0-.4.1-.4.2,0,0,0,0,.1,0s.1-.1.3-.3h0ZM255.2,31.8l.3-.7c-.8-.3-1.3-.2-1.5.2-.2.4.2.6,1.2.5h0ZM254.4,30.7l.3-.4c-.7-.4-.8-.2-.3.4ZM254.3,41.5h.1v-.4h-.1v.4ZM255.2,25.5l-.6-.8-.2.4c1,.2,1.9,0,2.8-.4-.4,0-.7,0-1.1-.1-.4,0-.7.2-.9.9h0ZM254.4,39.1v.4l.3-.4h-.3ZM255.3,21.1l-.6-.3h.6v.3ZM255.8,41h.2c.4,0,.5-.2.4-.5-.4.2-.8.3-1,.5s-.1.2.3,0h0ZM255.5,39.1h.2c0,0-.1,0-.2,0ZM257.4,21.1l-.2-.3v.5l.9-.4h-.2c-.2,0-.4,0-.4.2ZM258.6,24.2h.1c-.4-.1-.5,0-.5.2s.1.2.4-.2ZM258.1,31.2h.4c0-.5.2-1.1.4-1.7-.6.4-.9,1-.9,1.7ZM263.9,39.1h-.7c-.8.4-1.6.7-2.4.8,1.1.2,2.1-.1,3.1-.8ZM262,26.9h-.4c0-.1-.2,0-.2,0h.7Z" />
            <path class="st0"
              d="M351.5,7.9l8.6,6.6c9.6,6.2,15.6,14.9,18.2,26.2,2,7.3,2.1,14.5.3,21.6-4,11.9-11.4,20.8-22.3,26.6-5.3,3.2-11,4.9-17.2,4.9-3,1.5-6.2,2.1-9.6,1.8-1.9-.4-3.8-.7-5.7-.9-4.3-2-8.6-3.8-12.9-5.5-7.4-4.1-13.7-9.7-18.7-16.6-5-6.9-7.4-14.8-7.1-23.7.4-8.9,3.2-17.1,8.4-24.5,9.6-10.9,18.7-16.8,27.3-17.8,8.6-1,18.9-.5,30.7,1.3h0ZM297.9,61l-.4-.3c0,.6,0,.9.2.9.2,0,.3-.2.3-.6h0ZM297.6,59.5h-.2v.7h.2v-.7ZM298.6,65.6h.1v-.7h-.1v.7ZM299.4,64.2v1.5c.3,2.2,1,4.2,2,6.1-.6-2.5-1.2-5-2-7.6ZM349.6,70.7l6.1-8.4c2.6-5.5,3.4-11.4,2.3-17.5-1.4-5.2-3.9-9.7-7.6-13.5-2.7-2.4-5.5-4.7-8.3-7.1-3.7-1-7.5-1.3-11.4-.9-3,.6-5.8,1.6-8.3,3.1-4.9,2.3-8.7,5.9-11.3,10.8-1.1,3.2-2,6.3-2.5,9.5,1.1,2.7,1.6,5.5,1.4,8.4l1.2,3.9c.7,3.8,2.5,6.9,5.3,9.6,4.2,4.3,8.8,6.3,13.9,5.8s11.4-1.7,19.1-3.8h0Z" />
            <path class="st0"
              d="M395.9,84.6h-.1c-.3-.1-.3-.4-.1-.7-.6-.4-1.2-.4-2,0-1.3-.2-2.6-.3-3.8-.4-1-1-1.8-2.2-2.4-3.4-1.9-4.3-2.1-8.7-.5-13.2-.1.2-.1.2.1.2,1.3,0,2-.6,1.9-1.8l.8.4,1.2-1.4.4.3v-.8c1,.6,1.6.3,2.1-.8v.3l1.1-1c.4,1,1.4,1.3,3,1v.4c.2-.2.4-.2.7.1-.2.4-.3.7-.2,1.1-.4-.2-.7-.2-.9.2,0,.8.6,1.3,1.5,1.5,2.5.2,4.9.9,7.3,2.2,1,.3,2.1.5,3.3.6v-.4c3.8,1,7.6,1.3,11.5.9h0c2,.3,4,.2,6-.4h0c0-.1.9-.2.9-.2-.2-.4-.6-.7-1.2-.7.2,0,.4-.2.7-.4h1.4c0-.1-.1-.3-.1-.3,0,.2.2.3.5.2,0-.2.2-.3.3-.6.2.5.6.7,1.2.6h.1c0,.1-.1.1-.1.1-.3.3-.3.6.1.8.5-.3,1.1-.6,1.7-.8h-.7c0-.3,0-.6-.2-.8,2.9.4,5.8.4,8.8-.1-.4,0-.7-.2-1-.3.7.2,1.5.1,2.2-.1.4.2.9,0,1.4-.3v-.4h1.1c0,.2,0,.4.2.4.2-.2.5-.3.8-.4,2.6,0,5.3-.5,8-1.3,1,1,1.8,2,2.6,3.1.4-.2.7,0,.9.7.2.6.5,1,1,1.3.2.7.7,1.3,1.3,1.8,1.5,3.6,2.9,7.2,4.3,10.8.4,2.4-.3,4.2-2.2,5.4-1.8.7-3.6,1-5.4.7-5.5.3-10.8.6-16.1.8-3.3-.4-6.6-.6-9.8-.8-2,.9-4,1.2-6.2,1-.6,0-1.1,0-1.7.2-1,0-2.1,0-3.1,0-1.9-.2-3.8-.4-5.7-.4-.8-.3-1.4-.8-1.8-1.5-1.5-.3-2.9-.2-4.2.3-1-.2-1.9-.3-2.9-.2-1.3,0-2.4-.4-3.3-1.1-.7,0-1.3,0-2-.4-.1-.2-.3-.5-.4-.8-1.1.5-1.9.2-2.3-1h0ZM395.2,26.7l-1.1-1.1c.1-2.3,1.3-3.9,3.4-4.9,0-.7.4-1.2,1.1-1.5.8,0,1.4-.3,1.9-1,1-.1,2-.5,3-1.2,0,.6.2.9.9.9h2c.3,1.3,1.3,2.1,3,2.4-.7,0-1.4-.2-2.1-.3.9.9,2,1.4,3.2,1.7,0-.4,0-.8-.3-1.2.4.4.9,1,1.3,1.5-.4,0-.9,0-1.2-.2l-.4.3c.6.5,1.2.9,2,1.2,1.2,0,2.5.3,3.6.9l.4-.3.3.4c.5-.4,1.1-.4,1.9.1,0,.3.1.4.4.3.2,0,.4,0,.7-.1v-.3c.3.2.6.3.9.1l.2-.7,1.8.7v-.4c1,0,1.9,0,2.9-.4,0,.1,0,.3-.1.3.7.1,1.5.1,2.3-.1-.3-.1-.6-.3-.9-.5h.3c-.1,0-.1.1.1.2.4,0,.6,0,.8-.4,1.6-.1,3.2-.5,4.8-1,1,.1,2,.1,3.1,0v-.7l.4.3.2-.5v.2h1.4l-.2-.4h.3l-.3-.4c1.8-.4,3.6-.7,5.5-1l.2.4c.4-.5,1.1-.7,1.9-.4.4,0,.6.1.7.5.4-.2.8-.6,1.2-1.2v.4c.1,0-.1,0-.1,0-.1.5,0,.8.7.8-.3,0-.5.2-.5.4,1.2.2,2,.9,2.1,2,.4.2.7.5,1,.9-.2,0-.4,0-.4-.2-.1.1-.2.3-.1.4.8,0,1.3.4,1.4,1.1.1.6.5,1.1,1.2,1.5.9,1.8,1.8,3.7,2.8,5.5.7,1.3.8,2.6.3,3.9-.7.2-.8.6-.4,1.2l.3.4c-.4.2-.9.4-1.2.5,0-.4-.2-.6-.5-.5l-.2,1.3c-.7-.2-1.2,0-1.5.4-2.6.7-5.3,1.3-7.8,1.8-.4.2-.9,0-1.2-.3-.7.4-1.4.7-2.1.9-2.6.3-5.1.7-7.5,1.2l-.4-.4c-1.2.5-2.4.8-3.6,1-1.6.3-3.2.2-4.6-.2,1.7.2,3.4,0,5-.8,0-.4.3-.7.9-.9.4.2.8,0,1.2-.3-.8-.3-1.7-.4-2.5-.3-.4.4-.8.7-1.2.8-.7-.6-1.5-.6-2.4-.1,0-.4.2-.7.7-1.1.5.3,1.1.3,1.7.1h.1c1.5-.2,2-.8,1.7-1.9-.2.3-.2.5,0,.8-.7-.2-1.4-.3-2.1-.3-.6-.4-1.2-.5-2-.5-.8.4-1.6.5-2.3.1.1,0,.2-.3.2-.5-.3-.2-.6-.2-.9-.1-2.7.9-5.5,1.4-8.3,1.5-1.2.2-2.3.4-3.4.4-.1.5-.4.9-.7,1.1l-1.1-.2c0-.2,0-.3-.2-.4l-.5,1c-1.8-.6-3.6-1.1-5.4-1.7-3.1-2.3-5-4.5-5.7-6.3-.7-1.8-1.1-4-1.3-6.4h0ZM397,65.2v-.9l-.5.3s.5.6.5.5ZM399.3,65.2h-.5l-.3-1.2c.5.4.9.7,1.3.9.3.2.2.3-.4.3ZM400.5,66.4v-1.2c-.1,0,.8.4.8.4h-.2c.5.3.9.7,1.2,1.2-.4-.6-1-.7-1.8-.4h0ZM403.8,74.1v-.2h-.2l.2.2ZM405,67.9h.5l-.5.3v-.3ZM406.4,17.5h0c0-.1,0,.2,0,.2v-.2ZM406.4,67.8l.4.4h-.4c0,.1,0-.4,0-.4ZM407.7,74.8h-.5c-.4.2-.5.4-.4.8.4.3.9.3,1.3-.1l-.3-.3c.3,0,.5,0,.5,0s-.1-.1-.5-.3h0ZM407.2,20v-.4h-.3l.3.4ZM411.4,25.3v-.4c-.6-.4-1.2-.5-2-.1.4.6,1.1.8,2,.6ZM410.7,74.7v-.3c-.5-.2-.7,0-.9.3,0,.2.2.2.3.3s.3,0,.5-.3ZM412.1,22.2h.2c-.4,0-.6,0-.6,0,0-.1,0,0,.4,0h0ZM412.8,87.8v-.6c-.4,0-.7.2-.7.2s.2.2.7.3ZM412.8,24.8h0c-.1,0-.2,0-.2-.2l-.2-.2c0,.1,0,.2.2.2,0,0,.2.2.2.2ZM414.3,31.9h-.2c-.6.4-1.1.5-1.7.3v.9c.5-.4,1-.6,1.4-.6.4,0,.6-.2.4-.6h0ZM414.6,32.9l-1.9,1.1c-.5,1.4.3,2,2.3,1.9,1.8.4,3.7.5,5.5.1.5.2,1,.5,1.5.8l.7-.8c.3,0,.6.2.9.3l-.4.9c1-.4,2.1-.8,3.1-1.3-.4.4-.7.7-.9,1,.2,0,.5,0,.8-.1,1-.7,2-1.4,3.2-2.1l-1,.3c-.7,0-1.2-.4-1.3-1l.7.2c.6,0,1.1-.2,1.7-.9v.2c.6,0,.8-.3.5-1,.7,0,1.5,0,2.3.1v-.2l1.5-.2c.4.4.9.4,1.4-.1h.3c-.1,0-.3,0-.3,0h-1.1v-.4c-1.1.3-2.2.2-3.2-.3.1-.2.4-.3.7-.2,1,.4,1.7.2,2.2-.8-.9-.2-1.6,0-2.2.4-.4-.5-.2-1,.7-1.4-.4,0-.8.2-1.1.5-.7.1-1.4.1-1.9,0,.6-.9,1.5-1.2,2.6-1,1.1,0,2-.4,2.5-1.2h.4c0,0,0-.2.1-.3.1.4.4.6.8.7,0-.1-.2-.3-.3-.4,1.1-.6,2.3-.8,3.5-.8-.8.4-1.6.9-2.3,1.2h.3c0,.3.1.6.1.9h-.7c.2,0,.4.1.5.2-.2.4-.5.7-.8.9-.1,0-.2,0-.1,0,0,0,.1,0,.2-.2.4-.3.9-.7,1.5-1.2v-.2h-.4c.3-.9,1-1.2,2.2-1.1.1-.5,0-1-.3-1.3h1.3v-.3c-.4.1-.9.1-1.2-.1-.6.6-1.2.9-2,.9l-.7-.4c-.9-.2-1.7-.3-2.5-.1.3.3.7.4,1.2.4-.2,0-.3.1-.1.2-1.2.5-2.3.7-3.4.7.4-.6,1.1-1,1.9-1.2-1,.1-1.8.1-2.6,0-1,.1-2,.3-3,.3-1.8.1-3.6.4-5.3.7h-.1c0-.1-.3.2-.3.2l-.3-.3c-1.2.1-2.1.7-2.9,1.7l.2.4c.8.2,1.7.3,2.5.1.7.5,1.6.8,2.5.9-.9.5-1.8.7-2.9.7-.7.6-1.2.5-1.4-.3-.6,0-1.1.3-1.4.5-.6,0-.7-.2-.4-.5h-.4l.2.4c-.4.4-.8.3-1-.1l-.5.5c.4.4,1,.5,1.5.4,1,.1,1.9.4,2.9.9h-1.3c-.4-.3-.9-.3-1.2.3.3,0,.5,0,.8.2-.2.3-.7.4-1.4.3-.7-.1-1.8-.3-3.2-.5h0ZM412.9,22.2l2.1.8c-.9,0-1.6-.2-2.1-.8ZM413.5,25h-.2v.2h.2v-.2ZM416.2,87.1h-.2c-.8-.6-1.7-.7-2.8-.6.2.2.3.4.1.6l1.1.7c.6-.4,1.1-.6,1.6-.5s.5,0,.2-.2h0ZM413.6,26.3v-.2.4c.6,0,.8-.2.6-.3-.2-.1-.4-.1-.6.1ZM414.7,27.4h.2c-.1-.5-.4-.6-.7-.6,0,0,.4.5.4.6ZM414.8,22.2l-.2-.4c.1.1.3.2.3.2s0,0-.1.2ZM415.8,23.3l-.8-.3c.2,0,.5.2.8.3ZM415.2,21.9h-.1c0,0,.1,0,.2.1s0,0,0-.1h0ZM415.3,39.4h.2c-.1.3-.3.4-.4.3-.1,0,0-.2.2-.3ZM418.5,85.6l-1-.4c-.4.6-1,.9-1.5.9.7.2,1.3.3,2,.6-.7-.4-.5-.8.5-1h0ZM418.2,23.5l.5.3v.3c-.7-.2-1.2-.4-1.5-.7s0-.2.9,0ZM417.6,87.3h-.2c.4.5.6.5.7.2.1-.3,0-.4-.5-.2ZM417.5,35.4l1.8-1.1-.8.8-1,.3h0ZM418.3,68.5h.5l-.3.2-.2-.2ZM419.9,24h-.5v-.2c.2,0,.4,0,.5.2ZM419.9,26.1l-.4-.4v.8c1.2-.4,1.4-.5.4-.3ZM421.6,33.9l-1.1,1.5c-.3-.2-.6-.2-.9-.2.9-.3,1.5-.9,2-1.8l.8.3c.1-.7.7-1,1.7-.8l-.4.4c0,.2.2.2.4.1v.4c.5,0,.8-.3.9-.9.4.2.7.4,1,.7.4-.5,1-.7,1.5-.7v.3c-.4-.2-.8,0-1.1.4.1.2.3.3.3.4-.7-.2-1.3-.1-1.8.3l.3.3h-.2c-.5,0-1.2.2-1.9.5s-1.3-.2-1.5-1.7h0ZM422.4,68l.4-.2c.3.6.8,1,1.5,1.3h-1.7c0,0-.1-.2-.2-.3l-.7.4c-.3-.2-.6-.3-.9-.2.1-.3.3-.6.4-.9.1-.3.5-.3,1-.1ZM423.5,72.1h-1.2c-.6,0-.9.2-.9.6,3,1,6.2,1.4,9.5,1.2.4-.4.8-.4,1.3.1.1-.6.6-.8,1.4-.8v.8h1c0-.1-.9-.6-.9-.6.8-.2,1.6,0,2.4.4.2-.3.5-.3.8,0l.2-.3c1,0,1.9-.3,2.9-.6,0,0,.1,0,.2-.2-.1,0-.2.2-.2.2-.2,0-.4-.2-.4-.3-.1.2-.3.2-.4.1-1.3,0-2.6-.2-3.8-.4l-.4.4c-.4-.2-.5-.7-.3-1.3-.2.7-.5,1.1-1,1.3,0-.2,0-.4.1-.7-.6.4-1.2.5-1.9.1,0,0,0-.2.1-.3-1.2-.2-2.4-.2-3.5,0,0,.2.3.3.5.3,0,.3,0,.6-.2.8-.4-.4-.8-.4-1.2-.2-.1-.3,0-.5.4-.7-.7,0-1.2,0-1.8-.3l-.3,1c-.7.2-1.4.2-2,.2,0-.4-.2-.7-.4-.9h0ZM422.5,34.3v.7h-.2.1c0,.1.3-.2.3-.2,0-.2,0-.3-.2-.4h0ZM423.5,33.5h0c0-.1-.3.3-.3.3.1,0,.3-.1.3-.3ZM423.7,87.4l.8-.3v-.6c-.3,0-.5.1-.8.1h-.4c0,0,.2.2.4.2s.2.3,0,.6ZM425.8,23.2v.2c-.1,0-.3,0-.3-.1,0,0,.3-.1.3-.1ZM426.5,29.8h.8c-.7.6-1.2.7-1.5.4-.4-.3-.1-.5.8-.4h0ZM426.3,31.2l-.5.8v-.7c1.3.6,1.5.5.5-.1ZM426.3,23.2h-.4c.1-.1.3,0,.4,0ZM427.1,40.2h0c0-.1.1-.1.1-.1h-.1ZM428.4,29.6h.5v.4c-1.1-.1-1.3-.3-.5-.4ZM429.2,32l-.4-.4c.4.1.7,0,1.1-.3,0,.4-.2.6-.7.8ZM428.9,86.1h.4c0-.3,0-.6-.1-.9l-.3.9h0ZM429.1,67.5h.1c0,0-.1,0-.1,0ZM429.9,72.6h-.7c.1-.4.4-.4.7,0ZM431.2,23h-.1c-.7-.2-1.3-.1-1.8.3.5-.1,1.1-.3,1.8-.3h.2s0,0,0,0h0ZM430.7,33v.4c-.1,0,1.2.1,1.2.1l-1.2-.5h0ZM431.3,38.7l-.3.8,2.2-.3c-.8.4-1.4.2-1.9-.4ZM431.9,69.7l.3-.3c-.7-.2-.9-.1-.3.3ZM432.7,40.2v.2c.1,0,.7-.5.7-.5-.4,0-.7,0-.9.3-.1.2,0,.2.2,0h0ZM434.6,21.5h-1c.2,0,.5,0,1,0ZM434.5,28.8c.4,0,.9,0,1.4-.1-.1,0-.2,0-.1-.2-.4.1-.9.3-1.3.3-.3,0-.4.1-.4.2,0,0,0,0,.1,0s.1-.1.3-.3h0ZM435.9,31.8l.3-.7c-.8-.3-1.3-.2-1.5.2s.2.6,1.2.5h0ZM435.1,30.7l.3-.4c-.7-.4-.8-.2-.3.4ZM435,41.5h.1v-.4h-.1v.4ZM435.9,25.5l-.5-.8-.2.4c1,.2,1.9,0,2.8-.4-.4,0-.7,0-1.1-.1-.4,0-.7.2-.9.9h0ZM435.1,39.1v.4l.3-.4h-.3ZM436,21.1l-.5-.3h.5v.3ZM436.5,41h.2c.4,0,.5-.2.4-.5-.4.2-.8.3-1,.5s-.1.2.3,0ZM436.2,39.1h.2c0,0-.1,0-.2,0ZM438.1,21.1l-.2-.3v.5l.9-.4h-.2c-.2,0-.4,0-.4.2ZM439.3,24.2h.1c-.4-.1-.5,0-.5.2s.1.2.4-.2ZM438.8,31.2h.4c0-.5.2-1.1.4-1.7-.6.4-.9,1-.9,1.7ZM444.6,39.1h-.7c-.8.4-1.6.7-2.4.8,1.1.2,2.1-.1,3.1-.8ZM442.7,26.9h-.4c0-.1-.2,0-.2,0h.7Z" />
            <path class="st0"
              d="M471.8,86.4l-2.3-.2c.2-1.8-.4-3.3-1.8-4.5.9.3,1.1,0,.8-.7,0-.8.4-1.2,1.5-1.1l.2.2c0,0,.1-.2.1-.3.3.2.5.3.8.6.9-.7,1.9-1,3-.9l7.1-2.9v.2c2.1-.3,4.1-.8,6.2-1.7.4-1.9.5-3.9.3-5.8h.2c0,.1.5-.4.5-.4v1.3c.6-1,.9-2.2.9-3.5.2-1,.3-2.1.3-3.2-.7,1.2-1.1,2.5-1.2,3.9,0-1.2.1-2.4.1-3.8-.9,1-1.9,1.3-3.1.9l-2-1.5-.3.3c-2.4-2.7-4.6-5.4-6.7-8.3l.2-2.1c5.7-3.6,11.5-6.9,17.7-9.8l.7-.7-.3-.3h-.2c0-1.3.3-2.7.8-4.1.4-.5.5-1.1.3-1.8l-.7,1,.9-2.7c-3.6.5-7.2.6-10.8.3-4.2-1.3-7.4-3.9-9.6-7.8-.3-2.6-1.2-5.2-2.6-7.6l.3.5c.4-.6.5-1.3.2-2.1l-.3.5c1.7-4.6,5-7.5,9.9-8.6,1.2-1.1,2.6-1.9,4.2-2.3C496.2,2.3,506.2,0,517,.7c.4,0,.5-.3.5-.7,3.5,1.2,6.1,3.5,7.8,6.6.7.4,1.2,1,1.5,1.8.5.4,1,.9,1.5,1.3.3.7.5,1.4.5,2.1-1,1.3-1.2,2.8-.7,4.5-.4.8-.9,1.2-1.7,1.3-1,.8-1.5,1.7-1.5,2.6-.3,1.3-.8,2.5-1.5,3.4-2.4,3-5.4,5-9.2,5.9-.8,2.1-1.7,4.1-2.6,6,5.4-1.5,10.3-.5,14.6,3,3.5,3.1,5,7,4.6,11.7-.5.7-.8,1.5-.9,2.4-1.7,3.3-3.6,6.4-5.6,9.4-1.2,2.1-2.2,4.3-3.1,6.5,2.5.2,5,.3,7.6.2.4.3.9.4,1.4.3-.2,0-.4.2-.5.3,2.2.9,4.3.8,6.3-.3,2.3-.2,4.6.3,6.6,1.2.5.2.9.5,1.1,1.1.7,1.1,1.4,2.2,2.1,3.2,1.1,1.2,2.1,2.5,2.9,4,.3.5.5,1,.5,1.5h-.3c.2.8.4,1.6.7,2.3-.2,0-.3,0-.3.1-.2-.7-.5-1-1.1-.9.8,1.1,1.1,2.3.9,3.6-.5.4-.5.9,0,1.5-.7,0-1.2-.3-1.5-.9.4-.4.6-.9.4-1.5-.2-.2-.4-.4-.7-.4,0,.7-.3,1.2-.5,1.8-.4,0-.8,0-1-.4-.4.3-.4.6-.2,1-.6,0-1-.2-1.2-.7,0,.7,0,1.4-.2,2.1-.4-.7-1-1-1.8-.9-2.2-1.6-4.8-2.1-7.7-1.5-1.5.4-2.9.4-4.4.1,1.5-.2,2.3-.9,2.7-2.1,1.6-.2,3.3-.5,5.1-.8.2-.2.3-.4.3-.7-.8-.4-1.7-.6-2.7-.3v-.3c.4,0,.7,0,1-.4l-.3-.3c-.5.4-1.1.4-1.7-.1l-.2-.2c.4,0,.7,0,1.1-.3-.5-.5-1.2-.8-2-.9-.5.4-1,.6-1.5.7.4.3.8.4,1.3.3-.7.4-1.5.5-2.2.2.2-.2.3-.4.3-.7.2,0,.5-.2.9-.4-1.2-.4-2.2,0-3.2.9.2.2.5.4.9.4-1.5,1-3.2,1.5-5,1.5-1.1.2-2.2.2-3.2.2-1.5.6-3.1.9-4.6.9,2.3-1,4.7-1.8,7.2-2.7,0,.4,0,.7.3.9,1.1-.7,2.2-1.4,3.3-2.3-2.7.5-5.2.6-7.7.3-1.3.9-2.8,1.4-4.4,1.5-.9.2-1.6.6-2.2,1.1-1.6-.2-3.1.3-4.4,1.2.4.9,1,1,1.8.3v.4c-2.5.7-4.8,1.7-7,3-2.9,1.6-6,2.9-9,4-1.7,1.1-3.5,1.8-5.3,2.2-3,1.2-6.1,1.8-9.4,2-1,.2-1.8,0-2.6-.4-1.4-1.5-2.5-2.7-3.4-3.8s-1.8-2.5-2.6-4.4h0ZM488.5,73.4v.4c0-.4,0-.7-.2-.9-.2-.2-.1,0,.2.4ZM488.2,67.9h.2v.6h-.2v-.6ZM488.4,72.1v-.4l-.2-1.4.2,1.9h0ZM496.7,65.7h.2c-.4-.1-.5-.1-.4.1,0,.2.1.2.2-.1ZM502.6,56l-2.1,2.4c-1.1.2-1.4,1-1,2.2l-.3,1c.1-.3.3-.6.3-1l.7-2.1c.3,1.3,0,2.4-.8,3.2l.2.2c-.9,1.2-1.5,2.7-1.8,4.2,0,1-.2,1.9-.9,2.7.6.7.6,1.6,0,2.9l.7.2c.4-.2.6-.4.8-.9l.3.4c.3-.8.6-1.7.9-2.5.4.7.4,1.4,0,2.1l.5-.7.3.8c1.8-.4,3.6-.6,5.5-.6v.2l3.1-.2.4-2.9c.2-.7.6-1.3,1.1-1.9-.4-.7-.4-1.3.2-1.8h.1v-1.3c.1-2.1.5-4.2,1.1-6.3.5-2.9,1-5.8,1.5-8.7l-3.3,3c-.8,1.2-1.8,2.2-2.9,3-1.1.7-2.7,1.5-4.8,2.3h0ZM497.8,62l.5-1.3c-.7.7-1,1.6-.9,2.5-.4.6-.4.9,0,.8.3,0,.5-.7.4-2h0ZM499.4,69.1l-.9.2c0-1.2.6-2.2,1.5-3.2-.1.4-.1.8,0,1.2l.4-.4c-.3.4-.4.7-.4,1.1,0-.2-.2-.2-.6-.2-.4,0-.4.5,0,1.3h0ZM500.1,65.3l.2-.3c0,.4,0,.7-.3.8-.2.1-.2,0,0-.5h0ZM501.3,64.9l-.4-.6c-.4.2-.5.4-.5.7,0-.2,0-.3-.1-.6.9-1.8,1.7-3.6,2.5-5.5-.3,1.6-.8,3.1-1.4,4.5h.5c-.3.5-.5,1-.5,1.4h0ZM501,66.3v.3c-.3,0-.5.2-.5.2l.5-.6ZM500.8,66h-.1c0,.1.3-.2.3-.2,0,.4,0,.4-.2.2ZM500.9,66.7h.1c0,.2-.1.3-.1.3v-.3ZM503.2,57.5v-.3c0,0,.2,0,.3.1l-.3.2ZM507.4,70.5l.7-.2v.2h-.7ZM508.9,86.3h-.2c1.7-1.4,3.5-2.5,5.5-3.5.2.6.5.7,1.2.3-2.1,1.3-4.3,2.4-6.5,3.2h0ZM526.4,82.4h1.7c-3,2.1-6.3,2.9-9.8,2.7,2.6-1,5.3-1.9,8.2-2.7h0ZM527.3,80.3h.2l.3-.4-.5.4ZM528.2,10v-.2.4c-.1,0,0-.2,0-.2Z" />
          </g>
        </g>
      </g>
    </g>
  </g>
</svg>
