<?xml version="1.0" encoding="UTF-8"?>
<svg id="Layer_2" data-name="Layer 2" xmlns="http://www.w3.org/2000/svg"
  xmlns:xlink="http://www.w3.org/1999/xlink" viewBox="0 0 131.91 81.25">
  <defs>
    <style>
      .cls-1 {
      fill: oklch(0.31 0.03 258.97);
      }

      .cls-2 {
      fill: oklch(0.31 0.03 258.97);
      }
    </style>
    <filter id="outer-glow-1" x="53.45" y="52.56" width="44.3" height="11.85"
      filterUnits="userSpaceOnUse">
      <feOffset dx="0" dy="0" />
      <feGaussianBlur result="blur" stdDeviation="2.83" />
      <feFlood flood-color="#241a16" flood-opacity="1" />
      <feComposite in2="blur" operator="in" />
      <feComposite in="SourceGraphic" />
    </filter>
  </defs>
  <g id="_制作レイヤー" data-name="制作レイヤー">
    <g>
      <g>
        <g class="cls-3">
          <path class="cls-1"
            d="M61.12,62.7c-.32.94-.87,1.49-2.12,1.49-.05,0-.11,0-.15,0-.62-.02-1.29-.03-1.96-.04-.87,0-1.72.01-2.42.05-.02,0-.05,0-.06,0-.58,0-.96-.43-.96-.9,0-.43.23-.65.54-.84.18-.12.4-.27.58-.47,4.54-4.77,4.63-5.47,4.63-6.28,0-1.01-.76-1.65-1.62-1.65-.64,0-1.34.35-1.82,1.17-.18.32-.47.44-.75.44-.44,0-.87-.32-.87-.78,0-.64,1.24-2.34,3.42-2.34,1.74,0,3.41,1.14,3.4,3,0,.85-.34,1.83-1.17,2.94-1.1,1.47-2.51,2.69-3.76,4.03-.03.03-.05.06-.05.09,0,.03.03.06.12.06.53-.03,1.74,0,2.45-.05.87-.07.96-.48,1.19-1.18.15-.49.5-.68.85-.68.43,0,.85.32.85.82,0,.09-.02.2-.06.32l-.28.81Z" />
          <path class="cls-1"
            d="M65.97,60.46c-.06-.66-.09-1.29-.09-1.93,0-.59.03-1.19.08-1.81.22-2.65,1.67-4.11,3.74-4.1,2.04,0,3.47,1.4,3.7,3.94.06.67.1,1.34.1,2,0,1.48-.06,5.88-3.84,5.87-2.03,0-3.47-1.4-3.7-3.96ZM71.67,60.53c.09-.67.14-1.42.14-2.16,0-.56-.03-1.13-.07-1.65-.15-1.6-.94-2.56-2.03-2.56s-1.91.97-2.06,2.61c-.05.52-.08,1.05-.08,1.57,0,.67.04,1.36.12,2.01.18,1.55,1,2.49,2,2.49.96,0,1.77-.86,1.99-2.31Z" />
          <path class="cls-1"
            d="M85.49,62.77c-.32.94-.87,1.49-2.12,1.49-.05,0-.11,0-.15,0-.62-.02-1.29-.03-1.96-.04-.87,0-1.72.01-2.42.05-.02,0-.05,0-.06,0-.58,0-.96-.43-.96-.9,0-.43.23-.65.54-.84.18-.12.4-.27.58-.47,4.54-4.77,4.63-5.47,4.63-6.28,0-1.01-.76-1.65-1.62-1.65-.64,0-1.34.35-1.82,1.17-.18.32-.47.44-.75.44-.44,0-.87-.32-.87-.78,0-.64,1.24-2.34,3.42-2.34,1.74,0,3.41,1.14,3.4,3,0,.85-.34,1.83-1.17,2.94-1.1,1.47-2.51,2.69-3.76,4.03-.03.03-.05.06-.05.09,0,.03.03.06.12.06.53-.03,1.74,0,2.45-.05.87-.07.96-.48,1.19-1.18.15-.49.5-.68.85-.68.43,0,.85.32.85.82,0,.09-.02.2-.06.32l-.28.81Z" />
          <path class="cls-1"
            d="M93.58,64.39c-1.75,0-3.33-.86-3.33-1.72,0-.46.35-.85.78-.85.17,0,.35.06.53.21.62.55,1.38.78,2.08.78,1.69,0,2.47-1.21,2.47-2.32,0-1.04-.68-2.06-2.11-2.06-.43,0-.84.09-1.22.21-.21.08-.37.2-.59.21-.08,0-.15.01-.23.01-.67,0-1.08-.31-1.08-1.02,0-.52.48-3.46.54-3.84.15-.82.52-1.2,1.48-1.2.03,0,.06,0,.11,0,.12,0,.49.02,3.18.02.52,0,.79.4.79.79,0,.38-.26.78-.78.77-.43,0-2.47-.02-2.94-.02-.3,0-.43.17-.47.44-.08.53-.31,1.75-.36,2.06,0,.05-.02.08-.02.11,0,.14.06.18.15.18.11,0,.23-.05.35-.08.27-.06.69-.1,1.14-.1,2.67,0,3.68,1.81,3.68,3.5,0,1.96-1.46,3.91-4.17,3.9Z" />
        </g>
        <g>
          <path class="cls-2"
            d="M112.6,78.67c-.26,0-.55-.06-.85-.2-.17-.07-.3-.19-.46-.26-.31-.16-.54-.23-.75-.23-.3,0-.56.16-.96.46-.1.07-.21.1-.31.1-.28,0-.54-.24-.54-.51,0-.12.05-.26.2-.37.51-.43,1.04-.79,1.67-.79.29,0,.59.07.94.24.14.06.26.15.38.21.26.12.47.18.68.18.3,0,.59-.14,1.01-.4.09-.06.19-.08.28-.08.28,0,.53.25.53.53,0,.15-.06.29-.21.42-.46.38-.98.71-1.61.71Z" />
          <path class="cls-2"
            d="M45.73,79.12l-4.07.02c-.3,0-.45-.2-.45-.4,0-.21.16-.43.45-.43h2.38s0-.83,0-.83h-1.76c-.3.01-.45-.19-.45-.38,0-.21.16-.43.45-.43h1.76s0-.41,0-.41c0-.22.23-.33.46-.33s.47.11.47.33v.43h1.49v-.43c0-.22.23-.33.47-.33s.47.11.47.33v.42h1.79c.28-.01.43.2.43.4,0,.21-.15.42-.43.42h-1.79s0,.83,0,.83h2.41c.28-.01.43.2.43.4,0,.21-.15.42-.43.42l-4.08-.02ZM42.08,81.25c-.33,0-.52-.25-.52-.51,0-.22.14-.43.45-.47.71-.09,1.6-.42,2.3-.95.08-.06.18-.09.26-.09.26,0,.5.27.5.53,0,.12-.05.25-.19.34-.79.57-2.32,1.14-2.8,1.14ZM47.94,75.85c-.68.02-1.36.03-2.05.03-.79,0-1.59-.01-2.36-.03-.75-.02-1.13-.41-1.15-.94-.01-.31-.02-.62-.02-.93s.01-.59.02-.86c.02-.44.31-.89,1.12-.92.44-.01,1.14-.02,1.91-.02.93,0,1.92.01,2.59.02.61.01,1.04.44,1.07.84.02.24.03.54.03.84,0,.34-.01.71-.03,1.01-.02.5-.46.93-1.13.95ZM45.24,72.93c-.58,0-1.12.01-1.48.02-.49.01-.49.31-.49.7h1.97v-.72ZM45.24,74.36h-1.97c0,.5.01.72.5.74.38.01.9.01,1.47.01v-.75ZM46.46,77.48h-.73s-.76,0-.76,0v.84h.77s.72,0,.72,0v-.84ZM48.14,73.65c0-.1-.01-.22-.01-.31-.02-.41-.11-.41-1.97-.41v.72h1.98ZM46.16,74.36v.75c.55,0,1.08,0,1.5-.01.47,0,.48-.24.48-.74h-1.98ZM49.32,81.2c-.26,0-1.62-.36-2.76-1.13-.14-.09-.2-.22-.2-.35,0-.25.22-.5.49-.5.08,0,.17.02.25.07.71.47,1.64.81,2.35.9.29.04.43.24.43.46,0,.27-.21.55-.56.55Z" />
          <path class="cls-2"
            d="M58.83,75.88c0,.66,0,1.25-.01,1.63-.02.94-.77.99-1.65.99-.98,0-1.6-.05-1.61-.98,0-.4-.01-.99-.01-1.64h-1.35c0,.47-.01.95-.01,1.37,0,.76.01,1.41.03,1.81.03.61.35.63,2.61.63.9,0,1.88-.02,2.69-.05h.03c.29,0,.44.23.44.46s-.16.49-.47.5c-.8.04-1.72.05-2.58.05-.81,0-1.58-.01-2.18-.04-.92-.04-1.58-.41-1.6-1.41-.01-.34-.01-.77-.01-1.24,0-.64,0-1.36.01-2.08h-1.2c-.34.01-.5-.21-.5-.43,0-.24.18-.49.5-.49h1.2c.01-.73.02-1.4.02-1.92,0-.3.26-.45.53-.45s.53.15.53.44h0c-.01.52-.02,1.21-.03,1.94h1.34c0-.87,0-1.74.01-2.27.01-.28.26-.43.51-.43s.48.14.48.42h0c-.01.5-.02,1.39-.02,2.28h1.33c0-.8-.01-1.61-.01-2.14,0-.3.25-.45.49-.45s.5.15.5.45c0,.54.01,1.34.01,2.14h1.51c.31-.01.48.23.48.47,0,.22-.16.45-.48.45h-1.52ZM56.53,75.88c0,.58,0,1.09.01,1.41,0,.33.18.35.61.35.5,0,.66-.06.68-.35.01-.31.02-.82.02-1.41h-1.32Z" />
          <path class="cls-2"
            d="M67.15,77.7c0-.3.25-.46.5-.46.03,0,.06.01.09.01-.41-.33-.81-.71-1.19-1.1-.37.42-.75.78-1.15,1.11.22.02.44.18.44.47,0,1.22-.51,3.02-3.17,3.46-.04.01-.07.01-.11.01-.32,0-.48-.26-.48-.5,0-.21.11-.41.33-.44,1.82-.25,2.37-1.26,2.41-2.53v-.03c-.61.45-2.04,1.33-2.41,1.33-.3,0-.5-.24-.5-.48,0-.17.09-.34.32-.44,1.26-.54,2.22-1.1,3.18-1.99-.29.01-.58.01-.81.01-.42,0-1.39-.01-1.42-.97-.01-.32-.02-.69-.02-1.05s.01-.7.02-.98c.02-.45.31-.92,1.12-.94.44-.01,1.14-.02,1.91-.02.93,0,1.92.01,2.59.02.61.01,1.04.44,1.07.86.02.25.03.59.03.95,0,.41-.01.83-.03,1.14-.02.52-.46.96-1.13.98h-.28c-.24,0-.51,0-.78-.01,1.01.84,2.05,1.33,3.19,1.82.22.09.31.26.31.44,0,.27-.24.56-.58.56s-1.51-.67-2.49-1.4c.01.04.03.09.03.15v2.96c0,.31-.25.46-.5.46s-.5-.15-.5-.46v-2.96ZM66.04,72.96c-.57,0-1.09.01-1.45.02-.51.02-.53.37-.53.8h1.98v-.82ZM66.04,74.53h-1.98c0,.54.04.82.54.84.38.01.89.02,1.44.02v-.86ZM68.94,73.78c0-.15-.01-.27-.01-.38-.01-.26-.16-.41-.51-.42-.34-.01-.87-.02-1.45-.02v.82h1.97ZM66.97,74.53v.86c.53,0,1.05-.01,1.46-.02.51,0,.51-.36.51-.84h-1.97Z" />
          <path class="cls-2"
            d="M79.23,76.6c0-1.15-.9-2.14-2.41-2.14h-.02c.17.07.29.23.29.44v.05c0,1.09-1.07,2.98-2.21,4.11-.26.25-.53.35-.78.35-.74,0-1.4-.83-1.4-1.97,0-1.88,1.85-3.8,4.19-3.8,2.1,0,3.41,1.39,3.41,3.02,0,.38-.07.78-.23,1.18-.92,2.31-3.74,2.63-3.89,2.63-.36,0-.59-.25-.59-.51,0-.23.18-.45.57-.52,1.89-.31,3.08-1.48,3.08-2.84ZM76.23,74.51c-1.3.26-2.6,1.64-2.6,2.88,0,.78.52.87.55.87.06,0,.14-.02.2-.08.31-.28,1.61-1.82,1.65-3.22,0-.21.08-.36.2-.45Z" />
          <path class="cls-2"
            d="M84.12,78.03c-.08-.81-.12-1.51-.14-2.14-.27.07-.49.1-.68.1-.61,0-1.04-.25-1.04-.62,0-.24.18-.46.48-.46.09,0,.21.02.32.07.08.03.17.05.27.05.22,0,.55-.08.66-.12.02-.43.06-.85.12-1.29.05-.34.3-.5.55-.5s.52.17.52.47c0,.05-.01.1-.02.16-.06.25-.11.49-.16.73.15-.07.27-.16.35-.22.11-.09.23-.12.34-.12.25,0,.47.2.47.45,0,.3-.26.54-1.28.97-.01.19-.01.37-.01.56,0,.41.02.84.05,1.33.99-.67,1.82-1,2.7-1,1.09,0,1.56.66,1.56,1.39,0,1.16-1.16,2.39-2.43,2.39-.62,0-1.13-.32-1.13-.99,0-.03.02-1.07.67-1.07.24,0,.47.16.47.43,0,.08-.03.18-.08.29-.04.08-.06.16-.06.21,0,.14.09.2.24.2.5,0,1.32-.71,1.32-1.39,0-.31-.22-.58-.83-.58s-1.08.18-2.33,1.09c.02.17.09.95.09,1.07,0,.71-.44,1.02-.92,1.02s-.93-.34-.93-.61c0-.03,0-.05.01-.08-.59.5-.81.66-1.11.66-.34,0-.55-.28-.55-.55,0-.16.07-.31.24-.4.61-.32,1.29-.77,1.95-1.26l.3-.22ZM84.22,78.98c-.18.15-.44.37-.71.61.03-.01.06-.01.09-.01.07,0,.16.02.26.05.06.02.12.03.19.03.12,0,.21-.07.21-.23v-.06l-.04-.4ZM89.4,75.53c-.16-.19-.47-.38-.82-.38-.27,0-.56.11-.84.45-.08.09-.21.15-.33.15-.22,0-.45-.15-.45-.4,0-.43.74-1.07,1.77-1.07.86,0,1.53.48,1.53.95,0,.27-.23.5-.48.5-.12,0-.26-.05-.37-.19Z" />
          <path class="cls-2"
            d="M96.62,77.94v1.74s.01.01.01.02c0,.62-.5,1.31-1.6,1.31-.73,0-1.02-.21-1.02-.57,0-.23.16-.45.42-.45.04,0,.08,0,.12.01.14.03.29.05.43.05.36,0,.69-.14.69-.57v-1.54h-2.17c-.28-.01-.43-.23-.43-.44,0-.04,0-.08.01-.11-.42.26-.95.51-1.15.51-.27,0-.48-.23-.48-.46,0-.17.1-.33.36-.42.58-.2,1.12-.54,1.59-.96-.18-.1-.34-.17-.52-.22-.19-.06-.26-.2-.26-.34,0-.23.19-.47.45-.47.22,0,.6.22.92.44.14-.16.26-.31.37-.47-.2-.12-.37-.19-.56-.25-.19-.06-.26-.2-.26-.34,0-.22.19-.46.44-.46.16,0,.5.14.84.36.14-.25.32-.61.32-.7,0-.09-.11-.12-.19-.12-.23,0-.69.01-1.06.02-.21.3-1.33,1.86-1.93,1.86-.26,0-.47-.19-.47-.42,0-.15.08-.3.28-.45.77-.56,1.37-1.33,1.8-2.24.09-.21.25-.29.41-.29.24,0,.48.2.48.47,0,.07-.02.16-.07.25l-.04.08c.38-.01.8-.02,1.01-.02.32,0,.54.09.67.23,0-.03-.01-.05-.01-.08,0-.26.24-.44.46-.44.16,0,.3.08.37.25.3.66.67,1.32,1.16,1.91.15-.17.83-.97.83-1.1,0-.09-.12-.12-.23-.12h-.94s-.01.01-.01.01c-.28,0-.43-.2-.43-.4,0-.42.38-.42.74-.42.42,0,.96.01,1.16.01.63,0,.92.31.92.68,0,.18-.07.37-.21.55-.15.18-.81.97-1.25,1.42.47.44,1.03.82,1.71,1.14.22.1.31.28.31.45,0,.27-.23.53-.56.53-.71,0-2.83-1.88-3.88-4.01v.05c0,.46-.68,1.53-1.16,2.17h2.47c.27,0,.4.2.4.4,0,.21-.12.41-.4.41h-2.57c-.2,0-.32-.11-.37-.25-.3.33-.64.64-1.01.93h5.53c.27,0,.41.21.41.42,0,.22-.14.43-.41.43h-2.43ZM92.42,80.57c-.3,0-.52-.26-.52-.51,0-.17.1-.33.33-.42.64-.23,1.22-.63,1.65-1.18.09-.11.21-.17.32-.17.25,0,.5.24.5.5,0,.09-.04.19-.11.28-.46.54-1.71,1.49-2.17,1.49ZM99.09,80.32c-.38-.47-1.05-.85-1.63-1.14-.18-.08-.25-.23-.25-.37,0-.23.19-.45.45-.45.28,0,1.58.66,2.14,1.23.12.12.18.27.18.41,0,.28-.24.53-.51.53-.12,0-.26-.06-.37-.2Z" />
          <path class="cls-2"
            d="M103.14,81.11c-.32,0-.53-.25-.53-.51,0-.19.11-.38.38-.5,2.13-.87,2.72-2.42,2.72-3.9,0-.52-.07-1.02-.18-1.49-.1-.49-.33-.69-.58-.69s-.54.21-.77.5c-.45.58-.55,1.29-.57,2.21-.02.56-.29.81-.55.81-.52,0-.52-.69-.52-.83,0-.76.27-1.75.42-2.24.16-.53.42-1.29.54-1.92.05-.26.24-.36.44-.36.28,0,.59.22.59.54,0,.03-.01.06-.01.09-.05.35-.19.48-.32.73-.07.11-.08.16-.07.16.02,0,.08-.06.16-.14.31-.3.63-.45.94-.45,1.25,0,1.56,2.08,1.56,3.16,0,1.74-.76,3.63-3.32,4.74-.11.05-.22.07-.32.07Z" />
          <path class="cls-2"
            d="M38.09,78.67c-.26,0-.55-.06-.85-.2-.17-.07-.3-.19-.46-.26-.31-.16-.54-.23-.75-.23-.3,0-.56.16-.96.46-.1.07-.21.1-.31.1-.28,0-.54-.24-.54-.51,0-.12.05-.26.2-.37.51-.43,1.04-.79,1.67-.79.29,0,.59.07.94.24.14.06.26.15.38.21.26.12.47.18.68.18.3,0,.59-.14,1.01-.4.09-.06.19-.08.28-.08.28,0,.53.25.53.53,0,.15-.06.29-.21.42-.46.38-.98.71-1.61.71Z" />
        </g>
        <g>
          <path class="cls-2"
            d="M131.43,36.12l.45.43h-.37s.4.55.4.55c-.37.08-.68.24-.94.48-.35.36-.37.68-.08.97-.52-.2-.98-.18-1.39.05-1.87-.27-3.69-.74-5.45-1.41-.73-.42-1.42-.87-2.08-1.36-.93-.77-1.82-.89-2.67-.36.18.1.38.04.61-.17-.29.45-.67.81-1.14,1.07-.36-.2-.67-.17-.93.06l-.14.18-.14-.1-.1.27c-.06-.03-.11-.05-.14-.05-.16.12-.16.26-.01.42.24.25.48.52.71.81-.1.12-.12.23-.06.32h.09c-.1.22,0,.3.27.24-.1.18-.15.35-.15.5.15.13.21.31.17.56-.13.21-.14.41-.02.6-.13.37-.15.73-.03,1.11-.59.23-1.15.44-1.68.64-.97.37-1.96.57-2.97.6-.07.15-.21.21-.42.17-.28,0-.48.09-.61.3-1.14-.04-2.25-.04-3.32-.01-.58-.11-1.08-.34-1.5-.69-.91-.58-1.65-1.31-2.24-2.19.02-.61-.17-1.14-.55-1.59-.16.27-.37.44-.62.49.13-.21.27-.44.44-.68-.09-.1-.18-.13-.27-.1.04-.18.01-.37-.08-.56-.4.08-.69.29-.85.62-.77,1.02-1.64,1.93-2.62,2.73l-.77.9-.04-.05c-.38.24-.68.49-.9.76-.6.35-1.09.41-1.48.19.06-.03.13-.09.19-.18-.18-.16-.33-.13-.46.08l-.08-.28-.47.26c-.06-.16-.07-.33-.03-.51h-.18c-.05-.28-.2-.5-.44-.67l-.37.08.13.37c-.09.03-.16.07-.19.13l.22.19c-.06.09-.04.17.09.23-.22.02-.39.08-.51.17.22-.27.28-.59.17-.96l-.09-.1c-.16.3-.37.54-.62.72-.03-.12-.07-.25-.13-.37l-.19.18c.04-.18-.02-.32-.17-.42l-.19.18-.09-.14c.12.03.19-.02.19-.18,0-.09-.03-.17-.09-.23l-.28.22c-.54-.48-1.11-.93-1.71-1.35.19-.15.33-.13.41.06.07-.15.18-.23.33-.22-.24-.25-.48-.49-.72-.71.24.1.5.14.78.12.07-.3.26-.53.57-.67.12.03.22-.02.28-.18l-.04-.19c.28-.14.61-.2.97-.15.28-.11.51-.03.68.25.52-.05,1.02-.21,1.49-.51l-.37.03c.68-.22,1.31-.61,1.88-1.14.16-.15.24-.35.25-.59.38-.36.75-.75,1.1-1.17-.06-.09-.12-.1-.18,0l-.19.18c-.18-.16-.17-.34.02-.55.06.03.12.02.19-.04v-.18c-.8-.86-1.56-1.77-2.26-2.75.15.07.28.02.37-.13-.06-.09-.12-.17-.18-.24.31-.11.62-.27.94-.48,1.13.22,2.16.65,3.1,1.3.44-.29.79-.68,1.05-1.17l.77-1.08c-.66-.42-1.26-.92-1.8-1.49-.43.02-.75,0-.97-.08-.13.12-.23.13-.32.04.16-.18.1-.37-.17-.56l-.15.27c-.18-.28-.36-.35-.55-.2l-.14.09c-.33-.16-.59-.4-.76-.72.3.13.49.06.56-.21l.24-.18c-.4.11-.79.11-1.15.01.25-.24.28-.48.07-.74-.16.03-.22.12-.19.27,0,.12-.07.18-.19.18-.08-.46-.26-.65-.54-.57-.08-.25-.03-.49.16-.73-.12-.07-.24-.1-.37-.1-.43-.11-.7-.34-.81-.72-.27-.25-.4-.6-.38-1.03,0-.31.12-.53.34-.68l.23.15c.5-1.34,1.44-2.4,2.82-3.19l2.28-2.24c.28.04.5.18.68.44.53-.23,1.07-.23,1.62,0,2.28-1.22,4.74-1.47,7.36-.74.24.22.53.25.87.07.93.71,1.8,1.52,2.6,2.43-.11.43-.02.78.24,1.07l-.1.09c-.05.61-.05,1.21,0,1.8h-.14c-.04.43-.01.84.1,1.25-.23,1.53-.77,2.92-1.61,4.15-.29.48-.61.94-.96,1.36-.92.8-1.76,1.65-2.53,2.55-.89.93-1.79,1.81-2.71,2.64-.28.11-.5.28-.66.49.39.35.68.78.88,1.27-.19.15-.33.33-.43.54.9-.13,1.79-.28,2.69-.47,1.67-.38,3.39-.57,5.14-.58.48-.48.92-.99,1.34-1.53.28-.14.46-.4.53-.77-1.21-.81-2.49-1.43-3.87-1.87-.21-.04-.36-.16-.45-.38l.19-.18-.36-.29c.21,0,.36-.1.43-.31l-.13-.14c.12.03.23,0,.33-.13l-.14-.1c.37-.05.73-.22,1.08-.52,2.11-.46,4.2-.36,6.27.29l1.76-1.84c-.89-.12-1.75-.07-2.59.15l-.32-.24c-.06.06-.13.07-.19.04.04-.21-.08-.33-.36-.33-1.35-1.03-2.41-2.3-3.16-3.84.18-.7.27-1.42.3-2.16.35-.36.7-.76,1.05-1.21.19-.12.3-.28.34-.5.49-.08,1,.03,1.51.32l1.17,1.05c2.17-1.53,4.58-2.24,7.22-2.13.82.27,1.53.68,2.13,1.22.44.69.88,1.38,1.32,2.07-.04.25.02.45.17.61.05,1.48-.14,2.9-.55,4.28-.21.73-.54,1.38-.98,1.95-.69,1.3-1.67,2.26-2.95,2.86,1.8.49,3.39,1.38,4.76,2.69.2.35.44.66.71.95l-.14.13ZM95.96,41.17v.28s.18-.18.18-.18c-.03-.06-.09-.1-.18-.1ZM96.66,41.1h.09s.01-.37.01-.37h-.09s-.01.37-.01.37ZM122.31,47.43l-.29.54c2.7-.62,5.02-.01,6.96,1.83.2.5.42,1,.65,1.5,0,.68-.22,1.16-.69,1.46-.07.37-.22.67-.44.91l-.04-.09c-.14.4-.39.68-.76.85-.28,0-.45.08-.52.26l.13.42c-.46-.17-.84-.13-1.16.1-.46-.14-.84-.36-1.13-.68-.34.05-.65-.04-.92-.26-1.25-.44-2.38-1.07-3.4-1.91-.62.01-1.04-.29-1.26-.92-.38-.5-.71-1.05-.96-1.65.48-.45,1.02-.81,1.65-1.1.16-.09.25-.24.29-.45-1.32.02-2.63.1-3.93.25.05.34.2.62.44.84.29,1.42.16,2.77-.4,4.05-.44.32-.75.76-.92,1.31-.07.4-.27.59-.57.58-.47.17-.91.17-1.34,0-.22.12-.45.15-.7.12-.93.16-1.83-.01-2.71-.5l.06-.32c-.43.02-.8-.1-1.1-.36.03-.15-.09-.23-.36-.24-.21-.22-.39-.46-.53-.71l.2-.5c1.38-.94,2.14-2.2,2.29-3.76-1.49.48-2.95.49-4.39.05-.71.04-1.37-.15-1.97-.57-.12-.1-.26-.18-.41-.24.02.28.05.52.07.74.19.78.21,1.54.07,2.31.11.53-.07.91-.54,1.14-.12.03-.19.09-.19.18.11.43-.02.75-.4.96-1,.34-1.98.38-2.96.14-1.7-.79-2.7-2.1-3.02-3.92l.22-1.19c.32-.27.57-.61.77-1.04,1.18-.21,2.36-.31,3.56-.31l1.78.61c-1.02-.8-1.92-1.72-2.68-2.76.04-.28-.03-.52-.21-.75l.61-.3c-.09-.13-.15-.27-.17-.42.52.05,1.04.12,1.56.23,1.21-.27,2.46-.42,3.75-.44,1.91-.09,3.85-.11,5.82-.05,3.24-.15,6.2-1.07,8.9-2.77,1.29.19,2.44.71,3.46,1.54.27.07.53.25.77.53.48.51.63,1.07.46,1.68-.29,1.53-.72,2.47-1.26,2.82-.55.35-1.25.44-2.11.26ZM96.77,40.46l.19-.04c0-.12-.04-.25-.13-.37-.19.15-.21.29-.06.41ZM97.93,41.92l-.2.36c.61.02.99-.23,1.13-.75-.27-.16-.49-.14-.65.07.09,0,.18.04.27.1-.19.21-.38.31-.56.31.06-.03.11-.09.14-.18h-.37c.22-.22.41-.48.58-.78,0-.12-.07-.19-.22-.19-.25.21-.5.38-.75.53.09.16.04.31-.15.46.24.07.5.09.78.07ZM97.29,38.44l.33-.31c-.19.03-.31.11-.38.27l.04.05ZM97.39,39.83l.23-.13h-.09s-.14.13-.14.13ZM98.7,40.79v.18c.15.04.3,0,.46-.12l-.46-.06ZM99.27,37.3h.18s.43-.44.43-.44l-.61.44ZM100.17,36.5l-.1.32.28-.22-.18-.1ZM101.59,41.48h-.14c.11-.65.47-1.13,1.06-1.45v.14s.32-.17.32-.17c-.42.54-.83,1.04-1.25,1.48ZM104.68,27.91l.6.11c1.31-1.5,2.44-3.16,3.38-4.97l-.84.39c-1.07.92-2.1,1.84-3.09,2.77-.38.2-.75.38-1.12.52-.28.11-.5.26-.66.44.34.01.7-.02,1.09-.1.39-.08.6.2.64.85ZM112.51,31.39s.01.05.04.05c-.03,0-.05-.02-.04-.05ZM117.01,36.74h.14s.15-.27.15-.27l-.29.27ZM118.6,36.14h.09c.12-.05.19-.16.19-.31l-.29.31Z" />
          <path class="cls-2"
            d="M0,15.72l.52-.36c-.43-.74-.56-1.46-.37-2.19-.13-.93.1-1.76.69-2.5l-.07-.06c.31-.1.52-.29.64-.56.48-.16.87-.46,1.16-.92l.07.06c.76-.79,1.67-1.39,2.72-1.79,2.51-1.49,5.17-2.73,7.97-3.7l-.29-.59c1.09.53,2.18.48,3.26-.15,1.2-.05,2.39-.18,3.59-.36.45.16.92.22,1.41.2,2.45.07,4.32,1.14,5.62,3.21.37.21.73.43,1.1.68-.29.46-.27.9.06,1.33.86,1.38,1.11,2.84.73,4.37-1.57,2.74-3.87,4.38-6.92,4.92-.87.49-1.76.84-2.69,1.06-1.44.69-2.19,1.76-2.26,3.21-.07,1.45-.32,2.78-.75,4.01.02.53-.02,1.07-.13,1.61-.39.33-.55.69-.48,1.09.18.08,1.29,0,3.33-.22,2.04-.23,5.1.1,9.19.98-.38-.47-.29-.94.27-1.41.47-.42.87-.91,1.2-1.46,1.84-.57,3.52-.27,5.05.9,1.17,1.19,1.97,2.6,2.4,4.23l-.44,2.02c2.56,2.38,4.42,5.2,5.6,8.49l-.11.61c-1.2.01-2.09-.46-2.67-1.41-.61-1.71-1.53-3.22-2.74-4.55-.16.45-.23.9-.21,1.34l-1.11,3.39c-.54.83-1.06,1.61-1.56,2.34-1.96,3.87-4.88,6.7-8.76,8.48-.69.57-1.43.91-2.22,1.04-1.41.24-2.81.44-4.18.59v-.2c-.32.06-.6.14-.87.24-.1-.17-.22-.35-.36-.52-1.94.4-3.9.34-5.88-.2-2.16-1.5-4.11-3.24-5.85-5.2-.5-1.13-1.17-2.19-2.01-3.18-.29-.52-.45-1.09-.48-1.71h-.13c-.32-1.09-.44-2.22-.36-3.38.29-.41.34-.91.13-1.47h.13c.03-.41.12-.83.28-1.29.05.04.1.15.15.33.19-.63.48-1.27.85-1.91.78-1.37,1.91-2.49,3.38-3.36,1.04-.54,2.13-1.01,3.27-1.42l-.86-7.04c-.72-.19-1.42-.34-2.09-.44-1.34-.16-2.65-.48-3.91-.96-.38-.56-.72-1.12-1.01-1.69-1.05-.62-1.67-1.55-1.86-2.78l-.13.14c.07-.49-.08-.84-.45-1.05l-.57-.84ZM13.01,35.95l-.21-.19c-.89.93-1.81,1.8-2.75,2.6-.85,1.82-1.32,3.69-1.41,5.6-.09.94.32,1.68,1.24,2.21l.19-.28.49.58c.54.11,1.1.17,1.68.19.56-.38,1.22-.66,1.96-.82,1.14-.27,2.28-.62,3.42-1.02.21-.28.49-.47.84-.57.53-.07.92-.35,1.16-.85.23.12.05.11-.54-.04-.87-.54-1.6-1.07-2.18-1.6-.58-.53-1.01-.99-1.3-1.38.09.09.06.08-.1-.03-.16-.1-.54-.52-1.13-1.25-.59-.73-1.03-1.78-1.31-3.14.06.26.02.42-.11.47-.13.05-.12-.11.05-.47ZM11.1,29.23h-.07s.03.6.03.6h.07s-.03-.6-.03-.6ZM16.13,34.14l-.14-.06.02.33c.21.61.41,1.21.62,1.77l1.4,1.4c-.22.1-.38.06-.47-.11.41.2.87.51,1.38.9.51.4,1.26,1.38,2.27,2.93,3.23-2.33,5.72-5.36,7.46-9.09-1.89-.4-3.81-.58-5.76-.54l-.05.4c-2.13.05-4.16.46-6.08,1.21-.43.24-.63.5-.6.76.03.27.02.29-.03.07ZM20.06,41.23c-.09-.04-.07-.04.07,0v.27s-.07-.26-.07-.26ZM20.35,40.29l1.04.89c-.45-.2-.8-.5-1.04-.89Z" />
          <path class="cls-2"
            d="M38.87,49.67l.61-1.47c.26-.01.47-.15.65-.41l-.06-.19c.81.22,1.64.39,2.47.51.09-.13.23-.25.42-.36,3.26-.18,5.91,1.03,7.95,3.62.15.51.14,1-.03,1.49.12,1.85-.64,3.26-2.26,4.24-1.08-.4-2.17-.75-3.27-1.05-.44-.56-1.03-.9-1.78-1.02-1.15-.52-2.04-1.19-2.69-1.99-.65-.8-1.32-1.93-2.03-3.37ZM41.17,18.04l-.22-.66c1.74.3,3.19,1.15,4.35,2.54,1.38-.67,2.84-1.22,4.39-1.64.39.11.77.06,1.15-.15,1.12.01,2.2.22,3.25.62,1.18.56,1.99,1.43,2.43,2.63-.23.65-.18,1.31.14,1.99.32.67.19,1.27-.4,1.77-1.14,1.01-2.06,2.15-2.78,3.4-.78.55-1.55,1.05-2.33,1.5-.38.11-.71.27-.99.48.2.92.42,1.81.65,2.66,1.77-1.27,3.69-1.64,5.76-1.13.52.2.94.53,1.25,1-.06.19-.06.37-.02.53.88.38,1.25,1.1,1.11,2.16.18,1.11,0,2.16-.53,3.15-1.02.82-1.92,1.72-2.71,2.72-.44.24-.58.57-.44.98l1.23,2.78-.14.2c.16.67.52,1.31,1.1,1.94.57.63.5,1.22-.21,1.76-.56.31-1.15.41-1.77.27-.23-.15-.48-.25-.73-.3.03-.03.04-.08.04-.15-.1-.09-.18-.07-.24.06-.2-.21-.4-.43-.61-.65-.55,0-.75-.25-.61-.74-.5-1.07-1.09-2.11-1.78-3.14-.86.04-1.69-.16-2.48-.61-1.77-.78-3.14-2-4.11-3.66l-.2-.18.27-.35c-.27-.24-.28-.55-.04-.91l.18-.2-.2-.18c.56-1.11,1.35-2.06,2.37-2.85-.16-.67-.43-1.31-.81-1.93,0-.77-.34-1.19-1.02-1.25s-1.26-.26-1.76-.59c-1.41-.67-2.73-1.49-3.96-2.46-.35-.69-.8-1.31-1.33-1.86.14-.42.31-.85.52-1.27l.02-.58c.34-.24.5-.57.48-.98.22-.07.34-.26.36-.55.76-.87,1.61-1.68,2.53-2.42-.17-.28-.25-.61-.24-1-.24-.95-.55-1.86-.94-2.74Z" />
          <path class="cls-2"
            d="M64.28,29.64l.18-1.98c.17-.19.15-.41-.08-.67.31-.49.48-1.01.51-1.55.1-.39.23-.79.39-1.18-2.35-.46-4.16-1.69-5.42-3.7-.29-1.81.13-3.44,1.26-4.9l-.09-.09c.89-.88,1.82-1.74,2.8-2.6,1.72-1.51,3.71-2.5,5.96-2.96,1.9-.24,3.58.22,5.04,1.38,1.5,1.46,2.3,3.21,2.39,5.27,1.12.94,1.56,2.07,1.32,3.39.21,1.4-.26,2.48-1.42,3.25-3.69,3.04-5.84,6.95-6.46,11.73,0,.15-.05.3-.16.46.06,1.34.4,2.61,1.03,3.81.09.59.31,1.14.66,1.63h.27s-.09.08-.09.08c1.9,1.08,3.78.99,5.64-.26.98-.73,1.98-1.47,2.99-2.2l.21-.37c.03.06.08.12.14.17.41-.26.64-.63.71-1.11l.35-.11s.03-.06.09-.09c-.02.12,0,.21.1.26.14-.1.18-.25.11-.45,0,.09.05.15.14.17.85-.97,1.48-2.06,1.87-3.27-.02.12,0,.21.1.26.44-.29.71-.71.84-1.25-.02.15.01.24.1.26.13-.48.19-.98.2-1.49.12-.06.18-.22.2-.46l.05.09c.28-.49.43-1.07.46-1.73.01-.42,0-.85-.06-1.3.08-.78.03-1.57-.15-2.37-.15-.08-.23-.21-.24-.39.52.28,1.07.49,1.64.64,1.23-1.1,2.67-1.54,4.29-1.32,2.59.99,4.43,2.79,5.54,5.4.27.74.31,1.45.1,2.15-.24.73-.69,1.18-1.37,1.36-.84-.05-1.61.06-2.32.33-.77.1-1.48-.07-2.13-.49l-.54,1.01c-.16-.14-.17-.35-.03-.63-.37.38-.61.81-.7,1.29-2.39,4.54-5.68,8.23-9.85,11.08l.14.08c.56-.18,1.09-.44,1.58-.79.68-.21,1.24-.6,1.7-1.15.11-.15.26-.22.44-.2.34-.34.73-.66,1.17-.95l-.03.27c-1.96,1.7-4.06,3.13-6.31,4.28-.6-.12-1.19-.14-1.75-.05-.74.21-1.36.09-1.86-.36-.35-.43-.83-.56-1.45-.38-.18.07-.32.16-.44.29.17.35.46.55.88.59-1.38-.18-2.71-.5-3.99-.98l-.08.23c-.04-.18-.12-.28-.24-.3.01.27-.09.39-.3.37-.76-.35-1.4-.85-1.91-1.48l.04-.05-2.2-1.96c.07-.39-.06-.7-.4-.92l.08-.18c-2.5-2.4-3.69-4.56-3.57-6.5.12-1.93.75-4.08,1.9-6.43ZM64.85,25.62v.09c-.06-.09-.07-.14-.03-.16.04-.02.05,0,.03.07ZM78.75,47.05l.14-.86c-.65.18-1.04.33-1.17.46-.13.12.21.26,1.03.4ZM84.57,42.88l-.32-.03c-.94,1.06-2.04,1.9-3.29,2.53.53-.14,1.01-.39,1.45-.74.88-.37,1.6-.95,2.16-1.76ZM85.2,41.96v-.09c-.15.19-.18.38-.11.59.2-.16.24-.32.11-.5ZM86.45,40.82l-.21.28c-.14-.41-.25-.32-.35.28h.22c.17-.14.28-.32.33-.56ZM87.18,40.03l.09-.09c-.29-.41-.4-.3-.34.33.09-.06.17-.14.26-.24ZM88.56,37.81h-.18s-.07.42-.07.42c.18,0,.26-.15.25-.42ZM88.67,37.45c.24.08.26.15.05.22l-.02-.36-.04.14ZM90.58,34.89l-.54-.06c-.37.47-.47.93-.29,1.4.02-.24.1-.44.24-.59s.34-.4.59-.74ZM93.37,12.7l1.28.43c.82.2,1.39.68,1.73,1.45.14,1.19-.28,2.12-1.26,2.79-.7.3-1.42.39-2.14.28-.69-.66-1.29-1.41-1.81-2.25-.04-.18-.14-.35-.29-.52l-.08.23-.13-.89c.81-.63,1.71-1.14,2.71-1.51ZM96.05,9.61l1.29-.33c1.47.05,2.83.51,4.1,1.38.75.8.97,1.69.66,2.66-.14.93-.58,1.61-1.34,2.04l.04-.05c-1.93.39-3.55-.18-4.88-1.71-.47-.4-.83-.87-1.1-1.43.1.12.21-.08.33-.58.13-.5.42-1.16.9-1.99Z" />
        </g>
        <path class="cls-2"
          d="M61.12,62.7c-.32.94-.87,1.49-2.12,1.49-.05,0-.11,0-.15,0-.62-.02-1.29-.03-1.96-.04-.87,0-1.72.01-2.42.05-.02,0-.05,0-.06,0-.58,0-.96-.43-.96-.9,0-.43.23-.65.54-.84.18-.12.4-.27.58-.47,4.54-4.77,4.63-5.47,4.63-6.28,0-1.01-.76-1.65-1.62-1.65-.64,0-1.34.35-1.82,1.17-.18.32-.47.44-.75.44-.44,0-.87-.32-.87-.78,0-.64,1.24-2.34,3.42-2.34,1.74,0,3.41,1.14,3.4,3,0,.85-.34,1.83-1.17,2.94-1.1,1.47-2.51,2.69-3.76,4.03-.03.03-.05.06-.05.09,0,.03.03.06.12.06.53-.03,1.74,0,2.45-.05.87-.07.96-.48,1.19-1.18.15-.49.5-.68.85-.68.43,0,.85.32.85.82,0,.09-.02.2-.06.32l-.28.81Z" />
        <path class="cls-2"
          d="M65.97,60.46c-.06-.66-.09-1.29-.09-1.93,0-.59.03-1.19.08-1.81.22-2.65,1.67-4.11,3.74-4.1,2.04,0,3.47,1.4,3.7,3.94.06.67.1,1.34.1,2,0,1.48-.06,5.88-3.84,5.87-2.03,0-3.47-1.4-3.7-3.96ZM71.67,60.53c.09-.67.14-1.42.14-2.16,0-.56-.03-1.13-.07-1.65-.15-1.6-.94-2.56-2.03-2.56s-1.91.97-2.06,2.61c-.05.52-.08,1.05-.08,1.57,0,.67.04,1.36.12,2.01.18,1.55,1,2.49,2,2.49.96,0,1.77-.86,1.99-2.31Z" />
        <path class="cls-2"
          d="M85.49,62.77c-.32.94-.87,1.49-2.12,1.49-.05,0-.11,0-.15,0-.62-.02-1.29-.03-1.96-.04-.87,0-1.72.01-2.42.05-.02,0-.05,0-.06,0-.58,0-.96-.43-.96-.9,0-.43.23-.65.54-.84.18-.12.4-.27.58-.47,4.54-4.77,4.63-5.47,4.63-6.28,0-1.01-.76-1.65-1.62-1.65-.64,0-1.34.35-1.82,1.17-.18.32-.47.44-.75.44-.44,0-.87-.32-.87-.78,0-.64,1.24-2.34,3.42-2.34,1.74,0,3.41,1.14,3.4,3,0,.85-.34,1.83-1.17,2.94-1.1,1.47-2.51,2.69-3.76,4.03-.03.03-.05.06-.05.09,0,.03.03.06.12.06.53-.03,1.74,0,2.45-.05.87-.07.96-.48,1.19-1.18.15-.49.5-.68.85-.68.43,0,.85.32.85.82,0,.09-.02.2-.06.32l-.28.81Z" />
        <g>
          <path class="cls-2"
            d="M41.41,5.32c0,.17-.15.26-.31.26s-.3-.08-.3-.26h0s.03-2.07.03-2.07c-.51.92-.69.93-.79.93-.16,0-.31-.13-.31-.28,0-.07.03-.14.09-.2.32-.32.75-.92,1.01-1.5v-.07h-.62s0,.01,0,.01c-.19,0-.28-.12-.28-.26s.1-.28.29-.28h.61v-.54c-.23.04-.51.09-.56.09-.18,0-.27-.15-.27-.29,0-.13.07-.24.22-.26.55-.06.95-.15,1.45-.36.03-.01.07-.02.1-.02.15,0,.27.14.27.29,0,.17-.09.24-.62.41,0,.13,0,.38-.01.68h.46c.18,0,.27.14.27.27s-.09.26-.27.26h-.48s0,.56,0,.56c.03,0,.06-.01.08-.01.16,0,.61.42.72.57.05.06.07.12.07.19,0,.16-.14.29-.29.29-.08,0-.16-.04-.22-.12-.09-.13-.24-.3-.37-.42,0,.93.03,2.12.03,2.12h0ZM41.9,5.47c-.17,0-.3-.13-.3-.27,0-.09.05-.18.16-.24,1.29-.73,1.49-2,1.49-3.43,0-.34,0-.68-.02-1.03h0c0-.21.14-.31.29-.31s.29.09.29.29c0,.15,0,.29,0,.44,0,.21,0,.41-.01.62,0,.03,0,.05,0,.08,0,.26.02.51.06.76.31-.27.6-.58.86-.92.06-.07.13-.1.2-.1.16,0,.32.14.32.32,0,.08-.03.16-.1.23-.32.36-.78.76-1.16,1.05.22.78.66,1.41,1.27,1.82.11.07.16.18.16.27,0,.17-.14.33-.32.33-.29,0-1.15-.76-1.5-2.14-.41,1.69-1.5,2.24-1.71,2.24ZM42.1,2.86s.01-.1.04-.16c.1-.22.14-.5.14-.76,0-.11-.01-.21-.02-.31,0-.02,0-.04,0-.06,0-.16.13-.24.27-.24.31,0,.31.29.31.62,0,.46-.07,1.14-.47,1.14-.14,0-.26-.09-.26-.24Z" />
          <path class="cls-2"
            d="M50.34,5.25c-.55.02-1.09.03-1.62.03-.44,0-.87-.01-1.27-.03-.54-.03-.82-.29-.84-.74-.01-.37-.02-.99-.02-1.59,0-.52,0-1.03.01-1.36.01-.52.24-.84.84-.86.52-.01,1.08-.03,1.62-.03.45,0,.89,0,1.29.03.38.02.75.28.76.72.01.37.02.94.02,1.5,0,.62,0,1.24-.02,1.56-.01.43-.32.75-.77.76ZM48.53,1.21c-1.23,0-1.32.02-1.34.43,0,.25-.01.59-.02.94h1.36v-1.37ZM48.53,3.12h-1.36c0,.46,0,.89.01,1.18.01.41.14.43,1.35.43v-1.61ZM50.55,2.59c0-.36-.01-.7-.02-.94-.01-.43-.11-.43-1.42-.43v1.37h1.44ZM49.11,3.12v1.61c.32,0,.65-.01.94-.02.35,0,.47-.16.48-.43.01-.3.02-.72.02-1.16h-1.44Z" />
          <path class="cls-2"
            d="M52.42,3.13c0-.09.05-.19.17-.27.6-.38.92-.82,1.22-1.38.07-.14.18-.19.29-.19.17,0,.33.14.33.31,0,.32-1.17,1.83-1.67,1.83-.19,0-.33-.15-.33-.31ZM53.14,5.41c-.2,0-.31-.16-.31-.32s.1-.31.29-.31c.2,0,.41-.03.62-.04.23-.43.61-1.44.77-2.11.04-.16.17-.23.31-.23.18,0,.37.12.37.31,0,.17-.45,1.35-.76,1.98.62-.06,1.26-.16,1.82-.26-.14-.19-.31-.37-.47-.54-.07-.07-.09-.14-.09-.2,0-.15.14-.28.31-.28.08,0,.16.03.24.1.82.75,1.1,1.41,1.1,1.57,0,.21-.19.37-.38.37-.12,0-.24-.07-.29-.23-.03-.1-.07-.2-.12-.29-1.81.4-3.38.49-3.4.49ZM54.37,1.03h-.01c-.19,0-.29-.14-.29-.29s.09-.28.29-.29l1.01-.03h.03c.31,0,.59.11.72.39.36.74.8,1.3,1.54,1.76.13.08.18.19.18.29,0,.19-.16.37-.37.37-.33,0-1.26-.84-1.83-2.04-.06-.14-.18-.19-.36-.19h-.03l-.87.03Z" />
          <path class="cls-2"
            d="M58.91,5.29c-.21,0-.31-.14-.31-.29s.1-.29.31-.29h2.5c.31-.73.65-1.87.75-2.44.03-.16.16-.24.29-.24.17,0,.36.12.36.32,0,.24-.57,1.84-.8,2.36h1.76c.19,0,.29.15.29.29s-.09.28-.29.28h-4.86ZM59.29,1.87c-.19,0-.29-.14-.29-.29s.09-.28.29-.28h1.74s0-.83,0-.83c0-.19.16-.29.33-.29s.33.1.33.29v.84s1.69-.01,1.69-.01c.2,0,.3.14.3.29s-.1.28-.3.28h-4.08ZM60.41,4.17c-.09-.52-.3-1.14-.54-1.63-.02-.04-.03-.09-.03-.13,0-.17.16-.29.32-.29.11,0,.22.05.28.18.28.62.6,1.6.6,1.79,0,.22-.17.36-.34.36-.14,0-.27-.09-.3-.28Z" />
          <path class="cls-2"
            d="M69.9,4.05l-1.82-.03c.36.51.99.9,1.91.92.22,0,.32.15.32.29,0,.17-.12.34-.36.34-.07,0-1.52-.05-2.33-1.26-.64,1.22-2.38,1.31-2.38,1.31-.21,0-.32-.16-.32-.31,0-.13.08-.26.26-.28,1.09-.13,1.69-.45,1.95-1l-1.81.03h0c-.17,0-.26-.13-.26-.26s.09-.27.27-.27h1.95c.01-.07.02-.15.02-.22,0-.11.04-.19.1-.24h-2.11c-.18,0-.27-.12-.27-.24,0-.13.09-.26.27-.26h2.01s0-.38,0-.38h-1.4c-.17,0-.26-.11-.26-.22,0-.12.09-.25.26-.25h1.4v-.37h-1.76c-.18,0-.27-.11-.27-.23,0-.12.09-.26.27-.26h1.09c-.09-.15-.21-.27-.32-.39-.04-.04-.06-.09-.06-.14,0-.13.16-.25.31-.25.25,0,.71.57.71.78h.31s.4,0,.4,0c.13-.2.25-.46.32-.65.05-.14.16-.19.26-.19.17,0,.34.12.34.29,0,.12-.17.36-.31.54h1.08c.17,0,.26.12.26.25s-.09.24-.26.24h-1.77s0,.37,0,.37h1.42c.16,0,.24.12.24.24s-.08.24-.24.24h-1.42s0,.38,0,.38h2.04c.17,0,.26.12.26.25s-.09.26-.26.26h-2.14c.05.04.09.11.09.19,0,.06-.02.24-.03.27h2.05c.17,0,.26.13.26.26s-.09.26-.26.26h0Z" />
          <path class="cls-2"
            d="M73.46,1.77h-.57c-.07,0-.12-.01-.16-.04,0,.02,0,.04,0,.06,0,.07-.02.18-.45.66l-.07,2.92c0,.17-.16.26-.3.26s-.29-.08-.29-.25h0s.09-2.38.09-2.38c-.35.29-.46.36-.56.36-.16,0-.28-.14-.28-.29,0-.09.04-.17.14-.23.44-.26.87-.69,1.21-1.19.06-.1.14-.14.22-.14.06,0,.11.02.16.06,0-.02,0-.03,0-.05,0-.13.1-.27.29-.27h.56s-.01-.78-.01-.78h0c0-.19.14-.29.29-.29s.29.09.29.28h0s-.02.79-.02.79h.64c.18,0,.27.13.27.26s-.09.27-.27.27h-.64s0,3.45,0,3.45c0,.19-.14.29-.28.29s-.29-.09-.29-.29V1.77ZM71.22,1.96c-.17,0-.28-.13-.28-.27,0-.09.04-.19.16-.25.43-.25.79-.62,1.06-1.06.06-.1.14-.14.22-.14.15,0,.3.14.3.31,0,.05-.02.11-.05.17-.13.23-.99,1.24-1.41,1.24ZM72.64,4.5c-.12,0-.24-.09-.24-.23,0-.04.01-.09.04-.15.19-.41.32-1.07.36-1.52.01-.16.12-.24.24-.24.13,0,.27.09.27.28,0,.41-.14,1.19-.36,1.64-.07.15-.19.22-.31.22ZM74.46,1.08c-.09-.17-.22-.29-.34-.39-.04-.04-.06-.08-.06-.12,0-.1.12-.2.25-.2.2,0,.57.35.57.53,0,.15-.14.27-.26.27-.06,0-.11-.03-.15-.1ZM74.43,4.04c-.02-.45-.13-.94-.29-1.35-.01-.04-.02-.07-.02-.1,0-.14.12-.22.24-.22.09,0,.18.04.24.15.31.59.39,1.39.39,1.46,0,.22-.16.35-.31.35-.12,0-.24-.09-.25-.28ZM75.42,2.46h-.51c-.18,0-.27-.14-.27-.27s.09-.27.27-.27h1.42c.19,0,.28.14.28.27s-.09.27-.28.27h-.32v2.27s.01,0,.01.01c0,.34-.21.81-.91.81-.65,0-.7-.21-.7-.36s.09-.28.24-.28c.02,0,.06,0,.08.01.13.04.25.06.36.06.19,0,.33-.09.33-.37v-2.17ZM75.16,1.02c-.19,0-.29-.14-.29-.28s.09-.28.29-.28h.97c.2,0,.3.14.3.28s-.1.28-.3.28h-.97Z" />
          <path class="cls-2"
            d="M82.4,2.3l-1.89-.03c.41,1.27,1.2,2.1,2.19,2.53.14.06.19.17.19.28,0,.19-.17.41-.39.41-.34,0-1.71-.97-2.34-2.52-.36,1.06-1.09,1.99-2.33,2.54-.06.02-.11.04-.16.04-.2,0-.34-.17-.34-.34,0-.11.06-.22.21-.29,1.36-.56,1.92-1.57,2.14-2.65l-1.91.03h0c-.21,0-.31-.15-.31-.3s.11-.31.32-.31h1.99c.04-.56.04-.94.04-.99v-.25h0c0-.21.16-.3.33-.3s.34.1.34.29v.14c0,.29-.01.59-.03.87l-.02.24h1.98c.21,0,.31.16.31.31s-.11.31-.31.31h0Z" />
          <path class="cls-2"
            d="M87.13,3.95c.01.09.02.18.02.27,0,.56-.26,1.41-1.35,1.41-.49,0-.75-.13-.75-.37,0-.16.12-.29.29-.29.03,0,.06,0,.1.01.14.04.28.07.41.07.7,0,.7-.84.7-.89,0-.07,0-.14-.02-.21h-2.65c-.19.01-.29-.12-.29-.26s.1-.29.28-.29h2.31c-.07-.04-.16-.09-.25-.12-.13-.04-.19-.13-.19-.21,0-.13.14-.26.33-.26.14,0,.27.07.37.12.16-.11.49-.34.49-.41,0-.03-.02-.04-.07-.04-.07,0-.19,0-.33,0-.4,0-1.01.01-1.44.03h-.01c-.19,0-.28-.13-.28-.26s.09-.26.29-.26c.27-.01.61-.01.94-.01.46,0,.91,0,1.2.01.36,0,.51.19.51.38,0,.31-.33.56-.89.91.03.04.06.09.09.13l1.86-.02c.18,0,.27.14.27.29s-.09.27-.27.27h-1.67ZM88.16,1.95c0-.26-.14-.31-.39-.31-.5,0-1.06-.01-1.61-.01-.44,0-.88,0-1.27.01-.34,0-.4.09-.42.31v.36h0c0,.18-.16.28-.32.28-.14,0-.29-.09-.3-.28,0-.08,0-.18,0-.27,0-.11,0-.21,0-.31.01-.29.24-.59.73-.6h.52s-.06-.06-.08-.09c-.13-.22-.27-.3-.44-.45-.06-.05-.08-.11-.08-.16,0-.14.16-.27.32-.27.24,0,.72.47.72.69,0,.11-.08.22-.18.27.55,0,1.09,0,1.64,0,.18-.21.34-.57.44-.82.06-.14.17-.2.28-.2.17,0,.36.13.36.31,0,.12-.2.42-.46.72.14,0,.29,0,.44,0,.37,0,.71.21.72.59,0,.09,0,.22,0,.34,0,.09,0,.17,0,.23-.01.18-.17.27-.33.27s-.31-.09-.31-.26h0v-.36ZM86.39,1.09c-.09,0-.17-.04-.21-.15-.09-.23-.22-.37-.37-.54-.04-.04-.06-.09-.06-.14,0-.13.16-.24.32-.24.32,0,.66.61.66.76,0,.17-.18.31-.34.31Z" />
          <path class="cls-2"
            d="M96.67,2.3l-1.89-.03c.41,1.27,1.2,2.1,2.19,2.53.14.06.19.17.19.28,0,.19-.17.41-.39.41-.34,0-1.71-.97-2.34-2.52-.36,1.06-1.09,1.99-2.33,2.54-.06.02-.11.04-.16.04-.2,0-.34-.17-.34-.34,0-.11.06-.22.21-.29,1.36-.56,1.92-1.57,2.14-2.65l-1.91.03h0c-.21,0-.31-.15-.31-.3s.11-.31.32-.31h1.99c.04-.56.04-.94.04-.99v-.25h0c0-.21.16-.3.33-.3s.34.1.34.29v.14c0,.29-.01.59-.03.87l-.02.24h1.98c.21,0,.31.16.31.31s-.11.31-.31.31h0Z" />
          <path class="cls-2"
            d="M101.4,3.95c.01.09.02.18.02.27,0,.56-.26,1.41-1.35,1.41-.49,0-.75-.13-.75-.37,0-.16.12-.29.29-.29.03,0,.06,0,.1.01.14.04.28.07.41.07.7,0,.7-.84.7-.89,0-.07,0-.14-.02-.21h-2.65c-.19.01-.29-.12-.29-.26s.1-.29.28-.29h2.31c-.07-.04-.16-.09-.25-.12-.13-.04-.19-.13-.19-.21,0-.13.14-.26.33-.26.14,0,.27.07.37.12.16-.11.49-.34.49-.41,0-.03-.02-.04-.07-.04-.07,0-.19,0-.33,0-.4,0-1.01.01-1.44.03h-.01c-.19,0-.28-.13-.28-.26s.09-.26.29-.26c.27-.01.61-.01.94-.01.46,0,.91,0,1.2.01.36,0,.51.19.51.38,0,.31-.33.56-.89.91.03.04.06.09.09.13l1.86-.02c.18,0,.27.14.27.29s-.09.27-.27.27h-1.67ZM102.43,1.95c0-.26-.14-.31-.39-.31-.5,0-1.06-.01-1.61-.01-.44,0-.88,0-1.27.01-.34,0-.4.09-.42.31v.36h0c0,.18-.16.28-.32.28-.14,0-.29-.09-.3-.28,0-.08,0-.18,0-.27,0-.11,0-.21,0-.31.01-.29.24-.59.73-.6h.52s-.06-.06-.08-.09c-.13-.22-.27-.3-.44-.45-.06-.05-.08-.11-.08-.16,0-.14.16-.27.32-.27.24,0,.72.47.72.69,0,.11-.08.22-.18.27.55,0,1.09,0,1.64,0,.18-.21.34-.57.44-.82.06-.14.17-.2.28-.2.17,0,.36.13.36.31,0,.12-.2.42-.46.72.14,0,.29,0,.44,0,.37,0,.71.21.72.59,0,.09,0,.22,0,.34,0,.09,0,.17,0,.23-.01.18-.17.27-.33.27s-.31-.09-.31-.26h0v-.36ZM100.66,1.09c-.09,0-.17-.04-.21-.15-.09-.23-.22-.37-.37-.54-.04-.04-.06-.09-.06-.14,0-.13.16-.24.32-.24.32,0,.66.61.66.76,0,.17-.18.31-.34.31Z" />
          <path class="cls-2"
            d="M107.18,3.68v1.04s0,0,0,.01c0,.37-.3.79-.96.79-.44,0-.61-.12-.61-.34,0-.14.09-.27.25-.27.03,0,.05,0,.08,0,.08.02.17.03.26.03.22,0,.41-.08.41-.34v-.92h-1.31c-.17,0-.26-.14-.26-.26,0-.03,0-.05,0-.07-.25.16-.57.31-.69.31-.16,0-.29-.14-.29-.27,0-.1.06-.2.22-.25.35-.12.67-.32.96-.57-.11-.06-.21-.1-.31-.13-.11-.04-.16-.12-.16-.21,0-.14.11-.28.27-.28.13,0,.36.13.55.26.08-.09.16-.19.22-.28-.12-.08-.22-.11-.34-.15-.11-.04-.16-.12-.16-.21,0-.13.11-.27.26-.27.09,0,.3.08.51.22.08-.15.19-.37.19-.42,0-.06-.07-.08-.11-.08-.14,0-.41,0-.64.01-.12.18-.8,1.12-1.16,1.12-.16,0-.28-.11-.28-.25,0-.09.05-.18.17-.27.46-.34.82-.8,1.08-1.34.06-.12.15-.17.24-.17.14,0,.29.12.29.28,0,.04-.01.09-.04.15l-.03.05c.23,0,.48-.01.61-.01.19,0,.32.06.4.14,0-.02,0-.03,0-.05,0-.16.14-.26.27-.26.09,0,.18.05.22.15.18.39.4.79.7,1.15.09-.1.5-.58.5-.66,0-.06-.08-.08-.14-.08h-.56s0,0,0,0c-.17,0-.26-.12-.26-.24,0-.25.23-.25.44-.25.25,0,.57,0,.7,0,.38,0,.55.19.55.41,0,.11-.04.22-.12.33-.09.11-.49.58-.75.86.28.26.62.49,1.02.69.13.06.19.17.19.27,0,.16-.14.32-.34.32-.42,0-1.7-1.13-2.33-2.41v.03c0,.27-.41.92-.7,1.31h1.49c.16,0,.24.12.24.24,0,.12-.08.24-.24.24h-1.54c-.12,0-.19-.07-.22-.15-.18.2-.39.39-.61.56h3.32c.16,0,.24.12.24.25,0,.13-.08.26-.24.26h-1.46ZM104.66,5.26c-.18,0-.31-.16-.31-.31,0-.1.06-.2.2-.25.39-.14.73-.38.99-.71.06-.07.12-.1.19-.1.15,0,.3.14.3.3,0,.06-.02.11-.07.17-.27.32-1.02.89-1.31.89ZM108.66,5.11c-.23-.28-.63-.51-.98-.69-.11-.05-.15-.14-.15-.22,0-.14.11-.27.27-.27.17,0,.95.39,1.29.74.07.08.11.16.11.24,0,.17-.14.32-.31.32-.07,0-.16-.04-.22-.12Z" />
        </g>
      </g>
      <path class="cls-1"
        d="M93.58,64.39c-1.75,0-3.33-.86-3.33-1.72,0-.46.35-.85.78-.85.17,0,.35.06.53.21.62.55,1.38.78,2.08.78,1.69,0,2.47-1.21,2.47-2.32,0-1.04-.68-2.06-2.11-2.06-.43,0-.84.09-1.22.21-.21.08-.37.2-.59.21-.08,0-.15.01-.23.01-.67,0-1.08-.31-1.08-1.02,0-.52.48-3.46.54-3.84.15-.82.52-1.2,1.48-1.2.03,0,.06,0,.11,0,.12,0,.49.02,3.18.02.52,0,.79.4.79.79,0,.38-.26.78-.78.77-.43,0-2.47-.02-2.94-.02-.3,0-.43.17-.47.44-.08.53-.31,1.75-.36,2.06,0,.05-.02.08-.02.11,0,.14.06.18.15.18.11,0,.23-.05.35-.08.27-.06.69-.1,1.14-.1,2.67,0,3.68,1.81,3.68,3.5,0,1.96-1.46,3.91-4.17,3.9Z" />
    </g>
  </g>
</svg>
